M48
;Layer_Color=9474304
;FILE_FORMAT=4:4
METRIC,LZ
;TYPE=PLATED
T1F00S00C0.4000
T2F00S00C1.5000
T3F00S00C10.0000
T4F00S00C20.0000
;TYPE=NON_PLATED
T5F00S00C0.7000
%
T01
X01190634Y00072189
Y00082729
Y00093268
Y00103808
Y00114348
Y00124888
Y00135429
Y00145969
Y00156509
Y00167049
Y00177589
Y00188129
Y00198669
Y00209209
Y00219749
Y00230289
Y00240829
Y00251369
Y00261909
Y00272449
Y00282989
Y00293529
Y00304069
Y00314609
Y00325149
Y00335689
Y00346229
Y00356769
Y00367309
X01220002Y00370001
X01240002
X01260002
X01250002Y00350001
X01230002
X01210002
X01220002Y00330001
X01240002
X01260002
X01250002Y00310001
X01230002
X01210002
X01220002Y00290001
X01240002
X01260002
X01250002Y00270001
X01230002
X01210002
X01220002Y00250001
X01240002
X01260002
X01250002Y00230001
X01230002
X01210002
X01220002Y00210001
X01240002
X01260002
X01250002Y00190001
X01230002
X01210002
X01220002Y00170001
X01240002
X01260002
X01250002Y00150001
X01230002
X01210002
X01220002Y00130001
X01240002
X01260002
X01250002Y00110001
X01230002
X01210002
X01220002Y00090001
X01240002
X01260002
X01250002Y00070001
X01260002Y00050001
X01250002Y00030001
X01260002Y00010001
X01100002
X01090002Y00030001
X01100002Y00050001
X01110002Y00070001
X01090002
X01100002Y00090001
X01120002
X01140002
X01159366Y00092306
Y00102846
Y00113386
Y00123926
Y00134466
Y00145006
Y00155546
Y00166086
Y00176626
Y00187166
Y00197706
Y00208246
Y00218786
Y00229326
Y00239866
Y00250406
Y00260946
Y00271486
Y00282026
Y00292566
Y00303106
Y00313646
Y00324186
Y00334726
Y00345266
Y00355806
Y00366346
Y00376886
X01140002Y00370001
X01120002
X01100002
X01110002Y00350001
X01130002
X01140002Y00330001
X01120002
X01100002
X01110002Y00310001
X01130002
X01140002Y00290001
X01120002
X01100002
X01110002Y00270001
X01130002
X01140002Y00250001
X01120002
X01100002
X01110002Y00230001
X01130002
X01140002Y00210001
X01120002
X01100002
X01110002Y00190001
X01130002
X01140002Y00170001
X01120002
X01100002
X01110002Y00150001
X01130002
X01140002Y00130001
X01120002
X01100002
X01110002Y00110001
X01130002
X01090002
Y00150001
Y00190001
Y00230001
Y00270001
Y00310001
Y00350001
X01030002
X01010002
X00990002
X00970002
X00950002
X00930002
X00910002
X00890002
X00865634Y0035378
Y0034324
Y003327
Y0032216
Y0031162
Y0030108
Y0029054
Y0028
Y0026946
Y0025892
Y0024838
Y0023784
Y002273
Y0021676
Y0020622
Y0019568
Y0018514
Y001746
Y0016406
Y0015352
Y0014298
Y0013244
Y001219
Y0011136
Y0010082
Y0009028
Y0007974
Y000692
X00880002Y00090001
X00900002
X00920002
X00940002
X00960002
X00980002
X01000002
X01020002
X01040002
X01030002Y00110001
X01010002
X00990002
X00970002
X00950002
X00930002
X00910002
X00890002
X00900002Y00130001
X00920002
X00940002
X00960002
X00980002
X01000002
X01020002
X01030002Y00150001
X01010002
X00990002
X00970002
X00950002
X00930002
X00910002
X00890002
X00900002Y00170001
X00920002
X00940002
X00960002
X00980002
X01000002
X01020002
X01040002
X01030002Y00190001
X01010002
X00990002
X00970002
X00950002
X00930002
X00910002
X00890002
X00900002Y00210001
X00920002
X00940002
X00960002
X00980002
X01000002
X01020002
X01040002
X01030002Y00230001
X01010002
X00990002
X00970002
X00950002
X00930002
X00910002
X00890002
X00900002Y00250001
X00920002
X00940002
X00960002
X00980002
X01000002
X01020002
X01040002
X01030002Y00270001
X01010002
X00990002
X00970002
X00950002
X00930002
X00910002
X00890002
X00900002Y00290001
X00920002
X00940002
X00960002
X00980002
X01000002
X01020002
X01040002
X01030002Y00310001
X01010002
X00990002
X00970002
X00950002
X00930002
X00910002
X00890002
X00900002Y00330001
X00920002
X00940002
X00960002
X00980002
X01000002
X01020002
X01040002
Y00370001
X01020002
X01000002
X00980002
X00960002
X00940002
X00920002
X00900002
X00880002
X00865634Y0037486
Y0036432
X00834366Y00369365
Y00358825
Y00348285
Y00337745
Y00327205
Y00316665
Y00306125
Y00295585
Y00285045
Y00274505
Y00263965
Y00253425
Y00242885
Y00232345
Y00221805
Y00211265
Y00200725
Y00190185
Y00179645
Y00169105
Y00158565
Y00148025
Y00137485
Y00126945
Y00116405
Y00105865
Y00095325
Y00084785
Y00074245
X00820002Y00090001
X00800002
X00780002
X00790002Y00110001
X00810002
X00820002Y00130001
X00800002
X00780002
X00790002Y00150001
X00810002
X00820002Y00170001
X00800002
X00780002
X00790002Y00190001
X00810002
X00820002Y00210001
X00800002
X00780002
X00790002Y00230001
X00810002
X00820002Y00250001
X00800002
X00780002
X00790002Y00270001
X00810002
X00820002Y00290001
X00800002
X00780002
X00790002Y00310001
X00810002
X00820002Y00330001
X00800002
X00780002
X00790002Y00350001
X00810002
X00820002Y00370001
X00800002
X00780002
X00880002Y00330001
Y00290001
Y00250001
Y00210001
Y00170001
Y00130001
X00930002Y00070001
X00950002
X00970002
X00990002
X01010002
X01030002
X01040002Y00050001
X01020002
X01000002
X00980002
X00960002
X00940002
X00920002
X00930002Y00030001
X00950002
X00970002
X00990002
X01010002
X01030002
X01040002Y00010001
X01020002
X01000002
X00980002
X00960002
X00940002
X00920002
X00780002
Y00050001
X01159366Y00071226
Y00081766
X00770002Y00070001
X00750002
X00730002
X00710002
X00690002
X00670002
X00680002Y00090001
X00700002
X00720002
X00740002
X00760002
X00770002Y00110001
X00750002
X00730002
X00710002
X00690002
X00670002
X00680002Y00130001
X00700002
X00720002
X00740002
X00760002
X00770002Y00150001
X00750002
X00730002
X00710002
X00690002
X00670002
X00680002Y00170001
X00700002
X00720002
X00740002
X00760002
X00770002Y00190001
X00750002
X00730002
X00710002
X00690002
X00670002
X00680002Y00210001
X00700002
X00720002
X00740002
X00760002
X00770002Y00230001
X00750002
X00730002
X00710002
X00690002
X00670002
X00680002Y00250001
X00700002
X00720002
X00740002
X00760002
X00770002Y00270001
X00750002
X00730002
X00710002
X00690002
X00670002
X00680002Y00290001
X00700002
X00720002
X00740002
X00760002
X00770002Y00310001
X00750002
X00730002
X00710002
X00690002
X00670002
X00680002Y00330001
X00700002
X00720002
X00740002
X00760002
X00770002Y00350001
X00750002
X00730002
X00710002
X00690002
X00670002
X00680002Y00370001
X00700002
X00720002
X00740002
X00760002
X00660002
Y00330001
Y00290001
Y00250001
Y00210001
Y00170001
X00600002
X00580002
X00560002
X00540634Y00171287
Y00160746
Y00150206
Y00139667
Y00129127
Y00118587
Y00108047
Y00097507
Y00086966
Y00076427
X00509366Y00077599
Y00088139
Y00098679
Y00109219
Y00119759
Y00130299
Y00140839
Y00151379
Y00161919
Y00172459
Y00182999
Y00193539
Y00204079
Y00214619
Y00225159
Y00235699
Y00246239
Y00256779
Y00267319
Y00277859
Y00288399
Y00298939
Y00309479
Y00320019
Y00330559
Y00341099
Y00351639
Y00362179
Y00372719
X00540634Y00371547
Y00361007
Y00350467
Y00339927
Y00329387
Y00318847
Y00308307
Y00297767
Y00287227
Y00276687
Y00266147
Y00255607
Y00245067
Y00234527
Y00223987
Y00213447
Y00202907
Y00192367
Y00181827
X00570002Y00190001
X00590002
X00610002
X00600002Y00210001
X00580002
X00560002
X00570002Y00230001
X00590002
X00610002
X00600002Y00250001
X00580002
X00560002
X00570002Y00270001
X00590002
X00610002
X00600002Y00290001
X00580002
X00560002
X00570002Y00310001
X00590002
X00610002
X00600002Y00330001
X00580002
X00560002
X00570002Y00350001
X00590002
X00610002
X00600002Y00370001
X00580002
X00560002
X00490002Y00350001
Y00310001
Y00270001
Y00230001
X00450001
X00460001Y00250001
X00440001
X00450001Y00270001
X00460001Y00290001
X00440001
X00450001Y00310001
X00460001Y00330001
X00440001
X00450001Y00350001
X00460001Y00370001
X00440001
X00380001
X00390001Y00350001
X00380001Y00330001
X00390001Y00310001
X00380001Y00290001
X00390001Y00270001
X00380001Y00250001
X00390001Y00230001
X00380001Y00210001
X00390001Y00190001
X00380001Y00170001
Y00130001
Y00090001
X00390001Y00070001
X00380001Y00050001
X00390001Y00030001
X00380001Y00010001
X00440001
X00450001Y00030001
X00440001Y00050001
X00450001Y00070001
X00460001Y00090001
X00480002
X00490002Y00110001
X00470001
X00450001
X00460001Y00130001
X00480002
X00490002Y00150001
X00470001
X00450001
X00440001Y00130001
Y00090001
X00508299Y00067629
X00560002Y00090001
X00580002
X00600002
X00610002Y00110001
X00590002
X00570002
X00580002Y00130001
X00600002
X00610002Y00150001
X00590002
X00570002
X00560002Y00130001
X00590002Y00070001
X00610002
X00600002Y00050001
X00610002Y00030001
X00600002Y00010001
X00660002
X00680002
X00700002
X00720002
X00740002
X00760002
X00770002Y00030001
X00750002
X00730002
X00710002
X00690002
X00670002
X00680002Y00050001
X00700002
X00720002
X00740002
X00760002
X00660002
Y00090001
X00480002Y00170001
X00450001Y00190001
X00370001
X00350001
X00330001
X00310002
X00290002
X00270001
X00250001
X00230001
X00215634Y00186687
Y00176147
Y00165607
Y00155067
Y00144527
Y00133987
Y00123447
Y00112907
Y00102367
Y00091827
Y00081287
Y00070746
X00220001Y00050001
Y00010001
X00180001
Y00050001
X00184366Y00072678
Y00083218
Y00093758
Y00104298
Y00114838
Y00125378
Y00135918
Y00146458
Y00156998
Y00167538
Y00178078
Y00188618
Y00199158
Y00209699
Y00220238
Y00230779
Y00241318
Y00251859
Y00262398
Y00272938
Y00283479
Y00294018
Y00304559
Y00315099
Y00325639
Y00336179
Y00346719
Y00357259
Y00367799
X00160001Y00370001
X00140001
X00120001
X00100001
X00110001Y00350001
X00130001
X00150001
X00170001
X00160001Y00330001
X00140001
X00120001
X00100001
X00110001Y00310001
X00130001
X00150001
X00170001
X00160001Y00290001
X00140001
X00120001
X00100001
X00110001Y00270001
X00130001
X00150001
X00170001
X00160001Y00250001
X00140001
X00120001
X00100001
X00110001Y00230001
X00130001
X00150001
X00170001
X00160001Y00210001
X00140001
X00120001
X00100001
X00110001Y00190001
X00130001
X00150001
X00170001
X00160001Y00170001
X00140001
X00120001
X00100001
X00110001Y00150001
X00130001
X00150001
X00170001
X00160001Y00130001
X00140001
X00120001
X00100001
X00080001
X00060001
X00070001Y00110001
X00090001
X00110001
X00130001
X00150001
X00170001
X00160001Y00090001
X00140001
X00120001
X00100001
X00080001
X00060001
X00040001
X00020001
X00030001Y00110001
X00050001
Y00070001
X00070001
X00090001
X00110001
X00130001
X00120001Y00050001
X00100001
X00080001
X00060001
X00040001
X00020001
X00030001Y00070001
Y00030001
X00050001
X00070001
X00090001
X00110001
X00130001
X00120001Y00010001
X00100001
X00080001
X00060001
X00040001
X00020001
X00030001Y00150001
X00020001Y00170001
Y00210001
X00040001
X00060001
X00050001Y00230001
X00030001
X00040001Y00250001
X00060001
X00050001Y00270001
X00030001
X00040001Y00290001
X00060001
X00050001Y00310001
X00030001
X00040001Y00330001
X00060001
X00050001Y00350001
X00030001
X00040001Y00370001
X00060001
X00020001
Y00330001
Y00290001
Y00250001
X00090001Y00270001
Y00310001
Y00350001
Y00230001
Y00190001
Y00150001
X00050001Y00190001
X00215634Y00197227
Y00207767
Y00218307
Y00228847
Y00239387
Y00249927
Y00260467
Y00271007
Y00281547
Y00292087
Y00302627
Y00313167
Y00323707
Y00334247
Y00344787
Y00355327
Y00365867
Y00376407
X00240001Y00370001
X00260001
X00280001
X00300002
X00320001
X00340001
X00360001
X00370001Y00350001
X00350001
X00330001
X00310002
X00290002
X00270001
X00250001
X00230001
X00240001Y00330001
X00260001
X00280001
X00300002
X00320001
X00340001
X00360001
X00370001Y00310001
X00350001
X00330001
X00310002
X00290002
X00270001
X00250001
X00230001
X00240001Y00290001
X00260001
X00280001
X00300002
X00320001
X00340001
X00360001
X00370001Y00270001
X00350001
X00330001
X00310002
X00290002
X00270001
X00250001
X00230001
X00240001Y00250001
X00260001
X00280001
X00300002
X00320001
X00340001
X00360001
X00370001Y00230001
X00350001
X00330001
X00310002
X00290002
X00270001
X00250001
X00230001
X00240001Y00210001
X00260001
X00280001
X00300002
X00320001
X00340001
X00360001
Y00170001
X00340001
X00320001
X00300002
X00280001
X00260001
X00240001
X00250001Y00150001
X00270001
X00290002
X00310002
X00330001
X00350001
X00370001
X00360001Y00130001
X00340001
X00320001
X00300002
X00280001
X00260001
X00240001
X00250001Y00110001
X00270001
X00290002
X00310002
X00330001
X00350001
X00370001
X00360001Y00090001
X00340001
X00320001
X00300002
X00280001
X00260001
X00240001
X00230001Y00110001
Y00150001
X00270001Y00070001
X00290002
X00310002
X00330001
X00350001
X00370001
X00360001Y00050001
X00340001
X00320001
X00300002
X00280001
X00290002Y00030001
X00310002
X00330001
X00350001
X00370001
X00360001Y00010001
X00340001
X00320001
X00300002
X00280001
X00270001Y00030001
Y00390001
X00290002
X00310002
X00330001
X00350001
X00370001
X00360001Y00410001
X00340001
X00320001
X00300002
X00280001
X00260001
X00240001
X00215634Y00408027
Y00397487
Y00386947
X00230001Y00390001
X00250001
Y00430001
X00270001
X00290002
X00310002
X00330001
X00350001
X00370001
X00360001Y00450001
X00340001
X00320001
X00300002
X00280001
X00260001
X00240001
X00215634Y00450187
Y00439647
Y00429107
Y00418567
X00230001Y00430001
Y00470001
X00215634Y00471267
Y00460727
Y00481807
Y00492347
Y00502887
Y00513427
Y00523967
Y00534507
Y00545047
Y00555587
Y00566127
Y00576667
Y00587207
Y00597747
Y00608287
Y00618827
Y00629367
Y00639907
Y00650447
Y00660987
Y00671527
Y00682067
Y00692607
Y00703147
Y00713687
Y00724227
Y00734767
Y00745307
Y00755847
Y00766387
X00240001Y00770001
X00260001
X00280001
X00300002
X00320001
X00340001
X00360001
X00370001Y00750001
X00350001
X00330001
X00310002
X00290002
X00270001
X00250001
X00230001
X00240001Y00730001
X00260001
X00280001
X00300002
X00320001
X00340001
X00360001
X00370001Y00710001
X00350001
X00330001
X00310002
X00290002
X00270001
X00250001
X00230001
X00240001Y00690001
X00260001
X00280001
X00300002
X00320001
X00340001
X00360001
X00370001Y00670001
X00350001
X00330001
X00310002
X00290002
X00270001
X00250001
X00230001
X00240001Y00650001
X00260001
X00280001
X00300002
X00320001
X00340001
X00360001
X00370001Y00630001
X00350001
X00330001
X00310002
X00290002
X00270001
X00250001
X00230001
X00240001Y00610001
X00260001
X00280001
X00300002
X00320001
X00340001
X00360001
X00370001Y00590001
X00350001
X00330001
X00310002
X00290002
X00270001
X00250001
X00230001
X00240001Y00570001
X00260001
X00280001
X00300002
X00320001
X00340001
X00360001
X00370001Y00550001
X00350001
X00330001
X00310002
X00290002
X00270001
X00250001
X00230001
X00240001Y00530001
X00260001
X00280001
X00300002
X00320001
X00340001
X00360001
X00370001Y00510001
X00350001
X00330001
X00310002
X00290002
X00270001
X00250001
X00230001
X00240001Y00490001
X00260001
X00280001
X00300002
X00320001
X00340001
X00360001
X00370001Y00470001
X00350001
X00330001
X00310002
X00290002
X00270001
X00250001
X00184366Y00473199
Y00483739
Y00494279
Y00504819
Y00515359
Y00525899
Y00536439
Y00546979
Y00557519
Y00568059
Y00578599
Y00589139
Y00599679
Y00610219
Y00620759
Y00631299
Y00641839
Y00652379
Y00662919
Y00673459
Y00683999
Y00694539
Y00705079
Y00715619
Y00726159
Y00736699
Y00747239
Y00757779
Y00768319
X00160001Y00770001
X00140001
X00150001Y00750001
X00170001
X00160001Y00730001
X00140001
X00120001
X00130001Y00750001
Y00710001
X00150001
X00170001
X00160001Y00690001
X00140001
X00120001
X00100001
X00110001Y00710001
X00090001
Y00750001
X00070001
X00050001
X00030001
X00040001Y00770001
X00060001
X00080001
X00100001
X00060001Y00730001
X00040001
X00020001
X00030001Y00710001
X00050001
X00060001Y00690001
X00040001
X00020001
X00030001Y00670001
X00050001
X00060001Y00650001
X00040001
X00020001
X00030001Y00630001
X00050001
X00060001Y00610001
X00040001
X00020001
X00030001Y00590001
X00050001
X00060001Y00570001
X00040001
X00020001
X00030001Y00550001
X00050001
X00060001Y00530001
X00040001
X00020001
X00030001Y00510001
X00050001
X00060001Y00490001
X00040001
X00020001
X00030001Y00470001
X00050001
X00060001Y00450001
X00040001
X00020001
X00030001Y00430001
X00050001
X00060001Y00410001
X00040001
X00020001
X00030001Y00390001
X00050001
X00090001
X00110001
X00130001
X00150001
X00170001
X00184366Y00388879
Y00399419
Y00409959
Y00420499
Y00431039
Y00441579
Y00452119
Y00462659
X00170001Y00470001
X00150001
X00130001
X00110001
X00090001
X00100001Y00490001
X00120001
X00140001
X00160001
X00170001Y00510001
X00150001
X00130001
X00110001
X00090001
X00100001Y00530001
X00120001
X00140001
X00160001
X00170001Y00550001
X00150001
X00130001
X00110001
X00090001
X00100001Y00570001
X00120001
X00140001
X00160001
X00170001Y00590001
X00150001
X00130001
X00110001
X00090001
X00100001Y00610001
X00120001
X00140001
X00160001
X00170001Y00630001
X00150001
X00130001
X00110001
X00090001
X00100001Y00650001
X00120001
X00140001
X00160001
X00170001Y00670001
X00150001
X00130001
X00110001
X00090001
X00020001Y00770001
X00100001Y00450001
X00120001
X00140001
X00160001
X00170001Y00430001
X00150001
X00130001
X00110001
X00090001
X00100001Y00410001
X00120001
X00140001
X00160001
X00184366Y00378339
X00390001Y00390001
X00380001Y00410001
X00390001Y00430001
X00380001Y00450001
X00390001Y00470001
X00380001Y00490001
X00390001Y00510001
X00380001Y00530001
X00390001Y00550001
X00380001Y00570001
X00390001Y00590001
X00380001Y00610001
Y00650001
Y00690001
X00390001Y00710001
X00380001Y00730001
X00390001Y00750001
X00380001Y00770001
X00440001
X00460001
X00450001Y00750001
X00460001Y00730001
X00440001
X00450001Y00710001
X00460001Y00690001
X00440001
X00450001Y00670001
X00460001Y00650001
X00440001
X00450001Y00630001
X00460001Y00610001
X00440001
X00450001Y00590001
X00460001Y00570001
X00440001
X00450001Y00550001
X00460001Y00530001
X00440001
X00450001Y00510001
X00460001Y00490001
X00440001
X00450001Y00470001
X00460001Y00450001
X00440001
X00450001Y00430001
X00460001Y00410001
X00440001
X00450001Y00390001
X00490002
X00509366Y00393799
Y00404339
Y00414879
Y00425419
Y00435959
Y00446499
Y00457039
Y00467579
Y00478119
Y00488659
Y00499199
Y00509739
Y0052028
Y0053082
Y00541359
Y00551899
Y00562439
Y0057298
Y0058352
Y00594059
Y006046
Y0061514
Y0062568
Y0063622
Y0064676
Y006573
Y0066784
Y0067838
Y0068892
Y0069946
Y0071
Y0072054
Y0073108
Y0074162
Y0075216
Y007627
Y0077324
X00540634Y00772067
Y00761527
Y00750987
Y00740447
Y00729907
Y00719367
Y00708827
Y00698287
Y00687747
Y00677207
Y00666667
Y00656127
Y00645587
Y00635047
Y00624507
Y00613967
Y00603427
Y00592887
Y00582347
Y00571807
Y00561267
Y00550727
Y00540187
Y00529647
Y00519107
Y00508567
Y00498027
Y00487487
Y00476947
Y00466407
Y00455867
Y00445327
Y00434787
Y00424247
Y00413707
Y00403167
Y00392627
Y00382087
X00509366Y00383259
X00490002Y00430001
Y00470001
Y00510001
Y00550001
Y00590001
Y00630001
Y00670001
Y00710001
Y00750001
X00570002
X00590002
X00610002
X00600002Y00770001
X00580002
X00560002
Y00730001
X00580002
X00600002
X00610002Y00710001
X00590002
X00570002
X00580002Y00690001
X00600002
X00610002Y00670001
X00590002
X00570002
X00580002Y00650001
X00600002
X00610002Y00630001
X00590002
X00570002
X00580002Y00610001
X00600002
X00610002Y00590001
X00590002
X00570002
X00580002Y00570001
X00600002
X00610002Y00550001
X00590002
X00570002
X00580002Y00530001
X00600002
X00610002Y00510001
X00590002
X00570002
X00580002Y00490001
X00600002
X00610002Y00470001
X00590002
X00570002
X00580002Y00450001
X00600002
X00610002Y00430001
X00590002
X00570002
X00580002Y00410001
X00600002
X00610002Y00390001
X00590002
X00570002
X00560002Y00410001
Y00450001
Y00490001
Y00530001
Y00570001
Y00610001
Y00650001
Y00690001
X00660002
X00680002
X00700002
X00720002
X00740002
X00760002
X00770002Y00710001
X00750002
X00730002
X00710002
X00690002
X00670002
X00680002Y00730001
X00700002
X00720002
X00740002
X00760002
X00770002Y00750001
X00750002
X00730002
X00710002
X00690002
X00670002
X00680002Y00770001
X00700002
X00720002
X00740002
X00760002
X00660002
Y00730001
X00670002Y00670001
X00690002
X00710002
X00730002
X00750002
X00770002
X00760002Y00650001
X00740002
X00720002
X00700002
X00680002
X00690002Y00630001
X00710002
X00730002
X00750002
X00770002
X00760002Y00610001
X00740002
X00720002
X00700002
X00680002
X00660002
X00670002Y00630001
Y00590001
X00690002
X00710002
X00730002
X00750002
X00770002
X00760002Y00570001
X00740002
X00720002
X00700002
X00680002
X00660002
X00670002Y00550001
X00690002
X00710002
X00730002
X00750002
X00770002
X00760002Y00530001
X00740002
X00720002
X00700002
X00680002
X00660002
X00670002Y00510001
X00690002
X00710002
X00730002
X00750002
X00770002
X00760002Y00490001
X00740002
X00720002
X00700002
X00680002
X00660002
X00670002Y00470001
X00690002
X00710002
X00730002
X00750002
X00770002
X00760002Y00450001
X00740002
X00720002
X00700002
X00680002
X00660002
X00670002Y00430001
X00690002
X00710002
X00730002
X00750002
X00770002
X00760002Y00410001
X00740002
X00720002
X00700002
X00680002
X00660002
X00670002Y00390001
X00690002
X00710002
X00730002
X00750002
X00770002
X00790002
X00810002
X00834366Y00390445
Y00400985
Y00411525
Y00422065
Y00432605
Y00443145
Y00453685
Y00464225
Y00474765
Y00485305
Y00495845
Y00506385
Y00516926
Y00527466
Y00538005
Y00548545
Y00559086
Y00569626
Y00580165
Y00590705
Y00601246
Y00611786
Y00622326
Y00632866
Y00643406
Y00653946
Y00664486
Y00675026
Y00685566
Y00696106
Y00706646
Y00717186
Y00727726
Y00738266
Y00748806
Y00759346
Y00769886
X00820002Y00770001
X00800002
X00780002
X00790002Y00750001
X00810002
X00820002Y00730001
X00800002
X00780002
X00790002Y00710001
X00810002
X00820002Y00690001
X00800002
X00780002
X00790002Y00670001
X00810002
X00820002Y00650001
X00800002
X00780002
X00790002Y00630001
X00810002
X00820002Y00610001
X00800002
X00780002
X00790002Y00590001
X00810002
X00820002Y00570001
X00800002
X00780002
X00790002Y00550001
X00810002
X00820002Y00530001
X00800002
X00780002
X00790002Y00510001
X00810002
X00820002Y00490001
X00800002
X00780002
X00790002Y00470001
X00810002
X00820002Y00450001
X00800002
X00780002
X00790002Y00430001
X00810002
X00820002Y00410001
X00800002
X00780002
X00834366Y00379905
X00865634Y003854
Y0039594
Y0040648
Y0041702
Y0042756
Y004381
Y0044864
Y0045918
Y0046972
Y0048026
Y004908
Y0050134
Y0051188
Y0052242
Y0053296
Y005435
Y0055404
Y0056458
Y0057512
Y0058566
Y005962
Y0060674
Y0061728
Y0062782
Y0063836
Y006489
Y0065944
Y0066998
Y0068052
Y0069106
Y007016
Y0071214
Y0072268
Y0073322
Y0074376
Y007543
Y0076484
X00880002Y00770001
X00900002
X00920002
X00940002
X00960002
X00980002
X01000002
X01020002
X01040002
X01030002Y00750001
X01010002
X00990002
X00970002
X00950002
X00930002
X00910002
X00890002
X00900002Y00730001
X00920002
X00940002
X00960002
X00980002
X01000002
X01020002
X01040002
X01030002Y00710001
X01010002
X00990002
X00970002
X00950002
X00930002
X00910002
X00890002
X00900002Y00690001
X00920002
X00940002
X00960002
X00980002
X01000002
X01020002
X01040002
X01030002Y00670001
X01010002
X00990002
X00970002
X00950002
X00930002
X00910002
X00890002
X00900002Y00650001
X00920002
X00940002
X00960002
X00980002
X01000002
X01020002
X01030002Y00630001
X01010002
X00990002
X00970002
X00950002
X00930002
X00910002
X00890002
X00900002Y00610001
X00920002
X00940002
X00960002
X00980002
X01000002
X01020002
X01040002
X01030002Y00590001
X01010002
X00990002
X00970002
X00950002
X00930002
X00910002
X00890002
X00900002Y00570001
X00920002
X00940002
X00960002
X00980002
X01000002
X01020002
X01040002
X01030002Y00550001
X01010002
X00990002
X00970002
X00950002
X00930002
X00910002
X00890002
X00900002Y00530001
X00920002
X00940002
X00960002
X00980002
X01000002
X01020002
X01040002
X01030002Y00510001
X01010002
X00990002
X00970002
X00950002
X00930002
X00910002
X00890002
X00900002Y00490001
X00920002
X00940002
X00960002
X00980002
X01000002
X01020002
X01040002
X01030002Y00470001
X01010002
X00990002
X00970002
X00950002
X00930002
X00910002
X00890002
X00900002Y00450001
X00920002
X00940002
X00960002
X00980002
X01000002
X01020002
X01040002
X01030002Y00430001
X01010002
X00990002
X00970002
X00950002
X00930002
X00910002
X00890002
X00900002Y00410001
X00920002
X00940002
X00960002
X00980002
X01000002
X01020002
X01040002
X01030002Y00390001
X01010002
X00990002
X00970002
X00950002
X00930002
X00910002
X00890002
X00880002Y00410001
Y00450001
Y00490001
Y00530001
Y00570001
Y00610001
Y00650001
Y00690001
Y00730001
X01100002
X01120002
X01140002
X01159366Y00735247
Y00745787
Y00756327
Y00766867
X01140002Y00770001
X01120002
X01100002
X01110002Y00750001
X01130002
Y00710001
X01110002
X01090002
X01100002Y00690001
X01120002
X01140002
X01159366Y00693086
Y00703626
Y00714166
Y00724707
Y00682546
Y00672007
Y00661467
Y00650927
Y00640387
Y00629846
Y00619306
Y00608766
Y00598226
Y00587686
Y00577146
Y00566606
Y00556066
Y00545526
Y00534986
Y00524446
Y00513906
Y00503366
Y00492826
Y00482286
Y00471746
Y00461206
Y00450666
Y00440126
Y00429586
Y00419046
Y00408506
Y00397966
Y00387426
X01130002Y00390001
X01110002
X01090002
X01100002Y00410001
X01120002
X01140002
X01130002Y00430001
X01110002
X01090002
X01100002Y00450001
X01120002
X01140002
X01130002Y00470001
X01110002
X01090002
X01100002Y00490001
X01120002
X01140002
X01130002Y00510001
X01110002
X01090002
X01100002Y00530001
X01120002
X01140002
X01130002Y00550001
X01110002
X01090002
X01100002Y00570001
X01120002
X01140002
X01130002Y00590001
X01110002
X01090002
X01100002Y00610001
X01120002
X01140002
X01130002Y00630001
X01110002
X01090002
X01100002Y00650001
X01120002
X01140002
X01130002Y00670001
X01110002
X01090002
Y00750001
X01190634Y00746749
Y00736209
Y00725669
Y00715129
Y00704589
Y00694049
Y00683509
Y00672969
Y00662429
Y00651889
Y00641349
Y00630809
Y00620269
Y00609729
Y00599189
Y00588649
Y00578109
Y00567569
Y00557029
Y00546489
Y00535949
Y00525409
Y00514869
Y00504329
Y00493789
Y00483249
Y00472709
Y00462169
Y00451629
Y00441089
Y00430549
Y00420009
Y00409469
Y00398929
Y00388389
Y00377849
X01210002Y00390001
X01230002
X01250002
X01260002Y00410001
X01240002
X01220002
X01230002Y00430001
X01250002
X01260002Y00450001
X01240002
X01220002
X01230002Y00470001
X01250002
X01260002Y00490001
X01240002
X01220002
X01230002Y00510001
X01250002
X01260002Y00530001
X01240002
X01220002
X01230002Y00550001
X01250002
X01260002Y00570001
X01240002
X01220002
X01230002Y00590001
X01250002
X01260002Y00610001
X01240002
X01220002
X01230002Y00630001
X01250002
X01260002Y00650001
X01240002
X01220002
X01230002Y00670001
X01250002
X01260002Y00690001
X01240002
X01220002
X01230002Y00710001
X01250002
X01260002Y00730001
X01240002
X01220002
X01230002Y00750001
X01250002
X01260002Y00770001
X01240002
X01220002
X01210002Y00750001
X01190634Y00757289
Y00767829
X01210002Y00710001
Y00670001
Y00630001
Y00590001
Y00550001
Y00510001
Y00470001
Y00430001
Y00790001
X01230002
X01250002
X01260002Y00810001
X01240002
X01220002
X01190634Y00809989
Y00799449
Y00788909
Y00778369
Y00820529
Y00831069
Y00841609
Y00852149
Y00862689
Y00873229
Y00883769
Y00894309
Y00904849
Y00915389
Y00925929
Y00936469
Y00947009
Y00957549
Y00968089
Y00978629
Y00989169
Y00999709
Y01010249
Y01020789
Y01031329
Y01041869
Y01052409
Y01062949
Y01073489
Y01084029
Y01094569
Y01105109
Y01115649
Y01126189
Y0113673
Y0114727
X01190714Y01157809
X01200954Y01160306
X01210834Y01163977
X0122021Y01168791
X01230002Y01150001
X01250002
X01260002Y01170001
Y01130001
X01240002
X01220002
X01230002Y01110001
X01250002
X01260002Y01090001
X01240002
X01220002
X01230002Y01070001
X01250002
X01260002Y01050001
X01240002
X01220002
X01230002Y01030001
X01250002
X01260002Y01010001
X01240002
X01220002
X01230002Y00990001
X01250002
X01260002Y00970001
X01240002
X01220002
X01230002Y00950001
X01250002
X01260002Y00930001
X01240002
X01220002
X01230002Y00910001
X01250002
X01260002Y00890001
X01240002
X01220002
X01230002Y00870001
X01250002
X01260002Y00850001
X01240002
X01220002
X01230002Y00830001
X01250002
X01210002
Y00870001
Y00910001
Y00950001
Y00990001
Y01030001
Y01070001
Y01110001
Y01150001
X01159366Y01146307
Y01156847
Y01135767
Y01125227
Y01114687
Y01104147
Y01093607
Y01083067
Y01072527
Y01061987
Y01051447
Y01040907
Y01030367
Y01019827
Y01009287
Y00998747
Y00988207
Y00977667
Y00967127
Y00956587
Y00946047
Y00935507
Y00924967
Y00914427
Y00903887
Y00893347
Y00882807
Y00872267
Y00861727
Y00851187
Y00840647
Y00830107
Y00819567
Y00809027
Y00798487
Y00787947
Y00777407
X01130002Y00790001
X01110002
X01090002
X01100002Y00810001
X01120002
X01140002
X01130002Y00830001
X01110002
X01090002
X01100002Y00850001
X01120002
X01140002
X01130002Y00870001
X01110002
X01090002
X01100002Y00890001
X01120002
X01140002
X01130002Y00910001
X01110002
X01090002
X01100002Y00930001
X01120002
X01140002
X01130002Y00950001
X01110002
X01090002
X01100002Y00970001
X01120002
X01140002
X01130002Y00990001
X01110002
X01090002
X01100002Y01010001
X01120002
X01140002
X01130002Y01030001
X01110002
X01090002
X01100002Y01050001
X01120002
X01140002
X01130002Y01070001
X01110002
X01090002
X01100002Y01090001
X01120002
X01140002
X01130002Y01110001
X01110002
X01090002
X01100002Y01130001
X01120002
X01140002
X01130002Y01150001
X01110002
X01090002
X01100002Y01170001
X01030002Y01150001
X01008758Y01152949
X01011479Y01163132
X0100543Y01142949
X01001505Y01133166
X00997Y01123638
X0099185Y01114442
X0098607Y01105628
X00979771Y01097177
X00972976Y0108912
X00965707Y01081487
X00957968Y01074333
X00949714Y01067777
X00941081Y0106173
X009321Y01056214
X00922804Y01051247
X00913219Y01046863
X00903336Y010432
X00893242Y01040168
X00882983Y01037748
X00872523Y01036455
X00865798Y01028339
X00865634Y01017801
Y01007261
Y00996721
Y0098618
Y0097564
Y009651
Y0095456
Y0094402
Y0093348
Y0092294
Y009124
Y0090186
Y0089132
Y0088078
Y0087024
Y008597
Y0084916
Y0083862
Y0082808
Y0081754
Y00807
Y0079646
Y0078592
Y0077538
X00834366Y00780426
Y00790966
Y00801506
Y00812046
Y00822586
Y00833126
Y00843666
Y00854206
Y00864746
Y00875286
Y00885826
Y00896366
Y00906906
Y00917446
Y00927986
Y00938526
Y00949066
Y00959606
Y00970146
Y00980686
Y00991226
Y01001766
Y01012306
Y01022846
X00834904Y01033372
X00823825Y01032072
X00811903Y01028374
X00799229Y01031205
X00800002Y01010001
X00820002
X00810002Y00990001
X00790002
X00800002Y00970001
X00820002
X00810002Y00950001
X00790002
X00800002Y00930001
X00820002
X00810002Y00910001
X00790002
X00800002Y00890001
X00820002
X00810002Y00870001
X00790002
X00800002Y00850001
X00820002
X00810002Y00830001
X00790002
X00800002Y00810001
X00820002
X00810002Y00790001
X00790002
X00780002Y00810001
Y00850001
Y00890001
Y00930001
Y00970001
Y01010001
X00780792Y01049589
X00790496Y01045475
X00797177Y01076463
X00806748Y01076796
X00818725Y01075628
X00820002Y01090001
X00840002
X00860002
X00880002
X00900002
X00900687Y01075547
X00890778Y01071957
X00880617Y01069155
X00870144Y01067963
X00859997Y01065114
X00850821Y01059928
X00843323Y01052521
X00837917Y01043473
X00834595Y01058267
X00829664Y01068957
X00800002Y01090001
X00787655Y01080984
X00778517Y01086237
X00790002Y01110001
X00910002
X00930002
X00936629Y01097274
X00928311Y010908
X00919512Y01084998
X00910285Y01079903
X00910002Y01030001
X00930002
X00950002
X00970002
X00990002
X01010002
X01030002
X01040002Y01050001
X01020002
X01000002
X00980002
X00960002
Y01010001
X00980002
X01000002
X01020002
X01040002
X01030002Y00990001
X01010002
X00990002
X00970002
X00950002
X00930002
X00910002
X00890002
X00900002Y01010001
X00920002
X00940002
Y00970001
X00960002
X00980002
X01000002
X01020002
X01040002
X01030002Y00950001
X01010002
X00990002
X00970002
X00950002
X00930002
X00910002
X00890002
X00900002Y00970001
X00920002
Y00930001
X00940002
X00960002
X00980002
X01000002
X01020002
X01040002
X01030002Y00910001
X01010002
X00990002
X00970002
X00950002
X00930002
X00910002
X00890002
X00900002Y00930001
X00880002
Y00970001
Y01010001
Y00890001
X00900002
X00920002
X00940002
X00960002
X00980002
X01000002
X01020002
X01040002
X01030002Y00870001
X01010002
X00990002
X00970002
X00950002
X00930002
X00910002
X00890002
X00900002Y00850001
X00920002
X00940002
X00960002
X00980002
X01000002
X01020002
X01040002
X01030002Y00830001
X01010002
X00990002
X00970002
X00950002
X00930002
X00910002
X00890002
X00900002Y00810001
X00920002
X00940002
X00960002
X00980002
X01000002
X01020002
X01040002
X01030002Y00790001
X01010002
X00990002
X00970002
X00950002
X00930002
X00910002
X00890002
X00880002Y00810001
Y00850001
X00944413Y0110438
X00951617Y01112074
X00958195Y01120309
X00964108Y01129034
X00969319Y01138196
X00973795Y01147738
X00977511Y01157602
X00980441Y01167726
X00960002Y01170001
X00950002Y01150001
X00940002Y01130001
X01020002
X01030002Y01110001
X01010002
X01020002Y01090001
X01040002
X01030002Y01070001
X01010002
X00990002
X01000002Y01090001
X0076982Y0109219
X00761615Y01098807
X00753955Y01106046
X00746885Y01113864
X00740451Y01122212
X0073469Y01131038
X00729639Y01140289
X00725328Y01149907
X00721785Y01159834
X00719031Y01170007
X00740002Y01170001
X00750002Y01150001
X00760002Y01130001
X00770002Y01110001
X00771353Y0105428
X00762213Y01059529
X00753449Y01065385
X00745123Y01071848
X007372Y01078799
X0072971Y01086215
X0072268Y01094067
X00716155Y01102345
X00710277Y01111094
X00704936Y0112018
X00700152Y01129572
X00695941Y01139234
X00692318Y01149132
X00689457Y01159276
X00687238Y0116958
X00670002Y01150001
X00680002Y01130001
X00690002Y01110001
X00670002
X00680002Y01090001
X00700002
X00710002Y01070001
X00690002
X00670002
X00680002Y01050001
X00700002
X00720002
X00740002
X00750002Y01030001
X00770002
X00760002Y01010001
X00740002
X00720002
X00700002
X00680002
X00660002
X00670002Y01030001
X00690002
X00710002
X00730002
Y00990001
X00750002
X00770002
X00760002Y00970001
X00740002
X00720002
X00700002
X00680002
X00660002
X00670002Y00990001
X00690002
X00710002
Y00950001
X00730002
X00750002
X00770002
X00760002Y00930001
X00740002
X00720002
X00700002
X00680002
X00660002
X00670002Y00950001
X00690002
Y00910001
X00710002
X00730002
X00750002
X00770002
X00760002Y00890001
X00740002
X00720002
X00700002
X00680002
X00660002
X00670002Y00910001
Y00870001
X00690002
X00710002
X00730002
X00750002
X00770002
X00760002Y00850001
X00740002
X00720002
X00700002
X00680002
X00660002
X00670002Y00830001
X00690002
X00710002
X00730002
X00750002
X00770002
X00760002Y00810001
X00740002
X00720002
X00700002
X00680002
X00660002
X00670002Y00790001
X00690002
X00710002
X00730002
X00750002
X00770002
X00610002
X00590002
X00570002
X00580002Y00810001
X00600002
X00610002Y00830001
X00590002
X00570002
X00580002Y00850001
X00600002
X00610002Y00870001
X00590002
X00570002
X00580002Y00890001
X00600002
X00610002Y00910001
X00590002
X00570002
X00580002Y00930001
X00600002
X00610002Y00950001
X00590002
X00600002Y00970001
X00580002
X00560002
X00540603Y00964767
X00540634Y00975307
Y00985847
Y00996387
Y01006927
Y01017467
X00538807Y01031489
X00540634Y01041869
Y01052409
Y01062949
Y01073489
Y01084029
Y01094569
Y01105109
Y01115649
Y01126189
Y0113673
Y0114727
X00540714Y01157809
X00550954Y01160306
X00560834Y01163977
X0057021Y01168791
X00570002Y01150001
X00590002
X00610002
X00600002Y01170001
Y01130001
X00580002
X00560002
X00570002Y01110001
X00590002
X00610002
X00600002Y01090001
X00580002
X00560002
X00570002Y01070001
X00590002
X00610002
X00600002Y01050001
X00580002
X00560002
X00570002Y01030001
X00590002
X00610002
X00600002Y01010001
X00580002
X00560002
X00570002Y00990001
X00590002
X00610002
X00509366Y00990981
Y01001521
Y01012061
X00512039Y01030185
X00509366Y0104038
Y0105092
Y0106146
Y01072
Y0108254
Y0109308
Y0110362
Y0111416
Y011247
Y0113524
Y0114578
Y0115632
X00490002Y01150001
X00470001
X00450001
X00460001Y01130001
X00480002
X00490002Y01110001
X00470001
X00450001
X00460001Y01090001
X00480002
X00490002Y01070001
X00470001
X00450001
X00460001Y01050001
X00480002
X00490002Y01030001
X00470001
X00450001
X00460001Y01010001
X00480002
X00490002Y00990001
X00470001
X00450001
X00460001Y00970001
X00480002
X00509366Y00969901
Y00980441
X00510461Y00959418
X00511021Y00933595
X00509366Y00922793
X00540634Y00924967
Y00914427
Y00903887
X00537045Y00887377
X00540634Y00877467
Y00866927
Y00856387
Y00845847
Y00835307
Y00824767
Y00814227
Y00803687
Y00793147
Y00782607
X00509366Y0078378
Y0079432
Y0080486
Y008154
Y0082594
Y0083648
Y0084702
Y0085756
Y008681
X00509447Y0087864
X00513749Y00888261
X00500002Y00890001
X00490002Y00870001
Y00830001
Y00790001
X00450001
X00460001Y00810001
X00440001
Y00850001
X00450001Y00870001
X00460001Y00890001
X00440001
X00450001Y00910001
X00460001Y00930001
X00480002
X00490002Y00950001
X00470001
X00450001
X00440001Y00970001
Y01010001
Y01050001
Y01090001
Y01130001
Y01170001
X00380001
Y01130001
X00390001Y01110001
X00380001Y01090001
X00390001Y01070001
X00380001Y01050001
X00390001Y01030001
X00380001Y01010001
X00390001Y00990001
X00380001Y00970001
X00390001Y00950001
X00380001Y00930001
X00390001Y00910001
X00380001Y00890001
X00390001Y00870001
X00380001Y00850001
X00390001Y00830001
X00380001Y00810001
X00390001Y00790001
X00560002Y00810001
Y00850001
Y00890001
X00440001Y00930001
X00660002Y01050001
Y01090001
X00360001
X00370001Y01110001
X0034185Y01114442
X00347Y01123638
X00351505Y01133167
X00355429Y01142949
X00358758Y01152949
X00361479Y01163132
X00330248Y01167043
X00327264Y01156935
X00323497Y01147091
X0031897Y01137573
X0031371Y01128439
X00307751Y01119745
X00301129Y01111545
X00293884Y0110389
X00286061Y01096826
X00277709Y01090397
X00268878Y01084643
X00259624Y01079598
X00250002Y01075295
X00240073Y01071759
X00229898Y01069012
X0021944Y01067698
X00209323Y01064742
X0020024Y01059394
X00192816Y01051912
X00187605Y0104275
X00184753Y01032604
X00184366Y01022071
Y01011531
Y01000991
X00184566Y00990452
X00170001Y00990001
X00150001
X00130001
X00110001
X00090001
X00070001
X00050001
X00030001
X00040001Y01010001
X00060001
X00080001
X00100001
X00120001
X00140001
X00160001
X00162248Y01030819
X00149573Y01033651
X00141074Y01045262
X00131351Y01049332
X0012189Y01053979
X00112727Y01059186
X00103963Y01065042
X00095607Y01071466
X00087653Y01078381
X00080129Y01085762
X00073062Y01093582
X00066537Y0110186
X00060619Y01110582
X00055237Y01119644
X00050409Y01129013
X00046154Y01138656
X00042512Y01148547
X00039625Y01158684
X00037358Y01168977
X00020001Y01170001
Y01130001
X00030001Y01110001
X00040001Y01090001
X00060001
X00070001Y01070001
X00050001
X00030001
X00040001Y01050001
X00060001
X00080001
X00100001
X00110001Y01030001
X00130001
X00090001
X00070001
X00050001
X00030001
X00020001Y01050001
Y01090001
Y01010001
Y00970001
X00040001
X00060001
X00080001
X00100001
X00120001
X00140001
X00160001
X00184366Y00966369
Y00955829
Y00945289
Y00934749
Y00924209
Y00913669
Y00903129
Y00892589
X00184685Y00882054
X00187037Y0087178
X00170001Y00870001
X00150001
X00130001
X00110001
X00090001
X00070001
X00050001
X00030001
X00040001Y00890001
X00060001
X00080001
X00100001
X00120001
X00140001
X00160001
X00170001Y00910001
X00150001
X00130001
X00110001
X00090001
X00070001
X00050001
X00030001
X00040001Y00930001
X00060001
X00080001
X00100001
X00120001
X00140001
X00160001
X00170001Y00950001
X00150001
X00130001
X00110001
X00090001
X00070001
X00050001
X00030001
X00020001Y00930001
Y00890001
Y00850001
X00040001
X00060001
X00080001
X00100001
X00120001
X00140001
X00160001
X00180001
Y00810001
X00160001
X00140001
X00150001Y00790001
X00170001
X00184546Y00789397
X00184366Y00778859
X00215634Y00776927
Y00787467
X00212045Y00797377
X00220001Y00810001
X00240001
X00260001
X00280001
X00300002
X00320001
X00340001
X00360001
X00370001Y00830001
X00350001
X00330001
X00310002
X00290002
X00270001
X00250001
X00230001
Y00790001
X00250001
X00270001
X00290002
X00310002
X00330001
X00350001
X00370001
X00360001Y00850001
X00340001
X00320001
X00300002
X00280001
X00260001
X00270001Y00870001
X00290002
X00310002
X00330001
X00350001
X00370001
X00360001Y00890001
X00340001
X00320001
X00300002
X00280001
X00260001
X00240001
X00215634Y00887345
Y00897885
Y00908425
Y00918965
Y00929505
Y00940045
Y00950585
Y00961125
X00215003Y00971646
X00210198Y00981027
X00215634Y00996637
Y01007177
Y01017717
X00215783Y01028255
X00222536Y01036347
X00232983Y01037748
X00243242Y01040168
X00253336Y010432
X00263219Y01046863
X00272804Y01051247
X002821Y01056214
X00291081Y0106173
X00299714Y01067777
X00307968Y01074333
X00315707Y01081487
X00322976Y0108912
X00329771Y01097177
X00336071Y01105628
X00330001Y01070001
X00350001
X00370001
X00360001Y01050001
X00340001
X00320001
X00300002
X00310002Y01030001
X00330001
X00350001
X00370001
X00360001Y01010001
X00340001
X00320001
X00300002
X00280001
X00260001
X00240001
X00250001Y00990001
X00270001
X00290002
X00310002
X00330001
X00350001
X00370001
X00360001Y00970001
X00340001
X00320001
X00300002
X00280001
X00260001
X00240001
X00250001Y00950001
X00270001
X00290002
X00310002
X00330001
X00350001
X00370001
X00360001Y00930001
X00340001
X00320001
X00300002
X00280001
X00260001
X00240001
X00250001Y00910001
X00270001
X00290002
X00310002
X00330001
X00350001
X00370001
X00230001
Y00950001
Y00990001
X0018728Y00976498
X00174169Y01034517
X00184939Y01060712
X00180008Y01071402
X00169069Y01078073
X00157092Y01079241
X00146608Y01076725
X00137108Y0108129
X00127995Y01086586
X00119326Y0109258
X00111152Y01099235
X00103526Y0110651
X00096493Y01114361
X00090098Y01122739
X00084379Y01131593
X00079372Y01140867
X00075107Y01150506
X00071611Y01160449
X00068906Y01170636
X00090001Y01150001
X00130001Y01110001
X00180001Y01090001
X00200001
X00220001
X00240001
X00270001Y01110001
X00310002Y01150001
X00290002Y01030001
X00270001
X00250001Y00870001
X00110001Y00830001
X00090001
X00070001
X00050001
X00030001
X00040001Y00810001
X00060001
X00080001
X00100001
X00090001Y00790001
X00070001
X00050001
X00030001
X00020001Y00810001
X00035715Y01179388
X00034701Y01189879
X00034319Y01200412
X00034733Y01210944
X00035812Y01221429
X00037519Y0123183
X00039848Y01242109
X00042792Y0125223
X0004644Y01262118
X00050754Y01271735
X00055639Y01281075
X00061077Y01290103
X00067048Y01298789
X00073573Y01307066
X00080688Y01314843
X00088257Y01322178
X00096254Y01329044
X00104649Y01335417
X00113435Y01341239
X00122611Y01346425
X001321Y01351013
X00141847Y01355023
X00151818Y01358439
X00161977Y01361249
X00140001Y01370001
X00120001
X00090001Y01350001
X00060001Y01330001
X00050001Y01310001
X00040001Y01290001
X00030001Y01270001
X00020001Y01250001
Y01210001
X00066244Y0121255
X00065672Y01202025
X00065927Y01191488
X00067007Y01181004
X00090001Y01190001
X00080001Y01210001
X00067639Y01222997
X00069849Y01233303
X0007286Y01243403
X00076654Y01253237
X00081207Y01262743
X00086491Y01271863
X00092474Y0128054
X00099118Y01288722
X00106384Y01296358
X00114226Y013034
X00122596Y01309806
X00131442Y01315536
X0014071Y01320556
X00150343Y01324833
X00160282Y01328342
X00170465Y0133106
X00150001Y01310001
X00140001Y01290001
X00120001
X00110001Y01270001
X00100001Y01250001
X00090001Y01230001
X00310002
X00331025Y01229712
X00332951Y0121935
X00334059Y01208868
X00334342Y01198332
X00333798Y01187806
X00332431Y01177355
X00363535Y01173469
X00364823Y01183931
X00365479Y0119445
X00365501Y0120499
X00364889Y01215512
X00363612Y01225975
X00361589Y01236319
X0035891Y01246513
X00355623Y01256527
X00351739Y01266326
X00347274Y01275873
X00342124Y01285069
X00336381Y01293907
X00330118Y01302384
X00323355Y01310469
X00316119Y01318132
X00308379Y01325287
X00300153Y01331877
X00291546Y01337959
X00282588Y01343513
X00273312Y01348519
X0026374Y01352931
X00253861Y01356606
X0024378Y01359681
X00233531Y01362143
X00233133Y01330199
X00243238Y01327201
X00253076Y0132342
X00262588Y0131888
X00271715Y01313608
X002804Y01307636
X00288591Y01301003
X00296236Y01293747
X00303289Y01285915
X00309706Y01277553
X00315449Y01268715
X0032048Y01259453
X0032477Y01249826
X00328292Y01239892
X00320001Y01210001
X00310002Y01190001
X00300002Y01250001
X00290002Y01270001
X00280001Y01290001
X00260001
X00250001Y01310001
X00260001Y01370001
X00280001
X00310002Y01350001
X00340001Y01330001
X00350001Y01310001
X00360001Y01290001
X00370001Y01270001
X00380001Y01250001
X00390001Y01230001
X00380001Y01210001
X00390001Y01190001
X00453168Y01193182
X00447523Y01202083
X00442972Y0121159
X00439579Y01221569
X00437391Y01231879
X00436439Y01242376
X00436736Y01252912
X00438277Y01263338
X00441042Y01273509
X00445018Y01283271
X00450114Y01292497
X00456294Y01301035
X00463448Y01308776
X00471467Y01315615
X0048024Y01321458
X00489642Y01326221
X00499542Y01329837
X00499Y01296104
X00490081Y01290487
X00482373Y01283298
X00476037Y01274874
X00471424Y01265398
X00468615Y01255239
X0046762Y01244746
X00468699Y01234262
X00471618Y01224134
X00476283Y01214682
X00482708Y01206327
X00490492Y01199221
X00467406Y01177687
X00459827Y01185012
X00514369Y01176472
X00521864Y01183882
X00531539Y01188065
X00541856Y01190221
X00551604Y0119423
X00560481Y01199912
X00568083Y01207213
X00574295Y01215727
X00578839Y01225238
X005815Y01235436
X00582341Y01245943
X00581185Y01256419
X00578119Y01266503
X0057334Y01275898
X00566831Y01284188
X00558944Y01291179
X00549954Y01296682
X00554986Y01328446
X00564665Y01324274
X00573783Y01318986
X0058221Y01312656
X00589829Y01305373
X00596533Y0129724
X00602226Y0128837
X0060683Y01278888
X00610278Y01268928
X00612523Y0125863
X00613532Y01248138
X00613293Y01237601
X00611808Y01227166
X00609099Y0121698
X00605204Y01207186
X0060014Y01197942
X00594045Y01189344
X00586933Y01181564
X00578951Y01174681
X00670002Y01190001
X00684677Y01190494
X00684344Y01201029
X00684758Y01211561
X00685884Y0122204
X00687639Y01232433
X00690015Y01242702
X00693005Y01252809
X00696654Y01262698
X00701012Y01272294
X0070594Y01281611
X00711419Y01290615
X0071743Y01299273
X0072398Y01307531
X00731107Y01315296
X0073871Y01322596
X00746738Y01329425
X00755162Y01335759
X00763952Y01341576
X00773148Y01346726
X00750002Y01350001
X00730002
X00720002Y01330001
X007559Y0129591
X00763707Y01302991
X00772046Y01309438
X00748672Y01288239
X00742068Y01280025
X00736127Y01271318
X00730888Y01262173
X00726381Y01252645
X00722635Y01242793
X00719673Y01232678
X00717513Y01222362
X00716168Y01211908
X00715647Y01201381
X00715952Y01190845
X00717082Y01180366
X00730002Y01190001
X00740002Y01210001
Y01250001
X00670002Y01230001
X00660002Y01210001
X00685643Y01179999
X00680002Y01290001
X00760002Y01370001
X00780002
X00782658Y01351271
X00792424Y01355236
X0080241Y01358606
X00812582Y0136137
X0080964Y0132816
X00819809Y0133093
X00799718Y01324602
X00790107Y01320277
X00780863Y01315212
X00780002Y01290001
X00810002Y01310001
X00890002
X008926Y01327436
X00882481Y01330383
X00902458Y01323705
X00911993Y01319213
X00921146Y01313987
X00929862Y01308061
X00938086Y01301469
X00945769Y01294253
X00952862Y01286456
X00959322Y01278129
X0096511Y0126932
X00970189Y01260084
X00974529Y01250479
X00978103Y01240564
X00980889Y01230398
X00982869Y01220046
X00984032Y0120957
X0098437Y01199036
X00983881Y01188507
X00982569Y01178049
X00970002Y01190001
X00960002Y01210001
Y01250001
X01005623Y01256527
X0100891Y01246513
X01011589Y01236319
X01013612Y01225975
X01014889Y01215512
X01015501Y0120499
X01015479Y0119445
X01014823Y01183931
X01013535Y01173469
X01030002Y01190001
X01040002Y01210001
X01030002Y01230001
Y01270001
X01020002Y01290001
X00992124Y01285069
X00997274Y01275873
X01001739Y01266326
X00986381Y01293907
X00980118Y01302384
X00973355Y01310469
X00966119Y01318132
X00958379Y01325287
X00950153Y01331876
X00941545Y01337959
X00932588Y01343513
X00923312Y01348519
X0091374Y01352931
X00903861Y01356606
X0089378Y01359681
X00883531Y01362143
X00920002Y01370001
X00940002
X00950002Y01350001
X00970002
X00980002Y01330001
X00920002Y01290001
X01095367Y01284016
X01091326Y01274281
X01088416Y01264151
X01086782Y01253738
X01086392Y01243205
X01087251Y012327
X01089348Y01222371
X01092653Y01212362
X01097119Y01202815
X01102684Y01193864
X01109269Y01185635
X01116783Y01178243
X01125119Y01171793
X01133066Y01205926
X01126571Y01214227
X01121823Y01223637
X01118789Y01233731
X0111765Y01244209
X01118525Y01254713
X01121219Y01264903
X01125778Y01274406
X01132018Y012829
X01139643Y01290177
X0114853Y01295844
X01130971Y01321862
X01122147Y01316098
X01114067Y01309329
X01106845Y01301652
X01100583Y01293175
X01090002Y01190001
X01140931Y0119891
X01164669Y01176922
X01172304Y01184188
X0118207Y01188153
X01192374Y01190371
X01202076Y01194491
X0121091Y01200239
X01218441Y01207613
X01224556Y01216198
X01229045Y01225734
X0123159Y01235963
X01232311Y01246478
X01231095Y01256947
X01227914Y01266996
X01223029Y01276336
X01216473Y01284588
X01208506Y01291489
X01199458Y01296895
X01214665Y01324274
X01223783Y01318986
X0123221Y01312656
X01239829Y01305373
X01246533Y0129724
X01252226Y0128837
X0125683Y01278888
X01260278Y01268928
X01262523Y0125863
X01263532Y01248138
X01263293Y01237601
X01261808Y01227166
X01259099Y0121698
X01255203Y01207186
X0125014Y01197942
X01244045Y01189344
X01236933Y01181564
X01228951Y01174681
T02
X008125Y010525
X00161004Y01055158
X00494255Y01178733
X01145123Y01176675
T03
X00525Y01245
X01175
T04
X002Y012
X0085Y012
T05
X010475Y0011
Y0012
Y0013
Y0014
Y0015
X010775
Y0014
Y0013
Y0012
Y0011
X00652687Y00110961
Y00120961
Y00130961
Y00140961
Y00150961
X00622687
Y00140961
Y00130961
Y00120961
Y00110961
X00427694Y00110957
Y00120957
Y00130957
Y00140957
Y00150957
X00397694
Y00140957
Y00130957
Y00120957
Y00110957
X0039732Y00624455
Y00634455
Y00644455
Y00654455
Y00664455
X0042732
Y00654455
Y00644455
Y00634455
Y00624455
X00622314Y00624459
Y00634459
Y00644459
Y00654459
Y00664459
X00652314
Y00654459
Y00644459
Y00634459
Y00624459
X010475Y006225
Y006325
Y006425
Y006525
Y006625
X010775
Y006525
Y006425
Y006325
Y006225
Y01135
Y01145
Y01155
Y01165
X010475
X01047156Y01165055
Y01155055
X010475Y01155
Y01145
X01047156Y01145055
Y01135055
X010475Y01135
X006525Y011375
X00652493Y01147504
Y01157504
Y01167504
X00622493
Y01157504
Y01147504
X006225Y011375
X004275
Y011475
Y011575
Y011675
X003975
Y011575
Y011475
Y011375
Y011775
X004275
X00622493Y01177504
X00652493
X01047156Y01175055
X010475Y01175
X010775
M30
