G04 ================== begin FILE IDENTIFICATION RECORD ==================*
G04 Layout Name:  C:/Users/CAO-PCB/Documents/PCB/Badges/Samus/Samus.brd*
G04 Film Name:    Silkscreen_BOTTOM*
G04 File Format:  Gerber RS274X*
G04 File Origin:  Cadence Allegro 16.6-2015-S069*
G04 Origin Date:  Wed Feb 22 14:14:04 2017*
G04 *
G04 Layer:  BOARD GEOMETRY/OUTLINE*
G04 Layer:  BOARD GEOMETRY/SILKSCREEN_BOTTOM*
G04 *
G04 Offset:    (0.0000 0.0000)*
G04 Mirror:    No*
G04 Mode:      Positive*
G04 Rotation:  0*
G04 FullContactRelief:  No*
G04 UndefLineWidth:     0.1000*
G04 ================== end FILE IDENTIFICATION RECORD ====================*
%FSLAX45Y45*MOMM*%
%IR0*IPPOS*OFA0.00000B0.00000*MIA0B0*SFA1.00000B1.00000*%
%ADD10C,.2*%
%ADD11C,.15*%
%ADD12C,.1*%
G75*
%LPD*%
G75*
G36*
G01X8014700Y2062900D02*
X8175300Y1368000D01*
X7941700Y1400100D01*
X7918400Y1487700D01*
X7909600Y1560700D01*
Y1657100D01*
X7915400Y1735900D01*
X7935900Y1820600D01*
X7962200Y1911100D01*
X7994300Y1987000D01*
X8014700Y2062900D01*
G37*
G36*
G01X8566600Y1741700D02*
X8648400Y1668700D01*
X8928700Y1966600D01*
X9247000Y1928600D01*
X9387200Y1292000D01*
X7988400Y512400D01*
X8899500Y1525600D01*
X8820700Y1584000D01*
X8566600Y1309600D01*
X8555000Y1297900D01*
X8227900Y1338800D01*
X8105300Y1952000D01*
X9612000Y2857200D01*
X8566600Y1741700D01*
G37*
G36*
G01X8975400Y2010400D02*
X9527400Y1952000D01*
X9498200Y2004500D01*
X9474800Y2054200D01*
X9439700Y2103800D01*
X9393000Y2162200D01*
X9340500Y2209000D01*
X9299600Y2249800D01*
X9255800Y2290700D01*
X8975400Y2010400D01*
G37*
G36*
G01X9302500Y1914000D02*
X9463100Y1219000D01*
X9506900Y1286200D01*
X9539000Y1359200D01*
X9568200Y1467200D01*
X9579900Y1531500D01*
X9585800Y1657100D01*
X9579900Y1765100D01*
X9562400Y1843900D01*
X9547800Y1887700D01*
X9302500Y1914000D01*
G37*
G36*
G01X8622100Y810200D02*
X9395900Y1257000D01*
X9428100Y1137300D01*
X9325900Y1029200D01*
X9238300Y959100D01*
X9165300Y912400D01*
X9109800Y877400D01*
X9019300Y839400D01*
X8934600Y824800D01*
X8844000Y807300D01*
X8736000Y801500D01*
X8622100Y810200D01*
G37*
G36*
G01X8499500Y1265800D02*
X7959200Y1332900D01*
X8014700Y1227800D01*
X8064400Y1157700D01*
X8111100Y1093500D01*
X8175300Y1035100D01*
X8233700Y970800D01*
X8499500Y1265800D01*
G37*
G36*
G01X8014700Y2062900D02*
X8175300Y1368000D01*
X7941700Y1400100D01*
X7918400Y1487700D01*
X7909600Y1560700D01*
Y1657100D01*
X7915400Y1735900D01*
X7935900Y1820600D01*
X7962200Y1911100D01*
X7994300Y1987000D01*
X8014700Y2062900D01*
G37*
G36*
G01X8847000Y2460100D02*
X8099400Y2025000D01*
X8067300Y2115500D01*
X8119900Y2197300D01*
X8160700Y2229400D01*
X8213300Y2276100D01*
X8268800Y2308200D01*
X8303800Y2331600D01*
X8359300Y2372500D01*
X8397300Y2392900D01*
X8432300Y2407500D01*
X8519900Y2442600D01*
X8645500Y2468800D01*
X8733100D01*
X8847000Y2460100D01*
G37*
G36*
G01X8163700Y1931500D02*
X8277500Y1379600D01*
X8534500Y1353400D01*
X8832400Y1654100D01*
X8984200Y1508100D01*
X8175300Y664200D01*
X9317100Y1309600D01*
X9209100Y1884800D01*
X8946200Y1908200D01*
X8668800Y1610300D01*
X8657200Y1598600D01*
X8508200Y1730100D01*
X8490700Y1750500D01*
X9331700Y2617800D01*
X8163700Y1931500D01*
G37*
G36*
G01D02*
X8277500Y1379600D01*
X8534500Y1353400D01*
X8832400Y1654100D01*
X8984200Y1508100D01*
X8175300Y664200D01*
X9317100Y1309600D01*
X9209100Y1884800D01*
X8946200Y1908200D01*
X8668800Y1610300D01*
X8657200Y1598600D01*
X8508200Y1730100D01*
X8490700Y1750500D01*
X9331700Y2617800D01*
X8163700Y1931500D01*
G37*
G36*
G01X8165500Y1927700D02*
X8275900Y1390000D01*
X8528800Y1355100D01*
X8831100Y1651600D01*
X8985200Y1500500D01*
X8191600Y677900D01*
X9319400Y1311500D01*
X9209000Y1890000D01*
X8947400Y1913200D01*
X8662500Y1605100D01*
X8488100Y1753300D01*
X9331100Y2616600D01*
X8165500Y1927700D01*
G37*
G36*
G01X9358000Y1178100D02*
X9340500Y1175200D01*
X9328800Y1169400D01*
X9322900Y1151900D01*
Y1137300D01*
X9337500Y1122700D01*
X9352100Y1116800D01*
X9390100Y1113900D01*
X9401800Y1134300D01*
Y1154800D01*
X9384300Y1175200D01*
X9358000Y1178100D01*
G37*
G36*
G01X9395900Y1881900D02*
X9387200Y1876100D01*
X9372600Y1870200D01*
X9366700Y1858500D01*
Y1835200D01*
X9384300Y1820600D01*
X9407600Y1806000D01*
X9433900Y1808900D01*
X9448500Y1829300D01*
Y1849800D01*
X9439700Y1867300D01*
X9422200Y1879000D01*
X9395900Y1881900D01*
G37*
G36*
G01X9127300Y2103800D02*
X9109800D01*
X9098100Y2083400D01*
X9095200Y2065900D01*
X9109800Y2048300D01*
X9133100Y2042500D01*
X9153600D01*
X9159400Y2054200D01*
X9162300Y2071700D01*
X9156500Y2089200D01*
X9144800Y2100900D01*
X9127300Y2103800D01*
G37*
G36*
G01X8379700Y1248200D02*
X8356400Y1251200D01*
X8347600Y1242400D01*
X8341800Y1224900D01*
X8344700Y1207400D01*
X8365100Y1192700D01*
X8382700Y1186900D01*
X8400200Y1195700D01*
X8406000Y1213200D01*
X8408900Y1230700D01*
X8397300Y1242400D01*
X8379700Y1248200D01*
G37*
G36*
G01X8163700Y1931500D02*
X8277500Y1379600D01*
X8534500Y1353400D01*
X8832400Y1654100D01*
X8984200Y1508100D01*
X8175300Y664200D01*
X9317100Y1309600D01*
X9209100Y1884800D01*
X8946200Y1908200D01*
X8668800Y1610300D01*
X8657200Y1598600D01*
X8508200Y1730100D01*
X8490700Y1750500D01*
X9331700Y2617800D01*
X8163700Y1931500D01*
G37*
G36*
G01X8087700Y1476000D02*
X8076000Y1473100D01*
X8067300Y1458500D01*
X8055600Y1443900D01*
Y1423400D01*
X8084800Y1408800D01*
X8102300D01*
X8116900Y1429300D01*
Y1449700D01*
X8087700Y1476000D01*
G37*
G54D10*
G01X1417500Y2692200D02*
X1475600Y2689300D01*
X1536600Y2683500D01*
X1612200Y2677700D01*
X1684900Y2663100D01*
X1757600Y2642800D01*
X1824400Y2613700D01*
X1900000Y2596300D01*
X1940700Y2567200D01*
X1987200Y2535300D01*
X2048200Y2494600D01*
X2103500Y2456800D01*
X2141200Y2421900D01*
X2187800Y2378300D01*
X2251700Y2326000D01*
X2283700Y2276600D01*
X2315600Y2235900D01*
X2379600Y2137000D01*
X2452300Y1974300D01*
X2507500Y1782400D01*
X2533700Y1622500D01*
X2524900Y1451000D01*
X2490100Y1317300D01*
X2440600Y1169100D01*
X2376700Y1032500D01*
X2280800Y895900D01*
X2257500Y910400D01*
X2248800Y843500D01*
X2234300Y770900D01*
X2225500Y715600D01*
X2196500Y634200D01*
X2173200Y558700D01*
X2112200Y497600D01*
X2019200Y410400D01*
X1984300Y375500D01*
X1926100Y329000D01*
X1824400Y326100D01*
X1821500Y334900D01*
X1844800Y378500D01*
X1873800Y422100D01*
X1894200Y462800D01*
X1920300Y535400D01*
X1949400Y599400D01*
Y698200D01*
X1940700Y770900D01*
X1929100Y785400D01*
X1905800Y794100D01*
X1885500Y799900D01*
X1821500Y884200D01*
X1809900Y881300D01*
X1786600Y858100D01*
X1775000Y808700D01*
X1751700Y738900D01*
X1731400Y695300D01*
X1722700Y672000D01*
X1702300Y628400D01*
X1670400Y602300D01*
X1612200Y581900D01*
X1565700Y596500D01*
Y782500D01*
X1559900Y834800D01*
X1539600Y881300D01*
X1519200Y910400D01*
X1496000Y936500D01*
X1469800Y954000D01*
X1437800D01*
X1400000Y948200D01*
X1359300Y916200D01*
X1324500Y875500D01*
X1307000Y823200D01*
X1304100Y782500D01*
Y643000D01*
X1298300Y581900D01*
X1280900Y567400D01*
X1248900Y561600D01*
X1187800Y587700D01*
X1147100Y640100D01*
X1115200Y701100D01*
X1080300Y799900D01*
X1051200Y872600D01*
X1028000Y852300D01*
X972700Y823200D01*
X935000Y797000D01*
X917500Y770900D01*
X900100Y733100D01*
X903000Y672000D01*
X917500Y605200D01*
X946600Y532500D01*
X975600Y451100D01*
X1016300Y404600D01*
X1036700Y355200D01*
X1022200Y314500D01*
X966900Y320300D01*
X908800Y352300D01*
X792500Y442400D01*
X740200Y497600D01*
X690800Y564500D01*
X655900Y643000D01*
X632700Y727300D01*
X615200Y840600D01*
X621000Y884200D01*
X740200Y1026700D01*
X801200Y1041200D01*
X844800Y1035400D01*
X879700Y1020800D01*
X926200Y980100D01*
X940800Y948200D01*
X943700Y904600D01*
X917500Y829000D01*
X911700Y802800D01*
X905900Y765100D01*
Y738900D01*
G01X1417500Y2692200D02*
G03X321600Y1596300I0J-1095900D01*
G01Y1593500D01*
G01Y1596300D02*
X333300Y1427800D01*
X356500Y1337700D01*
X368100Y1294100D01*
X374000Y1262100D01*
X391400Y1215600D01*
X411700Y1166200D01*
X426300Y1131300D01*
X478600Y1032500D01*
X484400Y1015000D01*
X516400Y965600D01*
X557100Y913300D01*
X621000Y884200D01*
G01X1929100Y785400D02*
X1952200Y914900D01*
X2002000Y974000D01*
X2070500Y989600D01*
X2132800D01*
X2160800Y983400D01*
X2229300Y942900D01*
X2257500Y910400D01*
G01X3537100Y4677500D02*
X3495100Y4603300D01*
X3474300Y4561700D01*
X3458700Y4499200D01*
X3443100Y4431600D01*
X3406600Y4311900D01*
X3385800Y4249400D01*
X3370200Y4181700D01*
X3354600Y4119300D01*
X3313000Y4036000D01*
X3286900Y3973500D01*
X3240100Y3879800D01*
X3198400Y3812200D01*
X3156800Y3754900D01*
X3089100Y3692500D01*
X3031900Y3656000D01*
X3005900Y3614400D01*
X2995400Y3583200D01*
X2959000Y3541500D01*
X2922600Y3520700D01*
X2880900Y3531100D01*
X2802900Y3572700D01*
X2745600Y3588400D01*
X2719600Y3619600D01*
X2730000Y3682000D01*
X2750800Y3728900D01*
X2771600Y3791400D01*
X2761200Y3848600D01*
X2730000Y3926700D01*
Y3957900D01*
X2740400Y4072400D01*
X2750800Y4150500D01*
X2771600Y4254600D01*
X2792500Y4322300D01*
X2823700Y4410700D01*
X2839300Y4478400D01*
X2854900Y4572100D01*
X2865300Y4639800D01*
X2886100Y4707400D01*
X2907000Y4780300D01*
X2933000Y4863600D01*
X2943400Y4926000D01*
X2948600Y4972900D01*
X2953800Y5087400D01*
X2933000Y5160300D01*
X2948600Y5259200D01*
X2995400Y5300800D01*
X3042300Y5368500D01*
X3073500Y5462200D01*
X3115200Y5524600D01*
X3125600Y5555900D01*
X3162000Y5618300D01*
X3188000Y5670400D01*
X3219300Y5727600D01*
X3250500Y5800500D01*
X3307700Y5873400D01*
X3339000Y5915000D01*
X3396200Y5941000D01*
X3453500Y5873400D01*
X3458700Y5842100D01*
Y5628700D01*
X3448300Y5571500D01*
Y5561100D01*
X3474300Y5571500D01*
X3521200Y5618300D01*
X3562800Y5644300D01*
X3646100Y5654700D01*
X3672100Y5660000D01*
X3687700D01*
X3776200Y5639100D01*
X3781400Y5660000D01*
G01X3313000Y4036000D02*
X3245300D01*
X3208900Y4046400D01*
X3172400Y4051600D01*
X3130800Y4062000D01*
X3104800Y4077600D01*
X3078700Y4082800D01*
X3026700Y4098400D01*
X3005900Y4108900D01*
X2974600Y4124500D01*
X2953800Y4145300D01*
X2927800Y4155700D01*
X2917400Y4166100D01*
X2891300Y4181700D01*
X2886100D01*
X2849700Y4202500D01*
X2839300Y4207800D01*
X2823700Y4223400D01*
X2818500Y4233800D01*
X2808100Y4249400D01*
X2802900Y4270200D01*
Y4291000D01*
X2792500Y4322300D01*
G01X3281800Y3983900D02*
X3214100D01*
X3177700Y3994300D01*
X3141200Y3999500D01*
X3099600Y4009900D01*
X3073600Y4025500D01*
X3047500Y4030700D01*
X2995500Y4046300D01*
X2974700Y4056800D01*
X2943400Y4072400D01*
X2922600Y4093200D01*
X2896600Y4103600D01*
X2886200Y4114000D01*
X2860100Y4129600D01*
X2854900D01*
X2818500Y4150400D01*
X2808100Y4155700D01*
X2792500Y4171300D01*
X2787300Y4181700D01*
X2776900Y4197300D01*
X2771700Y4218100D01*
Y4238900D01*
X2761300Y4270200D01*
G01X3271400Y3926700D02*
X3203700D01*
X3167300Y3937100D01*
X3130800Y3942300D01*
X3089200Y3952700D01*
X3063200Y3968300D01*
X3037100Y3973500D01*
X2985100Y3989100D01*
X2964300Y3999600D01*
X2933000Y4015200D01*
X2912200Y4036000D01*
X2886200Y4046400D01*
X2875800Y4056800D01*
X2849700Y4072400D01*
X2844500D01*
X2808100Y4093200D01*
X2797700Y4098500D01*
X2782100Y4114100D01*
X2776900Y4124500D01*
X2766500Y4140100D01*
X2761300Y4160900D01*
Y4181700D01*
X2750900Y4213000D01*
G01X3261000Y3874600D02*
X3193300D01*
X3156900Y3885000D01*
X3120400Y3890200D01*
X3078800Y3900600D01*
X3052800Y3916200D01*
X3026700Y3921400D01*
X2974700Y3937000D01*
X2953900Y3947500D01*
X2922600Y3963100D01*
X2901800Y3983900D01*
X2875800Y3994300D01*
X2865400Y4004700D01*
X2839300Y4020300D01*
X2834100D01*
X2797700Y4041100D01*
X2787300Y4046400D01*
X2771700Y4062000D01*
X2766500Y4072400D01*
X2756100Y4088000D01*
X2750900Y4108800D01*
Y4129600D01*
X2740500Y4160900D01*
G01X3260900Y5118600D02*
X3016300Y4504400D01*
X3021500Y4369100D01*
X3037100Y4291000D01*
X3047500Y4233800D01*
Y4192100D01*
X3005900Y4108900D01*
G01X3156800Y3754900D02*
X3068300Y3760100D01*
X3005900D01*
X2927800Y3786100D01*
X2896600Y3796600D01*
X2813300Y3827800D01*
X2761200Y3848600D01*
Y3874600D01*
G01X3005900Y3614400D02*
X2922600Y3630000D01*
X2860100Y3645600D01*
X2813300Y3682000D01*
X2787200Y3702900D01*
X2750800Y3728900D01*
G01X4794400Y1640100D02*
X4799600Y1717900D01*
X4833300Y1769700D01*
X4839300Y1792700D01*
X4844500Y1855200D01*
X4834100Y1941100D01*
X4838500Y2057500D01*
X4765900Y2451400D01*
X4646600Y2757300D01*
X4594800Y2866100D01*
X4558200Y3031000D01*
X4545600Y3161600D01*
X4550700Y3216000D01*
X4558500Y3280800D01*
X4602600Y3353400D01*
X4607800Y3431200D01*
X4618100Y3462300D01*
X4644000Y3464900D01*
X4610400Y3542600D01*
X4553300Y3661900D01*
X4491100Y3768100D01*
X4417700Y3947100D01*
X4327800Y4206200D01*
X4277200Y4373900D01*
X4255100Y4624200D01*
X4238100Y4891800D01*
X4249900Y5066600D01*
X4270700Y5149900D01*
X4317500Y5201900D01*
X4416400D01*
X4473000Y5209300D01*
X4522200Y5266300D01*
X4641500Y5452900D01*
X4577800Y5498600D01*
X4567400Y5529800D01*
X4572600Y5571500D01*
X4609000Y5633900D01*
X4624600Y5680800D01*
X4655800Y5753600D01*
X4671500Y5805700D01*
X4703500Y5844300D01*
X4768100Y5881500D01*
X4807800Y5941000D01*
X4832600Y5965800D01*
X4862300Y6015400D01*
X4867300Y6055000D01*
X4862300Y6084800D01*
X4857400Y6109600D01*
Y6124500D01*
G01X3700400Y6445700D02*
X3826100Y6438300D01*
X3843400Y6477700D01*
X4040500Y6507300D01*
G01X3673300Y6495000D02*
X3779300Y6477700D01*
X3806400Y6517200D01*
X3951800Y6519600D01*
G01X4651800Y7298500D02*
X4619700Y7288600D01*
X4607400Y7266400D01*
X4592600Y7241800D01*
X4572900Y7209700D01*
X4560600Y7182600D01*
X4545800Y7145700D01*
X4516200Y7079100D01*
X4501400Y7047100D01*
X4479300Y6990400D01*
X4466900Y6948500D01*
X4452100Y6896700D01*
X4432400Y6849900D01*
X4415200Y6812900D01*
X4400400Y6768600D01*
X4383100Y6729100D01*
X4370800Y6694600D01*
X4360900Y6628100D01*
X4341200Y6564000D01*
X4324000Y6514700D01*
X4304300Y6438300D01*
X4299300Y6398800D01*
X4291900Y6374200D01*
X4287000Y6347100D01*
X4084900Y6379100D01*
X4040500Y6507300D01*
X3596900Y6620700D01*
X3641300Y6551700D01*
X3754600D01*
X3774300Y6561500D01*
G01X3754300Y9723000D02*
X3581100Y9310200D01*
X3200000Y9313100D01*
X3254800Y9186000D01*
X2847700Y8345900D01*
X2677400Y8270800D01*
X2784200Y8065800D01*
X7123600Y8086000D01*
X7175500Y8126500D01*
X7322800Y8400700D01*
X7314100Y8493100D01*
X6953200Y9188900D01*
X6806000Y9287100D01*
X6690500Y9313100D01*
X6312300Y9723000D01*
X6323800Y9798100D01*
X6309400Y9878900D01*
X6269000Y9974200D01*
X6196800Y10060800D01*
X4017000D01*
X3927500Y9988600D01*
X3881300Y9928000D01*
X3861100Y9864500D01*
X3849600Y9809600D01*
X3838000Y9731700D01*
X3866900Y9691300D01*
X3933300Y9624900D01*
X3962200Y9598900D01*
X3982400Y9575800D01*
X3985300Y9546900D01*
X3970800Y9518000D01*
X3959300Y9500700D01*
X3942000Y9483400D01*
X3927500Y9466100D01*
X3904400Y9463200D01*
X3861100D01*
X3843800Y9483400D01*
X3754300Y9723000D01*
G01X4401100Y7369300D02*
X4336600Y7394100D01*
X4311800Y7225500D01*
X4361400Y7195700D01*
X4401100Y7369300D01*
X4361400Y7205600D01*
X4371300Y7126300D01*
X4501400Y7047100D01*
G01X4663900Y6258400D02*
X4673900D01*
X4713500Y6268300D01*
X4733400Y6273300D01*
X4753200Y6278200D01*
X4768100Y6293100D01*
X4783000Y6312900D01*
X4792900Y6342700D01*
Y6377400D01*
X4778000Y6412100D01*
X4743300Y6451800D01*
X4698700Y6491500D01*
X4663900Y6506300D01*
X4584600Y6496400D01*
X4540000Y6481600D01*
X4520100Y6446800D01*
X4510200Y6407200D01*
Y6347600D01*
X4544900Y6303000D01*
X4663900Y6258400D01*
X4654000Y6253400D01*
G01X4360900Y6628100D02*
X4113500Y6754300D01*
X4078700Y6932900D01*
X3885300Y6947700D01*
X3791100Y6937800D01*
X3711800Y6913000D01*
X3667100Y6868400D01*
Y6818800D01*
X3672100Y6779100D01*
X3701800Y6739400D01*
X3706800Y6714600D01*
X3672100Y6665000D01*
X3662200Y6640300D01*
G01X3786600Y5410100D02*
X3807400Y5394500D01*
X3812600Y5332000D01*
Y5295600D01*
X3807400Y5238300D01*
X3797000Y5186300D01*
X3781400Y5123800D01*
X3771000Y5071800D01*
X3760600Y5024900D01*
X3745000Y4983300D01*
X3729400Y4931200D01*
X3698100Y4894800D01*
X3666900Y4858400D01*
X3640900Y4832400D01*
X3614800Y4827100D01*
X3573200Y4874000D01*
X3562800Y4915600D01*
X3552400Y4983300D01*
Y5035300D01*
X3557600Y5097800D01*
X3573200Y5165500D01*
X3625300Y5269600D01*
X3656500Y5321600D01*
X3739800Y5373700D01*
X3755400Y5394500D01*
X3765800D01*
G01X4473000Y5209300D02*
X4416400Y5201900D01*
X4358900Y5206700D01*
X4412500Y5123400D01*
X4438500Y5074000D01*
X4469700Y5011500D01*
X4521800Y4925600D01*
X4594600Y4847500D01*
X4698700Y4753800D01*
X4735200Y4722600D01*
X4776800Y4675800D01*
X4805400Y4644500D01*
X4844500Y4605500D01*
X4891300Y4563900D01*
X4951200Y4509200D01*
X5000600Y4475400D01*
X5073500Y4431100D01*
X5120400Y4412900D01*
X5156800Y4399900D01*
X5185800Y4395400D01*
X5185400Y4431100D01*
X5183200Y4470600D01*
G01X4599500Y6248500D02*
Y6213700D01*
X4589600Y6184000D01*
X4564800Y6134400D01*
X4501400Y6098200D01*
X4515300Y6050300D01*
X4551700Y6024300D01*
X4572600Y5998300D01*
X4447600Y6118000D01*
X4411200Y6159600D01*
X4395600Y6190900D01*
X4390400Y6237700D01*
X4380000Y6263700D01*
X4364400Y6347000D01*
X4343500Y6373000D01*
X4287000Y6347100D01*
X4098900Y6326200D01*
X4088500Y6310600D01*
X4109300Y6222100D01*
Y6112800D01*
X4083300Y6055500D01*
X4036400Y5998300D01*
X3984400Y5941000D01*
X3942800Y5889000D01*
X3906300Y5836900D01*
X3849100Y5769300D01*
X3801500Y5766100D01*
G01X3520500Y5825300D02*
X3495800Y5845000D01*
X3626500Y6135800D01*
X3678200Y6325600D01*
X3693000Y6367500D01*
X3700400Y6446400D01*
X3673300Y6495700D01*
X3641300Y6552400D01*
X3596900Y6621400D01*
X3518000Y6685500D01*
X3500800Y6756900D01*
X3493400Y6865400D01*
Y6922100D01*
X3488400Y7018200D01*
X3500800Y7069900D01*
X3522900Y7119200D01*
X3540200Y7163600D01*
X3557500Y7210400D01*
X3584600Y7264700D01*
X3616600Y7306600D01*
X3651100Y7353400D01*
X3697900Y7390400D01*
X3759600Y7439700D01*
X3816200Y7471700D01*
X3892700Y7516100D01*
X3937000Y7535800D01*
X3961700Y7543200D01*
X4050400Y7558000D01*
X4114500Y7562900D01*
X4183500D01*
X4262400Y7548100D01*
X4304300Y7535800D01*
X4356000Y7523500D01*
X4388100Y7506200D01*
X4432400Y7484000D01*
X4481700Y7461800D01*
X4508800Y7447000D01*
X4548300Y7417500D01*
X4572900Y7390400D01*
X4607400Y7358300D01*
X4624700Y7333700D01*
X4651800Y7299200D01*
X4656700Y7272100D01*
X4654200Y7242500D01*
X4646900Y7210400D01*
X4644400Y7175900D01*
X4634500Y7121700D01*
X4627100Y7094600D01*
X4619700Y7055200D01*
Y7052700D01*
X4681400Y7065000D01*
X4715900Y7072400D01*
X4706000Y7094600D01*
X4686300Y7121700D01*
X4661600Y7198100D01*
Y7222800D01*
X4664100Y7252300D01*
X4671500Y7306600D01*
X4701100Y7355900D01*
X4713400Y7363200D01*
X4735600Y7375600D01*
X4743000Y7380500D01*
X4765200Y7432300D01*
Y7481600D01*
X4779900Y7535800D01*
X4799700Y7560400D01*
X4829200Y7597400D01*
X4863700Y7634400D01*
X4910600Y7678700D01*
X4957400Y7705800D01*
X5014100Y7728000D01*
X5078200Y7740300D01*
X5112700Y7742800D01*
X5137300Y7745300D01*
X5179200D01*
X5221100Y7742800D01*
X5263000Y7733000D01*
X5327100Y7718200D01*
X5341900Y7710800D01*
X5388700Y7678700D01*
X5415800Y7644200D01*
X5440500Y7617100D01*
X5462700Y7585100D01*
X5484800Y7555500D01*
X5502100Y7518500D01*
X5519400Y7464300D01*
Y7434700D01*
X5534100Y7390400D01*
X5558800Y7368200D01*
X5588400Y7343500D01*
X5600700Y7316400D01*
X5610500Y7289300D01*
X5620400Y7257300D01*
X5625300Y7210400D01*
X5617900Y7166100D01*
X5603200Y7131600D01*
X5578500Y7082300D01*
X5664800Y7045300D01*
X5632700Y7148800D01*
X5625300Y7309000D01*
X5728900Y7412500D01*
X5758400Y7429800D01*
X5792900Y7456900D01*
X5847200Y7481600D01*
X5871800Y7496300D01*
X5921100Y7508700D01*
X5963000Y7521000D01*
X6007400Y7533300D01*
X6039400Y7538200D01*
X6081300Y7545600D01*
X6120700Y7548100D01*
X6244000D01*
X6278500Y7543200D01*
X6317900Y7530800D01*
X6394300Y7501300D01*
X6443600Y7486500D01*
X6485500Y7464300D01*
X6522500Y7437200D01*
X6569300Y7395300D01*
X6603800Y7355900D01*
X6643300Y7311500D01*
X6670400Y7284400D01*
X6697500Y7247400D01*
X6719700Y7200600D01*
X6734500Y7168500D01*
X6761600Y7102000D01*
X6776400Y7062600D01*
X6791100Y7000900D01*
X6793600Y6973800D01*
X6798500Y6912200D01*
Y6845700D01*
X6788700Y6798800D01*
X6778800Y6769300D01*
X6769000Y6737200D01*
X6759100Y6692800D01*
X6746800Y6670700D01*
X6594000Y6616400D01*
X6537300Y6601700D01*
X6475700Y6589300D01*
X6421400Y6581900D01*
X6347500Y6559800D01*
X6285900Y6540000D01*
X6229200Y6527700D01*
X6194700Y6404500D01*
X5990100Y6355200D01*
X5967900Y6495700D01*
X5960500Y6525200D01*
X5879200Y6776600D01*
X5849600Y6885100D01*
X5797900Y7033000D01*
X5763400Y7121700D01*
X5719000Y7205500D01*
X5647500Y7309000D01*
G01X3783500Y5621600D02*
X3797000Y5571500D01*
X3786600Y5529800D01*
X3797000Y5457000D01*
X3807400Y5394500D01*
X3817800Y5368500D01*
X3812600Y5332000D01*
Y5295600D01*
X3729400Y4931200D01*
X3666900Y4858400D01*
X3640900Y4832400D01*
X3604400Y4780300D01*
X3583600Y4743900D01*
X3537100Y4677500D01*
X3458700Y4681400D01*
X3432700Y4712600D01*
X3406600Y4754300D01*
X3391000Y4821900D01*
X3375400Y4879200D01*
X3365000Y4952100D01*
Y5014500D01*
X3375400Y5097800D01*
X3365000Y5155100D01*
X3385800Y5248800D01*
X3422300Y5326800D01*
X3453500Y5404900D01*
X3479500Y5462200D01*
X3521200Y5519400D01*
X3573200Y5566300D01*
X3635700Y5607900D01*
X3703300Y5628700D01*
X3783500Y5621600D01*
X3776200Y5639100D01*
X3786600Y5727600D01*
G01X3448300Y5561100D02*
X3417100Y5509000D01*
X3396200Y5441300D01*
X3380600Y5389300D01*
X3365000Y5337200D01*
X3344200Y5280000D01*
X3313000Y5217500D01*
X3281700Y5165500D01*
X3260900Y5118600D01*
X3224500Y5056200D01*
X3177600Y4988500D01*
X3151600Y4967700D01*
X3125600Y4931200D01*
X3089100Y4884400D01*
X3052700Y4848000D01*
X3021500Y4811500D01*
X3000700Y4848000D01*
X2990200Y4879200D01*
X2943400Y4926000D01*
X2948600Y4972900D01*
X2964200D01*
G01X4809900Y1023300D02*
X4797000Y854800D01*
G01X5967900Y6184400D02*
X5933400Y6251000D01*
X5869300Y6238600D01*
X5849600Y6228800D01*
X5832400Y6184400D01*
X5825000Y6157300D01*
X5810200Y6135100D01*
X5795400Y6115400D01*
X5765800Y6063600D01*
X5728900Y6024200D01*
X5694300Y5987200D01*
X5667200Y5957700D01*
X5645100Y5920700D01*
X5593300Y5844300D01*
X5583400Y5824600D01*
X5578500Y5782700D01*
X5576000Y5755600D01*
X5577100Y5719900D01*
Y5670600D01*
X5597900Y5613600D01*
X5608300Y5574700D01*
X5618600Y5546200D01*
X5629000Y5525500D01*
X5641900Y5504700D01*
X5644500Y5491800D01*
X5636800Y5471000D01*
Y5452900D01*
X5657500Y5442500D01*
X5667900Y5432200D01*
X5683400Y5421800D01*
X5693800Y5411400D01*
X5699000Y5377700D01*
Y5351800D01*
X5709300Y5336300D01*
X5730100Y5331100D01*
X5750800Y5318100D01*
X5758600Y5315500D01*
X5761200Y5302600D01*
X5756000Y5266300D01*
Y5245500D01*
X5769000Y5232600D01*
X5792300Y5224800D01*
X5815600Y5211800D01*
X5826000Y5180700D01*
Y5162600D01*
X5823400Y5144500D01*
X5859700Y5162600D01*
X5872600Y5183300D01*
X5893400Y5191100D01*
X5911500Y5196300D01*
X5945200Y5193700D01*
X5968500Y5165200D01*
X5976300Y5144500D01*
X5984100Y5100400D01*
X6010000Y5014900D01*
X6023000Y4978600D01*
X6033300Y4919000D01*
X6035900Y4887900D01*
X6041100Y4823100D01*
X6043700Y4768600D01*
X6046300Y4716800D01*
X6043700Y4667500D01*
X6041100Y4633800D01*
X6035900Y4582000D01*
X6030700Y4543100D01*
X6028100Y4522400D01*
X6010000Y4395400D01*
X5981500Y4283900D01*
X5947800Y4180300D01*
G01X5144300Y4131000D02*
X5133900Y4071400D01*
X5152100Y4035100D01*
Y3996200D01*
X5162400Y3941800D01*
Y3869200D01*
X5167600Y3814800D01*
Y3578900D01*
X5165000Y3519300D01*
X5159800Y3454500D01*
X5133900Y3400100D01*
X5121000Y3431200D01*
X5110600Y3462300D01*
X5105400Y3506300D01*
X5108000Y3537400D01*
X5113200Y3602200D01*
Y3700700D01*
X5110600Y3773300D01*
X5102800Y3851100D01*
X5133900Y4071400D01*
X5144300Y4131000D01*
X5146900Y4226900D01*
X5115800Y4377200D01*
G01X5531800Y4661500D02*
X5546700Y4626800D01*
X5576500Y4552400D01*
X5601300Y4433300D01*
X5596300Y4383700D01*
X5591300Y4304400D01*
X5576500Y4230000D01*
X5566600Y4175500D01*
Y4140700D01*
X5551700Y4058900D01*
X5561600Y3974600D01*
X5556600Y3875400D01*
X5536800Y3796100D01*
X5531800Y3761300D01*
X5536800Y3716700D01*
X5606200Y3687000D01*
X5650900Y3662200D01*
X5685600Y3642300D01*
X5690500Y3622500D01*
Y3597700D01*
X5675700Y3543100D01*
X5649700Y3457100D01*
X5626100Y3434000D01*
X5623800Y3400100D01*
X5649700Y3457100D01*
X5730100Y3604800D01*
X5802700Y3755200D01*
X5867400Y3910700D01*
X5916700Y4042900D01*
X5947800Y4180300D01*
G01X5172800Y4346100D02*
X5189600Y4292000D01*
X5199600Y4197800D01*
X5219400Y4068800D01*
X5239200Y3969600D01*
X5254100Y3900200D01*
X5259100Y3825800D01*
X5264000Y3801000D01*
X5273900Y3731600D01*
X5303700Y3706800D01*
X5363200Y3667100D01*
X5507000Y3731600D01*
X5536800Y3716700D01*
X5442600Y3706800D01*
X5393000Y3667100D01*
X5363200Y3587800D01*
X5353300Y3558000D01*
X5303700Y3468700D01*
Y3424100D01*
X5333500Y3364600D01*
X5397900Y3374500D01*
X5497100Y3384400D01*
X5623800Y3400100D01*
X5675700Y3339800D01*
X5685600Y3290200D01*
X5725300Y3240600D01*
X5764900Y3181100D01*
X5794700Y3086900D01*
X5809600Y3022400D01*
X5824400Y2943100D01*
X5829400Y2843900D01*
Y2729800D01*
X5804600Y2571100D01*
X5779800Y2486800D01*
X5730200Y2343000D01*
X5710400Y2253700D01*
X5665700Y2154500D01*
X5640900Y2070200D01*
X5626100Y1990900D01*
X5591300Y1861900D01*
X5581400Y1762700D01*
Y1673500D01*
X5571500Y1504800D01*
Y1385800D01*
X5581400Y1375900D01*
X5611200Y1351100D01*
X5650900Y1336200D01*
X5665700Y1331300D01*
X5680600Y1291600D01*
X5675700Y1222200D01*
X5640900Y1157700D01*
X5606200Y1123000D01*
X5591300Y1078300D01*
X5616100Y1028700D01*
X5626100Y944400D01*
X5631000Y880000D01*
Y711300D01*
X5606200Y632000D01*
X5586400Y582400D01*
X5561600Y552600D01*
X5521900Y537800D01*
X5442600Y527900D01*
X5422700D01*
X5385400Y593400D01*
X5397900Y602200D01*
X5411300Y640000D01*
X5452800Y756600D01*
X5455400Y808500D01*
X5422700Y914700D01*
X5417800Y969200D01*
X5407900Y1058500D01*
X5348300Y1098200D01*
X5303700Y1108100D01*
X5219400D01*
X5135100Y1113100D01*
X5070600Y1098200D01*
X4981300Y1078300D01*
X4911900Y1043600D01*
X4882200Y974200D01*
X4852400Y894800D01*
X4837500Y805600D01*
X4817700Y634800D01*
X4835900Y593400D01*
X4864400Y531100D01*
X4837500Y453500D01*
X4847400Y398900D01*
X4872200Y324500D01*
X4887100Y314600D01*
X4907000Y304700D01*
X5323500Y289800D01*
X5388000Y294800D01*
X5422700Y319600D01*
X5427700Y359200D01*
X5432600Y418700D01*
X5422700Y527900D01*
G01X5303700Y3424100D02*
X5259100Y3513400D01*
Y3572900D01*
X5264000Y3647300D01*
X5273900Y3731600D01*
G01X5102800Y3851100D02*
X5045800Y3855600D01*
X4976400Y3900200D01*
X4907000Y3930000D01*
X4897000Y4014300D01*
X4852400Y4115900D01*
X4842500Y4170500D01*
X4812700Y4244900D01*
X4792900Y4304400D01*
X4787900Y4383700D01*
X4778000Y4443300D01*
X4773600Y4652000D01*
G01X5113200Y3602200D02*
X4981300Y3548100D01*
X4897000Y3538200D01*
X4797900Y3548100D01*
X4713500Y3577800D01*
X4723500Y3567900D01*
G01X5159800Y3454500D02*
X5234300Y3404300D01*
X5264000Y3329900D01*
X5283900Y3280300D01*
X5293800Y3210900D01*
X5313600Y3116600D01*
X5318600Y3047200D01*
X5313600Y2938100D01*
X5288800Y2833900D01*
X5259100Y2734800D01*
X5239200Y2660400D01*
X5219400Y2511600D01*
X5204500Y2338000D01*
Y1896600D01*
X5214400Y1852000D01*
X5259100Y1762700D01*
X5278900Y1723100D01*
X5303900Y1675500D01*
X5327300Y1646900D01*
X5337700Y1605300D01*
X5358300Y1539600D01*
X5340300Y1537600D01*
G01X5055700Y3607600D02*
X4971400Y3622500D01*
X4921800Y3637400D01*
X4822600Y3642300D01*
X4773100Y3627400D01*
X4713500Y3612600D01*
X4654500Y3587900D01*
X4713500Y3577800D01*
G01X5075600Y3662200D02*
X4986300Y3721700D01*
X4951600Y3736500D01*
X4817700D01*
X4792900Y3721700D01*
X4753200Y3696900D01*
X4708600Y3657200D01*
X4657100Y3632200D01*
G01X5110600Y3773300D02*
X4956600Y3810900D01*
X4892100Y3815900D01*
X4852400Y3825800D01*
X4787900Y3820900D01*
X4753200Y3796100D01*
X4693700Y3731600D01*
X4641500Y3679000D01*
G01X5121000Y3431200D02*
X5133900Y3400100D01*
X5070600Y3354700D01*
X5030900Y3300100D01*
X5016100Y3250500D01*
X4986300Y3111700D01*
Y2982700D01*
X5013700Y2870200D01*
X5050800Y2779400D01*
X5096900Y2687500D01*
X5123000Y2638000D01*
X5151600Y2588600D01*
X5172400Y2562500D01*
X5193200Y2528700D01*
X5219400Y2511600D01*
G01X4673900Y3057100D02*
X4688700Y3067000D01*
X4708600Y3072000D01*
X4753200Y3067000D01*
X4778000Y3032300D01*
X4792900Y2987700D01*
X4807800Y2933100D01*
X4817700Y2878600D01*
X4822600Y2843900D01*
X4807800Y2794300D01*
X4802800Y2764500D01*
X4768100Y2739700D01*
X4733400Y2729800D01*
X4708600Y2769500D01*
X4683800Y2848800D01*
X4678800Y2898400D01*
Y3002600D01*
X4673900Y3057100D01*
G01X5407900Y1058500D02*
X5427700Y1147800D01*
Y1227100D01*
X5422700Y1281700D01*
Y1316400D01*
X5442600Y1395700D01*
X5447500Y1470100D01*
X5442600Y1524700D01*
X5388000Y1559400D01*
X5358300Y1539600D01*
X5338400Y1494900D01*
X5313600Y1460200D01*
X5269000Y1435400D01*
X5184700Y1420500D01*
X5145000Y1415600D01*
X5035900Y1405700D01*
X4931800D01*
X4916900Y1425500D01*
X4907000Y1440400D01*
X4874700Y1450900D01*
X4822600Y1509800D01*
X4778000Y1519700D01*
X4758200Y1514800D01*
X4713500Y1494900D01*
X4693700Y1475100D01*
X4683800Y1435400D01*
Y1400700D01*
X4698700Y1356100D01*
X4723500Y1291600D01*
X4765900Y1215100D01*
X4753200Y1142800D01*
X4789200Y1062100D01*
X4809900Y1023300D01*
X4787900Y959300D01*
X4783000Y805600D01*
Y706400D01*
X4817700Y634800D01*
G01X5616100Y1028700D02*
X5531800Y1172600D01*
X5521900Y1187400D01*
X5507000Y1227100D01*
X5526900Y1281700D01*
X5611200Y1351100D01*
X5581400Y1375900D01*
X5571500Y1385800D01*
X5526900Y1400700D01*
X5497100Y1375900D01*
X5477300Y1341200D01*
X5422700Y1316400D01*
Y1281700D01*
X5472300Y1266800D01*
G01X5333500Y3364600D02*
X5283900Y3280300D01*
X5293800Y3210900D01*
X5313600Y2938100D01*
X5288800Y2833900D01*
X5259100Y2734800D01*
X5239200Y2660400D01*
X5259600Y2495300D01*
Y1964400D01*
X5259100Y1762700D01*
G01X6766800Y4269700D02*
X6759100Y4254100D01*
X6764300Y4243700D01*
X6772000Y4207500D01*
X6769400Y4186700D01*
X6761700Y4163400D01*
X6753900Y4142700D01*
X6751300Y4119300D01*
X6792800Y4106400D01*
X6831600Y4124500D01*
X6862700Y4166000D01*
X6891300Y4204900D01*
G01D02*
X6893900Y4248900D01*
X6899000Y4280000D01*
X6906800Y4300800D01*
X6922400Y4324100D01*
X6927500Y4350000D01*
X6940800Y4358700D01*
X6956500Y4369200D01*
X6976800Y4370700D01*
X7033800Y4368200D01*
X7057100Y4355200D01*
X7114200Y4347400D01*
X7142700Y4259300D01*
X7186700Y4248900D01*
X7269700Y4093400D01*
X7264500Y4026000D01*
X7344900Y3873100D01*
X7414800Y3867900D01*
X7420000Y3891200D01*
X7414800Y3919700D01*
X7404500Y3989700D01*
Y4005300D01*
X7414800Y4072700D01*
X7420000Y4088200D01*
X7433000Y4137500D01*
X7440800Y4194500D01*
X7445900Y4220400D01*
X7448500Y4254100D01*
X7438200Y4311100D01*
X7427800Y4339600D01*
X7445900Y4357800D01*
X7453700Y4373300D01*
X7451100Y4388900D01*
X7430400Y4420000D01*
X7422600Y4430400D01*
Y4474400D01*
X7409700Y4534000D01*
X7396700Y4570300D01*
X7386300Y4604000D01*
X7363000Y4653300D01*
X7316300Y4707700D01*
X7313000Y4746500D01*
X7276600Y4775100D01*
X7261000Y4788200D01*
X7242700Y4796000D01*
X7229700Y4798600D01*
X7173800Y4790600D01*
X7162100Y4790800D01*
X7147900Y4782900D01*
X7096000Y4772500D01*
X7033800Y4756900D01*
X7007900Y4741400D01*
X6976800Y4718100D01*
X6966900Y4717900D01*
X6940500Y4684400D01*
X6914600Y4671400D01*
X6883500D01*
Y4629900D01*
X6865300Y4583300D01*
X6808300Y4430400D01*
X6800500Y4396700D01*
G01X7445900Y4399300D02*
Y4357800D01*
X7438200Y4311100D01*
X7445900Y4287800D01*
X7417100Y4241600D01*
X7391100Y4197400D01*
X7370300Y4187000D01*
X7349400Y4207800D01*
X7339000Y4228600D01*
X7346800Y4416000D01*
X7341600Y4426400D01*
X7326000Y4465400D01*
X7305200Y4491500D01*
X7287000Y4512300D01*
X7279200Y4514900D01*
G01X7391100Y4082900D02*
X7388500Y4054300D01*
X7396300Y4020400D01*
X7406700Y3994400D01*
G01X7323400Y4147900D02*
Y4192200D01*
X7292200Y4220800D01*
X7284400Y4239000D01*
X7268800Y4265100D01*
X7247900Y4296300D01*
X7211500Y4340500D01*
X7195900Y4369200D01*
X7164700Y4371800D01*
X7136000Y4369200D01*
X7110000Y4364000D01*
X7094400Y4361300D01*
G01X6909600Y4624200D02*
X6912200Y4634600D01*
X6946100Y4642400D01*
X6982500D01*
X7008500Y4621600D01*
X7026700Y4606000D01*
X7034500Y4590400D01*
X7037100Y4561700D01*
Y4525300D01*
X7034500Y4483700D01*
X7024100Y4447200D01*
X7018900Y4410800D01*
Y4390000D01*
G01X7346800Y4624200D02*
X7328600Y4606000D01*
X7292200Y4559100D01*
X7271400Y4517500D01*
X7258400Y4494100D01*
X7232300Y4455000D01*
Y4416000D01*
X7240100Y4403000D01*
X7253100Y4392600D01*
X7271400Y4371800D01*
X7284400Y4345700D01*
X7300000Y4314500D01*
X7305200Y4291100D01*
X7307800Y4267700D01*
X7320800Y4233800D01*
X7326000Y4215600D01*
X7323400Y4192200D01*
Y4147900D01*
X7326000Y4116700D01*
X7333800Y4101100D01*
X7354600Y4088100D01*
X7365100Y4082900D01*
X7391100D01*
X7404100Y4095900D01*
X7422300Y4124500D01*
X7427500Y4145300D01*
G01X7232300Y4416000D02*
X7240100Y4403000D01*
X7195900Y4369200D01*
G01X4644000Y3464900D02*
X4641500Y3679000D01*
X4628500Y3759700D01*
X4651900Y3814400D01*
X4672700Y3837800D01*
X4685700Y3856000D01*
X4722200Y3879400D01*
X4766400Y3897600D01*
X4810700Y3905400D01*
X4860100Y3915800D01*
X4907000Y3930000D01*
G01X4558500Y3280800D02*
X4602500Y3314700D01*
X4657100Y3343300D01*
X4701300D01*
X4761200Y3327700D01*
X4810700Y3286000D01*
X4826300Y3270400D01*
X4865300Y3205400D01*
X4883500Y3155900D01*
X4901700Y3103900D01*
X4912200Y3070000D01*
X4917400Y2976300D01*
Y2825400D01*
X4920000Y2765500D01*
X4909600Y2682300D01*
X4896500Y2612000D01*
X4875700Y2554700D01*
X4844500Y2515700D01*
X4813300Y2471400D01*
X4765900Y2451400D01*
G01X5323400Y3202800D02*
X5336400Y3200200D01*
X5375400Y3168900D01*
X5401400Y3119500D01*
X5406600Y3051800D01*
X5411800Y3005000D01*
X5422200Y2921700D01*
X5424800Y2861800D01*
X5417000Y2775900D01*
X5404000Y2710900D01*
X5367600Y2604200D01*
X5349400Y2562500D01*
X5333800Y2523500D01*
X5318100Y2492300D01*
X5299900Y2458400D01*
X5284300Y2442800D01*
X5266100Y2437600D01*
G01X5731900Y3018000D02*
X5713700Y3012800D01*
X5679900Y2965900D01*
X5648700Y2906100D01*
X5640900Y2856600D01*
X5638300Y2807200D01*
X5643500Y2734300D01*
X5659100Y2653600D01*
X5664300Y2625000D01*
X5677300Y2599000D01*
X5687700Y2583400D01*
X5711100Y2596400D01*
X5734500Y2651000D01*
X5758000Y2703100D01*
X5765800Y2757700D01*
X5773600Y2828000D01*
Y2937300D01*
X5755400Y2984100D01*
X5731900Y3018000D01*
G01X5685600Y3290200D02*
X5627900Y3257400D01*
X5599200Y3254800D01*
X5573200Y3161100D01*
X5568000Y3077800D01*
X5562800Y2978900D01*
X5560200Y2903500D01*
Y2825400D01*
X5565400Y2744700D01*
X5578400Y2645800D01*
X5594000Y2588600D01*
X5614800Y2541700D01*
X5643500Y2494900D01*
X5682500Y2453200D01*
X5703300Y2448000D01*
X5734600D01*
G01X6838000Y5782700D02*
Y5812200D01*
X6788700Y5901000D01*
X6759100Y5868900D01*
X6734500Y5913300D01*
X6707300Y5965100D01*
X6677800Y6026700D01*
X6645700Y6073500D01*
X6594000Y6233700D01*
X6591500Y6287900D01*
X6557000Y6334800D01*
G01X4522200Y5266300D02*
X4562200Y5306000D01*
X4597400Y5372500D01*
X4641500Y5452900D01*
G01X6475700Y6339700D02*
X6455900Y6310100D01*
X6468300Y6236200D01*
X6273600Y6105500D01*
X6155200Y6177000D01*
X6044300Y6122800D01*
X6150300Y5925600D01*
X6340100Y5755600D01*
G01X6150300Y5925600D02*
X6059100Y5994600D01*
X5967900Y6184400D01*
X6133100Y6292900D01*
X6135500Y6379100D01*
X6194700Y6403800D01*
G01X6584100Y6477700D02*
X6542200Y6435800D01*
X6423900Y6433400D01*
X6389400Y6480200D01*
X6229200Y6472800D01*
G01X6542200Y6435800D02*
X6557000Y6334800D01*
X6552100Y6300300D01*
X6475700Y6339700D01*
X6411600Y6391500D01*
X6342600Y6460500D01*
G01X6616100Y6554100D02*
X6584100Y6477700D01*
X6465800Y6475300D01*
X6414000Y6544300D01*
X6285900Y6539300D01*
G01X6655600Y6625600D02*
X6616100Y6554100D01*
X6495400Y6546700D01*
X6421400Y6581200D01*
G01X5923600Y7369300D02*
X5948400Y7161000D01*
X5903800Y7096500D01*
X5859200Y7334600D01*
X5923600Y7369300D01*
G01X5903800Y7096500D02*
Y7046900D01*
X5797900Y7033000D01*
G01X5137300Y7745300D02*
X5150000Y7696600D01*
Y7647000D01*
X5154900Y7612300D01*
Y7537900D01*
X5150000Y7518100D01*
X5145000Y7498200D01*
X5150000Y7468500D01*
X5159900Y7438700D01*
X5164800Y7418900D01*
X5184700Y7399000D01*
X5254100D01*
X5288800Y7394100D01*
X5328500D01*
X5363200Y7389100D01*
X5407900Y7384200D01*
X5467400Y7364300D01*
X5558800Y7368200D01*
X5531800Y7359400D01*
G01X5078200Y7740300D02*
X5080500Y7691600D01*
Y7577600D01*
X5075600Y7547800D01*
Y7418900D01*
X5050800Y7404000D01*
X5006100D01*
X4976400Y7399000D01*
X4946600Y7394100D01*
X4827600D01*
X4743000Y7380500D01*
X4773100Y7389100D01*
G01X5603200Y7131600D02*
X5546700Y7141100D01*
X5517000Y7170900D01*
X5447500Y7205600D01*
X5378100Y7220500D01*
X5333500Y7235400D01*
X5254100Y7245300D01*
X4872200D01*
X4817700Y7240300D01*
X4778000Y7225500D01*
X4743300Y7205600D01*
X4718500Y7185800D01*
X4698700Y7161000D01*
X4686300Y7121700D01*
X4693700Y7126300D01*
G01X5670700Y6446800D02*
X5660800Y6476600D01*
X5616100Y6501400D01*
X5591300Y6511300D01*
X5561600Y6516300D01*
X5526900D01*
X5492200Y6511300D01*
X5467400Y6506300D01*
X5442600Y6496400D01*
X5422700Y6481600D01*
X5417800D01*
X5388000Y6451800D01*
X5368200Y6412100D01*
X5363200Y6372400D01*
Y6327800D01*
X5378100Y6298100D01*
X5417800Y6258400D01*
X5467400Y6233600D01*
X5551700Y6228600D01*
X5591300Y6243500D01*
X5621100Y6283200D01*
X5640900Y6312900D01*
X5655800Y6362500D01*
X5670700Y6446800D01*
X5650900Y6451800D01*
G01X5378100Y6298100D02*
X5254100Y6303000D01*
X5150000Y6263300D01*
X5006100Y6268300D01*
X4887100Y6263300D01*
X4768100Y6293100D01*
G01X5765800Y6063600D02*
X5725300Y6104600D01*
X5690500Y6144300D01*
X5655800Y6174100D01*
X5640900Y6193900D01*
X5591300Y6243500D01*
X5621100Y6283200D01*
X5670700Y6273300D01*
X5715300D01*
X5755000Y6258400D01*
X5774800Y6253400D01*
X5849600Y6228800D01*
X5832400Y6184400D01*
G01X5667200Y5957700D02*
X5586400Y6015400D01*
X5556600Y6040200D01*
X5521900Y6069900D01*
X5507000Y6099700D01*
X5487200Y6119500D01*
Y6169100D01*
X5333500Y6253400D01*
X5303700Y6198900D01*
X5422700Y6119500D01*
X5482200Y6114600D01*
G01X5596300Y5891400D02*
X5566600Y5896300D01*
X5526900Y5906300D01*
X5472300Y5936000D01*
X5432600Y5970700D01*
X5422700Y5995500D01*
X5407900Y6025300D01*
X5402900Y6060000D01*
X5422700Y6119500D01*
X5402900Y6124500D01*
G01X5303700Y6198900D02*
X5323500Y6109600D01*
X5303700Y6099700D01*
X5293800Y6104600D01*
X5269000Y6109600D01*
X5229300Y6124500D01*
X5194600Y6129400D01*
X5125200Y6124500D01*
X5055700Y6119500D01*
X5006100Y6114600D01*
X4951600Y6109600D01*
X4911900Y6169100D01*
G01X5303700Y6015400D02*
X5288800D01*
X5244200Y5990600D01*
X5229300Y5950900D01*
X5224400Y5921100D01*
X5234300Y5901300D01*
X5264000Y5911200D01*
X5283900Y5936000D01*
X5303700Y6015400D01*
X5298700Y6005500D01*
G01X5288800Y6015400D02*
X5194600Y6025300D01*
X5115300Y6050100D01*
X5026000Y6055000D01*
X4941700Y6020300D01*
X4936700Y6005500D01*
X4931800Y5950900D01*
X4966500Y5916200D01*
X5006100D01*
X5011100Y5945900D01*
X4971400Y5960800D01*
X4941700Y6000500D01*
X4936700Y6005500D01*
G01X5472300Y5936000D02*
X5422700Y5921100D01*
X5393000Y5861600D01*
X5358300Y5807100D01*
X5333500Y5732700D01*
X5293800Y5678100D01*
X5234300Y5598800D01*
X5224400Y5578900D01*
X5179700Y5549200D01*
X5070600Y5544200D01*
X5030900Y5554200D01*
X4966500Y5583900D01*
X4941700Y5618600D01*
X4902000Y5668200D01*
X4872200Y5722800D01*
X4847400Y5772400D01*
X4807800Y5822000D01*
X4768100Y5881500D01*
X4778000Y5866600D01*
G01X4911900Y5831900D02*
X4941700Y5792200D01*
X4966500Y5757500D01*
X5006100Y5727700D01*
X5055700Y5707900D01*
X5174800D01*
X5229300Y5737600D01*
X5259100Y5777300D01*
X5269000Y5826900D01*
G01X5447500Y5688100D02*
X5407900Y5653300D01*
X5373100Y5618600D01*
X5338400Y5588900D01*
X5303700Y5569000D01*
X5273900Y5529400D01*
X5288800Y5504600D01*
X5308700Y5499600D01*
X5363200Y5534300D01*
X5402900Y5569000D01*
X5427700Y5583900D01*
X5462400Y5618600D01*
X5447500Y5688100D01*
G01X4827600Y5643400D02*
X4862300Y5628500D01*
X4902000Y5593800D01*
X4966500Y5583900D01*
Y5529400D01*
X4976400Y5499600D01*
X4931800Y5489700D01*
X4867300Y5524400D01*
X4837500Y5569000D01*
X4817700Y5593800D01*
G01X5948400Y6575800D02*
X6052600Y6610500D01*
X6097200D01*
X6112100Y6684900D01*
X6141800Y6749400D01*
X6191400Y6784100D01*
X6250900Y6823700D01*
X6315400Y6843600D01*
X6384800Y6858500D01*
X6444400Y6863400D01*
X6528700Y6868400D01*
X6598100Y6828700D01*
X6627900Y6774200D01*
X6613000Y6724600D01*
X6593100Y6670000D01*
X6594000Y6616400D01*
G01X4703500Y5844300D02*
X4645400Y5909800D01*
X4612300Y5962600D01*
X4673900Y6030300D01*
X4698700Y6060000D01*
X4728400Y6099700D01*
X4753200Y6129400D01*
X4773100Y6159200D01*
X4822600Y6198900D01*
X4887100Y6263300D01*
X4902000Y6243500D01*
X4926800D01*
X4921800Y6203800D01*
X4911900Y6169100D01*
X4862300Y6139400D01*
X4812700Y6119500D01*
X4743300Y6109600D01*
G01X4612300Y5962600D02*
X4551700Y6024300D01*
G01X5363200Y6372400D02*
X5368900Y6773900D01*
Y6976900D01*
X5389800Y7021100D01*
X5428800Y7041900D01*
X5496500Y7044500D01*
X5525100Y7031500D01*
X5553700Y6987300D01*
X5592800Y6909200D01*
X5608400Y6872800D01*
X5626600Y6818100D01*
X5647400Y6753000D01*
X5670800Y6667200D01*
X5678600Y6607300D01*
X5676000Y6555300D01*
X5668200Y6511000D01*
X5660800Y6476600D01*
G01X5371500Y6526600D02*
X5374100Y6555300D01*
X5402800Y6591700D01*
X5454800Y6609900D01*
X5491300Y6620300D01*
X5603200D01*
X5631800Y6609900D01*
X5678600Y6607300D01*
G01X5361100Y6633300D02*
X5382000Y6651500D01*
X5408000Y6682800D01*
X5465200Y6693200D01*
X5527700Y6701000D01*
X5582300D01*
X5624000Y6693200D01*
X5670800Y6667200D01*
G01X4792900Y6342700D02*
Y6377400D01*
X4805500Y6420000D01*
X4808100Y6469400D01*
X4823700Y6516300D01*
X4857400Y6551000D01*
X4825000Y6602100D01*
X4773100Y6635300D01*
X4748300Y6650200D01*
X4723500Y6665000D01*
X4683800Y6670000D01*
X4614400D01*
X4549900Y6645200D01*
X4541300Y6615100D01*
G01X4527000Y6539700D02*
X4540000Y6481600D01*
X4521800Y6479800D01*
X4541300Y6615100D01*
X4579100Y6623000D01*
X4602500Y6625600D01*
X4625900D01*
X4664900Y6628200D01*
X4693600Y6625600D01*
X4714400Y6617800D01*
X4737800Y6602200D01*
X4756000Y6586500D01*
X4779500Y6565700D01*
X4797700Y6544900D01*
X4823700Y6516300D01*
G01X4897500Y6349400D02*
X5249700Y6361900D01*
X5299600Y6433600D01*
X5302700Y6524000D01*
X5284000Y6598800D01*
X5255900Y6577000D01*
X5249700Y6548900D01*
X5243500Y6508400D01*
X5234100Y6477200D01*
X5196700Y6471000D01*
X5193600Y6520900D01*
X5196700Y6592600D01*
X5193600Y6651800D01*
X5209200Y6701600D01*
Y6773300D01*
X5196700Y6826300D01*
X5171800Y6857500D01*
X5150000Y6870000D01*
X5131300Y6879300D01*
X5078300D01*
X5056500Y6873100D01*
X5044000Y6851300D01*
X5028400Y6820100D01*
X5012800Y6792000D01*
X5000400Y6764000D01*
X4991000Y6726600D01*
X4994100Y6658000D01*
X4997200Y6617500D01*
Y6570700D01*
X5000400Y6530200D01*
X4984800Y6514600D01*
X4963000D01*
X4938000Y6573900D01*
X4934900Y6623700D01*
X4925600Y6661100D01*
X4919300Y6667400D01*
X4903700Y6614400D01*
X4881900Y6464800D01*
X4885000Y6411800D01*
X4906900Y6386800D01*
X4897500Y6349400D01*
G01X4541300Y6615100D02*
X4549900Y6645200D01*
X4568600Y6701000D01*
X4584300Y6755700D01*
X4602500Y6807800D01*
X4612900Y6849400D01*
X4644100Y6945700D01*
X4667500Y6987300D01*
X4691000Y7021200D01*
X4711800Y7034200D01*
X4735200Y7049800D01*
X4774200Y7057600D01*
X4805500D01*
X4826300Y7044600D01*
X4844500Y7010700D01*
X4870500Y6953500D01*
X4873100Y6917100D01*
X4875700Y6870200D01*
X4873100Y6826000D01*
X4867900Y6794700D01*
X4836700Y6638600D01*
X4841900Y6547500D01*
G54D11*
G01X5092500Y4483500D02*
X5105400Y4478300D01*
X5071700Y4491300D01*
X5030200Y4519800D01*
X4986200Y4543100D01*
X4968000Y4558700D01*
X4944700Y4579400D01*
X4916200Y4613100D01*
X4887700Y4641600D01*
X4825500Y4714200D01*
X4784000Y4766000D01*
X4742500Y4807500D01*
X4695900Y4864500D01*
X4657000Y4924100D01*
X4618100Y4970800D01*
X4581800Y5017400D01*
X4553300Y5053700D01*
X4527400Y5108200D01*
X4504100Y5157400D01*
X4473000Y5209300D01*
G01X3801500Y5766100D02*
X3722600Y5817900D01*
X3535300Y5859800D01*
X3520500Y5825300D01*
G01X4794400Y1640100D02*
X4874700Y1450900D01*
G01X5947800Y4180300D02*
X5950400Y4206200D01*
X5947800Y4252800D01*
X5945200Y4299500D01*
X5934800Y4353900D01*
Y4400600D01*
X5945200Y4519800D01*
X6010000Y5014900D01*
G01X7241200Y4816600D02*
X7316300Y4707700D01*
X7363000Y4653300D01*
X7386300Y4604000D01*
X7396700Y4570300D01*
X7409700Y4534000D01*
X7420000Y4502900D01*
X7422600Y4474400D01*
X7420000Y4448500D01*
X7422600Y4430400D01*
X7430400Y4420000D01*
X7445900Y4399300D01*
X7451100Y4388900D01*
X7453700Y4373300D01*
X7445900Y4357800D01*
X7435600Y4344800D01*
X7438200Y4311100D01*
X7445900Y4287800D01*
X7448500Y4254100D01*
X7451100Y4241100D01*
X7445900Y4220400D01*
X7440800Y4194500D01*
X7435600Y4166000D01*
X7433000Y4137500D01*
X7420000Y4088200D01*
X7414800Y4072700D01*
X7404500Y4005300D01*
Y3989700D01*
X7407100Y3956000D01*
X7414800Y3919700D01*
X7420000Y3891200D01*
X7414800Y3867900D01*
X7365600Y3854900D01*
X7344900Y3873100D01*
X7321500Y3904200D01*
X7303400Y3937900D01*
X7277500Y3984500D01*
X7264500Y4026000D01*
X7261900Y4062300D01*
X7269700Y4093400D01*
X7254100Y4121900D01*
X7236000Y4150400D01*
X7212700Y4178900D01*
X7197100Y4207500D01*
X7176400Y4243700D01*
X7155600Y4248900D01*
X7142700Y4259300D01*
X7124500Y4308500D01*
X7114200Y4347400D01*
G01X5893400Y5191100D02*
X5911500Y5196300D01*
X5914100Y5183300D01*
X5929700Y5154800D01*
X5919300Y5139300D01*
X5903700Y5123700D01*
X5890800Y5105600D01*
X5872600Y5092600D01*
X5833800Y5046000D01*
X5813000Y5022600D01*
X5789700Y4988900D01*
X5766400Y4960400D01*
X5704200Y4887900D01*
X5639400Y4820500D01*
X5437200Y4602700D01*
X5323100Y4519800D01*
X5255700Y4455000D01*
X5232400Y4423900D01*
X5185800Y4395400D01*
X5172800Y4346100D01*
G01X6891300Y4204900D02*
X6888700Y4189300D01*
X6862700Y4166000D01*
X6847200Y4145200D01*
X6831600Y4124500D01*
X6810900Y4114100D01*
X6792800Y4106400D01*
X6764300Y4111600D01*
X6751300Y4119300D01*
X6753900Y4142700D01*
X6761700Y4163400D01*
X6769400Y4186700D01*
X6772000Y4207500D01*
X6764300Y4243700D01*
G01X6800500Y4396700D02*
X6787600Y4360400D01*
X6779800Y4321500D01*
Y4295600D01*
X6808300Y4280000D01*
X6829100Y4274800D01*
X6849800Y4264500D01*
X6873100Y4251500D01*
X6875700D01*
X6893900Y4248900D01*
X6899000Y4280000D01*
X6906800Y4300800D01*
X6922400Y4324100D01*
Y4347400D01*
X6927500Y4350000D01*
X6901600Y4357800D01*
X6886100Y4370700D01*
X6875700Y4386300D01*
X6860200Y4394100D01*
X6834200D01*
X6800500Y4396700D01*
Y4407000D01*
X6810900Y4427800D01*
X6808300Y4430400D01*
G01X5100200Y4537900D02*
Y4556100D01*
X5105400Y4478300D01*
X5118400Y4468000D01*
Y4465400D01*
X5165000Y4460200D01*
X5183200Y4470600D01*
X5190900Y4504200D01*
X5193500Y4543100D01*
X5196100Y4556100D01*
X5203900Y4589800D01*
X5211700Y4620900D01*
X5222000Y4659800D01*
X5235000Y4701200D01*
X5250600Y4747900D01*
X5266100Y4794500D01*
X5281700Y4838600D01*
X5297200Y4895600D01*
X5310200Y4944900D01*
X5333500Y4996700D01*
X5351600Y5051100D01*
X5369800Y5090000D01*
X5390500Y5123700D01*
X5419000Y5170400D01*
X5434600Y5201500D01*
X5455300Y5243000D01*
X5470900Y5266300D01*
X5494200Y5307700D01*
X5509800Y5336300D01*
X5546000Y5380300D01*
X5587500Y5421800D01*
X5636800Y5452900D01*
Y5471000D01*
G01X6445400Y5666700D02*
X6476500Y5653800D01*
X6474000Y5638200D01*
X6445400Y5617500D01*
X6448000Y5596700D01*
X6458400Y5513800D01*
X6479100Y5430900D01*
X6507600Y5342700D01*
X6564700Y5283100D01*
X6606100Y5241600D01*
X6632100Y5207900D01*
X6681300Y5158700D01*
X6730600Y5093900D01*
X6761700Y5049800D01*
X6785000Y4995400D01*
X6795400Y4941000D01*
X6810900Y4884000D01*
X6821300Y4860600D01*
X6831600Y4826900D01*
X6839400Y4785500D01*
Y4749200D01*
X6953500Y4826900D01*
X7015700Y4852900D01*
X7077900Y4868400D01*
X7124500Y4876200D01*
X7171200Y4878800D01*
X7197100Y4881400D01*
X7207500Y4884000D01*
X7166000Y4961700D01*
X7140100Y5013600D01*
X7121900Y5052400D01*
X7101200Y5099100D01*
X7075300Y5143100D01*
X7049400Y5189800D01*
X7033800Y5228700D01*
X7023400Y5280500D01*
X7013100Y5327200D01*
X7000100Y5384200D01*
X6989800Y5449000D01*
X6987200Y5513800D01*
X6971600Y5578600D01*
X6956100Y5612300D01*
X6937900Y5658900D01*
X6927500Y5677100D01*
X6883500Y5731500D01*
X6860200Y5757400D01*
X6838000Y5782700D01*
G01X5823400Y5144500D02*
X5794900Y5110800D01*
X5756000Y5084800D01*
X5714500Y5051100D01*
X5680800Y5012300D01*
X5647100Y4965600D01*
X5616000Y4926700D01*
X5590100Y4893000D01*
X5548600Y4846400D01*
X5507200Y4810100D01*
X5445000Y4763400D01*
X5382800Y4716800D01*
X5346500Y4688300D01*
X5310200Y4652000D01*
X5268700Y4605300D01*
X5240200Y4576800D01*
G01X5758600Y5315500D02*
X5714500Y5276600D01*
X5670500Y5191100D01*
X5649700Y5157400D01*
X5618600Y5121100D01*
X5587500Y5074500D01*
X5533100Y5007100D01*
X5496800Y4968200D01*
X5473500Y4937100D01*
X5452700Y4911200D01*
X5424200Y4867100D01*
X5367200Y4794500D01*
X5346500Y4760800D01*
X5310200Y4698600D01*
X5196100Y4556100D01*
G01X5683400Y5421800D02*
X5667900Y5432200D01*
X5639400Y5385500D01*
X5616000Y5357000D01*
X5592700Y5320700D01*
X5564200Y5281800D01*
X5543500Y5253300D01*
X5502000Y5201500D01*
X5470900Y5167800D01*
X5439800Y5128900D01*
X5419000Y5084800D01*
X5395700Y5030400D01*
X5372400Y4988900D01*
X5338700Y4913800D01*
X5315400Y4869700D01*
X5266100Y4794500D01*
X5250600Y4747900D01*
X5235000Y4701200D01*
G01X4597400Y5372500D02*
X4633700Y5357000D01*
X4672600Y5300000D01*
X4698500Y5266300D01*
X4724400Y5235200D01*
X4786600Y5157400D01*
X4815100Y5115900D01*
X4838400Y5087400D01*
X4861800Y5043400D01*
X4882500Y5004500D01*
X4903200Y4963000D01*
X4918800Y4939700D01*
X4965400Y4833400D01*
X4983600Y4784200D01*
X5001700Y4729700D01*
X5014700Y4677900D01*
X5027700Y4639000D01*
X5043200Y4600100D01*
X5051000Y4574200D01*
X5058800Y4558700D01*
X5019900Y4574200D01*
X4999100Y4610500D01*
X4970600Y4659800D01*
X4944700Y4690900D01*
X4913600Y4737500D01*
X4877300Y4799700D01*
X4846200Y4856700D01*
X4807300Y4921500D01*
X4768500Y4976000D01*
X4745100Y5014900D01*
X4693300Y5092600D01*
X4638900Y5147000D01*
X4522200Y5266300D01*
G01X4641500Y5452900D02*
X4732200Y5370000D01*
X4765900Y5323300D01*
X4786600Y5279200D01*
X4812500Y5232600D01*
X4843600Y5162600D01*
X4872100Y5139300D01*
X4887700Y5113400D01*
X4898100Y5082200D01*
X4911000Y5040800D01*
X4931800Y5004500D01*
X4949900Y4965600D01*
X4973200Y4921500D01*
X4996500Y4874900D01*
X5025100Y4815300D01*
X5043200Y4768600D01*
X5053600Y4729700D01*
X5063900Y4698600D01*
X5076900Y4654600D01*
X5084700Y4613100D01*
X5100200Y4556100D01*
Y4537900D01*
G01X6839400Y4749200D02*
X6842000Y4720700D01*
Y4707700D01*
X6857600Y4684400D01*
X6883500Y4671400D01*
X6914600D01*
X6940500Y4684400D01*
X6976800Y4718100D01*
X7007900Y4741400D01*
X7033800Y4756900D01*
X7096000Y4772500D01*
X7147900Y4782900D01*
X7173800Y4790600D01*
X7210100Y4798400D01*
X7241200Y4816600D01*
X7251500Y4834700D01*
Y4858000D01*
X7241200Y4881400D01*
X7228200Y4889100D01*
X7220400D01*
G01X6340100Y5755600D02*
X6445400Y5666700D01*
X6520000Y5758000D01*
X6638300Y5809800D01*
X6766500Y5824600D01*
G54D12*
G01X1000500Y160600D02*
X9000500D01*
G03X10000500Y1160600I0J1000000D01*
G01Y9160600D01*
G03X9000500Y10160600I-1000000J0D01*
G01X1000500D01*
G03X500Y9160600I0J-1000000D01*
G01Y1160600D01*
G03X1000500Y160600I1000000J0D01*
G01X2291700Y8755000D02*
G03I-750000J0D01*
M02*
