G04 ================== begin FILE IDENTIFICATION RECORD ==================*
G04 Layout Name:  C:/Users/CAO-PCB/Documents/PCB/Badges/Samus/Samus.brd*
G04 Film Name:    SM_BOTTOM*
G04 File Format:  Gerber RS274X*
G04 File Origin:  Cadence Allegro 16.6-2015-S069*
G04 Origin Date:  Wed Feb 22 14:14:04 2017*
G04 *
G04 Layer:  BOARD GEOMETRY/OUTLINE*
G04 Layer:  BOARD GEOMETRY/SOLDERMASK_BOTTOM*
G04 *
G04 Offset:    (0.0000 0.0000)*
G04 Mirror:    No*
G04 Mode:      Positive*
G04 Rotation:  0*
G04 FullContactRelief:  No*
G04 UndefLineWidth:     0.1000*
G04 ================== end FILE IDENTIFICATION RECORD ====================*
%FSLAX45Y45*MOMM*%
%IR0*IPPOS*OFA0.00000B0.00000*MIA0B0*SFA1.00000B1.00000*%
%ADD10C,.2*%
%ADD11C,.1*%
G75*
%LPD*%
G75*
G36*
G01X4339000Y5161300D02*
X4479300Y4927500D01*
X4738000Y4662600D01*
X4752000Y4433500D01*
X4769200Y4282300D01*
X4819000Y4157700D01*
X4833100Y4100000D01*
X4879800Y3952000D01*
X4714600Y3909900D01*
X4652300Y3864700D01*
X4611800Y3811700D01*
X4604000Y3771200D01*
X4621100Y3596600D01*
X4540100Y3760300D01*
X4455900Y3950400D01*
X4354600Y4213800D01*
X4306300Y4386800D01*
X4286000Y4628300D01*
X4272000Y4894800D01*
X4286000Y5056900D01*
X4300100Y5134800D01*
X4339000Y5161300D01*
G37*
G36*
G01X4024700Y10062400D02*
X6192900D01*
X6269100Y9972900D01*
X6310400Y9877200D01*
X6325200Y9801700D01*
X6313500Y9721600D01*
X6689400Y9311400D01*
X6804600Y9289600D01*
X6957900Y9184600D01*
X7312800Y8494300D01*
X7320600Y8402400D01*
X7178900Y8125400D01*
X7121300Y8086500D01*
X2783000Y8063100D01*
X2677500Y8272500D01*
X2851100Y8347200D01*
X3255000Y9187700D01*
X3198900Y9313800D01*
X3581800Y9312200D01*
X3753100Y9720000D01*
X3841800Y9486600D01*
X3865100Y9467900D01*
X3904000D01*
X3929000Y9471000D01*
X3950700Y9499000D01*
X3974100Y9525500D01*
X3986500Y9551900D01*
X3978800Y9583100D01*
X3963200Y9606400D01*
X3938300Y9628200D01*
X3871400Y9690500D01*
X3841800Y9730900D01*
X3851100Y9808800D01*
X3866700Y9871000D01*
X3876000Y9925500D01*
X3933600Y9987800D01*
X4024700Y10062400D01*
G37*
G36*
G01X3630900Y6650700D02*
Y6664700D01*
X3680800Y6714600D01*
X3648100Y6766000D01*
X3640300Y6873600D01*
X3697900Y6937500D01*
X3878700Y6984200D01*
X4096900Y6962400D01*
X4142100Y6770700D01*
X4336900Y6675600D01*
X4464700Y7031000D01*
X4346200Y7104200D01*
X4332200Y7175900D01*
X4282400Y7202400D01*
X4319800Y7414800D01*
X4322900Y7425700D01*
X4425700Y7386800D01*
X4391400Y7202900D01*
X4399200Y7151400D01*
X4489600Y7092200D01*
X4586200Y7293300D01*
X4611200Y7310400D01*
X4548800Y7375900D01*
X4502100Y7414800D01*
X4405500Y7461600D01*
X4360300Y7483400D01*
X4210700Y7527000D01*
X4096900D01*
X4020500Y7519200D01*
X3939500Y7502100D01*
X3861600Y7463100D01*
X3811700Y7417900D01*
X3752500Y7386800D01*
X3697900Y7343100D01*
X3668300Y7318200D01*
X3643400Y7290100D01*
X3629400Y7279200D01*
X3542100Y7104700D01*
X3524900Y7028300D01*
X3514000Y6930100D01*
X3529600Y6786800D01*
X3549900Y6693300D01*
X3609100Y6651200D01*
X3630900Y6650700D01*
G37*
G36*
G01X3696400Y6623100D02*
X3740000Y6701100D01*
X3721300Y6763400D01*
X3699500Y6786800D01*
X3705700Y6863100D01*
X3729100Y6886500D01*
X3827300Y6914600D01*
X4056400Y6905200D01*
X4092200Y6729100D01*
X4326000Y6610700D01*
X4280800Y6461100D01*
X4269900Y6389400D01*
X4109400Y6415900D01*
X4073500Y6526500D01*
X3694800Y6621600D01*
X3696400Y6623100D01*
G37*
G36*
G01X3736500Y6399800D02*
X3716200Y6323500D01*
X3660100Y6110000D01*
X3552600Y5882400D01*
X3731800Y5840400D01*
X3808100Y5792100D01*
X3840900Y5790500D01*
X3957800Y5972800D01*
X4068400Y6078800D01*
X4062200Y6242400D01*
X4048100Y6371800D01*
X4020100Y6452800D01*
X3875200D01*
X3859600Y6410800D01*
X3789400Y6406100D01*
X3736500Y6399800D01*
G37*
G36*
G01X6905200Y4586300D02*
X6839800Y4432000D01*
X6888100Y4413300D01*
X6913000Y4385200D01*
X6987800Y4402400D01*
X7009600Y4494300D01*
X6992500Y4594100D01*
X6959800Y4606500D01*
X6905200Y4586300D01*
G37*
G36*
G01X6811700Y4354100D02*
X6802400Y4312000D01*
X6877200Y4277700D01*
X6892700Y4321300D01*
X6856900Y4368100D01*
X6821100Y4366500D01*
X6811700Y4354100D01*
G37*
G36*
G01X7003400Y4675100D02*
X7065700Y4633000D01*
X7076600Y4517700D01*
X7054800Y4419500D01*
X7079800Y4385200D01*
X7181100Y4402400D01*
X7209100Y4407000D01*
X7202900Y4464700D01*
X7235600Y4525500D01*
X7318200Y4647000D01*
X7246500Y4760800D01*
X7157700Y4759300D01*
X7040800Y4726500D01*
X7003400Y4701600D01*
Y4675100D01*
G37*
G36*
G01X6796100Y4246500D02*
X6797700Y4202900D01*
X6782100Y4151500D01*
X6800800Y4153000D01*
X6835100Y4171700D01*
X6856900Y4213800D01*
X6833500Y4245000D01*
X6796100Y4246500D01*
G37*
G36*
G01X4802900Y4606500D02*
X4922900Y4492700D01*
X5017900Y4424200D01*
X5086500Y4382100D01*
X5123900Y4229400D01*
X5108300Y4073500D01*
X5083400Y3889600D01*
X5024200Y3906800D01*
X4964900Y3948800D01*
X4922900Y3964400D01*
X4918200Y4043900D01*
X4890100Y4112500D01*
X4869900Y4199800D01*
X4824700Y4299500D01*
X4812200Y4427300D01*
X4801300Y4461600D01*
X4802900Y4606500D01*
G37*
G36*
G01X4668900Y3552000D02*
X4673500Y3467900D01*
X4639200Y3414900D01*
X4628300Y3352500D01*
X4703100Y3374400D01*
X4810700Y3327600D01*
X4869900Y3255900D01*
X4918200Y3151500D01*
X4941600Y3023100D01*
Y2695900D01*
X4885500Y2499500D01*
X4798200Y2421600D01*
X4866800Y2053800D01*
X4863700Y1954000D01*
X4879200Y1848100D01*
X4863700Y1748300D01*
X4826300Y1690700D01*
X4837200Y1625200D01*
X4887000Y1495900D01*
X4958700Y1447500D01*
X5075600Y1439800D01*
X5141100Y1460000D01*
X5198700Y1464700D01*
X5245500Y1474000D01*
X5286000Y1486500D01*
X5298500Y1509900D01*
Y1550400D01*
X5300000Y1586200D01*
X5289100Y1619000D01*
X5278200Y1651700D01*
X5253300Y1689100D01*
X5223700Y1732700D01*
X5201800Y1788800D01*
X5172200Y1855900D01*
Y2339000D01*
X5190900Y2487000D01*
X5136400Y2552500D01*
X5081800Y2632000D01*
X5047600Y2720800D01*
X4999200Y2817400D01*
X4974300Y2907800D01*
X4961800Y3015300D01*
X4971200Y3155600D01*
X5013300Y3325500D01*
X5064700Y3381600D01*
X5102100Y3408100D01*
X5075600Y3456400D01*
X5080300Y3556100D01*
X5000800Y3517200D01*
X4907300Y3507800D01*
X4796600Y3520300D01*
X4720300Y3543600D01*
X4668900Y3552000D01*
G37*
G36*
G01X5173800Y3409600D02*
X5152000Y3366000D01*
X5094300Y3330100D01*
X5049100Y3256900D01*
X5019500Y3116600D01*
X5010200Y2990400D01*
X5042900Y2868800D01*
X5198700Y2568100D01*
X5214300Y2685000D01*
X5290700Y2948300D01*
X5258000Y3267800D01*
X5212800Y3392500D01*
X5173800Y3409600D01*
G37*
G36*
G01X4580000Y3263100D02*
X4572200Y3157200D01*
X4620500Y2862600D01*
X4776400Y2487000D01*
X4849600Y2568100D01*
X4894800Y2794000D01*
X4893300Y2965500D01*
X4869900Y3105700D01*
X4804400Y3238200D01*
X4740500Y3291200D01*
X4687500Y3308300D01*
X4639200Y3300500D01*
X4608100Y3285000D01*
X4580000Y3263100D01*
G37*
G36*
G01X4792000Y1480300D02*
X4760800Y1484900D01*
X4734300Y1477200D01*
X4717200Y1461600D01*
X4706300Y1433500D01*
X4709400Y1399200D01*
X4717200Y1368100D01*
X4734300Y1336900D01*
X4782600Y1257400D01*
X4799800Y1224700D01*
X4788900Y1143600D01*
X4843400Y1023600D01*
X4841800Y969100D01*
X4890200Y1062600D01*
X5119200Y1142100D01*
X5214300Y1134300D01*
X5351500Y1139000D01*
X5387300Y1112500D01*
X5402900Y1188800D01*
X5385700Y1287000D01*
X5413800Y1472500D01*
X5395100Y1516100D01*
X5373300Y1497400D01*
X5362400Y1474000D01*
X5356100Y1444400D01*
X5306300Y1427300D01*
X5254800Y1405500D01*
X4926000Y1374300D01*
X4887000Y1413300D01*
X4843400Y1428800D01*
X4821600Y1455300D01*
X4792000Y1480300D01*
G37*
G36*
G01X4943700Y1023700D02*
X4847100Y665200D01*
X4889200Y537400D01*
X4868900Y448600D01*
X4900100Y333300D01*
X5361400Y314600D01*
X5394100Y337900D01*
X5401900Y504700D01*
X5352000Y585700D01*
X5429900Y779000D01*
Y819500D01*
X5392500Y917700D01*
X5383200Y1034600D01*
X5328600Y1067300D01*
X5205500Y1076600D01*
X5126100Y1081300D01*
X5059000Y1062600D01*
X4979600Y1033000D01*
X4943700Y1023700D01*
G37*
G36*
G01X5451200Y1238700D02*
X5455900Y1134300D01*
X5432500Y1054800D01*
X5444900Y913000D01*
X5482400Y793000D01*
X5426200Y604400D01*
X5432500Y565500D01*
X5533800Y570100D01*
X5561800Y606000D01*
X5588300Y699500D01*
X5597700Y934800D01*
X5574300Y1040800D01*
X5529100Y1114000D01*
X5451200Y1238700D01*
G37*
G36*
G01X5287500Y1782600D02*
X5340500Y1672000D01*
X5368600Y1583100D01*
X5398200Y1584700D01*
X5459000Y1541100D01*
X5488600Y1455300D01*
X5465200Y1371200D01*
X5521300Y1427300D01*
X5544700Y1422600D01*
X5549400Y1650100D01*
X5563400Y1852700D01*
X5625700Y2120800D01*
X5719200Y2396600D01*
X5642900Y2432500D01*
X5563400Y2536900D01*
X5532200Y2663100D01*
X5527500Y2981100D01*
X5563400Y3241300D01*
X5617900Y3294300D01*
X5649100Y3305200D01*
X5625700Y3350400D01*
X5569600Y3364400D01*
X5356100Y3348800D01*
X5315600Y3303600D01*
X5301600Y3264700D01*
X5310900Y3238200D01*
X5335900Y3232000D01*
X5368600Y3222600D01*
X5393500Y3197700D01*
X5420000Y3152500D01*
X5435600Y3119800D01*
X5443400Y2940500D01*
Y2826800D01*
X5423100Y2660000D01*
X5376400Y2515100D01*
X5300000Y2402900D01*
X5282900Y2399800D01*
X5287500Y1781100D01*
Y1782600D01*
G37*
G36*
G01X5326500Y3171200D02*
X5367000Y3127500D01*
X5390400Y2954600D01*
X5393500Y2800300D01*
X5339000Y2603900D01*
X5292200Y2491700D01*
X5264200Y2636600D01*
X5339000Y2920300D01*
X5343700Y2957700D01*
X5326500Y3171200D01*
G37*
G36*
G01X5683400Y3252200D02*
X5644400Y3221100D01*
X5611700D01*
X5596100Y3136900D01*
X5582100Y2898500D01*
X5589900Y2795600D01*
X5593000Y2688100D01*
X5614800Y2614800D01*
X5636600Y2564900D01*
X5656900Y2529100D01*
X5681800Y2502600D01*
X5700500Y2494800D01*
X5727000Y2490100D01*
X5752000Y2516600D01*
X5773800Y2555600D01*
X5778500Y2605500D01*
X5797200Y2655300D01*
X5804900Y2705200D01*
X5806500Y2753500D01*
X5808100Y2808100D01*
X5809600Y2865700D01*
X5797200Y2937400D01*
X5784700Y3006000D01*
X5786200Y3041800D01*
X5773800Y3080800D01*
X5755100Y3122900D01*
X5742600Y3172700D01*
X5734800Y3196100D01*
X5683400Y3252200D01*
G37*
G36*
G01X5508800Y4616400D02*
X5342100Y4490200D01*
X5236100Y4382700D01*
X5197200Y4345300D01*
X5229900Y4194100D01*
X5290700Y3879300D01*
X5295300Y3753100D01*
X5362400Y3698500D01*
X5502600Y3767100D01*
X5535300Y3901100D01*
X5518200Y4085000D01*
X5535300Y4156700D01*
X5580500Y4434100D01*
X5533800Y4575900D01*
X5508800Y4616400D01*
G37*
G36*
G01X5572700Y3743700D02*
X5716100Y3668900D01*
X5896900Y4067900D01*
X5920300Y4214400D01*
X5907800Y4346800D01*
X5904700Y4394600D01*
X5981100Y4993000D01*
X5957700Y5102100D01*
X5931200Y5122400D01*
X5884400Y5072500D01*
X5702100Y4846500D01*
X5555600Y4678200D01*
X5607000Y4564400D01*
X5622600Y4408600D01*
X5600800Y4192000D01*
X5582100Y4065700D01*
X5586800Y3944200D01*
X5572700Y3743700D01*
G37*
G36*
G01X6011300Y4898700D02*
X6025300Y4764700D01*
X6019100Y4649400D01*
X5994100Y4399200D01*
X5959800Y4312700D01*
X5950500Y4386800D01*
X5974600Y4583100D01*
X6000400Y4787300D01*
X6011300Y4898700D01*
G37*
G36*
G01X5840800Y7006500D02*
X5962400Y6616900D01*
X6049600Y6643400D01*
X6073000Y6638700D01*
X6118200Y6768100D01*
X6222600Y6844400D01*
X6350400Y6891200D01*
X6523400Y6906800D01*
X6615300Y6863100D01*
X6663700Y6780500D01*
X6629400Y6668300D01*
X6721300Y6694800D01*
X6749400Y6789900D01*
X6768100Y6852200D01*
X6763400Y7017400D01*
X6699500Y7156100D01*
X6662100Y7235600D01*
X6539000Y7382100D01*
X6419000Y7449100D01*
X6285000Y7509900D01*
X6168100D01*
X6012200Y7497400D01*
X5901600Y7475600D01*
X5778500Y7413300D01*
X5703700Y7346200D01*
X5675600Y7319800D01*
X5755100Y7215300D01*
X5817400Y7065700D01*
X5876600Y7070400D01*
X5833000Y7352500D01*
X5937400Y7400800D01*
X5973300Y7139000D01*
X5934300Y7089100D01*
X5931200Y7017400D01*
X5840800Y7006500D01*
G37*
G36*
G01X5977900Y6554600D02*
X5996600Y6500000D01*
X6007600Y6387800D01*
X6174300Y6433000D01*
X6213300Y6559200D01*
X6562400Y6641800D01*
X6582600Y6721300D01*
X6588900Y6775900D01*
X6534300Y6816400D01*
X6457900Y6827300D01*
X6394000Y6822600D01*
X6283400Y6785200D01*
X6174300Y6733800D01*
X6141600Y6663600D01*
X6138500Y6601300D01*
X6091700Y6560800D01*
X6054300Y6567000D01*
X5977900Y6554600D01*
G37*
G36*
G01X6092300Y6112000D02*
X6173300Y5953000D01*
X6438300Y5711400D01*
X6491200Y5772200D01*
X6620600Y5834600D01*
X6714100Y5853300D01*
X6644000Y6012200D01*
X6614400Y6057400D01*
X6553600Y6253800D01*
X6548900Y6277200D01*
X6503700Y6292700D01*
X6480300Y6283400D01*
X6494400Y6228800D01*
X6495900Y6217900D01*
X6290200Y6077700D01*
X6271500Y6063700D01*
X6157700Y6140000D01*
X6092300Y6112000D01*
G37*
G36*
G01X6515600Y5672500D02*
X6556100Y5733300D01*
X6641800Y5767500D01*
X6763400Y5780000D01*
X6858500Y5708300D01*
X6913000Y5600800D01*
X6956600Y5513500D01*
X6953500Y5430900D01*
X7011200Y5192500D01*
X7156100Y4918200D01*
X7062600Y4893300D01*
X6950400Y4868300D01*
X6906800Y4834000D01*
X6872500Y4796600D01*
X6833500Y4893300D01*
X6807000Y5025700D01*
X6764900Y5123900D01*
X6699500Y5197200D01*
X6630900Y5254800D01*
X6577900Y5320300D01*
X6537400Y5367000D01*
X6520300Y5455900D01*
X6490700Y5574300D01*
X6495300Y5610100D01*
X6514000Y5644400D01*
X6515600Y5672500D01*
G37*
%LPC*%
G75*
G36*
G01X4710900Y3043400D02*
X4724900Y3046500D01*
X4739000Y3037200D01*
X4753000Y3006000D01*
X4767000Y2968600D01*
X4784200Y2921800D01*
X4796600Y2873500D01*
X4788800Y2829900D01*
X4781100Y2797200D01*
X4763900Y2759800D01*
X4728100Y2781600D01*
X4703100Y2914000D01*
X4693800Y3038700D01*
X4696900Y3037200D01*
X4710900Y3043400D01*
G37*
G36*
G01X5753500Y2843900D02*
X5737900Y2706800D01*
X5689600Y2621100D01*
X5672500Y2681800D01*
X5653800Y2787800D01*
X5664700Y2892200D01*
X5723900Y2988800D01*
Y2987300D01*
X5748800Y2948300D01*
X5753500Y2843900D01*
G37*
%LPD*%
G75*
G54D10*
G01X3754300Y9723000D02*
X3581100Y9310200D01*
X3200000Y9313100D01*
X3254800Y9186000D01*
X2847700Y8345900D01*
X2677400Y8270800D01*
X2784200Y8065800D01*
X7123600Y8086000D01*
X7175500Y8126500D01*
X7322800Y8400700D01*
X7314100Y8493100D01*
X6953200Y9188900D01*
X6806000Y9287100D01*
X6690500Y9313100D01*
X6312300Y9723000D01*
X6323800Y9798100D01*
X6309400Y9878900D01*
X6269000Y9974200D01*
X6196800Y10060800D01*
X4017000D01*
X3927500Y9988600D01*
X3881300Y9928000D01*
X3861100Y9864500D01*
X3849600Y9809600D01*
X3838000Y9731700D01*
X3866900Y9691300D01*
X3933300Y9624900D01*
X3962200Y9598900D01*
X3982400Y9575800D01*
X3985300Y9546900D01*
X3970800Y9518000D01*
X3959300Y9500700D01*
X3942000Y9483400D01*
X3927500Y9466100D01*
X3904400Y9463200D01*
X3861100D01*
X3843800Y9483400D01*
X3754300Y9723000D01*
G54D11*
G01X1000500Y160600D02*
X9000500D01*
G03X10000500Y1160600I0J1000000D01*
G01Y9160600D01*
G03X9000500Y10160600I-1000000J0D01*
G01X1000500D01*
G03X500Y9160600I0J-1000000D01*
G01Y1160600D01*
G03X1000500Y160600I1000000J0D01*
G01X2291700Y8755000D02*
G03I-750000J0D01*
M02*
