G04*
G04 #@! TF.GenerationSoftware,Altium Limited,Altium Designer,20.0.13 (296)*
G04*
G04 Layer_Color=8388736*
%FSLAX44Y44*%
%MOMM*%
G71*
G01*
G75*
%ADD14R,0.8032X0.7032*%
%ADD15R,2.2032X0.8532*%
%ADD16R,1.6032X0.7732*%
%ADD17R,2.6532X2.2032*%
%ADD18R,0.7032X0.8032*%
%ADD19R,1.5032X1.7032*%
%ADD20R,1.3032X1.2032*%
%ADD21R,2.6132X6.0932*%
%ADD22R,2.4932X6.0932*%
%ADD23R,3.0032X1.2032*%
%ADD24R,1.9032X0.8032*%
%ADD25C,0.2032*%
G36*
X1007780Y841425D02*
Y806707D01*
X1007873D01*
X1008150D01*
X1008521Y806799D01*
X1009076D01*
X1009724Y806892D01*
X1010465Y807077D01*
X1012132Y807355D01*
X1013983Y807910D01*
X1016020Y808651D01*
X1017872Y809669D01*
X1019538Y810966D01*
Y811058D01*
X1019723Y811151D01*
X1020186Y811706D01*
X1020834Y812540D01*
X1021482Y813651D01*
X1022223Y815132D01*
X1022871Y816798D01*
X1023334Y818650D01*
X1023427Y819668D01*
X1023519Y820779D01*
Y821520D01*
X1023427Y822353D01*
X1023241Y823372D01*
X1022964Y824483D01*
X1022593Y825779D01*
X1022038Y826982D01*
X1021297Y828186D01*
X1021205Y828279D01*
X1020834Y828742D01*
X1020279Y829297D01*
X1019538Y829945D01*
X1018520Y830686D01*
X1017224Y831519D01*
X1015742Y832352D01*
X1013983Y833093D01*
X1015002Y841240D01*
X1015094D01*
X1015279Y841148D01*
X1015650Y841055D01*
X1016205Y840870D01*
X1016761Y840592D01*
X1017501Y840314D01*
X1019075Y839574D01*
X1020834Y838648D01*
X1022686Y837352D01*
X1024445Y835870D01*
X1026112Y834019D01*
Y833926D01*
X1026297Y833741D01*
X1026482Y833463D01*
X1026760Y833093D01*
X1027037Y832537D01*
X1027315Y831982D01*
X1027685Y831241D01*
X1028056Y830408D01*
X1028426Y829482D01*
X1028796Y828556D01*
X1029352Y826242D01*
X1029815Y823650D01*
X1030000Y820779D01*
Y819761D01*
X1029907Y819113D01*
X1029815Y818280D01*
X1029630Y817261D01*
X1029445Y816150D01*
X1029259Y814947D01*
X1028519Y812354D01*
X1027963Y810966D01*
X1027408Y809669D01*
X1026667Y808281D01*
X1025834Y806984D01*
X1024908Y805781D01*
X1023797Y804577D01*
X1023704Y804485D01*
X1023519Y804300D01*
X1023149Y804022D01*
X1022593Y803652D01*
X1021945Y803189D01*
X1021205Y802726D01*
X1020279Y802170D01*
X1019260Y801615D01*
X1018057Y801059D01*
X1016761Y800504D01*
X1015279Y800041D01*
X1013705Y799578D01*
X1012039Y799208D01*
X1010187Y798930D01*
X1008243Y798745D01*
X1006206Y798652D01*
X1006114D01*
X1005651D01*
X1005095D01*
X1004262Y798745D01*
X1003243Y798837D01*
X1002132Y798930D01*
X1000836Y799115D01*
X999540Y799393D01*
X996578Y800133D01*
X995096Y800596D01*
X993522Y801152D01*
X992041Y801892D01*
X990652Y802726D01*
X989264Y803652D01*
X987967Y804670D01*
X987875Y804762D01*
X987690Y804948D01*
X987412Y805318D01*
X986949Y805781D01*
X986486Y806336D01*
X985930Y807077D01*
X985282Y807910D01*
X984727Y808929D01*
X984079Y809947D01*
X983523Y811151D01*
X982968Y812447D01*
X982505Y813836D01*
X982042Y815317D01*
X981764Y816891D01*
X981579Y818557D01*
X981487Y820316D01*
Y821242D01*
X981579Y821890D01*
X981672Y822631D01*
X981857Y823557D01*
X982042Y824575D01*
X982320Y825779D01*
X982598Y826890D01*
X983060Y828186D01*
X983523Y829390D01*
X984171Y830686D01*
X984912Y831982D01*
X985745Y833278D01*
X986764Y834482D01*
X987875Y835593D01*
X987967Y835685D01*
X988152Y835870D01*
X988523Y836148D01*
X989078Y836518D01*
X989726Y836981D01*
X990467Y837444D01*
X991393Y838000D01*
X992504Y838555D01*
X993707Y839111D01*
X995004Y839666D01*
X996485Y840129D01*
X998059Y840592D01*
X999818Y840963D01*
X1001670Y841240D01*
X1003614Y841425D01*
X1005743Y841518D01*
X1005836D01*
X1006206D01*
X1006854D01*
X1007780Y841425D01*
D02*
G37*
G36*
X1007039Y791523D02*
X1008058Y791431D01*
X1009169Y791338D01*
X1010465Y791153D01*
X1011854Y790875D01*
X1014816Y790134D01*
X1016390Y789671D01*
X1017872Y789116D01*
X1019445Y788468D01*
X1020834Y787635D01*
X1022223Y786709D01*
X1023519Y785690D01*
X1023612Y785598D01*
X1023797Y785413D01*
X1024075Y785135D01*
X1024538Y784672D01*
X1025001Y784024D01*
X1025556Y783376D01*
X1026112Y782635D01*
X1026760Y781709D01*
X1027315Y780691D01*
X1027963Y779672D01*
X1028982Y777173D01*
X1029445Y775877D01*
X1029722Y774488D01*
X1029907Y773007D01*
X1030000Y771525D01*
Y771155D01*
X1029907Y770692D01*
Y770136D01*
X1029815Y769488D01*
X1029630Y768655D01*
X1029167Y766804D01*
X1028796Y765785D01*
X1028334Y764767D01*
X1027778Y763656D01*
X1027130Y762637D01*
X1026297Y761526D01*
X1025371Y760508D01*
X1024352Y759582D01*
X1023149Y758656D01*
X1028982D01*
Y751342D01*
X964914D01*
Y759212D01*
X987782D01*
X987690Y759304D01*
X987504Y759397D01*
X987227Y759675D01*
X986764Y760137D01*
X986301Y760600D01*
X985745Y761156D01*
X985190Y761897D01*
X984634Y762637D01*
X983431Y764489D01*
X982505Y766618D01*
X982042Y767822D01*
X981764Y769118D01*
X981579Y770507D01*
X981487Y771896D01*
Y772636D01*
X981579Y773469D01*
X981672Y774488D01*
X981949Y775692D01*
X982227Y777080D01*
X982690Y778561D01*
X983246Y779950D01*
X983338Y780135D01*
X983523Y780598D01*
X983986Y781339D01*
X984542Y782172D01*
X985190Y783191D01*
X986023Y784209D01*
X987041Y785320D01*
X988152Y786246D01*
X988245Y786339D01*
X988708Y786616D01*
X989356Y787079D01*
X990189Y787635D01*
X991300Y788283D01*
X992596Y788931D01*
X994078Y789579D01*
X995652Y790134D01*
X995744D01*
X995837Y790227D01*
X996115Y790320D01*
X996392Y790412D01*
X997318Y790597D01*
X998522Y790875D01*
X999911Y791153D01*
X1001484Y791431D01*
X1003243Y791523D01*
X1005095Y791616D01*
X1005188D01*
X1005651D01*
X1006206D01*
X1007039Y791523D01*
D02*
G37*
G36*
X1007317Y742176D02*
X1008243Y742084D01*
X1009169D01*
X1010187Y741899D01*
X1012502Y741621D01*
X1014816Y741065D01*
X1017131Y740417D01*
X1019260Y739492D01*
X1019353D01*
X1019445Y739399D01*
X1019723Y739214D01*
X1020094Y739029D01*
X1021019Y738381D01*
X1022130Y737547D01*
X1023427Y736436D01*
X1024723Y735048D01*
X1026019Y733474D01*
X1027223Y731622D01*
Y731529D01*
X1027315Y731437D01*
X1027500Y731159D01*
X1027685Y730696D01*
X1027871Y730233D01*
X1028056Y729678D01*
X1028611Y728289D01*
X1029074Y726715D01*
X1029537Y724771D01*
X1029907Y722734D01*
X1030000Y720512D01*
Y719586D01*
X1029907Y718846D01*
X1029815Y718012D01*
X1029630Y717086D01*
X1029445Y715975D01*
X1029259Y714864D01*
X1028519Y712365D01*
X1027963Y710976D01*
X1027408Y709680D01*
X1026667Y708384D01*
X1025834Y707087D01*
X1024908Y705884D01*
X1023797Y704680D01*
X1023704Y704588D01*
X1023519Y704403D01*
X1023149Y704125D01*
X1022593Y703755D01*
X1021945Y703292D01*
X1021205Y702829D01*
X1020279Y702273D01*
X1019168Y701718D01*
X1017964Y701162D01*
X1016575Y700607D01*
X1015094Y700144D01*
X1013520Y699681D01*
X1011761Y699311D01*
X1009910Y699033D01*
X1007873Y698848D01*
X1005743Y698755D01*
X1005558D01*
X1005188D01*
X1004540Y698848D01*
X1003614D01*
X1002595Y698940D01*
X1001299Y699125D01*
X1000003Y699311D01*
X998522Y699681D01*
X997040Y700051D01*
X995467Y700514D01*
X993800Y701070D01*
X992226Y701810D01*
X990745Y702551D01*
X989264Y703569D01*
X987875Y704588D01*
X986671Y705884D01*
X986579Y705976D01*
X986486Y706162D01*
X986208Y706532D01*
X985838Y706995D01*
X985468Y707550D01*
X985005Y708291D01*
X984542Y709032D01*
X984079Y709958D01*
X983616Y710976D01*
X983153Y712087D01*
X982320Y714587D01*
X981672Y717457D01*
X981579Y718938D01*
X981487Y720512D01*
Y721438D01*
X981579Y722086D01*
X981672Y722919D01*
X981857Y723845D01*
X982042Y724863D01*
X982227Y726067D01*
X983060Y728567D01*
X983523Y729863D01*
X984171Y731159D01*
X984819Y732455D01*
X985745Y733751D01*
X986671Y734955D01*
X987782Y736159D01*
X987875Y736251D01*
X988060Y736436D01*
X988430Y736714D01*
X988893Y737084D01*
X989541Y737547D01*
X990374Y738103D01*
X991300Y738658D01*
X992319Y739214D01*
X993430Y739769D01*
X994818Y740325D01*
X996207Y740880D01*
X997781Y741343D01*
X999448Y741713D01*
X1001207Y741991D01*
X1003058Y742176D01*
X1005095Y742269D01*
X1005188D01*
X1005465D01*
X1005928D01*
X1006577D01*
X1007317Y742176D01*
D02*
G37*
G36*
X991300Y694126D02*
X991208Y694033D01*
X991022Y693663D01*
X990745Y693107D01*
X990467Y692367D01*
X990189Y691534D01*
X989911Y690515D01*
X989726Y689497D01*
X989634Y688478D01*
Y688015D01*
X989726Y687552D01*
X989819Y686904D01*
X990004Y686256D01*
X990282Y685423D01*
X990652Y684590D01*
X991208Y683849D01*
X991300Y683756D01*
X991485Y683479D01*
X991856Y683201D01*
X992319Y682738D01*
X992967Y682275D01*
X993707Y681812D01*
X994541Y681349D01*
X995559Y680979D01*
X995744Y680887D01*
X996300Y680794D01*
X997133Y680609D01*
X998244Y680331D01*
X999633Y680053D01*
X1001207Y679868D01*
X1002873Y679775D01*
X1004725Y679683D01*
X1028982D01*
Y671813D01*
X982505D01*
Y678942D01*
X989541D01*
X989449Y679035D01*
X988801Y679405D01*
X987967Y679868D01*
X986949Y680609D01*
X985930Y681349D01*
X984819Y682183D01*
X983894Y683016D01*
X983153Y683849D01*
X983060Y683942D01*
X982875Y684220D01*
X982598Y684775D01*
X982320Y685331D01*
X982042Y686071D01*
X981764Y686997D01*
X981579Y687923D01*
X981487Y688941D01*
Y689589D01*
X981579Y690423D01*
X981764Y691441D01*
X982135Y692645D01*
X982598Y693941D01*
X983246Y695422D01*
X984079Y696996D01*
X991300Y694126D01*
D02*
G37*
G36*
X984912Y662000D02*
X985560Y661907D01*
X986393Y661814D01*
X987319Y661629D01*
X988338Y661444D01*
X990467Y660796D01*
X991578Y660426D01*
X992782Y659870D01*
X993985Y659222D01*
X995096Y658574D01*
X996207Y657741D01*
X997318Y656815D01*
X997411Y656722D01*
X997596Y656537D01*
X997874Y656259D01*
X998151Y655797D01*
X998614Y655241D01*
X999077Y654500D01*
X999633Y653575D01*
X1000096Y652556D01*
X1000651Y651352D01*
X1001207Y649964D01*
X1001670Y648482D01*
X1002040Y646723D01*
X1002410Y644872D01*
X1002688Y642835D01*
X1002873Y640520D01*
X1002966Y638113D01*
Y621726D01*
X1028982D01*
Y613208D01*
X964914D01*
Y639502D01*
X965007Y640891D01*
X965099Y642465D01*
X965192Y644131D01*
X965377Y645705D01*
X965562Y647094D01*
Y647279D01*
X965747Y647927D01*
X965932Y648760D01*
X966210Y649871D01*
X966673Y651075D01*
X967229Y652371D01*
X967877Y653760D01*
X968617Y654963D01*
X968710Y655148D01*
X968988Y655519D01*
X969543Y656074D01*
X970191Y656815D01*
X971025Y657648D01*
X972136Y658481D01*
X973339Y659407D01*
X974728Y660148D01*
X974913Y660240D01*
X975376Y660426D01*
X976209Y660796D01*
X977320Y661166D01*
X978616Y661444D01*
X980098Y661814D01*
X981764Y662000D01*
X983523Y662092D01*
X983616D01*
X983894D01*
X984264D01*
X984912Y662000D01*
D02*
G37*
G36*
X1028982Y567472D02*
X1023149D01*
X1023241Y567380D01*
X1023427Y567287D01*
X1023797Y567009D01*
X1024260Y566639D01*
X1024723Y566176D01*
X1025278Y565621D01*
X1025926Y564973D01*
X1026574Y564139D01*
X1027223Y563306D01*
X1027871Y562380D01*
X1028426Y561269D01*
X1028889Y560066D01*
X1029352Y558862D01*
X1029722Y557473D01*
X1029907Y555992D01*
X1030000Y554418D01*
Y553863D01*
X1029907Y553492D01*
X1029815Y552381D01*
X1029630Y551085D01*
X1029259Y549511D01*
X1028704Y547752D01*
X1027963Y545993D01*
X1026945Y544234D01*
Y544141D01*
X1026760Y544049D01*
X1026389Y543493D01*
X1025649Y542660D01*
X1024723Y541642D01*
X1023519Y540438D01*
X1022038Y539235D01*
X1020371Y538031D01*
X1018427Y537012D01*
X1018335D01*
X1018149Y536920D01*
X1017872Y536827D01*
X1017501Y536642D01*
X1016946Y536457D01*
X1016298Y536179D01*
X1015650Y535994D01*
X1014816Y535809D01*
X1012965Y535346D01*
X1010835Y534883D01*
X1008428Y534605D01*
X1005836Y534513D01*
X1005743D01*
X1005558D01*
X1005188D01*
X1004632D01*
X1004077Y534605D01*
X1003336D01*
X1001670Y534790D01*
X999725Y535068D01*
X997596Y535531D01*
X995374Y536087D01*
X993244Y536827D01*
X993152D01*
X992967Y536920D01*
X992689Y537105D01*
X992319Y537290D01*
X991300Y537846D01*
X990004Y538586D01*
X988615Y539512D01*
X987227Y540716D01*
X985745Y542105D01*
X984542Y543771D01*
Y543864D01*
X984449Y543956D01*
X984264Y544234D01*
X984079Y544604D01*
X983616Y545530D01*
X982968Y546826D01*
X982412Y548308D01*
X981949Y550067D01*
X981579Y552011D01*
X981487Y554048D01*
Y554788D01*
X981579Y555529D01*
X981672Y556548D01*
X981949Y557751D01*
X982227Y559047D01*
X982690Y560343D01*
X983338Y561547D01*
X983431Y561732D01*
X983616Y562103D01*
X984079Y562658D01*
X984542Y563399D01*
X985190Y564324D01*
X986023Y565158D01*
X986856Y566084D01*
X987875Y566917D01*
X964914D01*
Y574786D01*
X1028982D01*
Y567472D01*
D02*
G37*
G36*
Y517385D02*
X964914D01*
Y525254D01*
X1028982D01*
Y517385D01*
D02*
G37*
G36*
X1007780Y507849D02*
Y473130D01*
X1007873D01*
X1008150D01*
X1008521Y473223D01*
X1009076D01*
X1009724Y473315D01*
X1010465Y473501D01*
X1012132Y473778D01*
X1013983Y474334D01*
X1016020Y475075D01*
X1017872Y476093D01*
X1019538Y477389D01*
Y477482D01*
X1019723Y477574D01*
X1020186Y478130D01*
X1020834Y478963D01*
X1021482Y480074D01*
X1022223Y481555D01*
X1022871Y483222D01*
X1023334Y485073D01*
X1023427Y486092D01*
X1023519Y487203D01*
Y487943D01*
X1023427Y488777D01*
X1023241Y489795D01*
X1022964Y490906D01*
X1022593Y492202D01*
X1022038Y493406D01*
X1021297Y494609D01*
X1021205Y494702D01*
X1020834Y495165D01*
X1020279Y495720D01*
X1019538Y496369D01*
X1018520Y497109D01*
X1017224Y497943D01*
X1015742Y498776D01*
X1013983Y499516D01*
X1015002Y507664D01*
X1015094D01*
X1015279Y507571D01*
X1015650Y507478D01*
X1016205Y507293D01*
X1016761Y507016D01*
X1017501Y506738D01*
X1019075Y505997D01*
X1020834Y505071D01*
X1022686Y503775D01*
X1024445Y502294D01*
X1026112Y500442D01*
Y500350D01*
X1026297Y500164D01*
X1026482Y499887D01*
X1026760Y499516D01*
X1027037Y498961D01*
X1027315Y498405D01*
X1027685Y497665D01*
X1028056Y496832D01*
X1028426Y495906D01*
X1028796Y494980D01*
X1029352Y492665D01*
X1029815Y490073D01*
X1030000Y487203D01*
Y486184D01*
X1029907Y485536D01*
X1029815Y484703D01*
X1029630Y483685D01*
X1029445Y482574D01*
X1029259Y481370D01*
X1028519Y478778D01*
X1027963Y477389D01*
X1027408Y476093D01*
X1026667Y474704D01*
X1025834Y473408D01*
X1024908Y472204D01*
X1023797Y471001D01*
X1023704Y470908D01*
X1023519Y470723D01*
X1023149Y470445D01*
X1022593Y470075D01*
X1021945Y469612D01*
X1021205Y469149D01*
X1020279Y468594D01*
X1019260Y468038D01*
X1018057Y467483D01*
X1016761Y466927D01*
X1015279Y466464D01*
X1013705Y466001D01*
X1012039Y465631D01*
X1010187Y465353D01*
X1008243Y465168D01*
X1006206Y465075D01*
X1006114D01*
X1005651D01*
X1005095D01*
X1004262Y465168D01*
X1003243Y465261D01*
X1002132Y465353D01*
X1000836Y465538D01*
X999540Y465816D01*
X996578Y466557D01*
X995096Y467020D01*
X993522Y467575D01*
X992041Y468316D01*
X990652Y469149D01*
X989264Y470075D01*
X987967Y471093D01*
X987875Y471186D01*
X987690Y471371D01*
X987412Y471741D01*
X986949Y472204D01*
X986486Y472760D01*
X985930Y473501D01*
X985282Y474334D01*
X984727Y475352D01*
X984079Y476371D01*
X983523Y477574D01*
X982968Y478870D01*
X982505Y480259D01*
X982042Y481740D01*
X981764Y483314D01*
X981579Y484981D01*
X981487Y486740D01*
Y487666D01*
X981579Y488314D01*
X981672Y489054D01*
X981857Y489980D01*
X982042Y490999D01*
X982320Y492202D01*
X982598Y493313D01*
X983060Y494609D01*
X983523Y495813D01*
X984171Y497109D01*
X984912Y498405D01*
X985745Y499701D01*
X986764Y500905D01*
X987875Y502016D01*
X987967Y502109D01*
X988152Y502294D01*
X988523Y502572D01*
X989078Y502942D01*
X989726Y503405D01*
X990467Y503868D01*
X991393Y504423D01*
X992504Y504979D01*
X993708Y505534D01*
X995004Y506090D01*
X996485Y506553D01*
X998059Y507016D01*
X999818Y507386D01*
X1001670Y507664D01*
X1003614Y507849D01*
X1005743Y507941D01*
X1005836D01*
X1006206D01*
X1006854D01*
X1007780Y507849D01*
D02*
G37*
G36*
X1028982Y447855D02*
X982505D01*
Y455725D01*
X1028982D01*
Y447855D01*
D02*
G37*
G36*
X973895D02*
X964914D01*
Y455725D01*
X973895D01*
Y447855D01*
D02*
G37*
G36*
X972506Y403045D02*
X992319D01*
Y433134D01*
X999911D01*
Y403045D01*
X1028982D01*
Y394527D01*
X964914D01*
Y437856D01*
X972506D01*
Y403045D01*
D02*
G37*
G36*
X1009724Y360179D02*
X1001855D01*
Y384528D01*
X1009724D01*
Y360179D01*
D02*
G37*
G36*
X1028982Y341662D02*
X998800D01*
Y308518D01*
X1028982D01*
Y300000D01*
X964914D01*
Y308518D01*
X991208D01*
Y341662D01*
X964914D01*
Y350180D01*
X1028982D01*
Y341662D01*
D02*
G37*
G36*
X1235280Y841425D02*
Y806707D01*
X1235373D01*
X1235650D01*
X1236021Y806799D01*
X1236576D01*
X1237224Y806892D01*
X1237965Y807077D01*
X1239632Y807355D01*
X1241483Y807910D01*
X1243520Y808651D01*
X1245372Y809669D01*
X1247038Y810966D01*
Y811058D01*
X1247223Y811151D01*
X1247686Y811706D01*
X1248334Y812540D01*
X1248982Y813651D01*
X1249723Y815132D01*
X1250371Y816798D01*
X1250834Y818650D01*
X1250927Y819668D01*
X1251019Y820779D01*
Y821520D01*
X1250927Y822353D01*
X1250741Y823372D01*
X1250464Y824483D01*
X1250093Y825779D01*
X1249538Y826982D01*
X1248797Y828186D01*
X1248705Y828279D01*
X1248334Y828742D01*
X1247779Y829297D01*
X1247038Y829945D01*
X1246020Y830686D01*
X1244724Y831519D01*
X1243242Y832352D01*
X1241483Y833093D01*
X1242502Y841240D01*
X1242594D01*
X1242779Y841148D01*
X1243150Y841055D01*
X1243705Y840870D01*
X1244261Y840592D01*
X1245001Y840314D01*
X1246575Y839574D01*
X1248334Y838648D01*
X1250186Y837352D01*
X1251945Y835870D01*
X1253612Y834019D01*
Y833926D01*
X1253797Y833741D01*
X1253982Y833463D01*
X1254260Y833093D01*
X1254537Y832537D01*
X1254815Y831982D01*
X1255185Y831241D01*
X1255556Y830408D01*
X1255926Y829482D01*
X1256296Y828556D01*
X1256852Y826242D01*
X1257315Y823650D01*
X1257500Y820779D01*
Y819761D01*
X1257407Y819113D01*
X1257315Y818280D01*
X1257130Y817261D01*
X1256945Y816150D01*
X1256759Y814947D01*
X1256019Y812354D01*
X1255463Y810966D01*
X1254908Y809669D01*
X1254167Y808281D01*
X1253334Y806984D01*
X1252408Y805781D01*
X1251297Y804577D01*
X1251204Y804485D01*
X1251019Y804300D01*
X1250649Y804022D01*
X1250093Y803652D01*
X1249445Y803189D01*
X1248705Y802726D01*
X1247779Y802170D01*
X1246760Y801615D01*
X1245557Y801059D01*
X1244261Y800504D01*
X1242779Y800041D01*
X1241205Y799578D01*
X1239539Y799208D01*
X1237687Y798930D01*
X1235743Y798745D01*
X1233706Y798652D01*
X1233614D01*
X1233151D01*
X1232595D01*
X1231762Y798745D01*
X1230743Y798837D01*
X1229632Y798930D01*
X1228336Y799115D01*
X1227040Y799393D01*
X1224078Y800133D01*
X1222596Y800596D01*
X1221022Y801152D01*
X1219541Y801892D01*
X1218152Y802726D01*
X1216764Y803652D01*
X1215467Y804670D01*
X1215375Y804762D01*
X1215190Y804948D01*
X1214912Y805318D01*
X1214449Y805781D01*
X1213986Y806336D01*
X1213430Y807077D01*
X1212782Y807910D01*
X1212227Y808929D01*
X1211579Y809947D01*
X1211023Y811151D01*
X1210468Y812447D01*
X1210005Y813836D01*
X1209542Y815317D01*
X1209264Y816891D01*
X1209079Y818557D01*
X1208987Y820316D01*
Y821242D01*
X1209079Y821890D01*
X1209172Y822631D01*
X1209357Y823557D01*
X1209542Y824575D01*
X1209820Y825779D01*
X1210098Y826890D01*
X1210560Y828186D01*
X1211023Y829390D01*
X1211671Y830686D01*
X1212412Y831982D01*
X1213245Y833278D01*
X1214264Y834482D01*
X1215375Y835593D01*
X1215467Y835685D01*
X1215652Y835870D01*
X1216023Y836148D01*
X1216578Y836518D01*
X1217226Y836981D01*
X1217967Y837444D01*
X1218893Y838000D01*
X1220004Y838555D01*
X1221207Y839111D01*
X1222504Y839666D01*
X1223985Y840129D01*
X1225559Y840592D01*
X1227318Y840963D01*
X1229170Y841240D01*
X1231114Y841425D01*
X1233243Y841518D01*
X1233336D01*
X1233706D01*
X1234354D01*
X1235280Y841425D01*
D02*
G37*
G36*
X1234539Y791523D02*
X1235558Y791431D01*
X1236669Y791338D01*
X1237965Y791153D01*
X1239354Y790875D01*
X1242316Y790134D01*
X1243890Y789671D01*
X1245372Y789116D01*
X1246945Y788468D01*
X1248334Y787635D01*
X1249723Y786709D01*
X1251019Y785690D01*
X1251112Y785598D01*
X1251297Y785413D01*
X1251575Y785135D01*
X1252038Y784672D01*
X1252501Y784024D01*
X1253056Y783376D01*
X1253612Y782635D01*
X1254260Y781709D01*
X1254815Y780691D01*
X1255463Y779672D01*
X1256482Y777173D01*
X1256945Y775877D01*
X1257222Y774488D01*
X1257407Y773007D01*
X1257500Y771525D01*
Y771155D01*
X1257407Y770692D01*
Y770136D01*
X1257315Y769488D01*
X1257130Y768655D01*
X1256667Y766804D01*
X1256296Y765785D01*
X1255834Y764767D01*
X1255278Y763656D01*
X1254630Y762637D01*
X1253797Y761526D01*
X1252871Y760508D01*
X1251852Y759582D01*
X1250649Y758656D01*
X1256482D01*
Y751342D01*
X1192414D01*
Y759212D01*
X1215282D01*
X1215190Y759304D01*
X1215004Y759397D01*
X1214727Y759675D01*
X1214264Y760137D01*
X1213801Y760600D01*
X1213245Y761156D01*
X1212690Y761897D01*
X1212134Y762637D01*
X1210931Y764489D01*
X1210005Y766618D01*
X1209542Y767822D01*
X1209264Y769118D01*
X1209079Y770507D01*
X1208987Y771896D01*
Y772636D01*
X1209079Y773469D01*
X1209172Y774488D01*
X1209449Y775692D01*
X1209727Y777080D01*
X1210190Y778561D01*
X1210746Y779950D01*
X1210838Y780135D01*
X1211023Y780598D01*
X1211486Y781339D01*
X1212042Y782172D01*
X1212690Y783191D01*
X1213523Y784209D01*
X1214541Y785320D01*
X1215652Y786246D01*
X1215745Y786339D01*
X1216208Y786616D01*
X1216856Y787079D01*
X1217689Y787635D01*
X1218800Y788283D01*
X1220096Y788931D01*
X1221578Y789579D01*
X1223152Y790134D01*
X1223244D01*
X1223337Y790227D01*
X1223615Y790320D01*
X1223892Y790412D01*
X1224818Y790597D01*
X1226022Y790875D01*
X1227411Y791153D01*
X1228984Y791431D01*
X1230743Y791523D01*
X1232595Y791616D01*
X1232688D01*
X1233151D01*
X1233706D01*
X1234539Y791523D01*
D02*
G37*
G36*
X1234817Y742176D02*
X1235743Y742084D01*
X1236669D01*
X1237687Y741899D01*
X1240002Y741621D01*
X1242316Y741065D01*
X1244631Y740417D01*
X1246760Y739492D01*
X1246853D01*
X1246945Y739399D01*
X1247223Y739214D01*
X1247594Y739029D01*
X1248519Y738381D01*
X1249630Y737547D01*
X1250927Y736436D01*
X1252223Y735048D01*
X1253519Y733474D01*
X1254723Y731622D01*
Y731529D01*
X1254815Y731437D01*
X1255000Y731159D01*
X1255185Y730696D01*
X1255371Y730233D01*
X1255556Y729678D01*
X1256111Y728289D01*
X1256574Y726715D01*
X1257037Y724771D01*
X1257407Y722734D01*
X1257500Y720512D01*
Y719586D01*
X1257407Y718846D01*
X1257315Y718012D01*
X1257130Y717086D01*
X1256945Y715975D01*
X1256759Y714864D01*
X1256019Y712365D01*
X1255463Y710976D01*
X1254908Y709680D01*
X1254167Y708384D01*
X1253334Y707087D01*
X1252408Y705884D01*
X1251297Y704680D01*
X1251204Y704588D01*
X1251019Y704403D01*
X1250649Y704125D01*
X1250093Y703755D01*
X1249445Y703292D01*
X1248705Y702829D01*
X1247779Y702273D01*
X1246668Y701718D01*
X1245464Y701162D01*
X1244075Y700607D01*
X1242594Y700144D01*
X1241020Y699681D01*
X1239261Y699311D01*
X1237410Y699033D01*
X1235373Y698848D01*
X1233243Y698755D01*
X1233058D01*
X1232688D01*
X1232040Y698848D01*
X1231114D01*
X1230095Y698940D01*
X1228799Y699125D01*
X1227503Y699311D01*
X1226022Y699681D01*
X1224540Y700051D01*
X1222967Y700514D01*
X1221300Y701070D01*
X1219726Y701810D01*
X1218245Y702551D01*
X1216764Y703569D01*
X1215375Y704588D01*
X1214171Y705884D01*
X1214079Y705976D01*
X1213986Y706162D01*
X1213708Y706532D01*
X1213338Y706995D01*
X1212968Y707550D01*
X1212505Y708291D01*
X1212042Y709032D01*
X1211579Y709958D01*
X1211116Y710976D01*
X1210653Y712087D01*
X1209820Y714587D01*
X1209172Y717457D01*
X1209079Y718938D01*
X1208987Y720512D01*
Y721438D01*
X1209079Y722086D01*
X1209172Y722919D01*
X1209357Y723845D01*
X1209542Y724863D01*
X1209727Y726067D01*
X1210560Y728567D01*
X1211023Y729863D01*
X1211671Y731159D01*
X1212319Y732455D01*
X1213245Y733751D01*
X1214171Y734955D01*
X1215282Y736159D01*
X1215375Y736251D01*
X1215560Y736436D01*
X1215930Y736714D01*
X1216393Y737084D01*
X1217041Y737547D01*
X1217875Y738103D01*
X1218800Y738658D01*
X1219819Y739214D01*
X1220930Y739769D01*
X1222318Y740325D01*
X1223707Y740880D01*
X1225281Y741343D01*
X1226948Y741713D01*
X1228707Y741991D01*
X1230558Y742176D01*
X1232595Y742269D01*
X1232688D01*
X1232965D01*
X1233428D01*
X1234077D01*
X1234817Y742176D01*
D02*
G37*
G36*
X1218800Y694126D02*
X1218708Y694033D01*
X1218522Y693663D01*
X1218245Y693107D01*
X1217967Y692367D01*
X1217689Y691534D01*
X1217411Y690515D01*
X1217226Y689497D01*
X1217134Y688478D01*
Y688015D01*
X1217226Y687552D01*
X1217319Y686904D01*
X1217504Y686256D01*
X1217782Y685423D01*
X1218152Y684590D01*
X1218708Y683849D01*
X1218800Y683756D01*
X1218985Y683479D01*
X1219356Y683201D01*
X1219819Y682738D01*
X1220467Y682275D01*
X1221207Y681812D01*
X1222041Y681349D01*
X1223059Y680979D01*
X1223244Y680887D01*
X1223800Y680794D01*
X1224633Y680609D01*
X1225744Y680331D01*
X1227133Y680053D01*
X1228707Y679868D01*
X1230373Y679775D01*
X1232225Y679683D01*
X1256482D01*
Y671813D01*
X1210005D01*
Y678942D01*
X1217041D01*
X1216949Y679035D01*
X1216301Y679405D01*
X1215467Y679868D01*
X1214449Y680609D01*
X1213430Y681349D01*
X1212319Y682183D01*
X1211394Y683016D01*
X1210653Y683849D01*
X1210560Y683942D01*
X1210375Y684220D01*
X1210098Y684775D01*
X1209820Y685331D01*
X1209542Y686071D01*
X1209264Y686997D01*
X1209079Y687923D01*
X1208987Y688941D01*
Y689589D01*
X1209079Y690423D01*
X1209264Y691441D01*
X1209635Y692645D01*
X1210098Y693941D01*
X1210746Y695422D01*
X1211579Y696996D01*
X1218800Y694126D01*
D02*
G37*
G36*
X1212412Y662000D02*
X1213060Y661907D01*
X1213893Y661814D01*
X1214819Y661629D01*
X1215838Y661444D01*
X1217967Y660796D01*
X1219078Y660426D01*
X1220282Y659870D01*
X1221485Y659222D01*
X1222596Y658574D01*
X1223707Y657741D01*
X1224818Y656815D01*
X1224911Y656722D01*
X1225096Y656537D01*
X1225374Y656259D01*
X1225651Y655797D01*
X1226114Y655241D01*
X1226577Y654500D01*
X1227133Y653575D01*
X1227596Y652556D01*
X1228151Y651352D01*
X1228707Y649964D01*
X1229170Y648482D01*
X1229540Y646723D01*
X1229910Y644872D01*
X1230188Y642835D01*
X1230373Y640520D01*
X1230466Y638113D01*
Y621726D01*
X1256482D01*
Y613208D01*
X1192414D01*
Y639502D01*
X1192507Y640891D01*
X1192599Y642465D01*
X1192692Y644131D01*
X1192877Y645705D01*
X1193062Y647094D01*
Y647279D01*
X1193247Y647927D01*
X1193432Y648760D01*
X1193710Y649871D01*
X1194173Y651075D01*
X1194729Y652371D01*
X1195377Y653760D01*
X1196117Y654963D01*
X1196210Y655148D01*
X1196488Y655519D01*
X1197043Y656074D01*
X1197691Y656815D01*
X1198525Y657648D01*
X1199636Y658481D01*
X1200839Y659407D01*
X1202228Y660148D01*
X1202413Y660240D01*
X1202876Y660426D01*
X1203709Y660796D01*
X1204820Y661166D01*
X1206116Y661444D01*
X1207598Y661814D01*
X1209264Y662000D01*
X1211023Y662092D01*
X1211116D01*
X1211394D01*
X1211764D01*
X1212412Y662000D01*
D02*
G37*
G36*
X1256482Y567472D02*
X1250649D01*
X1250741Y567380D01*
X1250927Y567287D01*
X1251297Y567009D01*
X1251760Y566639D01*
X1252223Y566176D01*
X1252778Y565621D01*
X1253426Y564973D01*
X1254074Y564139D01*
X1254723Y563306D01*
X1255371Y562380D01*
X1255926Y561269D01*
X1256389Y560066D01*
X1256852Y558862D01*
X1257222Y557473D01*
X1257407Y555992D01*
X1257500Y554418D01*
Y553863D01*
X1257407Y553492D01*
X1257315Y552381D01*
X1257130Y551085D01*
X1256759Y549511D01*
X1256204Y547752D01*
X1255463Y545993D01*
X1254445Y544234D01*
Y544141D01*
X1254260Y544049D01*
X1253889Y543493D01*
X1253149Y542660D01*
X1252223Y541642D01*
X1251019Y540438D01*
X1249538Y539235D01*
X1247871Y538031D01*
X1245927Y537012D01*
X1245835D01*
X1245649Y536920D01*
X1245372Y536827D01*
X1245001Y536642D01*
X1244446Y536457D01*
X1243798Y536179D01*
X1243150Y535994D01*
X1242316Y535809D01*
X1240465Y535346D01*
X1238335Y534883D01*
X1235928Y534605D01*
X1233336Y534513D01*
X1233243D01*
X1233058D01*
X1232688D01*
X1232132D01*
X1231577Y534605D01*
X1230836D01*
X1229170Y534790D01*
X1227225Y535068D01*
X1225096Y535531D01*
X1222874Y536087D01*
X1220744Y536827D01*
X1220652D01*
X1220467Y536920D01*
X1220189Y537105D01*
X1219819Y537290D01*
X1218800Y537846D01*
X1217504Y538586D01*
X1216115Y539512D01*
X1214727Y540716D01*
X1213245Y542105D01*
X1212042Y543771D01*
Y543864D01*
X1211949Y543956D01*
X1211764Y544234D01*
X1211579Y544604D01*
X1211116Y545530D01*
X1210468Y546826D01*
X1209912Y548308D01*
X1209449Y550067D01*
X1209079Y552011D01*
X1208987Y554048D01*
Y554788D01*
X1209079Y555529D01*
X1209172Y556548D01*
X1209449Y557751D01*
X1209727Y559047D01*
X1210190Y560343D01*
X1210838Y561547D01*
X1210931Y561732D01*
X1211116Y562103D01*
X1211579Y562658D01*
X1212042Y563399D01*
X1212690Y564324D01*
X1213523Y565158D01*
X1214356Y566084D01*
X1215375Y566917D01*
X1192414D01*
Y574786D01*
X1256482D01*
Y567472D01*
D02*
G37*
G36*
Y517385D02*
X1192414D01*
Y525254D01*
X1256482D01*
Y517385D01*
D02*
G37*
G36*
X1235280Y507849D02*
Y473130D01*
X1235373D01*
X1235650D01*
X1236021Y473223D01*
X1236576D01*
X1237224Y473315D01*
X1237965Y473501D01*
X1239632Y473778D01*
X1241483Y474334D01*
X1243520Y475075D01*
X1245372Y476093D01*
X1247038Y477389D01*
Y477482D01*
X1247223Y477574D01*
X1247686Y478130D01*
X1248334Y478963D01*
X1248982Y480074D01*
X1249723Y481555D01*
X1250371Y483222D01*
X1250834Y485073D01*
X1250927Y486092D01*
X1251019Y487203D01*
Y487943D01*
X1250927Y488777D01*
X1250741Y489795D01*
X1250464Y490906D01*
X1250093Y492202D01*
X1249538Y493406D01*
X1248797Y494609D01*
X1248705Y494702D01*
X1248334Y495165D01*
X1247779Y495720D01*
X1247038Y496369D01*
X1246020Y497109D01*
X1244724Y497943D01*
X1243242Y498776D01*
X1241483Y499516D01*
X1242502Y507664D01*
X1242594D01*
X1242779Y507571D01*
X1243150Y507478D01*
X1243705Y507293D01*
X1244261Y507016D01*
X1245001Y506738D01*
X1246575Y505997D01*
X1248334Y505071D01*
X1250186Y503775D01*
X1251945Y502294D01*
X1253612Y500442D01*
Y500350D01*
X1253797Y500164D01*
X1253982Y499887D01*
X1254260Y499516D01*
X1254537Y498961D01*
X1254815Y498405D01*
X1255185Y497665D01*
X1255556Y496832D01*
X1255926Y495906D01*
X1256296Y494980D01*
X1256852Y492665D01*
X1257315Y490073D01*
X1257500Y487203D01*
Y486184D01*
X1257407Y485536D01*
X1257315Y484703D01*
X1257130Y483685D01*
X1256945Y482574D01*
X1256759Y481370D01*
X1256019Y478778D01*
X1255463Y477389D01*
X1254908Y476093D01*
X1254167Y474704D01*
X1253334Y473408D01*
X1252408Y472204D01*
X1251297Y471001D01*
X1251204Y470908D01*
X1251019Y470723D01*
X1250649Y470445D01*
X1250093Y470075D01*
X1249445Y469612D01*
X1248705Y469149D01*
X1247779Y468594D01*
X1246760Y468038D01*
X1245557Y467483D01*
X1244261Y466927D01*
X1242779Y466464D01*
X1241205Y466001D01*
X1239539Y465631D01*
X1237687Y465353D01*
X1235743Y465168D01*
X1233706Y465075D01*
X1233614D01*
X1233151D01*
X1232595D01*
X1231762Y465168D01*
X1230743Y465261D01*
X1229632Y465353D01*
X1228336Y465538D01*
X1227040Y465816D01*
X1224078Y466557D01*
X1222596Y467020D01*
X1221022Y467575D01*
X1219541Y468316D01*
X1218152Y469149D01*
X1216764Y470075D01*
X1215467Y471093D01*
X1215375Y471186D01*
X1215190Y471371D01*
X1214912Y471741D01*
X1214449Y472204D01*
X1213986Y472760D01*
X1213430Y473501D01*
X1212782Y474334D01*
X1212227Y475352D01*
X1211579Y476371D01*
X1211023Y477574D01*
X1210468Y478870D01*
X1210005Y480259D01*
X1209542Y481740D01*
X1209264Y483314D01*
X1209079Y484981D01*
X1208987Y486740D01*
Y487666D01*
X1209079Y488314D01*
X1209172Y489054D01*
X1209357Y489980D01*
X1209542Y490999D01*
X1209820Y492202D01*
X1210098Y493313D01*
X1210560Y494609D01*
X1211023Y495813D01*
X1211671Y497109D01*
X1212412Y498405D01*
X1213245Y499701D01*
X1214264Y500905D01*
X1215375Y502016D01*
X1215467Y502109D01*
X1215652Y502294D01*
X1216023Y502572D01*
X1216578Y502942D01*
X1217226Y503405D01*
X1217967Y503868D01*
X1218893Y504423D01*
X1220004Y504979D01*
X1221208Y505534D01*
X1222504Y506090D01*
X1223985Y506553D01*
X1225559Y507016D01*
X1227318Y507386D01*
X1229170Y507664D01*
X1231114Y507849D01*
X1233243Y507941D01*
X1233336D01*
X1233706D01*
X1234354D01*
X1235280Y507849D01*
D02*
G37*
G36*
X1256482Y447855D02*
X1210005D01*
Y455725D01*
X1256482D01*
Y447855D01*
D02*
G37*
G36*
X1201395D02*
X1192414D01*
Y455725D01*
X1201395D01*
Y447855D01*
D02*
G37*
G36*
X1200006Y403045D02*
X1219819D01*
Y433134D01*
X1227411D01*
Y403045D01*
X1256482D01*
Y394527D01*
X1192414D01*
Y437856D01*
X1200006D01*
Y403045D01*
D02*
G37*
G36*
X1237224Y360179D02*
X1229355D01*
Y384528D01*
X1237224D01*
Y360179D01*
D02*
G37*
G36*
X1256482Y341662D02*
X1226300D01*
Y308518D01*
X1256482D01*
Y300000D01*
X1192414D01*
Y308518D01*
X1218708D01*
Y341662D01*
X1192414D01*
Y350180D01*
X1256482D01*
Y341662D01*
D02*
G37*
G36*
X587780Y841425D02*
Y806707D01*
X587873D01*
X588150D01*
X588521Y806799D01*
X589076D01*
X589724Y806892D01*
X590465Y807077D01*
X592132Y807355D01*
X593983Y807910D01*
X596020Y808651D01*
X597872Y809669D01*
X599538Y810966D01*
Y811058D01*
X599723Y811151D01*
X600186Y811706D01*
X600834Y812540D01*
X601482Y813651D01*
X602223Y815132D01*
X602871Y816798D01*
X603334Y818650D01*
X603427Y819668D01*
X603519Y820779D01*
Y821520D01*
X603427Y822353D01*
X603241Y823372D01*
X602964Y824483D01*
X602593Y825779D01*
X602038Y826982D01*
X601297Y828186D01*
X601205Y828279D01*
X600834Y828742D01*
X600279Y829297D01*
X599538Y829945D01*
X598520Y830686D01*
X597224Y831519D01*
X595742Y832352D01*
X593983Y833093D01*
X595001Y841240D01*
X595094D01*
X595279Y841148D01*
X595650Y841055D01*
X596205Y840870D01*
X596761Y840592D01*
X597501Y840314D01*
X599075Y839574D01*
X600834Y838648D01*
X602686Y837352D01*
X604445Y835870D01*
X606111Y834019D01*
Y833926D01*
X606297Y833741D01*
X606482Y833463D01*
X606760Y833093D01*
X607037Y832537D01*
X607315Y831982D01*
X607685Y831241D01*
X608056Y830408D01*
X608426Y829482D01*
X608796Y828556D01*
X609352Y826242D01*
X609815Y823650D01*
X610000Y820779D01*
Y819761D01*
X609907Y819113D01*
X609815Y818280D01*
X609630Y817261D01*
X609445Y816150D01*
X609259Y814947D01*
X608519Y812354D01*
X607963Y810966D01*
X607408Y809669D01*
X606667Y808281D01*
X605834Y806984D01*
X604908Y805781D01*
X603797Y804577D01*
X603704Y804485D01*
X603519Y804300D01*
X603149Y804022D01*
X602593Y803652D01*
X601945Y803189D01*
X601205Y802726D01*
X600279Y802170D01*
X599260Y801615D01*
X598057Y801059D01*
X596761Y800504D01*
X595279Y800041D01*
X593705Y799578D01*
X592039Y799208D01*
X590187Y798930D01*
X588243Y798745D01*
X586206Y798652D01*
X586114D01*
X585651D01*
X585095D01*
X584262Y798745D01*
X583243Y798837D01*
X582132Y798930D01*
X580836Y799115D01*
X579540Y799393D01*
X576577Y800133D01*
X575096Y800596D01*
X573522Y801152D01*
X572041Y801892D01*
X570652Y802726D01*
X569263Y803652D01*
X567967Y804670D01*
X567875Y804762D01*
X567690Y804948D01*
X567412Y805318D01*
X566949Y805781D01*
X566486Y806336D01*
X565930Y807077D01*
X565282Y807910D01*
X564727Y808929D01*
X564079Y809947D01*
X563523Y811151D01*
X562968Y812447D01*
X562505Y813836D01*
X562042Y815317D01*
X561764Y816891D01*
X561579Y818557D01*
X561487Y820316D01*
Y821242D01*
X561579Y821890D01*
X561672Y822631D01*
X561857Y823557D01*
X562042Y824575D01*
X562320Y825779D01*
X562598Y826890D01*
X563060Y828186D01*
X563523Y829390D01*
X564171Y830686D01*
X564912Y831982D01*
X565745Y833278D01*
X566764Y834482D01*
X567875Y835593D01*
X567967Y835685D01*
X568153Y835870D01*
X568523Y836148D01*
X569078Y836518D01*
X569726Y836981D01*
X570467Y837444D01*
X571393Y838000D01*
X572504Y838555D01*
X573707Y839111D01*
X575004Y839666D01*
X576485Y840129D01*
X578059Y840592D01*
X579818Y840963D01*
X581670Y841240D01*
X583614Y841425D01*
X585743Y841518D01*
X585836D01*
X586206D01*
X586854D01*
X587780Y841425D01*
D02*
G37*
G36*
X587039Y791523D02*
X588058Y791431D01*
X589169Y791338D01*
X590465Y791153D01*
X591854Y790875D01*
X594816Y790134D01*
X596390Y789671D01*
X597872Y789116D01*
X599445Y788468D01*
X600834Y787635D01*
X602223Y786709D01*
X603519Y785690D01*
X603612Y785598D01*
X603797Y785413D01*
X604075Y785135D01*
X604538Y784672D01*
X605000Y784024D01*
X605556Y783376D01*
X606111Y782635D01*
X606760Y781709D01*
X607315Y780691D01*
X607963Y779672D01*
X608982Y777173D01*
X609445Y775877D01*
X609722Y774488D01*
X609907Y773007D01*
X610000Y771525D01*
Y771155D01*
X609907Y770692D01*
Y770136D01*
X609815Y769488D01*
X609630Y768655D01*
X609167Y766804D01*
X608796Y765785D01*
X608334Y764767D01*
X607778Y763656D01*
X607130Y762637D01*
X606297Y761526D01*
X605371Y760508D01*
X604352Y759582D01*
X603149Y758656D01*
X608982D01*
Y751342D01*
X544914D01*
Y759212D01*
X567782D01*
X567690Y759304D01*
X567504Y759397D01*
X567227Y759675D01*
X566764Y760137D01*
X566301Y760600D01*
X565745Y761156D01*
X565190Y761897D01*
X564634Y762637D01*
X563431Y764489D01*
X562505Y766618D01*
X562042Y767822D01*
X561764Y769118D01*
X561579Y770507D01*
X561487Y771896D01*
Y772636D01*
X561579Y773469D01*
X561672Y774488D01*
X561949Y775692D01*
X562227Y777080D01*
X562690Y778561D01*
X563246Y779950D01*
X563338Y780135D01*
X563523Y780598D01*
X563986Y781339D01*
X564542Y782172D01*
X565190Y783191D01*
X566023Y784209D01*
X567042Y785320D01*
X568153Y786246D01*
X568245Y786339D01*
X568708Y786616D01*
X569356Y787079D01*
X570189Y787635D01*
X571300Y788283D01*
X572596Y788931D01*
X574078Y789579D01*
X575652Y790134D01*
X575744D01*
X575837Y790227D01*
X576115Y790320D01*
X576392Y790412D01*
X577318Y790597D01*
X578522Y790875D01*
X579911Y791153D01*
X581484Y791431D01*
X583243Y791523D01*
X585095Y791616D01*
X585188D01*
X585651D01*
X586206D01*
X587039Y791523D01*
D02*
G37*
G36*
X587317Y742176D02*
X588243Y742084D01*
X589169D01*
X590187Y741899D01*
X592502Y741621D01*
X594816Y741065D01*
X597131Y740417D01*
X599260Y739492D01*
X599353D01*
X599445Y739399D01*
X599723Y739214D01*
X600094Y739029D01*
X601019Y738381D01*
X602130Y737547D01*
X603427Y736436D01*
X604723Y735048D01*
X606019Y733474D01*
X607223Y731622D01*
Y731529D01*
X607315Y731437D01*
X607500Y731159D01*
X607685Y730696D01*
X607871Y730233D01*
X608056Y729678D01*
X608611Y728289D01*
X609074Y726715D01*
X609537Y724771D01*
X609907Y722734D01*
X610000Y720512D01*
Y719586D01*
X609907Y718846D01*
X609815Y718012D01*
X609630Y717086D01*
X609445Y715975D01*
X609259Y714864D01*
X608519Y712365D01*
X607963Y710976D01*
X607408Y709680D01*
X606667Y708384D01*
X605834Y707087D01*
X604908Y705884D01*
X603797Y704680D01*
X603704Y704588D01*
X603519Y704403D01*
X603149Y704125D01*
X602593Y703755D01*
X601945Y703292D01*
X601205Y702829D01*
X600279Y702273D01*
X599168Y701718D01*
X597964Y701162D01*
X596575Y700607D01*
X595094Y700144D01*
X593520Y699681D01*
X591761Y699311D01*
X589910Y699033D01*
X587873Y698848D01*
X585743Y698755D01*
X585558D01*
X585188D01*
X584540Y698848D01*
X583614D01*
X582595Y698940D01*
X581299Y699125D01*
X580003Y699311D01*
X578522Y699681D01*
X577040Y700051D01*
X575466Y700514D01*
X573800Y701070D01*
X572226Y701810D01*
X570745Y702551D01*
X569263Y703569D01*
X567875Y704588D01*
X566671Y705884D01*
X566578Y705976D01*
X566486Y706162D01*
X566208Y706532D01*
X565838Y706995D01*
X565468Y707550D01*
X565005Y708291D01*
X564542Y709032D01*
X564079Y709958D01*
X563616Y710976D01*
X563153Y712087D01*
X562320Y714587D01*
X561672Y717457D01*
X561579Y718938D01*
X561487Y720512D01*
Y721438D01*
X561579Y722086D01*
X561672Y722919D01*
X561857Y723845D01*
X562042Y724863D01*
X562227Y726067D01*
X563060Y728567D01*
X563523Y729863D01*
X564171Y731159D01*
X564819Y732455D01*
X565745Y733751D01*
X566671Y734955D01*
X567782Y736159D01*
X567875Y736251D01*
X568060Y736436D01*
X568430Y736714D01*
X568893Y737084D01*
X569541Y737547D01*
X570374Y738103D01*
X571300Y738658D01*
X572319Y739214D01*
X573430Y739769D01*
X574818Y740325D01*
X576207Y740880D01*
X577781Y741343D01*
X579448Y741713D01*
X581207Y741991D01*
X583058Y742176D01*
X585095Y742269D01*
X585188D01*
X585466D01*
X585928D01*
X586576D01*
X587317Y742176D01*
D02*
G37*
G36*
X571300Y694126D02*
X571208Y694033D01*
X571022Y693663D01*
X570745Y693107D01*
X570467Y692367D01*
X570189Y691534D01*
X569911Y690515D01*
X569726Y689497D01*
X569634Y688478D01*
Y688015D01*
X569726Y687552D01*
X569819Y686904D01*
X570004Y686256D01*
X570282Y685423D01*
X570652Y684590D01*
X571208Y683849D01*
X571300Y683756D01*
X571485Y683479D01*
X571856Y683201D01*
X572319Y682738D01*
X572967Y682275D01*
X573707Y681812D01*
X574541Y681349D01*
X575559Y680979D01*
X575744Y680887D01*
X576300Y680794D01*
X577133Y680609D01*
X578244Y680331D01*
X579633Y680053D01*
X581207Y679868D01*
X582873Y679775D01*
X584725Y679683D01*
X608982D01*
Y671813D01*
X562505D01*
Y678942D01*
X569541D01*
X569449Y679035D01*
X568801Y679405D01*
X567967Y679868D01*
X566949Y680609D01*
X565930Y681349D01*
X564819Y682183D01*
X563894Y683016D01*
X563153Y683849D01*
X563060Y683942D01*
X562875Y684220D01*
X562598Y684775D01*
X562320Y685331D01*
X562042Y686071D01*
X561764Y686997D01*
X561579Y687923D01*
X561487Y688941D01*
Y689589D01*
X561579Y690423D01*
X561764Y691441D01*
X562135Y692645D01*
X562598Y693941D01*
X563246Y695422D01*
X564079Y696996D01*
X571300Y694126D01*
D02*
G37*
G36*
X564912Y662000D02*
X565560Y661907D01*
X566393Y661814D01*
X567319Y661629D01*
X568338Y661444D01*
X570467Y660796D01*
X571578Y660426D01*
X572782Y659870D01*
X573985Y659222D01*
X575096Y658574D01*
X576207Y657741D01*
X577318Y656815D01*
X577411Y656722D01*
X577596Y656537D01*
X577874Y656259D01*
X578151Y655797D01*
X578614Y655241D01*
X579077Y654500D01*
X579633Y653575D01*
X580096Y652556D01*
X580651Y651352D01*
X581207Y649964D01*
X581670Y648482D01*
X582040Y646723D01*
X582410Y644872D01*
X582688Y642835D01*
X582873Y640520D01*
X582966Y638113D01*
Y621726D01*
X608982D01*
Y613208D01*
X544914D01*
Y639502D01*
X545007Y640891D01*
X545099Y642465D01*
X545192Y644131D01*
X545377Y645705D01*
X545562Y647094D01*
Y647279D01*
X545747Y647927D01*
X545933Y648760D01*
X546210Y649871D01*
X546673Y651075D01*
X547229Y652371D01*
X547877Y653760D01*
X548617Y654963D01*
X548710Y655148D01*
X548988Y655519D01*
X549543Y656074D01*
X550191Y656815D01*
X551025Y657648D01*
X552136Y658481D01*
X553339Y659407D01*
X554728Y660148D01*
X554913Y660240D01*
X555376Y660426D01*
X556209Y660796D01*
X557320Y661166D01*
X558616Y661444D01*
X560098Y661814D01*
X561764Y662000D01*
X563523Y662092D01*
X563616D01*
X563894D01*
X564264D01*
X564912Y662000D01*
D02*
G37*
G36*
X608982Y567472D02*
X603149D01*
X603241Y567380D01*
X603427Y567287D01*
X603797Y567009D01*
X604260Y566639D01*
X604723Y566176D01*
X605278Y565621D01*
X605926Y564973D01*
X606574Y564139D01*
X607223Y563306D01*
X607871Y562380D01*
X608426Y561269D01*
X608889Y560066D01*
X609352Y558862D01*
X609722Y557473D01*
X609907Y555992D01*
X610000Y554418D01*
Y553863D01*
X609907Y553492D01*
X609815Y552381D01*
X609630Y551085D01*
X609259Y549511D01*
X608704Y547752D01*
X607963Y545993D01*
X606945Y544234D01*
Y544141D01*
X606760Y544049D01*
X606389Y543493D01*
X605649Y542660D01*
X604723Y541642D01*
X603519Y540438D01*
X602038Y539235D01*
X600371Y538031D01*
X598427Y537012D01*
X598335D01*
X598149Y536920D01*
X597872Y536827D01*
X597501Y536642D01*
X596946Y536457D01*
X596298Y536179D01*
X595650Y535994D01*
X594816Y535809D01*
X592965Y535346D01*
X590835Y534883D01*
X588428Y534605D01*
X585836Y534513D01*
X585743D01*
X585558D01*
X585188D01*
X584632D01*
X584077Y534605D01*
X583336D01*
X581670Y534790D01*
X579725Y535068D01*
X577596Y535531D01*
X575374Y536087D01*
X573245Y536827D01*
X573152D01*
X572967Y536920D01*
X572689Y537105D01*
X572319Y537290D01*
X571300Y537846D01*
X570004Y538586D01*
X568615Y539512D01*
X567227Y540716D01*
X565745Y542105D01*
X564542Y543771D01*
Y543864D01*
X564449Y543956D01*
X564264Y544234D01*
X564079Y544604D01*
X563616Y545530D01*
X562968Y546826D01*
X562412Y548308D01*
X561949Y550067D01*
X561579Y552011D01*
X561487Y554048D01*
Y554788D01*
X561579Y555529D01*
X561672Y556548D01*
X561949Y557751D01*
X562227Y559047D01*
X562690Y560343D01*
X563338Y561547D01*
X563431Y561732D01*
X563616Y562103D01*
X564079Y562658D01*
X564542Y563399D01*
X565190Y564324D01*
X566023Y565158D01*
X566856Y566084D01*
X567875Y566917D01*
X544914D01*
Y574786D01*
X608982D01*
Y567472D01*
D02*
G37*
G36*
Y517385D02*
X544914D01*
Y525254D01*
X608982D01*
Y517385D01*
D02*
G37*
G36*
X587780Y507849D02*
Y473130D01*
X587873D01*
X588150D01*
X588521Y473223D01*
X589076D01*
X589724Y473315D01*
X590465Y473501D01*
X592132Y473778D01*
X593983Y474334D01*
X596020Y475075D01*
X597872Y476093D01*
X599538Y477389D01*
Y477482D01*
X599723Y477574D01*
X600186Y478130D01*
X600834Y478963D01*
X601482Y480074D01*
X602223Y481555D01*
X602871Y483222D01*
X603334Y485073D01*
X603427Y486092D01*
X603519Y487203D01*
Y487943D01*
X603427Y488777D01*
X603241Y489795D01*
X602964Y490906D01*
X602593Y492202D01*
X602038Y493406D01*
X601297Y494609D01*
X601205Y494702D01*
X600834Y495165D01*
X600279Y495720D01*
X599538Y496369D01*
X598520Y497109D01*
X597224Y497943D01*
X595742Y498776D01*
X593983Y499516D01*
X595002Y507664D01*
X595094D01*
X595279Y507571D01*
X595650Y507478D01*
X596205Y507293D01*
X596761Y507016D01*
X597501Y506738D01*
X599075Y505997D01*
X600834Y505071D01*
X602686Y503775D01*
X604445Y502294D01*
X606111Y500442D01*
Y500350D01*
X606297Y500164D01*
X606482Y499887D01*
X606760Y499516D01*
X607037Y498961D01*
X607315Y498405D01*
X607685Y497665D01*
X608056Y496832D01*
X608426Y495906D01*
X608796Y494980D01*
X609352Y492665D01*
X609815Y490073D01*
X610000Y487203D01*
Y486184D01*
X609907Y485536D01*
X609815Y484703D01*
X609630Y483685D01*
X609445Y482574D01*
X609259Y481370D01*
X608519Y478778D01*
X607963Y477389D01*
X607408Y476093D01*
X606667Y474704D01*
X605834Y473408D01*
X604908Y472204D01*
X603797Y471001D01*
X603704Y470908D01*
X603519Y470723D01*
X603149Y470445D01*
X602593Y470075D01*
X601945Y469612D01*
X601205Y469149D01*
X600279Y468594D01*
X599260Y468038D01*
X598057Y467483D01*
X596761Y466927D01*
X595279Y466464D01*
X593705Y466001D01*
X592039Y465631D01*
X590187Y465353D01*
X588243Y465168D01*
X586206Y465075D01*
X586114D01*
X585651D01*
X585095D01*
X584262Y465168D01*
X583243Y465261D01*
X582132Y465353D01*
X580836Y465538D01*
X579540Y465816D01*
X576577Y466557D01*
X575096Y467020D01*
X573522Y467575D01*
X572041Y468316D01*
X570652Y469149D01*
X569263Y470075D01*
X567967Y471093D01*
X567875Y471186D01*
X567690Y471371D01*
X567412Y471741D01*
X566949Y472204D01*
X566486Y472760D01*
X565930Y473501D01*
X565282Y474334D01*
X564727Y475352D01*
X564079Y476371D01*
X563523Y477574D01*
X562968Y478870D01*
X562505Y480259D01*
X562042Y481740D01*
X561764Y483314D01*
X561579Y484981D01*
X561487Y486740D01*
Y487666D01*
X561579Y488314D01*
X561672Y489054D01*
X561857Y489980D01*
X562042Y490999D01*
X562320Y492202D01*
X562598Y493313D01*
X563060Y494609D01*
X563523Y495813D01*
X564171Y497109D01*
X564912Y498405D01*
X565745Y499701D01*
X566764Y500905D01*
X567875Y502016D01*
X567967Y502109D01*
X568153Y502294D01*
X568523Y502572D01*
X569078Y502942D01*
X569726Y503405D01*
X570467Y503868D01*
X571393Y504423D01*
X572504Y504979D01*
X573708Y505534D01*
X575004Y506090D01*
X576485Y506553D01*
X578059Y507016D01*
X579818Y507386D01*
X581670Y507664D01*
X583614Y507849D01*
X585743Y507941D01*
X585836D01*
X586206D01*
X586854D01*
X587780Y507849D01*
D02*
G37*
G36*
X608982Y447855D02*
X562505D01*
Y455725D01*
X608982D01*
Y447855D01*
D02*
G37*
G36*
X553895D02*
X544914D01*
Y455725D01*
X553895D01*
Y447855D01*
D02*
G37*
G36*
X552506Y403045D02*
X572319D01*
Y433134D01*
X579911D01*
Y403045D01*
X608982D01*
Y394527D01*
X544914D01*
Y437856D01*
X552506D01*
Y403045D01*
D02*
G37*
G36*
X589724Y360179D02*
X581855D01*
Y384528D01*
X589724D01*
Y360179D01*
D02*
G37*
G36*
X608982Y341662D02*
X578800D01*
Y308518D01*
X608982D01*
Y300000D01*
X544914D01*
Y308518D01*
X571208D01*
Y341662D01*
X544914D01*
Y350180D01*
X608982D01*
Y341662D01*
D02*
G37*
G36*
X357780Y841425D02*
Y806707D01*
X357873D01*
X358150D01*
X358521Y806799D01*
X359076D01*
X359724Y806892D01*
X360465Y807077D01*
X362132Y807355D01*
X363983Y807910D01*
X366020Y808651D01*
X367872Y809669D01*
X369538Y810966D01*
Y811058D01*
X369723Y811151D01*
X370186Y811706D01*
X370834Y812540D01*
X371482Y813651D01*
X372223Y815132D01*
X372871Y816798D01*
X373334Y818650D01*
X373427Y819668D01*
X373519Y820779D01*
Y821520D01*
X373427Y822353D01*
X373241Y823372D01*
X372964Y824483D01*
X372593Y825779D01*
X372038Y826982D01*
X371297Y828186D01*
X371205Y828279D01*
X370834Y828742D01*
X370279Y829297D01*
X369538Y829945D01*
X368520Y830686D01*
X367224Y831519D01*
X365742Y832352D01*
X363983Y833093D01*
X365001Y841240D01*
X365094D01*
X365279Y841148D01*
X365650Y841055D01*
X366205Y840870D01*
X366761Y840592D01*
X367501Y840314D01*
X369075Y839574D01*
X370834Y838648D01*
X372686Y837352D01*
X374445Y835870D01*
X376111Y834019D01*
Y833926D01*
X376297Y833741D01*
X376482Y833463D01*
X376760Y833093D01*
X377037Y832537D01*
X377315Y831982D01*
X377685Y831241D01*
X378056Y830408D01*
X378426Y829482D01*
X378796Y828556D01*
X379352Y826242D01*
X379815Y823650D01*
X380000Y820779D01*
Y819761D01*
X379907Y819113D01*
X379815Y818280D01*
X379630Y817261D01*
X379445Y816150D01*
X379259Y814947D01*
X378519Y812354D01*
X377963Y810966D01*
X377408Y809669D01*
X376667Y808281D01*
X375834Y806984D01*
X374908Y805781D01*
X373797Y804577D01*
X373704Y804485D01*
X373519Y804300D01*
X373149Y804022D01*
X372593Y803652D01*
X371945Y803189D01*
X371205Y802726D01*
X370279Y802170D01*
X369260Y801615D01*
X368057Y801059D01*
X366761Y800504D01*
X365279Y800041D01*
X363705Y799578D01*
X362039Y799208D01*
X360187Y798930D01*
X358243Y798745D01*
X356206Y798652D01*
X356114D01*
X355651D01*
X355095D01*
X354262Y798745D01*
X353243Y798837D01*
X352132Y798930D01*
X350836Y799115D01*
X349540Y799393D01*
X346577Y800133D01*
X345096Y800596D01*
X343522Y801152D01*
X342041Y801892D01*
X340652Y802726D01*
X339263Y803652D01*
X337967Y804670D01*
X337875Y804762D01*
X337690Y804948D01*
X337412Y805318D01*
X336949Y805781D01*
X336486Y806336D01*
X335930Y807077D01*
X335282Y807910D01*
X334727Y808929D01*
X334079Y809947D01*
X333523Y811151D01*
X332968Y812447D01*
X332505Y813836D01*
X332042Y815317D01*
X331764Y816891D01*
X331579Y818557D01*
X331487Y820316D01*
Y821242D01*
X331579Y821890D01*
X331672Y822631D01*
X331857Y823557D01*
X332042Y824575D01*
X332320Y825779D01*
X332598Y826890D01*
X333060Y828186D01*
X333523Y829390D01*
X334171Y830686D01*
X334912Y831982D01*
X335745Y833278D01*
X336764Y834482D01*
X337875Y835593D01*
X337967Y835685D01*
X338153Y835870D01*
X338523Y836148D01*
X339078Y836518D01*
X339726Y836981D01*
X340467Y837444D01*
X341393Y838000D01*
X342504Y838555D01*
X343707Y839111D01*
X345004Y839666D01*
X346485Y840129D01*
X348059Y840592D01*
X349818Y840963D01*
X351670Y841240D01*
X353614Y841425D01*
X355743Y841518D01*
X355836D01*
X356206D01*
X356854D01*
X357780Y841425D01*
D02*
G37*
G36*
X357039Y791523D02*
X358058Y791431D01*
X359169Y791338D01*
X360465Y791153D01*
X361854Y790875D01*
X364816Y790134D01*
X366390Y789671D01*
X367872Y789116D01*
X369445Y788468D01*
X370834Y787635D01*
X372223Y786709D01*
X373519Y785690D01*
X373612Y785598D01*
X373797Y785413D01*
X374075Y785135D01*
X374538Y784672D01*
X375000Y784024D01*
X375556Y783376D01*
X376111Y782635D01*
X376760Y781709D01*
X377315Y780691D01*
X377963Y779672D01*
X378982Y777173D01*
X379445Y775877D01*
X379722Y774488D01*
X379907Y773007D01*
X380000Y771525D01*
Y771155D01*
X379907Y770692D01*
Y770136D01*
X379815Y769488D01*
X379630Y768655D01*
X379167Y766804D01*
X378796Y765785D01*
X378334Y764767D01*
X377778Y763656D01*
X377130Y762637D01*
X376297Y761526D01*
X375371Y760508D01*
X374352Y759582D01*
X373149Y758656D01*
X378982D01*
Y751342D01*
X314914D01*
Y759212D01*
X337782D01*
X337690Y759304D01*
X337504Y759397D01*
X337227Y759675D01*
X336764Y760137D01*
X336301Y760600D01*
X335745Y761156D01*
X335190Y761897D01*
X334634Y762637D01*
X333431Y764489D01*
X332505Y766618D01*
X332042Y767822D01*
X331764Y769118D01*
X331579Y770507D01*
X331487Y771896D01*
Y772636D01*
X331579Y773469D01*
X331672Y774488D01*
X331949Y775692D01*
X332227Y777080D01*
X332690Y778561D01*
X333246Y779950D01*
X333338Y780135D01*
X333523Y780598D01*
X333986Y781339D01*
X334542Y782172D01*
X335190Y783191D01*
X336023Y784209D01*
X337042Y785320D01*
X338153Y786246D01*
X338245Y786339D01*
X338708Y786616D01*
X339356Y787079D01*
X340189Y787635D01*
X341300Y788283D01*
X342596Y788931D01*
X344078Y789579D01*
X345652Y790134D01*
X345744D01*
X345837Y790227D01*
X346115Y790320D01*
X346392Y790412D01*
X347318Y790597D01*
X348522Y790875D01*
X349911Y791153D01*
X351484Y791431D01*
X353243Y791523D01*
X355095Y791616D01*
X355188D01*
X355651D01*
X356206D01*
X357039Y791523D01*
D02*
G37*
G36*
X357317Y742176D02*
X358243Y742084D01*
X359169D01*
X360187Y741899D01*
X362502Y741621D01*
X364816Y741065D01*
X367131Y740417D01*
X369260Y739492D01*
X369353D01*
X369445Y739399D01*
X369723Y739214D01*
X370094Y739029D01*
X371019Y738381D01*
X372130Y737547D01*
X373427Y736436D01*
X374723Y735048D01*
X376019Y733474D01*
X377223Y731622D01*
Y731529D01*
X377315Y731437D01*
X377500Y731159D01*
X377685Y730696D01*
X377871Y730233D01*
X378056Y729678D01*
X378611Y728289D01*
X379074Y726715D01*
X379537Y724771D01*
X379907Y722734D01*
X380000Y720512D01*
Y719586D01*
X379907Y718846D01*
X379815Y718012D01*
X379630Y717086D01*
X379445Y715975D01*
X379259Y714864D01*
X378519Y712365D01*
X377963Y710976D01*
X377408Y709680D01*
X376667Y708384D01*
X375834Y707087D01*
X374908Y705884D01*
X373797Y704680D01*
X373704Y704588D01*
X373519Y704403D01*
X373149Y704125D01*
X372593Y703755D01*
X371945Y703292D01*
X371205Y702829D01*
X370279Y702273D01*
X369168Y701718D01*
X367964Y701162D01*
X366575Y700607D01*
X365094Y700144D01*
X363520Y699681D01*
X361761Y699311D01*
X359910Y699033D01*
X357873Y698848D01*
X355743Y698755D01*
X355558D01*
X355188D01*
X354540Y698848D01*
X353614D01*
X352595Y698940D01*
X351299Y699125D01*
X350003Y699311D01*
X348522Y699681D01*
X347040Y700051D01*
X345466Y700514D01*
X343800Y701070D01*
X342226Y701810D01*
X340745Y702551D01*
X339263Y703569D01*
X337875Y704588D01*
X336671Y705884D01*
X336578Y705976D01*
X336486Y706162D01*
X336208Y706532D01*
X335838Y706995D01*
X335468Y707550D01*
X335005Y708291D01*
X334542Y709032D01*
X334079Y709958D01*
X333616Y710976D01*
X333153Y712087D01*
X332320Y714587D01*
X331672Y717457D01*
X331579Y718938D01*
X331487Y720512D01*
Y721438D01*
X331579Y722086D01*
X331672Y722919D01*
X331857Y723845D01*
X332042Y724863D01*
X332227Y726067D01*
X333060Y728567D01*
X333523Y729863D01*
X334171Y731159D01*
X334819Y732455D01*
X335745Y733751D01*
X336671Y734955D01*
X337782Y736159D01*
X337875Y736251D01*
X338060Y736436D01*
X338430Y736714D01*
X338893Y737084D01*
X339541Y737547D01*
X340374Y738103D01*
X341300Y738658D01*
X342319Y739214D01*
X343430Y739769D01*
X344818Y740325D01*
X346207Y740880D01*
X347781Y741343D01*
X349448Y741713D01*
X351207Y741991D01*
X353058Y742176D01*
X355095Y742269D01*
X355188D01*
X355466D01*
X355928D01*
X356576D01*
X357317Y742176D01*
D02*
G37*
G36*
X341300Y694126D02*
X341208Y694033D01*
X341022Y693663D01*
X340745Y693107D01*
X340467Y692367D01*
X340189Y691534D01*
X339911Y690515D01*
X339726Y689497D01*
X339634Y688478D01*
Y688015D01*
X339726Y687552D01*
X339819Y686904D01*
X340004Y686256D01*
X340282Y685423D01*
X340652Y684590D01*
X341208Y683849D01*
X341300Y683756D01*
X341485Y683479D01*
X341856Y683201D01*
X342319Y682738D01*
X342967Y682275D01*
X343707Y681812D01*
X344541Y681349D01*
X345559Y680979D01*
X345744Y680887D01*
X346300Y680794D01*
X347133Y680609D01*
X348244Y680331D01*
X349633Y680053D01*
X351207Y679868D01*
X352873Y679775D01*
X354725Y679683D01*
X378982D01*
Y671813D01*
X332505D01*
Y678942D01*
X339541D01*
X339449Y679035D01*
X338801Y679405D01*
X337967Y679868D01*
X336949Y680609D01*
X335930Y681349D01*
X334819Y682183D01*
X333894Y683016D01*
X333153Y683849D01*
X333060Y683942D01*
X332875Y684220D01*
X332598Y684775D01*
X332320Y685331D01*
X332042Y686071D01*
X331764Y686997D01*
X331579Y687923D01*
X331487Y688941D01*
Y689589D01*
X331579Y690423D01*
X331764Y691441D01*
X332135Y692645D01*
X332598Y693941D01*
X333246Y695422D01*
X334079Y696996D01*
X341300Y694126D01*
D02*
G37*
G36*
X334912Y662000D02*
X335560Y661907D01*
X336393Y661814D01*
X337319Y661629D01*
X338338Y661444D01*
X340467Y660796D01*
X341578Y660426D01*
X342782Y659870D01*
X343985Y659222D01*
X345096Y658574D01*
X346207Y657741D01*
X347318Y656815D01*
X347411Y656722D01*
X347596Y656537D01*
X347874Y656259D01*
X348151Y655797D01*
X348614Y655241D01*
X349077Y654500D01*
X349633Y653575D01*
X350096Y652556D01*
X350651Y651352D01*
X351207Y649964D01*
X351670Y648482D01*
X352040Y646723D01*
X352410Y644872D01*
X352688Y642835D01*
X352873Y640520D01*
X352966Y638113D01*
Y621726D01*
X378982D01*
Y613208D01*
X314914D01*
Y639502D01*
X315007Y640891D01*
X315099Y642465D01*
X315192Y644131D01*
X315377Y645705D01*
X315562Y647094D01*
Y647279D01*
X315747Y647927D01*
X315933Y648760D01*
X316210Y649871D01*
X316673Y651075D01*
X317229Y652371D01*
X317877Y653760D01*
X318617Y654963D01*
X318710Y655148D01*
X318988Y655519D01*
X319543Y656074D01*
X320191Y656815D01*
X321025Y657648D01*
X322136Y658481D01*
X323339Y659407D01*
X324728Y660148D01*
X324913Y660240D01*
X325376Y660426D01*
X326209Y660796D01*
X327320Y661166D01*
X328616Y661444D01*
X330098Y661814D01*
X331764Y662000D01*
X333523Y662092D01*
X333616D01*
X333894D01*
X334264D01*
X334912Y662000D01*
D02*
G37*
G36*
X378982Y567472D02*
X373149D01*
X373241Y567380D01*
X373427Y567287D01*
X373797Y567009D01*
X374260Y566639D01*
X374723Y566176D01*
X375278Y565621D01*
X375926Y564973D01*
X376574Y564139D01*
X377223Y563306D01*
X377871Y562380D01*
X378426Y561269D01*
X378889Y560066D01*
X379352Y558862D01*
X379722Y557473D01*
X379907Y555992D01*
X380000Y554418D01*
Y553863D01*
X379907Y553492D01*
X379815Y552381D01*
X379630Y551085D01*
X379259Y549511D01*
X378704Y547752D01*
X377963Y545993D01*
X376945Y544234D01*
Y544141D01*
X376760Y544049D01*
X376389Y543493D01*
X375649Y542660D01*
X374723Y541642D01*
X373519Y540438D01*
X372038Y539235D01*
X370371Y538031D01*
X368427Y537012D01*
X368335D01*
X368149Y536920D01*
X367872Y536827D01*
X367501Y536642D01*
X366946Y536457D01*
X366298Y536179D01*
X365650Y535994D01*
X364816Y535809D01*
X362965Y535346D01*
X360835Y534883D01*
X358428Y534605D01*
X355836Y534513D01*
X355743D01*
X355558D01*
X355188D01*
X354632D01*
X354077Y534605D01*
X353336D01*
X351670Y534790D01*
X349725Y535068D01*
X347596Y535531D01*
X345374Y536087D01*
X343245Y536827D01*
X343152D01*
X342967Y536920D01*
X342689Y537105D01*
X342319Y537290D01*
X341300Y537846D01*
X340004Y538586D01*
X338615Y539512D01*
X337227Y540716D01*
X335745Y542105D01*
X334542Y543771D01*
Y543864D01*
X334449Y543956D01*
X334264Y544234D01*
X334079Y544604D01*
X333616Y545530D01*
X332968Y546826D01*
X332412Y548308D01*
X331949Y550067D01*
X331579Y552011D01*
X331487Y554048D01*
Y554788D01*
X331579Y555529D01*
X331672Y556548D01*
X331949Y557751D01*
X332227Y559047D01*
X332690Y560343D01*
X333338Y561547D01*
X333431Y561732D01*
X333616Y562103D01*
X334079Y562658D01*
X334542Y563399D01*
X335190Y564324D01*
X336023Y565158D01*
X336856Y566084D01*
X337875Y566917D01*
X314914D01*
Y574786D01*
X378982D01*
Y567472D01*
D02*
G37*
G36*
Y517385D02*
X314914D01*
Y525254D01*
X378982D01*
Y517385D01*
D02*
G37*
G36*
X357780Y507849D02*
Y473130D01*
X357873D01*
X358150D01*
X358521Y473223D01*
X359076D01*
X359724Y473315D01*
X360465Y473501D01*
X362132Y473778D01*
X363983Y474334D01*
X366020Y475075D01*
X367872Y476093D01*
X369538Y477389D01*
Y477482D01*
X369723Y477574D01*
X370186Y478130D01*
X370834Y478963D01*
X371482Y480074D01*
X372223Y481555D01*
X372871Y483222D01*
X373334Y485073D01*
X373427Y486092D01*
X373519Y487203D01*
Y487943D01*
X373427Y488777D01*
X373241Y489795D01*
X372964Y490906D01*
X372593Y492202D01*
X372038Y493406D01*
X371297Y494609D01*
X371205Y494702D01*
X370834Y495165D01*
X370279Y495720D01*
X369538Y496369D01*
X368520Y497109D01*
X367224Y497943D01*
X365742Y498776D01*
X363983Y499516D01*
X365002Y507664D01*
X365094D01*
X365279Y507571D01*
X365650Y507478D01*
X366205Y507293D01*
X366761Y507016D01*
X367501Y506738D01*
X369075Y505997D01*
X370834Y505071D01*
X372686Y503775D01*
X374445Y502294D01*
X376111Y500442D01*
Y500350D01*
X376297Y500164D01*
X376482Y499887D01*
X376760Y499516D01*
X377037Y498961D01*
X377315Y498405D01*
X377685Y497665D01*
X378056Y496832D01*
X378426Y495906D01*
X378796Y494980D01*
X379352Y492665D01*
X379815Y490073D01*
X380000Y487203D01*
Y486184D01*
X379907Y485536D01*
X379815Y484703D01*
X379630Y483685D01*
X379445Y482574D01*
X379259Y481370D01*
X378519Y478778D01*
X377963Y477389D01*
X377408Y476093D01*
X376667Y474704D01*
X375834Y473408D01*
X374908Y472204D01*
X373797Y471001D01*
X373704Y470908D01*
X373519Y470723D01*
X373149Y470445D01*
X372593Y470075D01*
X371945Y469612D01*
X371205Y469149D01*
X370279Y468594D01*
X369260Y468038D01*
X368057Y467483D01*
X366761Y466927D01*
X365279Y466464D01*
X363705Y466001D01*
X362039Y465631D01*
X360187Y465353D01*
X358243Y465168D01*
X356206Y465075D01*
X356114D01*
X355651D01*
X355095D01*
X354262Y465168D01*
X353243Y465261D01*
X352132Y465353D01*
X350836Y465538D01*
X349540Y465816D01*
X346577Y466557D01*
X345096Y467020D01*
X343522Y467575D01*
X342041Y468316D01*
X340652Y469149D01*
X339263Y470075D01*
X337967Y471093D01*
X337875Y471186D01*
X337690Y471371D01*
X337412Y471741D01*
X336949Y472204D01*
X336486Y472760D01*
X335930Y473501D01*
X335282Y474334D01*
X334727Y475352D01*
X334079Y476371D01*
X333523Y477574D01*
X332968Y478870D01*
X332505Y480259D01*
X332042Y481740D01*
X331764Y483314D01*
X331579Y484981D01*
X331487Y486740D01*
Y487666D01*
X331579Y488314D01*
X331672Y489054D01*
X331857Y489980D01*
X332042Y490999D01*
X332320Y492202D01*
X332598Y493313D01*
X333060Y494609D01*
X333523Y495813D01*
X334171Y497109D01*
X334912Y498405D01*
X335745Y499701D01*
X336764Y500905D01*
X337875Y502016D01*
X337967Y502109D01*
X338153Y502294D01*
X338523Y502572D01*
X339078Y502942D01*
X339726Y503405D01*
X340467Y503868D01*
X341393Y504423D01*
X342504Y504979D01*
X343708Y505534D01*
X345004Y506090D01*
X346485Y506553D01*
X348059Y507016D01*
X349818Y507386D01*
X351670Y507664D01*
X353614Y507849D01*
X355743Y507941D01*
X355836D01*
X356206D01*
X356854D01*
X357780Y507849D01*
D02*
G37*
G36*
X378982Y447855D02*
X332505D01*
Y455725D01*
X378982D01*
Y447855D01*
D02*
G37*
G36*
X323895D02*
X314914D01*
Y455725D01*
X323895D01*
Y447855D01*
D02*
G37*
G36*
X322506Y403045D02*
X342319D01*
Y433134D01*
X349911D01*
Y403045D01*
X378982D01*
Y394527D01*
X314914D01*
Y437856D01*
X322506D01*
Y403045D01*
D02*
G37*
G36*
X359724Y360179D02*
X351855D01*
Y384528D01*
X359724D01*
Y360179D01*
D02*
G37*
G36*
X378982Y341662D02*
X348800D01*
Y308518D01*
X378982D01*
Y300000D01*
X314914D01*
Y308518D01*
X341208D01*
Y341662D01*
X314914D01*
Y350180D01*
X378982D01*
Y341662D01*
D02*
G37*
%LPC*%
G36*
X1001299Y833186D02*
X1001207D01*
X1001021D01*
X1000744Y833093D01*
X1000373D01*
X999262Y832908D01*
X998059Y832630D01*
X996578Y832167D01*
X995189Y831704D01*
X993800Y830964D01*
X992596Y830130D01*
X992504D01*
X992411Y829945D01*
X991856Y829482D01*
X991115Y828649D01*
X990282Y827538D01*
X989449Y826149D01*
X988708Y824483D01*
X988152Y822539D01*
X988060Y821520D01*
X987967Y820409D01*
Y819854D01*
X988060Y819483D01*
X988152Y818465D01*
X988430Y817261D01*
X988893Y815780D01*
X989541Y814206D01*
X990467Y812725D01*
X991671Y811243D01*
X991856Y811058D01*
X992319Y810688D01*
X993152Y810040D01*
X994263Y809392D01*
X995559Y808651D01*
X997226Y808003D01*
X999170Y807447D01*
X1001299Y807170D01*
Y833186D01*
D02*
G37*
G36*
X1007317Y783561D02*
X1005743D01*
X1005651D01*
X1005373D01*
X1004910D01*
X1004262Y783468D01*
X1003521D01*
X1002595Y783376D01*
X1000651Y783098D01*
X998522Y782728D01*
X996207Y782080D01*
X994170Y781154D01*
X993152Y780598D01*
X992319Y779950D01*
X992226D01*
X992133Y779765D01*
X991671Y779302D01*
X990930Y778561D01*
X990097Y777543D01*
X989356Y776247D01*
X988615Y774766D01*
X988152Y773007D01*
X987967Y772081D01*
Y770692D01*
X988060Y770322D01*
X988245Y769303D01*
X988523Y768100D01*
X989078Y766711D01*
X989911Y765230D01*
X990374Y764489D01*
X991022Y763748D01*
X991671Y763008D01*
X992504Y762267D01*
X992596D01*
X992689Y762082D01*
X992967Y761897D01*
X993337Y761711D01*
X993800Y761434D01*
X994355Y761063D01*
X995004Y760786D01*
X995744Y760415D01*
X996670Y760045D01*
X997596Y759767D01*
X998707Y759397D01*
X999818Y759119D01*
X1001114Y758934D01*
X1002503Y758749D01*
X1003892Y758564D01*
X1005465D01*
X1005558D01*
X1005836D01*
X1006299D01*
X1006854D01*
X1007502Y758656D01*
X1008335D01*
X1010095Y758841D01*
X1012039Y759119D01*
X1014076Y759489D01*
X1015927Y760045D01*
X1016761Y760415D01*
X1017501Y760786D01*
X1017594D01*
X1017779Y760971D01*
X1018057Y761156D01*
X1018427Y761434D01*
X1019445Y762267D01*
X1020464Y763471D01*
X1021575Y764859D01*
X1022593Y766618D01*
X1022964Y767544D01*
X1023241Y768655D01*
X1023427Y769674D01*
X1023519Y770877D01*
Y771340D01*
X1023427Y771710D01*
X1023241Y772729D01*
X1022964Y773932D01*
X1022408Y775321D01*
X1021667Y776803D01*
X1020556Y778284D01*
X1019816Y779025D01*
X1019075Y779765D01*
X1018983D01*
X1018890Y779950D01*
X1018612Y780135D01*
X1018242Y780321D01*
X1017779Y780691D01*
X1017224Y780969D01*
X1016483Y781339D01*
X1015742Y781709D01*
X1014816Y781987D01*
X1013891Y782357D01*
X1012779Y782728D01*
X1011576Y783006D01*
X1010280Y783191D01*
X1008891Y783376D01*
X1007317Y783561D01*
D02*
G37*
G36*
X1007132Y734214D02*
X1005465D01*
X1005373D01*
X1005095D01*
X1004632D01*
X1004077Y734122D01*
X1003336D01*
X1002503Y734029D01*
X1000559Y733751D01*
X998522Y733288D01*
X996300Y732548D01*
X994263Y731529D01*
X993244Y730974D01*
X992411Y730233D01*
X992319D01*
X992226Y730048D01*
X991671Y729492D01*
X991022Y728659D01*
X990189Y727548D01*
X989356Y726160D01*
X988615Y724493D01*
X988152Y722641D01*
X988060Y721623D01*
X987967Y720512D01*
Y719957D01*
X988060Y719494D01*
X988152Y718475D01*
X988523Y717086D01*
X989078Y715512D01*
X989819Y713846D01*
X990930Y712272D01*
X991671Y711439D01*
X992411Y710698D01*
X992504D01*
X992596Y710513D01*
X992874Y710328D01*
X993244Y710050D01*
X993707Y709772D01*
X994263Y709495D01*
X995004Y709124D01*
X995744Y708754D01*
X996670Y708384D01*
X997596Y708013D01*
X998707Y707736D01*
X999911Y707458D01*
X1001207Y707180D01*
X1002595Y706995D01*
X1004169Y706902D01*
X1005743Y706810D01*
X1005836D01*
X1006114D01*
X1006577D01*
X1007225Y706902D01*
X1007965D01*
X1008799Y706995D01*
X1010743Y707273D01*
X1012965Y707736D01*
X1015187Y708476D01*
X1017316Y709402D01*
X1018242Y710050D01*
X1019168Y710698D01*
Y710791D01*
X1019353Y710883D01*
X1019816Y711439D01*
X1020556Y712272D01*
X1021297Y713383D01*
X1022130Y714772D01*
X1022871Y716438D01*
X1023334Y718383D01*
X1023427Y719401D01*
X1023519Y720512D01*
Y721068D01*
X1023427Y721530D01*
X1023241Y722549D01*
X1022964Y723938D01*
X1022408Y725419D01*
X1021667Y727085D01*
X1020556Y728659D01*
X1019816Y729492D01*
X1019075Y730233D01*
X1018983Y730326D01*
X1018890Y730418D01*
X1018612Y730603D01*
X1018242Y730881D01*
X1017779Y731159D01*
X1017224Y731529D01*
X1016483Y731900D01*
X1015742Y732270D01*
X1014816Y732640D01*
X1013798Y732918D01*
X1012687Y733288D01*
X1011483Y733566D01*
X1010095Y733844D01*
X1008706Y734029D01*
X1007132Y734214D01*
D02*
G37*
G36*
X983801Y653389D02*
X983708D01*
X983616D01*
X983153D01*
X982320Y653297D01*
X981394Y653112D01*
X980376Y652926D01*
X979172Y652556D01*
X978061Y652001D01*
X976950Y651352D01*
X976857Y651260D01*
X976487Y650982D01*
X976024Y650519D01*
X975376Y649964D01*
X974728Y649130D01*
X974172Y648205D01*
X973617Y647186D01*
X973154Y645983D01*
Y645890D01*
X973061Y645520D01*
X972969Y644964D01*
X972784Y644224D01*
X972691Y643113D01*
X972598Y641724D01*
X972506Y640057D01*
Y621726D01*
X995374D01*
Y638946D01*
X995281Y639594D01*
Y640242D01*
X995189Y640983D01*
X995004Y642742D01*
X994633Y644687D01*
X994078Y646631D01*
X993337Y648390D01*
X992874Y649223D01*
X992319Y649871D01*
X992133Y650056D01*
X991763Y650427D01*
X991022Y650982D01*
X990097Y651630D01*
X988893Y652278D01*
X987412Y652834D01*
X985745Y653204D01*
X983801Y653389D01*
D02*
G37*
G36*
X1008058Y567658D02*
X1006484D01*
X1006391D01*
X1006021D01*
X1005558D01*
X1004910Y567565D01*
X1004169D01*
X1003243Y567472D01*
X1002225Y567380D01*
X1001114Y567195D01*
X998892Y566732D01*
X996578Y566084D01*
X994355Y565158D01*
X993430Y564602D01*
X992504Y563954D01*
X992411D01*
X992319Y563769D01*
X991763Y563306D01*
X991023Y562473D01*
X990189Y561454D01*
X989356Y560158D01*
X988708Y558584D01*
X988152Y556825D01*
X988060Y555899D01*
X987967Y554881D01*
Y554418D01*
X988060Y554048D01*
X988152Y553029D01*
X988523Y551826D01*
X988986Y550437D01*
X989819Y548956D01*
X990837Y547474D01*
X991578Y546734D01*
X992319Y546086D01*
X992411D01*
X992504Y545900D01*
X992782Y545808D01*
X993152Y545530D01*
X993615Y545252D01*
X994170Y544975D01*
X994818Y544697D01*
X995559Y544327D01*
X996485Y543956D01*
X997503Y543679D01*
X998614Y543401D01*
X999818Y543123D01*
X1001114Y542938D01*
X1002595Y542753D01*
X1004169Y542567D01*
X1005836D01*
X1005928D01*
X1006206D01*
X1006669D01*
X1007317Y542660D01*
X1008058D01*
X1008891Y542753D01*
X1010835Y543030D01*
X1012965Y543493D01*
X1015187Y544141D01*
X1017316Y545067D01*
X1018242Y545623D01*
X1019168Y546271D01*
Y546363D01*
X1019353Y546456D01*
X1019816Y546919D01*
X1020556Y547752D01*
X1021297Y548770D01*
X1022130Y550067D01*
X1022871Y551641D01*
X1023334Y553307D01*
X1023427Y554233D01*
X1023519Y555159D01*
Y555622D01*
X1023427Y555992D01*
X1023334Y557010D01*
X1022964Y558214D01*
X1022501Y559603D01*
X1021760Y561084D01*
X1020742Y562565D01*
X1020094Y563306D01*
X1019353Y563954D01*
X1019260D01*
X1019168Y564139D01*
X1018890Y564324D01*
X1018520Y564510D01*
X1018057Y564787D01*
X1017594Y565158D01*
X1016853Y565435D01*
X1016113Y565806D01*
X1015279Y566176D01*
X1014353Y566454D01*
X1013242Y566824D01*
X1012132Y567102D01*
X1010835Y567287D01*
X1009539Y567472D01*
X1008058Y567658D01*
D02*
G37*
G36*
X1001299Y499609D02*
X1001207D01*
X1001021D01*
X1000744Y499516D01*
X1000373D01*
X999262Y499331D01*
X998059Y499053D01*
X996578Y498591D01*
X995189Y498128D01*
X993800Y497387D01*
X992597Y496554D01*
X992504D01*
X992411Y496369D01*
X991856Y495906D01*
X991115Y495072D01*
X990282Y493961D01*
X989449Y492573D01*
X988708Y490906D01*
X988152Y488962D01*
X988060Y487943D01*
X987967Y486833D01*
Y486277D01*
X988060Y485907D01*
X988152Y484888D01*
X988430Y483685D01*
X988893Y482203D01*
X989541Y480629D01*
X990467Y479148D01*
X991671Y477667D01*
X991856Y477482D01*
X992319Y477111D01*
X993152Y476463D01*
X994263Y475815D01*
X995559Y475075D01*
X997226Y474426D01*
X999170Y473871D01*
X1001299Y473593D01*
Y499609D01*
D02*
G37*
G36*
X1228799Y833186D02*
X1228707D01*
X1228521D01*
X1228244Y833093D01*
X1227873D01*
X1226762Y832908D01*
X1225559Y832630D01*
X1224078Y832167D01*
X1222689Y831704D01*
X1221300Y830964D01*
X1220096Y830130D01*
X1220004D01*
X1219911Y829945D01*
X1219356Y829482D01*
X1218615Y828649D01*
X1217782Y827538D01*
X1216949Y826149D01*
X1216208Y824483D01*
X1215652Y822539D01*
X1215560Y821520D01*
X1215467Y820409D01*
Y819854D01*
X1215560Y819483D01*
X1215652Y818465D01*
X1215930Y817261D01*
X1216393Y815780D01*
X1217041Y814206D01*
X1217967Y812725D01*
X1219171Y811243D01*
X1219356Y811058D01*
X1219819Y810688D01*
X1220652Y810040D01*
X1221763Y809392D01*
X1223059Y808651D01*
X1224726Y808003D01*
X1226670Y807447D01*
X1228799Y807170D01*
Y833186D01*
D02*
G37*
G36*
X1234817Y783561D02*
X1233243D01*
X1233151D01*
X1232873D01*
X1232410D01*
X1231762Y783468D01*
X1231021D01*
X1230095Y783376D01*
X1228151Y783098D01*
X1226022Y782728D01*
X1223707Y782080D01*
X1221670Y781154D01*
X1220652Y780598D01*
X1219819Y779950D01*
X1219726D01*
X1219633Y779765D01*
X1219171Y779302D01*
X1218430Y778561D01*
X1217597Y777543D01*
X1216856Y776247D01*
X1216115Y774766D01*
X1215652Y773007D01*
X1215467Y772081D01*
Y770692D01*
X1215560Y770322D01*
X1215745Y769303D01*
X1216023Y768100D01*
X1216578Y766711D01*
X1217411Y765230D01*
X1217875Y764489D01*
X1218522Y763748D01*
X1219171Y763008D01*
X1220004Y762267D01*
X1220096D01*
X1220189Y762082D01*
X1220467Y761897D01*
X1220837Y761711D01*
X1221300Y761434D01*
X1221855Y761063D01*
X1222504Y760786D01*
X1223244Y760415D01*
X1224170Y760045D01*
X1225096Y759767D01*
X1226207Y759397D01*
X1227318Y759119D01*
X1228614Y758934D01*
X1230003Y758749D01*
X1231392Y758564D01*
X1232965D01*
X1233058D01*
X1233336D01*
X1233799D01*
X1234354D01*
X1235002Y758656D01*
X1235836D01*
X1237595Y758841D01*
X1239539Y759119D01*
X1241576Y759489D01*
X1243427Y760045D01*
X1244261Y760415D01*
X1245001Y760786D01*
X1245094D01*
X1245279Y760971D01*
X1245557Y761156D01*
X1245927Y761434D01*
X1246945Y762267D01*
X1247964Y763471D01*
X1249075Y764859D01*
X1250093Y766618D01*
X1250464Y767544D01*
X1250741Y768655D01*
X1250927Y769674D01*
X1251019Y770877D01*
Y771340D01*
X1250927Y771710D01*
X1250741Y772729D01*
X1250464Y773932D01*
X1249908Y775321D01*
X1249167Y776803D01*
X1248056Y778284D01*
X1247316Y779025D01*
X1246575Y779765D01*
X1246483D01*
X1246390Y779950D01*
X1246112Y780135D01*
X1245742Y780321D01*
X1245279Y780691D01*
X1244724Y780969D01*
X1243983Y781339D01*
X1243242Y781709D01*
X1242316Y781987D01*
X1241391Y782357D01*
X1240279Y782728D01*
X1239076Y783006D01*
X1237780Y783191D01*
X1236391Y783376D01*
X1234817Y783561D01*
D02*
G37*
G36*
X1234632Y734214D02*
X1232965D01*
X1232873D01*
X1232595D01*
X1232132D01*
X1231577Y734122D01*
X1230836D01*
X1230003Y734029D01*
X1228059Y733751D01*
X1226022Y733288D01*
X1223800Y732548D01*
X1221763Y731529D01*
X1220744Y730974D01*
X1219911Y730233D01*
X1219819D01*
X1219726Y730048D01*
X1219171Y729492D01*
X1218522Y728659D01*
X1217689Y727548D01*
X1216856Y726160D01*
X1216115Y724493D01*
X1215652Y722641D01*
X1215560Y721623D01*
X1215467Y720512D01*
Y719957D01*
X1215560Y719494D01*
X1215652Y718475D01*
X1216023Y717086D01*
X1216578Y715512D01*
X1217319Y713846D01*
X1218430Y712272D01*
X1219171Y711439D01*
X1219911Y710698D01*
X1220004D01*
X1220096Y710513D01*
X1220374Y710328D01*
X1220744Y710050D01*
X1221207Y709772D01*
X1221763Y709495D01*
X1222504Y709124D01*
X1223244Y708754D01*
X1224170Y708384D01*
X1225096Y708013D01*
X1226207Y707736D01*
X1227411Y707458D01*
X1228707Y707180D01*
X1230095Y706995D01*
X1231669Y706902D01*
X1233243Y706810D01*
X1233336D01*
X1233614D01*
X1234077D01*
X1234725Y706902D01*
X1235465D01*
X1236299Y706995D01*
X1238243Y707273D01*
X1240465Y707736D01*
X1242687Y708476D01*
X1244816Y709402D01*
X1245742Y710050D01*
X1246668Y710698D01*
Y710791D01*
X1246853Y710883D01*
X1247316Y711439D01*
X1248056Y712272D01*
X1248797Y713383D01*
X1249630Y714772D01*
X1250371Y716438D01*
X1250834Y718383D01*
X1250927Y719401D01*
X1251019Y720512D01*
Y721068D01*
X1250927Y721530D01*
X1250741Y722549D01*
X1250464Y723938D01*
X1249908Y725419D01*
X1249167Y727085D01*
X1248056Y728659D01*
X1247316Y729492D01*
X1246575Y730233D01*
X1246483Y730326D01*
X1246390Y730418D01*
X1246112Y730603D01*
X1245742Y730881D01*
X1245279Y731159D01*
X1244724Y731529D01*
X1243983Y731900D01*
X1243242Y732270D01*
X1242316Y732640D01*
X1241298Y732918D01*
X1240187Y733288D01*
X1238983Y733566D01*
X1237595Y733844D01*
X1236206Y734029D01*
X1234632Y734214D01*
D02*
G37*
G36*
X1211301Y653389D02*
X1211208D01*
X1211116D01*
X1210653D01*
X1209820Y653297D01*
X1208894Y653112D01*
X1207876Y652926D01*
X1206672Y652556D01*
X1205561Y652001D01*
X1204450Y651352D01*
X1204357Y651260D01*
X1203987Y650982D01*
X1203524Y650519D01*
X1202876Y649964D01*
X1202228Y649130D01*
X1201672Y648205D01*
X1201117Y647186D01*
X1200654Y645983D01*
Y645890D01*
X1200561Y645520D01*
X1200469Y644964D01*
X1200284Y644224D01*
X1200191Y643113D01*
X1200098Y641724D01*
X1200006Y640057D01*
Y621726D01*
X1222874D01*
Y638946D01*
X1222781Y639594D01*
Y640242D01*
X1222689Y640983D01*
X1222504Y642742D01*
X1222133Y644687D01*
X1221578Y646631D01*
X1220837Y648390D01*
X1220374Y649223D01*
X1219819Y649871D01*
X1219633Y650056D01*
X1219263Y650427D01*
X1218522Y650982D01*
X1217597Y651630D01*
X1216393Y652278D01*
X1214912Y652834D01*
X1213245Y653204D01*
X1211301Y653389D01*
D02*
G37*
G36*
X1235558Y567658D02*
X1233984D01*
X1233891D01*
X1233521D01*
X1233058D01*
X1232410Y567565D01*
X1231669D01*
X1230743Y567472D01*
X1229725Y567380D01*
X1228614Y567195D01*
X1226392Y566732D01*
X1224078Y566084D01*
X1221855Y565158D01*
X1220930Y564602D01*
X1220004Y563954D01*
X1219911D01*
X1219819Y563769D01*
X1219263Y563306D01*
X1218523Y562473D01*
X1217689Y561454D01*
X1216856Y560158D01*
X1216208Y558584D01*
X1215652Y556825D01*
X1215560Y555899D01*
X1215467Y554881D01*
Y554418D01*
X1215560Y554048D01*
X1215652Y553029D01*
X1216023Y551826D01*
X1216486Y550437D01*
X1217319Y548956D01*
X1218337Y547474D01*
X1219078Y546734D01*
X1219819Y546086D01*
X1219911D01*
X1220004Y545900D01*
X1220282Y545808D01*
X1220652Y545530D01*
X1221115Y545252D01*
X1221670Y544975D01*
X1222318Y544697D01*
X1223059Y544327D01*
X1223985Y543956D01*
X1225003Y543679D01*
X1226114Y543401D01*
X1227318Y543123D01*
X1228614Y542938D01*
X1230095Y542753D01*
X1231669Y542567D01*
X1233336D01*
X1233428D01*
X1233706D01*
X1234169D01*
X1234817Y542660D01*
X1235558D01*
X1236391Y542753D01*
X1238335Y543030D01*
X1240465Y543493D01*
X1242687Y544141D01*
X1244816Y545067D01*
X1245742Y545623D01*
X1246668Y546271D01*
Y546363D01*
X1246853Y546456D01*
X1247316Y546919D01*
X1248056Y547752D01*
X1248797Y548770D01*
X1249630Y550067D01*
X1250371Y551641D01*
X1250834Y553307D01*
X1250927Y554233D01*
X1251019Y555159D01*
Y555622D01*
X1250927Y555992D01*
X1250834Y557010D01*
X1250464Y558214D01*
X1250001Y559603D01*
X1249260Y561084D01*
X1248242Y562565D01*
X1247594Y563306D01*
X1246853Y563954D01*
X1246760D01*
X1246668Y564139D01*
X1246390Y564324D01*
X1246020Y564510D01*
X1245557Y564787D01*
X1245094Y565158D01*
X1244353Y565435D01*
X1243613Y565806D01*
X1242779Y566176D01*
X1241853Y566454D01*
X1240742Y566824D01*
X1239632Y567102D01*
X1238335Y567287D01*
X1237039Y567472D01*
X1235558Y567658D01*
D02*
G37*
G36*
X1228799Y499609D02*
X1228707D01*
X1228521D01*
X1228244Y499516D01*
X1227873D01*
X1226762Y499331D01*
X1225559Y499053D01*
X1224078Y498591D01*
X1222689Y498128D01*
X1221300Y497387D01*
X1220097Y496554D01*
X1220004D01*
X1219911Y496369D01*
X1219356Y495906D01*
X1218615Y495072D01*
X1217782Y493961D01*
X1216949Y492573D01*
X1216208Y490906D01*
X1215652Y488962D01*
X1215560Y487943D01*
X1215467Y486833D01*
Y486277D01*
X1215560Y485907D01*
X1215652Y484888D01*
X1215930Y483685D01*
X1216393Y482203D01*
X1217041Y480629D01*
X1217967Y479148D01*
X1219171Y477667D01*
X1219356Y477482D01*
X1219819Y477111D01*
X1220652Y476463D01*
X1221763Y475815D01*
X1223059Y475075D01*
X1224726Y474426D01*
X1226670Y473871D01*
X1228799Y473593D01*
Y499609D01*
D02*
G37*
G36*
X581299Y833186D02*
X581207D01*
X581021D01*
X580744Y833093D01*
X580373D01*
X579262Y832908D01*
X578059Y832630D01*
X576577Y832167D01*
X575189Y831704D01*
X573800Y830964D01*
X572596Y830130D01*
X572504D01*
X572411Y829945D01*
X571856Y829482D01*
X571115Y828649D01*
X570282Y827538D01*
X569449Y826149D01*
X568708Y824483D01*
X568153Y822539D01*
X568060Y821520D01*
X567967Y820409D01*
Y819854D01*
X568060Y819483D01*
X568153Y818465D01*
X568430Y817261D01*
X568893Y815780D01*
X569541Y814206D01*
X570467Y812725D01*
X571671Y811243D01*
X571856Y811058D01*
X572319Y810688D01*
X573152Y810040D01*
X574263Y809392D01*
X575559Y808651D01*
X577226Y808003D01*
X579170Y807447D01*
X581299Y807170D01*
Y833186D01*
D02*
G37*
G36*
X587317Y783561D02*
X585743D01*
X585651D01*
X585373D01*
X584910D01*
X584262Y783468D01*
X583521D01*
X582595Y783376D01*
X580651Y783098D01*
X578522Y782728D01*
X576207Y782080D01*
X574170Y781154D01*
X573152Y780598D01*
X572319Y779950D01*
X572226D01*
X572133Y779765D01*
X571671Y779302D01*
X570930Y778561D01*
X570097Y777543D01*
X569356Y776247D01*
X568615Y774766D01*
X568153Y773007D01*
X567967Y772081D01*
Y770692D01*
X568060Y770322D01*
X568245Y769303D01*
X568523Y768100D01*
X569078Y766711D01*
X569911Y765230D01*
X570374Y764489D01*
X571022Y763748D01*
X571671Y763008D01*
X572504Y762267D01*
X572596D01*
X572689Y762082D01*
X572967Y761897D01*
X573337Y761711D01*
X573800Y761434D01*
X574356Y761063D01*
X575004Y760786D01*
X575744Y760415D01*
X576670Y760045D01*
X577596Y759767D01*
X578707Y759397D01*
X579818Y759119D01*
X581114Y758934D01*
X582503Y758749D01*
X583892Y758564D01*
X585466D01*
X585558D01*
X585836D01*
X586299D01*
X586854D01*
X587502Y758656D01*
X588336D01*
X590095Y758841D01*
X592039Y759119D01*
X594076Y759489D01*
X595927Y760045D01*
X596761Y760415D01*
X597501Y760786D01*
X597594D01*
X597779Y760971D01*
X598057Y761156D01*
X598427Y761434D01*
X599445Y762267D01*
X600464Y763471D01*
X601575Y764859D01*
X602593Y766618D01*
X602964Y767544D01*
X603241Y768655D01*
X603427Y769674D01*
X603519Y770877D01*
Y771340D01*
X603427Y771710D01*
X603241Y772729D01*
X602964Y773932D01*
X602408Y775321D01*
X601668Y776803D01*
X600556Y778284D01*
X599816Y779025D01*
X599075Y779765D01*
X598983D01*
X598890Y779950D01*
X598612Y780135D01*
X598242Y780321D01*
X597779Y780691D01*
X597224Y780969D01*
X596483Y781339D01*
X595742Y781709D01*
X594816Y781987D01*
X593890Y782357D01*
X592780Y782728D01*
X591576Y783006D01*
X590280Y783191D01*
X588891Y783376D01*
X587317Y783561D01*
D02*
G37*
G36*
X587132Y734214D02*
X585466D01*
X585373D01*
X585095D01*
X584632D01*
X584077Y734122D01*
X583336D01*
X582503Y734029D01*
X580559Y733751D01*
X578522Y733288D01*
X576300Y732548D01*
X574263Y731529D01*
X573245Y730974D01*
X572411Y730233D01*
X572319D01*
X572226Y730048D01*
X571671Y729492D01*
X571022Y728659D01*
X570189Y727548D01*
X569356Y726160D01*
X568615Y724493D01*
X568153Y722641D01*
X568060Y721623D01*
X567967Y720512D01*
Y719957D01*
X568060Y719494D01*
X568153Y718475D01*
X568523Y717086D01*
X569078Y715512D01*
X569819Y713846D01*
X570930Y712272D01*
X571671Y711439D01*
X572411Y710698D01*
X572504D01*
X572596Y710513D01*
X572874Y710328D01*
X573245Y710050D01*
X573707Y709772D01*
X574263Y709495D01*
X575004Y709124D01*
X575744Y708754D01*
X576670Y708384D01*
X577596Y708013D01*
X578707Y707736D01*
X579911Y707458D01*
X581207Y707180D01*
X582595Y706995D01*
X584169Y706902D01*
X585743Y706810D01*
X585836D01*
X586114D01*
X586576D01*
X587225Y706902D01*
X587965D01*
X588798Y706995D01*
X590743Y707273D01*
X592965Y707736D01*
X595187Y708476D01*
X597316Y709402D01*
X598242Y710050D01*
X599168Y710698D01*
Y710791D01*
X599353Y710883D01*
X599816Y711439D01*
X600556Y712272D01*
X601297Y713383D01*
X602130Y714772D01*
X602871Y716438D01*
X603334Y718383D01*
X603427Y719401D01*
X603519Y720512D01*
Y721068D01*
X603427Y721530D01*
X603241Y722549D01*
X602964Y723938D01*
X602408Y725419D01*
X601668Y727085D01*
X600556Y728659D01*
X599816Y729492D01*
X599075Y730233D01*
X598983Y730326D01*
X598890Y730418D01*
X598612Y730603D01*
X598242Y730881D01*
X597779Y731159D01*
X597224Y731529D01*
X596483Y731900D01*
X595742Y732270D01*
X594816Y732640D01*
X593798Y732918D01*
X592687Y733288D01*
X591483Y733566D01*
X590095Y733844D01*
X588706Y734029D01*
X587132Y734214D01*
D02*
G37*
G36*
X563801Y653389D02*
X563708D01*
X563616D01*
X563153D01*
X562320Y653297D01*
X561394Y653112D01*
X560376Y652926D01*
X559172Y652556D01*
X558061Y652001D01*
X556950Y651352D01*
X556857Y651260D01*
X556487Y650982D01*
X556024Y650519D01*
X555376Y649964D01*
X554728Y649130D01*
X554172Y648205D01*
X553617Y647186D01*
X553154Y645983D01*
Y645890D01*
X553061Y645520D01*
X552969Y644964D01*
X552784Y644224D01*
X552691Y643113D01*
X552598Y641724D01*
X552506Y640057D01*
Y621726D01*
X575374D01*
Y638946D01*
X575281Y639594D01*
Y640242D01*
X575189Y640983D01*
X575004Y642742D01*
X574633Y644687D01*
X574078Y646631D01*
X573337Y648390D01*
X572874Y649223D01*
X572319Y649871D01*
X572133Y650056D01*
X571763Y650427D01*
X571022Y650982D01*
X570097Y651630D01*
X568893Y652278D01*
X567412Y652834D01*
X565745Y653204D01*
X563801Y653389D01*
D02*
G37*
G36*
X588058Y567658D02*
X586484D01*
X586391D01*
X586021D01*
X585558D01*
X584910Y567565D01*
X584169D01*
X583243Y567472D01*
X582225Y567380D01*
X581114Y567195D01*
X578892Y566732D01*
X576577Y566084D01*
X574356Y565158D01*
X573430Y564602D01*
X572504Y563954D01*
X572411D01*
X572319Y563769D01*
X571763Y563306D01*
X571023Y562473D01*
X570189Y561454D01*
X569356Y560158D01*
X568708Y558584D01*
X568153Y556825D01*
X568060Y555899D01*
X567967Y554881D01*
Y554418D01*
X568060Y554048D01*
X568153Y553029D01*
X568523Y551826D01*
X568986Y550437D01*
X569819Y548956D01*
X570837Y547474D01*
X571578Y546734D01*
X572319Y546086D01*
X572411D01*
X572504Y545900D01*
X572782Y545808D01*
X573152Y545530D01*
X573615Y545252D01*
X574170Y544975D01*
X574818Y544697D01*
X575559Y544327D01*
X576485Y543956D01*
X577503Y543679D01*
X578614Y543401D01*
X579818Y543123D01*
X581114Y542938D01*
X582595Y542753D01*
X584169Y542567D01*
X585836D01*
X585928D01*
X586206D01*
X586669D01*
X587317Y542660D01*
X588058D01*
X588891Y542753D01*
X590835Y543030D01*
X592965Y543493D01*
X595187Y544141D01*
X597316Y545067D01*
X598242Y545623D01*
X599168Y546271D01*
Y546363D01*
X599353Y546456D01*
X599816Y546919D01*
X600556Y547752D01*
X601297Y548770D01*
X602130Y550067D01*
X602871Y551641D01*
X603334Y553307D01*
X603427Y554233D01*
X603519Y555159D01*
Y555622D01*
X603427Y555992D01*
X603334Y557010D01*
X602964Y558214D01*
X602501Y559603D01*
X601760Y561084D01*
X600742Y562565D01*
X600094Y563306D01*
X599353Y563954D01*
X599260D01*
X599168Y564139D01*
X598890Y564324D01*
X598520Y564510D01*
X598057Y564787D01*
X597594Y565158D01*
X596853Y565435D01*
X596113Y565806D01*
X595279Y566176D01*
X594353Y566454D01*
X593242Y566824D01*
X592132Y567102D01*
X590835Y567287D01*
X589539Y567472D01*
X588058Y567658D01*
D02*
G37*
G36*
X581299Y499609D02*
X581207D01*
X581021D01*
X580744Y499516D01*
X580373D01*
X579262Y499331D01*
X578059Y499053D01*
X576577Y498591D01*
X575189Y498128D01*
X573800Y497387D01*
X572597Y496554D01*
X572504D01*
X572411Y496369D01*
X571856Y495906D01*
X571115Y495072D01*
X570282Y493961D01*
X569449Y492573D01*
X568708Y490906D01*
X568153Y488962D01*
X568060Y487943D01*
X567967Y486833D01*
Y486277D01*
X568060Y485907D01*
X568153Y484888D01*
X568430Y483685D01*
X568893Y482203D01*
X569541Y480629D01*
X570467Y479148D01*
X571671Y477667D01*
X571856Y477482D01*
X572319Y477111D01*
X573152Y476463D01*
X574263Y475815D01*
X575559Y475075D01*
X577226Y474426D01*
X579170Y473871D01*
X581299Y473593D01*
Y499609D01*
D02*
G37*
G36*
X351299Y833186D02*
X351207D01*
X351021D01*
X350744Y833093D01*
X350373D01*
X349262Y832908D01*
X348059Y832630D01*
X346577Y832167D01*
X345189Y831704D01*
X343800Y830964D01*
X342596Y830130D01*
X342504D01*
X342411Y829945D01*
X341856Y829482D01*
X341115Y828649D01*
X340282Y827538D01*
X339449Y826149D01*
X338708Y824483D01*
X338153Y822539D01*
X338060Y821520D01*
X337967Y820409D01*
Y819854D01*
X338060Y819483D01*
X338153Y818465D01*
X338430Y817261D01*
X338893Y815780D01*
X339541Y814206D01*
X340467Y812725D01*
X341671Y811243D01*
X341856Y811058D01*
X342319Y810688D01*
X343152Y810040D01*
X344263Y809392D01*
X345559Y808651D01*
X347226Y808003D01*
X349170Y807447D01*
X351299Y807170D01*
Y833186D01*
D02*
G37*
G36*
X357317Y783561D02*
X355743D01*
X355651D01*
X355373D01*
X354910D01*
X354262Y783468D01*
X353521D01*
X352595Y783376D01*
X350651Y783098D01*
X348522Y782728D01*
X346207Y782080D01*
X344170Y781154D01*
X343152Y780598D01*
X342319Y779950D01*
X342226D01*
X342133Y779765D01*
X341671Y779302D01*
X340930Y778561D01*
X340097Y777543D01*
X339356Y776247D01*
X338615Y774766D01*
X338153Y773007D01*
X337967Y772081D01*
Y770692D01*
X338060Y770322D01*
X338245Y769303D01*
X338523Y768100D01*
X339078Y766711D01*
X339911Y765230D01*
X340374Y764489D01*
X341022Y763748D01*
X341671Y763008D01*
X342504Y762267D01*
X342596D01*
X342689Y762082D01*
X342967Y761897D01*
X343337Y761711D01*
X343800Y761434D01*
X344356Y761063D01*
X345004Y760786D01*
X345744Y760415D01*
X346670Y760045D01*
X347596Y759767D01*
X348707Y759397D01*
X349818Y759119D01*
X351114Y758934D01*
X352503Y758749D01*
X353892Y758564D01*
X355466D01*
X355558D01*
X355836D01*
X356299D01*
X356854D01*
X357502Y758656D01*
X358336D01*
X360095Y758841D01*
X362039Y759119D01*
X364076Y759489D01*
X365927Y760045D01*
X366761Y760415D01*
X367501Y760786D01*
X367594D01*
X367779Y760971D01*
X368057Y761156D01*
X368427Y761434D01*
X369445Y762267D01*
X370464Y763471D01*
X371575Y764859D01*
X372593Y766618D01*
X372964Y767544D01*
X373241Y768655D01*
X373427Y769674D01*
X373519Y770877D01*
Y771340D01*
X373427Y771710D01*
X373241Y772729D01*
X372964Y773932D01*
X372408Y775321D01*
X371668Y776803D01*
X370556Y778284D01*
X369816Y779025D01*
X369075Y779765D01*
X368983D01*
X368890Y779950D01*
X368612Y780135D01*
X368242Y780321D01*
X367779Y780691D01*
X367224Y780969D01*
X366483Y781339D01*
X365742Y781709D01*
X364816Y781987D01*
X363890Y782357D01*
X362780Y782728D01*
X361576Y783006D01*
X360280Y783191D01*
X358891Y783376D01*
X357317Y783561D01*
D02*
G37*
G36*
X357132Y734214D02*
X355466D01*
X355373D01*
X355095D01*
X354632D01*
X354077Y734122D01*
X353336D01*
X352503Y734029D01*
X350559Y733751D01*
X348522Y733288D01*
X346300Y732548D01*
X344263Y731529D01*
X343245Y730974D01*
X342411Y730233D01*
X342319D01*
X342226Y730048D01*
X341671Y729492D01*
X341022Y728659D01*
X340189Y727548D01*
X339356Y726160D01*
X338615Y724493D01*
X338153Y722641D01*
X338060Y721623D01*
X337967Y720512D01*
Y719957D01*
X338060Y719494D01*
X338153Y718475D01*
X338523Y717086D01*
X339078Y715512D01*
X339819Y713846D01*
X340930Y712272D01*
X341671Y711439D01*
X342411Y710698D01*
X342504D01*
X342596Y710513D01*
X342874Y710328D01*
X343245Y710050D01*
X343707Y709772D01*
X344263Y709495D01*
X345004Y709124D01*
X345744Y708754D01*
X346670Y708384D01*
X347596Y708013D01*
X348707Y707736D01*
X349911Y707458D01*
X351207Y707180D01*
X352595Y706995D01*
X354169Y706902D01*
X355743Y706810D01*
X355836D01*
X356114D01*
X356576D01*
X357225Y706902D01*
X357965D01*
X358798Y706995D01*
X360743Y707273D01*
X362965Y707736D01*
X365187Y708476D01*
X367316Y709402D01*
X368242Y710050D01*
X369168Y710698D01*
Y710791D01*
X369353Y710883D01*
X369816Y711439D01*
X370556Y712272D01*
X371297Y713383D01*
X372130Y714772D01*
X372871Y716438D01*
X373334Y718383D01*
X373427Y719401D01*
X373519Y720512D01*
Y721068D01*
X373427Y721530D01*
X373241Y722549D01*
X372964Y723938D01*
X372408Y725419D01*
X371668Y727085D01*
X370556Y728659D01*
X369816Y729492D01*
X369075Y730233D01*
X368983Y730326D01*
X368890Y730418D01*
X368612Y730603D01*
X368242Y730881D01*
X367779Y731159D01*
X367224Y731529D01*
X366483Y731900D01*
X365742Y732270D01*
X364816Y732640D01*
X363798Y732918D01*
X362687Y733288D01*
X361483Y733566D01*
X360095Y733844D01*
X358706Y734029D01*
X357132Y734214D01*
D02*
G37*
G36*
X333801Y653389D02*
X333708D01*
X333616D01*
X333153D01*
X332320Y653297D01*
X331394Y653112D01*
X330376Y652926D01*
X329172Y652556D01*
X328061Y652001D01*
X326950Y651352D01*
X326857Y651260D01*
X326487Y650982D01*
X326024Y650519D01*
X325376Y649964D01*
X324728Y649130D01*
X324172Y648205D01*
X323617Y647186D01*
X323154Y645983D01*
Y645890D01*
X323061Y645520D01*
X322969Y644964D01*
X322784Y644224D01*
X322691Y643113D01*
X322598Y641724D01*
X322506Y640057D01*
Y621726D01*
X345374D01*
Y638946D01*
X345281Y639594D01*
Y640242D01*
X345189Y640983D01*
X345004Y642742D01*
X344633Y644687D01*
X344078Y646631D01*
X343337Y648390D01*
X342874Y649223D01*
X342319Y649871D01*
X342133Y650056D01*
X341763Y650427D01*
X341022Y650982D01*
X340097Y651630D01*
X338893Y652278D01*
X337412Y652834D01*
X335745Y653204D01*
X333801Y653389D01*
D02*
G37*
G36*
X358058Y567658D02*
X356484D01*
X356391D01*
X356021D01*
X355558D01*
X354910Y567565D01*
X354169D01*
X353243Y567472D01*
X352225Y567380D01*
X351114Y567195D01*
X348892Y566732D01*
X346577Y566084D01*
X344356Y565158D01*
X343430Y564602D01*
X342504Y563954D01*
X342411D01*
X342319Y563769D01*
X341763Y563306D01*
X341023Y562473D01*
X340189Y561454D01*
X339356Y560158D01*
X338708Y558584D01*
X338153Y556825D01*
X338060Y555899D01*
X337967Y554881D01*
Y554418D01*
X338060Y554048D01*
X338153Y553029D01*
X338523Y551826D01*
X338986Y550437D01*
X339819Y548956D01*
X340837Y547474D01*
X341578Y546734D01*
X342319Y546086D01*
X342411D01*
X342504Y545900D01*
X342782Y545808D01*
X343152Y545530D01*
X343615Y545252D01*
X344170Y544975D01*
X344818Y544697D01*
X345559Y544327D01*
X346485Y543956D01*
X347503Y543679D01*
X348614Y543401D01*
X349818Y543123D01*
X351114Y542938D01*
X352595Y542753D01*
X354169Y542567D01*
X355836D01*
X355928D01*
X356206D01*
X356669D01*
X357317Y542660D01*
X358058D01*
X358891Y542753D01*
X360835Y543030D01*
X362965Y543493D01*
X365187Y544141D01*
X367316Y545067D01*
X368242Y545623D01*
X369168Y546271D01*
Y546363D01*
X369353Y546456D01*
X369816Y546919D01*
X370556Y547752D01*
X371297Y548770D01*
X372130Y550067D01*
X372871Y551641D01*
X373334Y553307D01*
X373427Y554233D01*
X373519Y555159D01*
Y555622D01*
X373427Y555992D01*
X373334Y557010D01*
X372964Y558214D01*
X372501Y559603D01*
X371760Y561084D01*
X370742Y562565D01*
X370094Y563306D01*
X369353Y563954D01*
X369260D01*
X369168Y564139D01*
X368890Y564324D01*
X368520Y564510D01*
X368057Y564787D01*
X367594Y565158D01*
X366853Y565435D01*
X366113Y565806D01*
X365279Y566176D01*
X364353Y566454D01*
X363242Y566824D01*
X362132Y567102D01*
X360835Y567287D01*
X359539Y567472D01*
X358058Y567658D01*
D02*
G37*
G36*
X351299Y499609D02*
X351207D01*
X351021D01*
X350744Y499516D01*
X350373D01*
X349262Y499331D01*
X348059Y499053D01*
X346577Y498591D01*
X345189Y498128D01*
X343800Y497387D01*
X342597Y496554D01*
X342504D01*
X342411Y496369D01*
X341856Y495906D01*
X341115Y495072D01*
X340282Y493961D01*
X339449Y492573D01*
X338708Y490906D01*
X338153Y488962D01*
X338060Y487943D01*
X337967Y486833D01*
Y486277D01*
X338060Y485907D01*
X338153Y484888D01*
X338430Y483685D01*
X338893Y482203D01*
X339541Y480629D01*
X340467Y479148D01*
X341671Y477667D01*
X341856Y477482D01*
X342319Y477111D01*
X343152Y476463D01*
X344263Y475815D01*
X345559Y475075D01*
X347226Y474426D01*
X349170Y473871D01*
X351299Y473593D01*
Y499609D01*
D02*
G37*
%LPD*%
D14*
X525045Y1022288D02*
D03*
Y1032288D02*
D03*
X525000Y885000D02*
D03*
Y895000D02*
D03*
X475000Y890000D02*
D03*
Y880000D02*
D03*
X200000Y975000D02*
D03*
Y985000D02*
D03*
Y792500D02*
D03*
Y802500D02*
D03*
D15*
X527500Y945000D02*
D03*
X202500Y865000D02*
D03*
D16*
X525000Y930000D02*
D03*
Y960000D02*
D03*
X200000Y850000D02*
D03*
Y880000D02*
D03*
D17*
X549250Y945000D02*
D03*
X224250Y865000D02*
D03*
D18*
X520000Y907500D02*
D03*
X510000D02*
D03*
X465000Y867500D02*
D03*
X475000D02*
D03*
X465000Y855000D02*
D03*
X475000D02*
D03*
X195000Y825000D02*
D03*
X185000D02*
D03*
X132500D02*
D03*
X122500D02*
D03*
X112500Y812500D02*
D03*
X122500D02*
D03*
X112500Y800000D02*
D03*
X122500D02*
D03*
D19*
X494500Y907500D02*
D03*
X475500D02*
D03*
X169500Y825000D02*
D03*
X150500D02*
D03*
D20*
X456500Y840000D02*
D03*
X473500D02*
D03*
X106500Y785000D02*
D03*
X123500D02*
D03*
D21*
X806175Y32500D02*
D03*
X893830D02*
D03*
X1131175D02*
D03*
X1218830D02*
D03*
X156175D02*
D03*
X243830D02*
D03*
X481175D02*
D03*
X568830D02*
D03*
D22*
X850000D02*
D03*
X1175000D02*
D03*
X200000D02*
D03*
X525000D02*
D03*
D23*
X20232Y135450D02*
D03*
Y184950D02*
D03*
X442732Y165450D02*
D03*
Y214950D02*
D03*
D24*
X53732Y166450D02*
D03*
Y153950D02*
D03*
X476232Y196450D02*
D03*
Y183950D02*
D03*
D25*
X1175000Y1245000D02*
D03*
X1047156Y1155055D02*
D03*
Y1165055D02*
D03*
Y1145055D02*
D03*
Y1135055D02*
D03*
Y1175055D02*
D03*
X850000Y1200000D02*
D03*
X1077500Y130000D02*
D03*
Y140000D02*
D03*
Y120000D02*
D03*
Y110000D02*
D03*
Y150000D02*
D03*
X1047500D02*
D03*
Y110000D02*
D03*
Y120000D02*
D03*
Y140000D02*
D03*
Y130000D02*
D03*
X1077500Y642500D02*
D03*
Y652500D02*
D03*
Y632500D02*
D03*
Y622500D02*
D03*
Y662500D02*
D03*
X1047500D02*
D03*
Y622500D02*
D03*
Y632500D02*
D03*
Y652500D02*
D03*
Y642500D02*
D03*
X1077500Y1155000D02*
D03*
Y1165000D02*
D03*
Y1145000D02*
D03*
Y1135000D02*
D03*
Y1175000D02*
D03*
X1047500D02*
D03*
Y1135000D02*
D03*
Y1145000D02*
D03*
Y1165000D02*
D03*
Y1155000D02*
D03*
X622493Y1157504D02*
D03*
Y1167504D02*
D03*
Y1147504D02*
D03*
X622500Y1137500D02*
D03*
X622493Y1177504D02*
D03*
X652493D02*
D03*
X652500Y1137500D02*
D03*
X652493Y1147504D02*
D03*
Y1167504D02*
D03*
Y1157504D02*
D03*
X652314Y644459D02*
D03*
Y654459D02*
D03*
Y634459D02*
D03*
Y624459D02*
D03*
Y664459D02*
D03*
X622314D02*
D03*
Y624459D02*
D03*
Y634459D02*
D03*
Y654459D02*
D03*
Y644459D02*
D03*
X652687Y130961D02*
D03*
Y140961D02*
D03*
Y120961D02*
D03*
Y110961D02*
D03*
Y150961D02*
D03*
X622687D02*
D03*
Y110961D02*
D03*
Y120961D02*
D03*
Y140961D02*
D03*
Y130961D02*
D03*
X525000Y1245000D02*
D03*
X200000Y1200000D02*
D03*
X397694Y130957D02*
D03*
Y140957D02*
D03*
Y120957D02*
D03*
Y110957D02*
D03*
Y150957D02*
D03*
X427694D02*
D03*
Y110957D02*
D03*
Y120957D02*
D03*
Y140957D02*
D03*
Y130957D02*
D03*
X397320Y644455D02*
D03*
Y654455D02*
D03*
Y634455D02*
D03*
Y624455D02*
D03*
Y664455D02*
D03*
X427320D02*
D03*
Y624455D02*
D03*
Y634455D02*
D03*
Y654455D02*
D03*
Y644455D02*
D03*
X427500Y1157500D02*
D03*
Y1167500D02*
D03*
Y1147500D02*
D03*
Y1137500D02*
D03*
Y1177500D02*
D03*
X397500D02*
D03*
Y1137500D02*
D03*
Y1147500D02*
D03*
Y1167500D02*
D03*
Y1157500D02*
D03*
M02*
