G04*
G04 #@! TF.GenerationSoftware,Altium Limited,Altium Designer,20.0.13 (296)*
G04*
G04 Layer_Color=32896*
%FSLAX44Y44*%
%MOMM*%
G71*
G01*
G75*
%ADD44C,0.0500*%
D44*
X1225000Y1245000D02*
G03*
X1225000Y1245000I-50000J0D01*
G01*
X950405Y1199311D02*
G03*
X950405Y1199311I-100000J0D01*
G01*
X1050405Y1174311D02*
G03*
X1075405Y1174311I12500J12500D01*
G01*
Y1136811D02*
G03*
X1050405Y1136811I-12500J-12500D01*
G01*
X1075225Y623766D02*
G03*
X1050225Y623766I-12500J-12500D01*
G01*
Y661266D02*
G03*
X1075225Y661266I12500J12500D01*
G01*
X1075229Y110442D02*
G03*
X1050405Y110268I-12324J-12673D01*
G01*
Y147768D02*
G03*
X1075215Y147582I12500J12500D01*
G01*
X1050405Y1199311D02*
G03*
X650405Y1199311I-200000J0D01*
G01*
X1275405Y1239311D02*
G03*
X1075405Y1239311I-100000J0D01*
G01*
X624993Y1175004D02*
G03*
X650382Y1175405I12500J12500D01*
G01*
X649984Y1137513D02*
G03*
X624993Y1137504I-12491J-12509D01*
G01*
X649989Y624281D02*
G03*
X624814Y624459I-12675J-12322D01*
G01*
Y661959D02*
G03*
X650000Y662148I12500J12500D01*
G01*
X649988Y110967D02*
G03*
X624993Y110961I-12494J-12506D01*
G01*
Y148461D02*
G03*
X650386Y148866I12500J12500D01*
G01*
X625000Y1240000D02*
G03*
X425000Y1240000I-100000J0D01*
G01*
X400000Y1200000D02*
G03*
X0Y1200000I-200000J0D01*
G01*
X400000Y148457D02*
G03*
X424811Y148271I12500J12500D01*
G01*
X424824Y111131D02*
G03*
X400000Y110957I-12324J-12673D01*
G01*
X399820Y661955D02*
G03*
X424820Y661955I12500J12500D01*
G01*
Y624455D02*
G03*
X399820Y624455I-12500J-12500D01*
G01*
X425000Y1137500D02*
G03*
X400000Y1137500I-12500J-12500D01*
G01*
Y1175000D02*
G03*
X425000Y1175000I12500J12500D01*
G01*
X575000Y1245000D02*
G03*
X575000Y1245000I-50000J0D01*
G01*
X300000Y1200000D02*
G03*
X300000Y1200000I-100000J0D01*
G01*
X624993Y1175004D02*
X625000Y1240000D01*
X649996Y111001D02*
X650000Y-689D01*
X650000Y624281D02*
X650386Y148866D01*
X650000Y1137486D02*
X650000Y663000D01*
X650382Y1175405D02*
X650405Y1199311D01*
X624814Y661959D02*
X624993Y1137504D01*
X624814Y624459D02*
X624993Y148461D01*
X1050405Y-689D02*
Y110268D01*
X650000Y-689D02*
X1050405Y-689D01*
X1075404Y661266D02*
X1075405Y1136811D01*
X1050405Y1174311D02*
X1050405Y1199311D01*
X1075405Y1174311D02*
Y1239311D01*
X1050225Y661266D02*
X1050405Y1136811D01*
X1050225Y147768D02*
X1050225Y623766D01*
X1075225Y147582D02*
X1075225Y623766D01*
Y-689D02*
Y110442D01*
Y-689D02*
X1275404D01*
X1275405Y1239304D01*
X1275398Y-685D02*
Y110272D01*
X624993Y4D02*
Y110961D01*
X625000Y0D02*
Y110961D01*
X424820Y0D02*
X625000D01*
X424820D02*
Y111131D01*
X424820Y148271D02*
X424820Y624455D01*
X399820Y148457D02*
X399820Y624455D01*
Y661955D02*
X400000Y1137500D01*
X425000Y1175000D02*
Y1240000D01*
X400000Y1175000D02*
X400000Y1200000D01*
X425000Y661955D02*
X425000Y1137500D01*
X0Y0D02*
X400000D01*
Y110957D01*
X0Y0D02*
Y1200000D01*
M02*
