G04*
G04 #@! TF.GenerationSoftware,Altium Limited,Altium Designer,20.0.13 (296)*
G04*
G04 Layer_Physical_Order=2*
G04 Layer_Color=16711680*
%FSLAX44Y44*%
%MOMM*%
G71*
G01*
G75*
%ADD35R,2.4100X5.8900*%
%ADD40C,0.8500*%
%ADD41C,0.8000*%
%ADD42C,3.0000*%
G36*
X1199174Y1334202D02*
X1208360Y1331416D01*
X1217229Y1327742D01*
X1225695Y1323217D01*
X1233677Y1317883D01*
X1241098Y1311793D01*
X1247886Y1305005D01*
X1253977Y1297584D01*
X1259310Y1289602D01*
X1263835Y1281136D01*
X1267509Y1272267D01*
X1270296Y1263080D01*
X1272169Y1253665D01*
X1273109Y1244111D01*
Y1239311D01*
X1273109Y1606D01*
X1233420D01*
Y31230D01*
X1218830D01*
X1204240D01*
Y1606D01*
X1145765D01*
Y31230D01*
X1131175D01*
X1116585D01*
Y1606D01*
X1077520D01*
Y103447D01*
X1079197Y103667D01*
X1080778Y104322D01*
X1082136Y105364D01*
X1083178Y106722D01*
X1083833Y108303D01*
X1084056Y110000D01*
X1083833Y111697D01*
X1083178Y113278D01*
X1082136Y114636D01*
X1082557Y115913D01*
X1083178Y116722D01*
X1083833Y118303D01*
X1084056Y120000D01*
X1083833Y121697D01*
X1083178Y123278D01*
X1082557Y124087D01*
X1082256Y125000D01*
X1082557Y125913D01*
X1083178Y126722D01*
X1083833Y128303D01*
X1084056Y130000D01*
X1083833Y131697D01*
X1083178Y133278D01*
X1082557Y134087D01*
X1082136Y135364D01*
X1083178Y136722D01*
X1083833Y138303D01*
X1084056Y140000D01*
X1083833Y141697D01*
X1083178Y143278D01*
X1082136Y144636D01*
X1082557Y145913D01*
X1083178Y146722D01*
X1083833Y148303D01*
X1084056Y150000D01*
X1083833Y151697D01*
X1083178Y153278D01*
X1082136Y154636D01*
X1080778Y155678D01*
X1079197Y156333D01*
X1078315Y156449D01*
X1078315Y616051D01*
X1079197Y616167D01*
X1080778Y616822D01*
X1082136Y617864D01*
X1083178Y619222D01*
X1083833Y620803D01*
X1084056Y622500D01*
X1083833Y624197D01*
X1083178Y625778D01*
X1082557Y626587D01*
X1082136Y627864D01*
X1083178Y629222D01*
X1083833Y630803D01*
X1084056Y632500D01*
X1083833Y634197D01*
X1083178Y635778D01*
X1082136Y637136D01*
Y637864D01*
X1083178Y639222D01*
X1083833Y640803D01*
X1084056Y642500D01*
X1083833Y644197D01*
X1083178Y645778D01*
X1082136Y647136D01*
X1082557Y648413D01*
X1083178Y649222D01*
X1083833Y650803D01*
X1084056Y652500D01*
X1083833Y654197D01*
X1083178Y655778D01*
X1082557Y656587D01*
X1082136Y657864D01*
X1083178Y659222D01*
X1083833Y660803D01*
X1084056Y662500D01*
X1083833Y664197D01*
X1083178Y665778D01*
X1082136Y667136D01*
X1080778Y668178D01*
X1079197Y668833D01*
X1078460Y668930D01*
X1078460Y1128570D01*
X1079197Y1128667D01*
X1080778Y1129322D01*
X1082136Y1130364D01*
X1083178Y1131722D01*
X1083833Y1133303D01*
X1084056Y1135000D01*
X1083833Y1136697D01*
X1083178Y1138278D01*
X1082557Y1139087D01*
X1082136Y1140364D01*
X1083178Y1141722D01*
X1083833Y1143303D01*
X1084056Y1145000D01*
X1083833Y1146697D01*
X1083178Y1148278D01*
X1082136Y1149636D01*
Y1150364D01*
X1083178Y1151722D01*
X1083833Y1153303D01*
X1084056Y1155000D01*
X1083833Y1156697D01*
X1083178Y1158278D01*
X1082136Y1159636D01*
X1082557Y1160913D01*
X1083178Y1161722D01*
X1083833Y1163303D01*
X1084056Y1165000D01*
X1083833Y1166697D01*
X1083178Y1168278D01*
X1082557Y1169087D01*
X1082136Y1170364D01*
X1083178Y1171722D01*
X1083833Y1173303D01*
X1084056Y1175000D01*
X1083833Y1176697D01*
X1083178Y1178278D01*
X1082136Y1179636D01*
X1080778Y1180678D01*
X1079197Y1181333D01*
X1077700Y1181530D01*
Y1239311D01*
Y1244111D01*
X1078641Y1253665D01*
X1080513Y1263080D01*
X1083300Y1272267D01*
X1086974Y1281136D01*
X1091499Y1289602D01*
X1096832Y1297584D01*
X1102923Y1305005D01*
X1109711Y1311793D01*
X1117132Y1317883D01*
X1125114Y1323217D01*
X1133580Y1327742D01*
X1142449Y1331416D01*
X1151635Y1334202D01*
X1153459Y1334565D01*
X1154441Y1333759D01*
Y1293956D01*
X1148443Y1290998D01*
X1142666Y1287138D01*
X1137443Y1282557D01*
X1132862Y1277334D01*
X1129002Y1271557D01*
X1125929Y1265326D01*
X1123696Y1258747D01*
X1122341Y1251933D01*
X1121886Y1245000D01*
X1122341Y1238067D01*
X1123696Y1231253D01*
X1125929Y1224674D01*
X1129002Y1218443D01*
X1132862Y1212666D01*
X1137443Y1207443D01*
X1142666Y1202862D01*
X1148443Y1199002D01*
X1154674Y1195929D01*
X1161253Y1193696D01*
X1168067Y1192341D01*
X1175000Y1191886D01*
X1181933Y1192341D01*
X1188747Y1193696D01*
X1195326Y1195929D01*
X1201557Y1199002D01*
X1207334Y1202862D01*
X1212557Y1207443D01*
X1217138Y1212666D01*
X1220998Y1218443D01*
X1224071Y1224674D01*
X1226304Y1231253D01*
X1227659Y1238067D01*
X1228114Y1245000D01*
X1227659Y1251933D01*
X1226304Y1258747D01*
X1224071Y1265326D01*
X1220998Y1271557D01*
X1217138Y1277334D01*
X1212557Y1282557D01*
X1207334Y1287138D01*
X1201557Y1290998D01*
X1195559Y1293956D01*
Y1333920D01*
X1196541Y1334726D01*
X1199174Y1334202D01*
D02*
G37*
G36*
X882627Y1394480D02*
X895323Y1391955D01*
X907826Y1388604D01*
X920083Y1384444D01*
X932042Y1379490D01*
X943652Y1373765D01*
X954862Y1367293D01*
X965625Y1360101D01*
X975895Y1352221D01*
X985627Y1343686D01*
X994780Y1334533D01*
X1003314Y1324801D01*
X1011194Y1314532D01*
X1018386Y1303768D01*
X1024858Y1292559D01*
X1030583Y1280949D01*
X1035537Y1268990D01*
X1039698Y1256733D01*
X1043048Y1244230D01*
X1045573Y1231534D01*
X1047263Y1218700D01*
X1048110Y1205783D01*
Y1199311D01*
X1048109Y1182448D01*
X1047156Y1181611D01*
X1045459Y1181388D01*
X1043877Y1180733D01*
X1042520Y1179691D01*
X1041478Y1178333D01*
X1040823Y1176752D01*
X1040600Y1175055D01*
X1040823Y1173358D01*
X1041478Y1171777D01*
X1042098Y1170968D01*
X1042520Y1169691D01*
X1041478Y1168333D01*
X1040823Y1166752D01*
X1040600Y1165055D01*
X1040823Y1163358D01*
X1041478Y1161777D01*
X1042520Y1160419D01*
X1042098Y1159142D01*
X1041478Y1158333D01*
X1040823Y1156752D01*
X1040600Y1155055D01*
X1040823Y1153358D01*
X1041478Y1151777D01*
X1042098Y1150968D01*
X1042400Y1150055D01*
X1042098Y1149142D01*
X1041478Y1148333D01*
X1040823Y1146752D01*
X1040600Y1145055D01*
X1040823Y1143358D01*
X1041478Y1141777D01*
X1042098Y1140968D01*
X1042520Y1139691D01*
X1041478Y1138333D01*
X1040823Y1136752D01*
X1040600Y1135055D01*
X1040823Y1133358D01*
X1041478Y1131777D01*
X1042520Y1130419D01*
X1043877Y1129377D01*
X1045459Y1128722D01*
X1045769Y1128681D01*
X1045803Y1128667D01*
X1047343Y1128465D01*
Y669035D01*
X1045803Y668833D01*
X1044222Y668178D01*
X1042864Y667136D01*
X1041822Y665778D01*
X1041167Y664197D01*
X1040944Y662500D01*
X1041167Y660803D01*
X1041822Y659222D01*
X1042443Y658413D01*
X1042744Y657500D01*
X1042443Y656587D01*
X1041822Y655778D01*
X1041167Y654197D01*
X1040944Y652500D01*
X1041167Y650803D01*
X1041822Y649222D01*
X1042443Y648413D01*
X1042744Y647500D01*
X1042443Y646587D01*
X1041822Y645778D01*
X1041167Y644197D01*
X1040944Y642500D01*
X1041167Y640803D01*
X1041822Y639222D01*
X1042864Y637864D01*
Y637136D01*
X1041822Y635778D01*
X1041167Y634197D01*
X1040944Y632500D01*
X1041167Y630803D01*
X1041822Y629222D01*
X1042443Y628413D01*
X1042744Y627500D01*
X1042443Y626587D01*
X1041822Y625778D01*
X1041167Y624197D01*
X1040944Y622500D01*
X1041167Y620803D01*
X1041822Y619222D01*
X1042864Y617864D01*
X1044222Y616822D01*
X1045803Y616167D01*
X1047197Y615984D01*
Y156516D01*
X1045803Y156333D01*
X1044222Y155678D01*
X1042864Y154636D01*
X1041822Y153278D01*
X1041167Y151697D01*
X1040944Y150000D01*
X1041167Y148303D01*
X1041822Y146722D01*
X1042443Y145913D01*
X1042744Y145000D01*
X1042443Y144087D01*
X1041822Y143278D01*
X1041167Y141697D01*
X1040944Y140000D01*
X1041167Y138303D01*
X1041822Y136722D01*
X1042443Y135913D01*
X1042744Y135000D01*
X1042443Y134087D01*
X1041822Y133278D01*
X1041167Y131697D01*
X1040944Y130000D01*
X1041167Y128303D01*
X1041822Y126722D01*
X1042443Y125913D01*
X1042744Y125000D01*
X1042443Y124087D01*
X1041822Y123278D01*
X1041167Y121697D01*
X1040944Y120000D01*
X1041167Y118303D01*
X1041822Y116722D01*
X1042443Y115913D01*
X1042744Y115000D01*
X1042443Y114087D01*
X1041822Y113278D01*
X1041167Y111697D01*
X1040944Y110000D01*
X1041167Y108303D01*
X1041822Y106722D01*
X1042864Y105364D01*
X1044222Y104322D01*
X1045803Y103667D01*
X1047500Y103444D01*
X1048109Y102909D01*
Y1606D01*
X908420D01*
Y31230D01*
X893830D01*
X879240D01*
Y1606D01*
X820765Y1606D01*
Y31230D01*
X806175D01*
X791585D01*
Y1606D01*
X652295D01*
X652292Y104058D01*
X652687Y104405D01*
X654384Y104628D01*
X655965Y105283D01*
X657323Y106325D01*
X658365Y107683D01*
X659020Y109264D01*
X659243Y110961D01*
X659020Y112658D01*
X658365Y114239D01*
X657744Y115048D01*
X657443Y115961D01*
X657744Y116874D01*
X658365Y117683D01*
X659020Y119264D01*
X659243Y120961D01*
X659020Y122658D01*
X658365Y124239D01*
X657744Y125048D01*
X657443Y125961D01*
X657744Y126874D01*
X658365Y127683D01*
X659020Y129264D01*
X659243Y130961D01*
X659020Y132658D01*
X658365Y134239D01*
X657744Y135048D01*
X657443Y135961D01*
X657744Y136874D01*
X658365Y137683D01*
X659020Y139264D01*
X659243Y140961D01*
X659020Y142658D01*
X658365Y144239D01*
X657744Y145048D01*
X657443Y145961D01*
X657744Y146874D01*
X658365Y147683D01*
X659020Y149264D01*
X659243Y150961D01*
X659020Y152658D01*
X658365Y154239D01*
X657323Y155597D01*
X655965Y156639D01*
X654384Y157294D01*
X652899Y157489D01*
X652899Y617980D01*
X654011Y618126D01*
X655592Y618781D01*
X656950Y619823D01*
X657991Y621181D01*
X658646Y622762D01*
X658870Y624459D01*
X658646Y626156D01*
X657991Y627737D01*
X656950Y629095D01*
X657371Y630372D01*
X657991Y631181D01*
X658646Y632762D01*
X658870Y634459D01*
X658646Y636156D01*
X657991Y637737D01*
X657371Y638545D01*
X657070Y639459D01*
X657371Y640372D01*
X657991Y641181D01*
X658646Y642762D01*
X658870Y644459D01*
X658646Y646156D01*
X657991Y647737D01*
X657371Y648546D01*
X656950Y649823D01*
X657991Y651181D01*
X658646Y652762D01*
X658870Y654459D01*
X658646Y656156D01*
X657991Y657737D01*
X656950Y659095D01*
X657371Y660372D01*
X657991Y661181D01*
X658646Y662762D01*
X658870Y664459D01*
X658646Y666156D01*
X657991Y667737D01*
X656950Y669095D01*
X655592Y670136D01*
X654011Y670791D01*
X653052Y670918D01*
X653052Y1131451D01*
X654857Y1131811D01*
X656855Y1133145D01*
X658189Y1135143D01*
X658406Y1136230D01*
X652500D01*
Y1138770D01*
X658406D01*
X658189Y1139857D01*
X656855Y1141855D01*
X657297Y1143086D01*
X658171Y1144226D01*
X658826Y1145807D01*
X659050Y1147504D01*
X658826Y1149201D01*
X658171Y1150782D01*
X657551Y1151591D01*
X657249Y1152504D01*
X657551Y1153417D01*
X658171Y1154226D01*
X658826Y1155807D01*
X659050Y1157504D01*
X658826Y1159201D01*
X658171Y1160782D01*
X657551Y1161590D01*
X657249Y1162504D01*
X657551Y1163417D01*
X658171Y1164226D01*
X658826Y1165807D01*
X659050Y1167504D01*
X658826Y1169201D01*
X658171Y1170782D01*
X657551Y1171590D01*
X657249Y1172504D01*
X657551Y1173417D01*
X658171Y1174226D01*
X658826Y1175807D01*
X659050Y1177504D01*
X658826Y1179201D01*
X658171Y1180782D01*
X657129Y1182140D01*
X655771Y1183182D01*
X654190Y1183837D01*
X652685Y1184035D01*
X652700Y1199309D01*
X652699Y1199310D01*
X652700Y1199312D01*
Y1205784D01*
X653546Y1218700D01*
X655236Y1231534D01*
X657761Y1244230D01*
X661111Y1256733D01*
X665272Y1268990D01*
X670226Y1280949D01*
X675951Y1292559D01*
X682423Y1303769D01*
X689615Y1314532D01*
X697495Y1324801D01*
X706030Y1334534D01*
X715183Y1343686D01*
X724915Y1352221D01*
X735184Y1360101D01*
X745947Y1367293D01*
X757157Y1373765D01*
X768767Y1379490D01*
X780726Y1384444D01*
X792983Y1388604D01*
X805486Y1391955D01*
X818182Y1394480D01*
X820986Y1394849D01*
X821941Y1394012D01*
Y1299154D01*
X820065Y1298684D01*
X810536Y1295274D01*
X801388Y1290947D01*
X792707Y1285745D01*
X784579Y1279716D01*
X777080Y1272920D01*
X770284Y1265421D01*
X764255Y1257293D01*
X759053Y1248612D01*
X754726Y1239464D01*
X751316Y1229935D01*
X748857Y1220118D01*
X747372Y1210108D01*
X746876Y1200000D01*
X747372Y1189892D01*
X748857Y1179882D01*
X751316Y1170065D01*
X754726Y1160536D01*
X759053Y1151388D01*
X764255Y1142707D01*
X770284Y1134579D01*
X777080Y1127080D01*
X784579Y1120284D01*
X792707Y1114255D01*
X801388Y1109053D01*
X810536Y1104726D01*
X820065Y1101316D01*
X829882Y1098857D01*
X839892Y1097372D01*
X850000Y1096876D01*
X860108Y1097372D01*
X870118Y1098857D01*
X879935Y1101316D01*
X889464Y1104726D01*
X898612Y1109053D01*
X907293Y1114255D01*
X915421Y1120284D01*
X922920Y1127080D01*
X929716Y1134579D01*
X935745Y1142707D01*
X940947Y1151388D01*
X945274Y1160536D01*
X948684Y1170065D01*
X951143Y1179882D01*
X952628Y1189892D01*
X953124Y1200000D01*
X952628Y1210108D01*
X951143Y1220118D01*
X948684Y1229935D01*
X945274Y1239464D01*
X940947Y1248612D01*
X935745Y1257293D01*
X929716Y1265421D01*
X922920Y1272920D01*
X915421Y1279716D01*
X907293Y1285745D01*
X898612Y1290947D01*
X889464Y1295274D01*
X879935Y1298684D01*
X878059Y1299154D01*
Y1394118D01*
X879014Y1394956D01*
X882627Y1394480D01*
D02*
G37*
G36*
X504441Y1334529D02*
Y1293956D01*
X498443Y1290998D01*
X492666Y1287138D01*
X487443Y1282557D01*
X482862Y1277334D01*
X479002Y1271557D01*
X475929Y1265326D01*
X473696Y1258747D01*
X472341Y1251933D01*
X471886Y1245000D01*
X472341Y1238067D01*
X473696Y1231253D01*
X475929Y1224674D01*
X479002Y1218443D01*
X482862Y1212666D01*
X487443Y1207443D01*
X492666Y1202862D01*
X498443Y1199002D01*
X504674Y1195929D01*
X511253Y1193696D01*
X518067Y1192341D01*
X525000Y1191886D01*
X531933Y1192341D01*
X538747Y1193696D01*
X545326Y1195929D01*
X551557Y1199002D01*
X557334Y1202862D01*
X562557Y1207443D01*
X567138Y1212666D01*
X570998Y1218443D01*
X574071Y1224674D01*
X576304Y1231253D01*
X577659Y1238067D01*
X578114Y1245000D01*
X577659Y1251933D01*
X576304Y1258747D01*
X574071Y1265326D01*
X570998Y1271557D01*
X567138Y1277334D01*
X562557Y1282557D01*
X557334Y1287138D01*
X551557Y1290998D01*
X545559Y1293956D01*
Y1334529D01*
X546540Y1335334D01*
X548769Y1334891D01*
X557956Y1332104D01*
X566825Y1328431D01*
X575291Y1323905D01*
X583273Y1318572D01*
X590694Y1312482D01*
X597482Y1305694D01*
X603572Y1298273D01*
X608905Y1290291D01*
X613431Y1281825D01*
X617104Y1272956D01*
X619891Y1263769D01*
X621764Y1254353D01*
X622705Y1244800D01*
X622705Y1240000D01*
X622699Y1184240D01*
X622493Y1184060D01*
X620797Y1183837D01*
X619215Y1183182D01*
X617858Y1182140D01*
X616816Y1180782D01*
X616161Y1179201D01*
X615937Y1177504D01*
X616161Y1175807D01*
X616816Y1174226D01*
X617436Y1173417D01*
X617858Y1172140D01*
X616816Y1170782D01*
X616161Y1169201D01*
X615937Y1167504D01*
X616161Y1165807D01*
X616816Y1164226D01*
X617858Y1162868D01*
X617436Y1161590D01*
X616816Y1160782D01*
X616161Y1159201D01*
X615937Y1157504D01*
X616161Y1155807D01*
X616816Y1154226D01*
X617436Y1153417D01*
X617737Y1152504D01*
X617436Y1151591D01*
X616816Y1150782D01*
X616161Y1149201D01*
X615937Y1147504D01*
X616161Y1145807D01*
X616816Y1144226D01*
X617694Y1143081D01*
X618145Y1141855D01*
X616810Y1139857D01*
X616594Y1138770D01*
X622500D01*
Y1136230D01*
X616594D01*
X616810Y1135143D01*
X618145Y1133145D01*
X620143Y1131811D01*
X621935Y1131454D01*
Y670965D01*
X620617Y670791D01*
X619036Y670136D01*
X617678Y669095D01*
X616636Y667737D01*
X615981Y666156D01*
X615758Y664459D01*
X615981Y662762D01*
X616636Y661181D01*
X617257Y660372D01*
X617558Y659459D01*
X617257Y658546D01*
X616636Y657737D01*
X615981Y656156D01*
X615758Y654459D01*
X615981Y652762D01*
X616636Y651181D01*
X617257Y650372D01*
X617558Y649459D01*
X617257Y648546D01*
X616636Y647737D01*
X615981Y646156D01*
X615758Y644459D01*
X615981Y642762D01*
X616636Y641181D01*
X617257Y640372D01*
X617558Y639459D01*
X617257Y638545D01*
X616636Y637737D01*
X615981Y636156D01*
X615758Y634459D01*
X615981Y632762D01*
X616636Y631181D01*
X617257Y630372D01*
X617558Y629459D01*
X617257Y628545D01*
X616636Y627737D01*
X615981Y626156D01*
X615758Y624459D01*
X615981Y622762D01*
X616636Y621181D01*
X617678Y619823D01*
X619036Y618781D01*
X620617Y618126D01*
X621781Y617973D01*
Y157398D01*
X620990Y157294D01*
X619409Y156639D01*
X618051Y155597D01*
X617010Y154239D01*
X616354Y152658D01*
X616131Y150961D01*
X616354Y149264D01*
X617010Y147683D01*
X617630Y146874D01*
X618051Y145597D01*
X617010Y144239D01*
X616354Y142658D01*
X616131Y140961D01*
X616354Y139264D01*
X617010Y137683D01*
X618051Y136325D01*
X617630Y135048D01*
X617010Y134239D01*
X616354Y132658D01*
X616131Y130961D01*
X616354Y129264D01*
X617010Y127683D01*
X617630Y126874D01*
X617931Y125961D01*
X617630Y125048D01*
X617010Y124239D01*
X616354Y122658D01*
X616131Y120961D01*
X616354Y119264D01*
X617010Y117683D01*
X617630Y116874D01*
X618051Y115597D01*
X617010Y114239D01*
X616354Y112658D01*
X616131Y110961D01*
X616354Y109264D01*
X617010Y107683D01*
X618051Y106325D01*
X619409Y105283D01*
X620990Y104628D01*
X622687Y104405D01*
X622705Y104389D01*
Y2295D01*
X583420D01*
Y31230D01*
X568830D01*
X554240D01*
Y2295D01*
X495765D01*
Y31230D01*
X481175D01*
X466585D01*
Y2295D01*
X427115D01*
Y103894D01*
X427694Y104401D01*
X429391Y104625D01*
X430972Y105280D01*
X432330Y106321D01*
X433372Y107679D01*
X434026Y109260D01*
X434250Y110957D01*
X434026Y112654D01*
X433372Y114235D01*
X432751Y115044D01*
X432450Y115957D01*
X432751Y116871D01*
X433372Y117679D01*
X434026Y119260D01*
X434250Y120957D01*
X434026Y122654D01*
X433372Y124235D01*
X432751Y125044D01*
X432450Y125957D01*
X432751Y126870D01*
X433372Y127679D01*
X434026Y129260D01*
X434250Y130957D01*
X434026Y132654D01*
X433372Y134235D01*
X432751Y135044D01*
X432450Y135957D01*
X432751Y136870D01*
X433372Y137679D01*
X434026Y139260D01*
X434250Y140957D01*
X434026Y142654D01*
X433372Y144235D01*
X432751Y145044D01*
X432450Y145957D01*
X432751Y146870D01*
X433372Y147679D01*
X434026Y149260D01*
X434250Y150957D01*
X434026Y152654D01*
X433372Y154235D01*
X432330Y155593D01*
X430972Y156635D01*
X429391Y157290D01*
X427906Y157485D01*
X427906Y617976D01*
X429017Y618122D01*
X430598Y618777D01*
X431956Y619819D01*
X432998Y621177D01*
X433653Y622758D01*
X433876Y624455D01*
X433653Y626152D01*
X432998Y627733D01*
X431956Y629091D01*
X432378Y630368D01*
X432998Y631177D01*
X433653Y632758D01*
X433876Y634455D01*
X433653Y636152D01*
X432998Y637733D01*
X432378Y638542D01*
X432076Y639455D01*
X432378Y640368D01*
X432998Y641177D01*
X433653Y642758D01*
X433876Y644455D01*
X433653Y646152D01*
X432998Y647733D01*
X432378Y648542D01*
X431956Y649819D01*
X432998Y651177D01*
X433653Y652758D01*
X433876Y654455D01*
X433653Y656152D01*
X432998Y657733D01*
X431956Y659091D01*
X432378Y660368D01*
X432998Y661177D01*
X433653Y662758D01*
X433876Y664455D01*
X433653Y666152D01*
X432998Y667733D01*
X431956Y669091D01*
X430598Y670133D01*
X429017Y670788D01*
X428059Y670914D01*
X428059Y1131018D01*
X429197Y1131167D01*
X430778Y1131822D01*
X432136Y1132864D01*
X433178Y1134222D01*
X433833Y1135803D01*
X434056Y1137500D01*
X433833Y1139197D01*
X433178Y1140778D01*
X432557Y1141587D01*
X432256Y1142500D01*
X432557Y1143413D01*
X433178Y1144222D01*
X433833Y1145803D01*
X434056Y1147500D01*
X433833Y1149197D01*
X433178Y1150778D01*
X432557Y1151587D01*
X432256Y1152500D01*
X432557Y1153413D01*
X433178Y1154222D01*
X433833Y1155803D01*
X434056Y1157500D01*
X433833Y1159197D01*
X433178Y1160778D01*
X432557Y1161587D01*
X432256Y1162500D01*
X432557Y1163413D01*
X433178Y1164222D01*
X433833Y1165803D01*
X434056Y1167500D01*
X433833Y1169197D01*
X433178Y1170778D01*
X432557Y1171587D01*
X432256Y1172500D01*
X432557Y1173413D01*
X433178Y1174222D01*
X433833Y1175803D01*
X434056Y1177500D01*
X433833Y1179197D01*
X433178Y1180778D01*
X432136Y1182136D01*
X430778Y1183178D01*
X429197Y1183833D01*
X427500Y1184056D01*
X427295Y1184236D01*
Y1240000D01*
Y1244800D01*
X428236Y1254353D01*
X430109Y1263769D01*
X432896Y1272955D01*
X436569Y1281825D01*
X441095Y1290291D01*
X446428Y1298273D01*
X452518Y1305694D01*
X459306Y1312482D01*
X466727Y1318572D01*
X474709Y1323905D01*
X483175Y1328431D01*
X492044Y1332104D01*
X501231Y1334891D01*
X503460Y1335334D01*
X504441Y1334529D01*
D02*
G37*
G36*
X171941Y1394754D02*
Y1300000D01*
X172102Y1299194D01*
X170065Y1298684D01*
X160536Y1295274D01*
X151388Y1290947D01*
X142707Y1285745D01*
X134579Y1279716D01*
X127080Y1272920D01*
X120284Y1265421D01*
X114255Y1257293D01*
X109053Y1248612D01*
X104726Y1239464D01*
X101316Y1229935D01*
X98857Y1220118D01*
X97372Y1210108D01*
X96876Y1200000D01*
X97372Y1189892D01*
X98857Y1179882D01*
X101316Y1170065D01*
X104726Y1160536D01*
X109053Y1151388D01*
X114255Y1142707D01*
X120284Y1134579D01*
X127080Y1127080D01*
X134579Y1120284D01*
X142707Y1114255D01*
X151388Y1109053D01*
X160536Y1104726D01*
X170065Y1101316D01*
X179881Y1098857D01*
X189892Y1097372D01*
X200000Y1096876D01*
X210108Y1097372D01*
X220119Y1098857D01*
X229935Y1101316D01*
X239464Y1104726D01*
X248612Y1109053D01*
X257293Y1114255D01*
X265421Y1120284D01*
X272920Y1127080D01*
X279716Y1134579D01*
X285745Y1142707D01*
X290947Y1151388D01*
X295274Y1160536D01*
X298684Y1170065D01*
X301143Y1179882D01*
X302628Y1189892D01*
X303124Y1200000D01*
X302628Y1210108D01*
X301143Y1220118D01*
X298684Y1229935D01*
X295274Y1239464D01*
X290947Y1248612D01*
X285745Y1257293D01*
X279716Y1265421D01*
X272920Y1272920D01*
X265421Y1279716D01*
X257293Y1285745D01*
X248612Y1290947D01*
X239464Y1295274D01*
X229935Y1298684D01*
X227898Y1299194D01*
X228059Y1300000D01*
Y1394754D01*
X229014Y1395591D01*
X232222Y1395169D01*
X244918Y1392643D01*
X257421Y1389293D01*
X269679Y1385132D01*
X281638Y1380179D01*
X293248Y1374453D01*
X304458Y1367981D01*
X315220Y1360790D01*
X325490Y1352910D01*
X335222Y1344375D01*
X344375Y1335222D01*
X352910Y1325490D01*
X360790Y1315220D01*
X367982Y1304457D01*
X374454Y1293247D01*
X380179Y1281638D01*
X385132Y1269679D01*
X389293Y1257422D01*
X392644Y1244918D01*
X395169Y1232222D01*
X396858Y1219389D01*
X397705Y1206472D01*
Y1200000D01*
X397705Y1184236D01*
X397500Y1184056D01*
X395803Y1183833D01*
X394222Y1183178D01*
X392864Y1182136D01*
X391822Y1180778D01*
X391167Y1179197D01*
X390944Y1177500D01*
X391167Y1175803D01*
X391822Y1174222D01*
X392443Y1173413D01*
X392864Y1172136D01*
X391822Y1170778D01*
X391167Y1169197D01*
X390944Y1167500D01*
X391167Y1165803D01*
X391822Y1164222D01*
X392864Y1162864D01*
X392443Y1161587D01*
X391822Y1160778D01*
X391167Y1159197D01*
X390944Y1157500D01*
X391167Y1155803D01*
X391822Y1154222D01*
X392443Y1153413D01*
X392744Y1152500D01*
X392443Y1151587D01*
X391822Y1150778D01*
X391167Y1149197D01*
X390944Y1147500D01*
X391167Y1145803D01*
X391822Y1144222D01*
X392443Y1143413D01*
X392864Y1142136D01*
X391822Y1140778D01*
X391167Y1139197D01*
X390944Y1137500D01*
X391167Y1135803D01*
X391822Y1134222D01*
X392864Y1132864D01*
X394222Y1131822D01*
X395803Y1131167D01*
X396941Y1131018D01*
Y670961D01*
X395624Y670788D01*
X394042Y670133D01*
X392685Y669091D01*
X391643Y667733D01*
X390988Y666152D01*
X390764Y664455D01*
X390988Y662758D01*
X391643Y661177D01*
X392263Y660368D01*
X392564Y659455D01*
X392263Y658542D01*
X391643Y657733D01*
X390988Y656152D01*
X390764Y654455D01*
X390988Y652758D01*
X391643Y651177D01*
X392263Y650368D01*
X392564Y649455D01*
X392263Y648542D01*
X391643Y647733D01*
X390988Y646152D01*
X390764Y644455D01*
X390988Y642758D01*
X391643Y641177D01*
X392263Y640368D01*
X392564Y639455D01*
X392263Y638542D01*
X391643Y637733D01*
X390988Y636152D01*
X390764Y634455D01*
X390988Y632758D01*
X391643Y631177D01*
X392263Y630368D01*
X392564Y629455D01*
X392263Y628542D01*
X391643Y627733D01*
X390988Y626152D01*
X390764Y624455D01*
X390988Y622758D01*
X391643Y621177D01*
X392685Y619819D01*
X394042Y618777D01*
X395624Y618122D01*
X396788Y617969D01*
Y157394D01*
X395997Y157290D01*
X394416Y156635D01*
X393058Y155593D01*
X392016Y154235D01*
X391361Y152654D01*
X391138Y150957D01*
X391361Y149260D01*
X392016Y147679D01*
X392637Y146870D01*
X393058Y145593D01*
X392016Y144235D01*
X391361Y142654D01*
X391138Y140957D01*
X391361Y139260D01*
X392016Y137679D01*
X393058Y136321D01*
X392637Y135044D01*
X392016Y134235D01*
X391361Y132654D01*
X391138Y130957D01*
X391361Y129260D01*
X392016Y127679D01*
X392637Y126870D01*
X392938Y125957D01*
X392637Y125044D01*
X392016Y124235D01*
X391361Y122654D01*
X391138Y120957D01*
X391361Y119260D01*
X392016Y117679D01*
X392637Y116871D01*
X393058Y115593D01*
X392016Y114235D01*
X391361Y112654D01*
X391138Y110957D01*
X391361Y109260D01*
X392016Y107679D01*
X393058Y106321D01*
X394416Y105280D01*
X395997Y104625D01*
X397694Y104401D01*
X397705Y104391D01*
Y2295D01*
X258420D01*
Y31230D01*
X243830D01*
X229240D01*
Y2295D01*
X170765D01*
Y31230D01*
X156175D01*
X141585D01*
Y2295D01*
X2295D01*
Y1200000D01*
Y1206472D01*
X3142Y1219389D01*
X4831Y1232222D01*
X7357Y1244918D01*
X10707Y1257421D01*
X14868Y1269679D01*
X19821Y1281638D01*
X25547Y1293248D01*
X32019Y1304458D01*
X39210Y1315220D01*
X47090Y1325490D01*
X55625Y1335222D01*
X64778Y1344375D01*
X74510Y1352910D01*
X84780Y1360790D01*
X95543Y1367982D01*
X106753Y1374454D01*
X118362Y1380179D01*
X130321Y1385132D01*
X142578Y1389293D01*
X155082Y1392643D01*
X167778Y1395169D01*
X170986Y1395591D01*
X171941Y1394754D01*
D02*
G37*
%LPC*%
G36*
X1145765Y64490D02*
X1132445D01*
Y33770D01*
X1145765D01*
Y64490D01*
D02*
G37*
G36*
X1129905D02*
X1116585D01*
Y33770D01*
X1129905D01*
Y64490D01*
D02*
G37*
G36*
X1233420D02*
X1220100D01*
Y33770D01*
X1233420D01*
Y64490D01*
D02*
G37*
G36*
X1217560D02*
X1204240D01*
Y33770D01*
X1217560D01*
Y64490D01*
D02*
G37*
G36*
X820765D02*
X807445D01*
Y33770D01*
X820765D01*
Y64490D01*
D02*
G37*
G36*
X804905D02*
X791585D01*
Y33770D01*
X804905D01*
Y64490D01*
D02*
G37*
G36*
X908420D02*
X895100D01*
Y33770D01*
X908420D01*
Y64490D01*
D02*
G37*
G36*
X892560D02*
X879240D01*
Y33770D01*
X892560D01*
Y64490D01*
D02*
G37*
G36*
X495765D02*
X482445D01*
Y33770D01*
X495765D01*
Y64490D01*
D02*
G37*
G36*
X479905D02*
X466585D01*
Y33770D01*
X479905D01*
Y64490D01*
D02*
G37*
G36*
X583420D02*
X570100D01*
Y33770D01*
X583420D01*
Y64490D01*
D02*
G37*
G36*
X567560D02*
X554240D01*
Y33770D01*
X567560D01*
Y64490D01*
D02*
G37*
G36*
X170765D02*
X157445D01*
Y33770D01*
X170765D01*
Y64490D01*
D02*
G37*
G36*
X154905D02*
X141585D01*
Y33770D01*
X154905D01*
Y64490D01*
D02*
G37*
G36*
X258420D02*
X245100D01*
Y33770D01*
X258420D01*
Y64490D01*
D02*
G37*
G36*
X242560D02*
X229240D01*
Y33770D01*
X242560D01*
Y64490D01*
D02*
G37*
%LPD*%
D35*
X806175Y32500D02*
D03*
X893830D02*
D03*
X1131175D02*
D03*
X1218830D02*
D03*
X156175D02*
D03*
X243830D02*
D03*
X481175D02*
D03*
X568830D02*
D03*
D40*
X1260002Y1170001D02*
D03*
Y1130001D02*
D03*
Y1090001D02*
D03*
Y1050001D02*
D03*
Y1010001D02*
D03*
Y970001D02*
D03*
Y930001D02*
D03*
Y890001D02*
D03*
Y850001D02*
D03*
Y810001D02*
D03*
Y770001D02*
D03*
Y730001D02*
D03*
Y690001D02*
D03*
Y650001D02*
D03*
Y610001D02*
D03*
Y570001D02*
D03*
Y530001D02*
D03*
Y490001D02*
D03*
Y450001D02*
D03*
Y410001D02*
D03*
Y370001D02*
D03*
Y330001D02*
D03*
Y290001D02*
D03*
Y250001D02*
D03*
Y210001D02*
D03*
Y170001D02*
D03*
Y130001D02*
D03*
Y90001D02*
D03*
Y50001D02*
D03*
Y10001D02*
D03*
X1250002Y1150001D02*
D03*
X1240002Y1130001D02*
D03*
X1250002Y1110001D02*
D03*
X1240002Y1090001D02*
D03*
X1250002Y1070001D02*
D03*
X1240002Y1050001D02*
D03*
X1250002Y1030001D02*
D03*
X1240002Y1010001D02*
D03*
X1250002Y990001D02*
D03*
X1240002Y970001D02*
D03*
X1250002Y950001D02*
D03*
X1240002Y930001D02*
D03*
X1250002Y910001D02*
D03*
X1240002Y890001D02*
D03*
X1250002Y870001D02*
D03*
X1240002Y850001D02*
D03*
X1250002Y830001D02*
D03*
X1240002Y810001D02*
D03*
X1250002Y790001D02*
D03*
X1240002Y770001D02*
D03*
X1250002Y750001D02*
D03*
X1240002Y730001D02*
D03*
X1250002Y710001D02*
D03*
X1240002Y690001D02*
D03*
X1250002Y670001D02*
D03*
X1240002Y650001D02*
D03*
X1250002Y630001D02*
D03*
X1240002Y610001D02*
D03*
X1250002Y590001D02*
D03*
X1240002Y570001D02*
D03*
X1250002Y550001D02*
D03*
X1240002Y530001D02*
D03*
X1250002Y510001D02*
D03*
X1240002Y490001D02*
D03*
X1250002Y470001D02*
D03*
X1240002Y450001D02*
D03*
X1250002Y430001D02*
D03*
X1240002Y410001D02*
D03*
X1250002Y390001D02*
D03*
X1240002Y370001D02*
D03*
X1250002Y350001D02*
D03*
X1240002Y330001D02*
D03*
X1250002Y310001D02*
D03*
X1240002Y290001D02*
D03*
X1250002Y270001D02*
D03*
X1240002Y250001D02*
D03*
X1250002Y230001D02*
D03*
X1240002Y210001D02*
D03*
X1250002Y190001D02*
D03*
X1240002Y170001D02*
D03*
X1250002Y150001D02*
D03*
X1240002Y130001D02*
D03*
X1250002Y110001D02*
D03*
X1240002Y90001D02*
D03*
X1250002Y70001D02*
D03*
Y30001D02*
D03*
X1230002Y1150001D02*
D03*
X1220002Y1130001D02*
D03*
X1230002Y1110001D02*
D03*
X1220002Y1090001D02*
D03*
X1230002Y1070001D02*
D03*
X1220002Y1050001D02*
D03*
X1230002Y1030001D02*
D03*
X1220002Y1010001D02*
D03*
X1230002Y990001D02*
D03*
X1220002Y970001D02*
D03*
X1230002Y950001D02*
D03*
X1220002Y930001D02*
D03*
X1230002Y910001D02*
D03*
X1220002Y890001D02*
D03*
X1230002Y870001D02*
D03*
X1220002Y850001D02*
D03*
X1230002Y830001D02*
D03*
X1220002Y810001D02*
D03*
X1230002Y790001D02*
D03*
X1220002Y770001D02*
D03*
X1230002Y750001D02*
D03*
X1220002Y730001D02*
D03*
X1230002Y710001D02*
D03*
X1220002Y690001D02*
D03*
X1230002Y670001D02*
D03*
X1220002Y650001D02*
D03*
X1230002Y630001D02*
D03*
X1220002Y610001D02*
D03*
X1230002Y590001D02*
D03*
X1220002Y570001D02*
D03*
X1230002Y550001D02*
D03*
X1220002Y530001D02*
D03*
X1230002Y510001D02*
D03*
X1220002Y490001D02*
D03*
X1230002Y470001D02*
D03*
X1220002Y450001D02*
D03*
X1230002Y430001D02*
D03*
X1220002Y410001D02*
D03*
X1230002Y390001D02*
D03*
X1220002Y370001D02*
D03*
X1230002Y350001D02*
D03*
X1220002Y330001D02*
D03*
X1230002Y310001D02*
D03*
X1220002Y290001D02*
D03*
X1230002Y270001D02*
D03*
X1220002Y250001D02*
D03*
X1230002Y230001D02*
D03*
X1220002Y210001D02*
D03*
X1230002Y190001D02*
D03*
X1220002Y170001D02*
D03*
X1230002Y150001D02*
D03*
X1220002Y130001D02*
D03*
X1230002Y110001D02*
D03*
X1220002Y90001D02*
D03*
X1210002Y1150001D02*
D03*
Y1110001D02*
D03*
Y1070001D02*
D03*
Y1030001D02*
D03*
Y990001D02*
D03*
Y950001D02*
D03*
Y910001D02*
D03*
Y870001D02*
D03*
Y830001D02*
D03*
Y790001D02*
D03*
Y750001D02*
D03*
Y710001D02*
D03*
Y670001D02*
D03*
Y630001D02*
D03*
Y590001D02*
D03*
Y550001D02*
D03*
Y510001D02*
D03*
Y470001D02*
D03*
Y430001D02*
D03*
Y390001D02*
D03*
Y350001D02*
D03*
Y310001D02*
D03*
Y270001D02*
D03*
Y230001D02*
D03*
Y190001D02*
D03*
Y150001D02*
D03*
Y110001D02*
D03*
X1140002Y1130001D02*
D03*
Y1090001D02*
D03*
Y1050001D02*
D03*
Y1010001D02*
D03*
Y970001D02*
D03*
Y930001D02*
D03*
Y890001D02*
D03*
Y850001D02*
D03*
Y810001D02*
D03*
Y770001D02*
D03*
Y730001D02*
D03*
Y690001D02*
D03*
Y650001D02*
D03*
Y610001D02*
D03*
Y570001D02*
D03*
Y530001D02*
D03*
Y490001D02*
D03*
Y450001D02*
D03*
Y410001D02*
D03*
Y370001D02*
D03*
Y330001D02*
D03*
Y290001D02*
D03*
Y250001D02*
D03*
Y210001D02*
D03*
Y170001D02*
D03*
Y130001D02*
D03*
Y90001D02*
D03*
X1130002Y1150001D02*
D03*
X1120002Y1130001D02*
D03*
X1130002Y1110001D02*
D03*
X1120002Y1090001D02*
D03*
X1130002Y1070001D02*
D03*
X1120002Y1050001D02*
D03*
X1130002Y1030001D02*
D03*
X1120002Y1010001D02*
D03*
X1130002Y990001D02*
D03*
X1120002Y970001D02*
D03*
X1130002Y950001D02*
D03*
X1120002Y930001D02*
D03*
X1130002Y910001D02*
D03*
X1120002Y890001D02*
D03*
X1130002Y870001D02*
D03*
X1120002Y850001D02*
D03*
X1130002Y830001D02*
D03*
X1120002Y810001D02*
D03*
X1130002Y790001D02*
D03*
X1120002Y770001D02*
D03*
X1130002Y750001D02*
D03*
X1120002Y730001D02*
D03*
X1130002Y710001D02*
D03*
X1120002Y690001D02*
D03*
X1130002Y670001D02*
D03*
X1120002Y650001D02*
D03*
X1130002Y630001D02*
D03*
X1120002Y610001D02*
D03*
X1130002Y590001D02*
D03*
X1120002Y570001D02*
D03*
X1130002Y550001D02*
D03*
X1120002Y530001D02*
D03*
X1130002Y510001D02*
D03*
X1120002Y490001D02*
D03*
X1130002Y470001D02*
D03*
X1120002Y450001D02*
D03*
X1130002Y430001D02*
D03*
X1120002Y410001D02*
D03*
X1130002Y390001D02*
D03*
X1120002Y370001D02*
D03*
X1130002Y350001D02*
D03*
X1120002Y330001D02*
D03*
X1130002Y310001D02*
D03*
X1120002Y290001D02*
D03*
X1130002Y270001D02*
D03*
X1120002Y250001D02*
D03*
X1130002Y230001D02*
D03*
X1120002Y210001D02*
D03*
X1130002Y190001D02*
D03*
X1120002Y170001D02*
D03*
X1130002Y150001D02*
D03*
X1120002Y130001D02*
D03*
X1130002Y110001D02*
D03*
X1120002Y90001D02*
D03*
X1100002Y1170001D02*
D03*
X1110002Y1150001D02*
D03*
X1100002Y1130001D02*
D03*
X1110002Y1110001D02*
D03*
X1100002Y1090001D02*
D03*
X1110002Y1070001D02*
D03*
X1100002Y1050001D02*
D03*
X1110002Y1030001D02*
D03*
X1100002Y1010001D02*
D03*
X1110002Y990001D02*
D03*
X1100002Y970001D02*
D03*
X1110002Y950001D02*
D03*
X1100002Y930001D02*
D03*
X1110002Y910001D02*
D03*
X1100002Y890001D02*
D03*
X1110002Y870001D02*
D03*
X1100002Y850001D02*
D03*
X1110002Y830001D02*
D03*
X1100002Y810001D02*
D03*
X1110002Y790001D02*
D03*
X1100002Y770001D02*
D03*
X1110002Y750001D02*
D03*
X1100002Y730001D02*
D03*
X1110002Y710001D02*
D03*
X1100002Y690001D02*
D03*
X1110002Y670001D02*
D03*
X1100002Y650001D02*
D03*
X1110002Y630001D02*
D03*
X1100002Y610001D02*
D03*
X1110002Y590001D02*
D03*
X1100002Y570001D02*
D03*
X1110002Y550001D02*
D03*
X1100002Y530001D02*
D03*
X1110002Y510001D02*
D03*
X1100002Y490001D02*
D03*
X1110002Y470001D02*
D03*
X1100002Y450001D02*
D03*
X1110002Y430001D02*
D03*
X1100002Y410001D02*
D03*
X1110002Y390001D02*
D03*
X1100002Y370001D02*
D03*
X1110002Y350001D02*
D03*
X1100002Y330001D02*
D03*
X1110002Y310001D02*
D03*
X1100002Y290001D02*
D03*
X1110002Y270001D02*
D03*
X1100002Y250001D02*
D03*
X1110002Y230001D02*
D03*
X1100002Y210001D02*
D03*
X1110002Y190001D02*
D03*
X1100002Y170001D02*
D03*
X1110002Y150001D02*
D03*
X1100002Y130001D02*
D03*
X1110002Y110001D02*
D03*
X1100002Y90001D02*
D03*
X1110002Y70001D02*
D03*
X1100002Y50001D02*
D03*
Y10001D02*
D03*
X1090002Y1190001D02*
D03*
Y1150001D02*
D03*
Y1110001D02*
D03*
Y1070001D02*
D03*
Y1030001D02*
D03*
Y990001D02*
D03*
Y950001D02*
D03*
Y910001D02*
D03*
Y870001D02*
D03*
Y830001D02*
D03*
Y790001D02*
D03*
Y750001D02*
D03*
Y710001D02*
D03*
Y670001D02*
D03*
Y630001D02*
D03*
Y590001D02*
D03*
Y550001D02*
D03*
Y510001D02*
D03*
Y470001D02*
D03*
Y430001D02*
D03*
Y390001D02*
D03*
Y350001D02*
D03*
Y310001D02*
D03*
Y270001D02*
D03*
Y230001D02*
D03*
Y190001D02*
D03*
Y150001D02*
D03*
Y110001D02*
D03*
Y70001D02*
D03*
Y30001D02*
D03*
X1040002Y1210001D02*
D03*
Y1090001D02*
D03*
Y1050001D02*
D03*
Y1010001D02*
D03*
Y970001D02*
D03*
Y930001D02*
D03*
Y890001D02*
D03*
Y850001D02*
D03*
Y810001D02*
D03*
Y770001D02*
D03*
Y730001D02*
D03*
Y690001D02*
D03*
Y610001D02*
D03*
Y570001D02*
D03*
Y530001D02*
D03*
Y490001D02*
D03*
Y450001D02*
D03*
Y410001D02*
D03*
Y370001D02*
D03*
Y330001D02*
D03*
Y290001D02*
D03*
Y250001D02*
D03*
Y210001D02*
D03*
Y170001D02*
D03*
Y90001D02*
D03*
Y50001D02*
D03*
Y10001D02*
D03*
X1020002Y1290001D02*
D03*
X1030002Y1270001D02*
D03*
Y1230001D02*
D03*
Y1190001D02*
D03*
Y1150001D02*
D03*
X1020002Y1130001D02*
D03*
X1030002Y1110001D02*
D03*
X1020002Y1090001D02*
D03*
X1030002Y1070001D02*
D03*
X1020002Y1050001D02*
D03*
X1030002Y1030001D02*
D03*
X1020002Y1010001D02*
D03*
X1030002Y990001D02*
D03*
X1020002Y970001D02*
D03*
X1030002Y950001D02*
D03*
X1020002Y930001D02*
D03*
X1030002Y910001D02*
D03*
X1020002Y890001D02*
D03*
X1030002Y870001D02*
D03*
X1020002Y850001D02*
D03*
X1030002Y830001D02*
D03*
X1020002Y810001D02*
D03*
X1030002Y790001D02*
D03*
X1020002Y770001D02*
D03*
X1030002Y750001D02*
D03*
X1020002Y730001D02*
D03*
X1030002Y710001D02*
D03*
X1020002Y690001D02*
D03*
X1030002Y670001D02*
D03*
X1020002Y650001D02*
D03*
X1030002Y630001D02*
D03*
X1020002Y610001D02*
D03*
X1030002Y590001D02*
D03*
X1020002Y570001D02*
D03*
X1030002Y550001D02*
D03*
X1020002Y530001D02*
D03*
X1030002Y510001D02*
D03*
X1020002Y490001D02*
D03*
X1030002Y470001D02*
D03*
X1020002Y450001D02*
D03*
X1030002Y430001D02*
D03*
X1020002Y410001D02*
D03*
X1030002Y390001D02*
D03*
X1020002Y370001D02*
D03*
X1030002Y350001D02*
D03*
X1020002Y330001D02*
D03*
X1030002Y310001D02*
D03*
X1020002Y290001D02*
D03*
X1030002Y270001D02*
D03*
X1020002Y250001D02*
D03*
X1030002Y230001D02*
D03*
X1020002Y210001D02*
D03*
X1030002Y190001D02*
D03*
X1020002Y170001D02*
D03*
X1030002Y150001D02*
D03*
X1020002Y130001D02*
D03*
X1030002Y110001D02*
D03*
X1020002Y90001D02*
D03*
X1030002Y70001D02*
D03*
X1020002Y50001D02*
D03*
X1030002Y30001D02*
D03*
X1020002Y10001D02*
D03*
X1010002Y1110001D02*
D03*
X1000002Y1090001D02*
D03*
X1010002Y1070001D02*
D03*
X1000002Y1050001D02*
D03*
X1010002Y1030001D02*
D03*
X1000002Y1010001D02*
D03*
X1010002Y990001D02*
D03*
X1000002Y970001D02*
D03*
X1010002Y950001D02*
D03*
X1000002Y930001D02*
D03*
X1010002Y910001D02*
D03*
X1000002Y890001D02*
D03*
X1010002Y870001D02*
D03*
X1000002Y850001D02*
D03*
X1010002Y830001D02*
D03*
X1000002Y810001D02*
D03*
X1010002Y790001D02*
D03*
X1000002Y770001D02*
D03*
X1010002Y750001D02*
D03*
X1000002Y730001D02*
D03*
X1010002Y710001D02*
D03*
X1000002Y690001D02*
D03*
X1010002Y670001D02*
D03*
X1000002Y650001D02*
D03*
X1010002Y630001D02*
D03*
X1000002Y610001D02*
D03*
X1010002Y590001D02*
D03*
X1000002Y570001D02*
D03*
X1010002Y550001D02*
D03*
X1000002Y530001D02*
D03*
X1010002Y510001D02*
D03*
X1000002Y490001D02*
D03*
X1010002Y470001D02*
D03*
X1000002Y450001D02*
D03*
X1010002Y430001D02*
D03*
X1000002Y410001D02*
D03*
X1010002Y390001D02*
D03*
X1000002Y370001D02*
D03*
X1010002Y350001D02*
D03*
X1000002Y330001D02*
D03*
X1010002Y310001D02*
D03*
X1000002Y290001D02*
D03*
X1010002Y270001D02*
D03*
X1000002Y250001D02*
D03*
X1010002Y230001D02*
D03*
X1000002Y210001D02*
D03*
X1010002Y190001D02*
D03*
X1000002Y170001D02*
D03*
X1010002Y150001D02*
D03*
X1000002Y130001D02*
D03*
X1010002Y110001D02*
D03*
X1000002Y90001D02*
D03*
X1010002Y70001D02*
D03*
X1000002Y50001D02*
D03*
X1010002Y30001D02*
D03*
X1000002Y10001D02*
D03*
X980002Y1330001D02*
D03*
X990002Y1070001D02*
D03*
X980002Y1050001D02*
D03*
X990002Y1030001D02*
D03*
X980002Y1010001D02*
D03*
X990002Y990001D02*
D03*
X980002Y970001D02*
D03*
X990002Y950001D02*
D03*
X980002Y930001D02*
D03*
X990002Y910001D02*
D03*
X980002Y890001D02*
D03*
X990002Y870001D02*
D03*
X980002Y850001D02*
D03*
X990002Y830001D02*
D03*
X980002Y810001D02*
D03*
X990002Y790001D02*
D03*
X980002Y770001D02*
D03*
X990002Y750001D02*
D03*
X980002Y730001D02*
D03*
X990002Y710001D02*
D03*
X980002Y690001D02*
D03*
X990002Y670001D02*
D03*
X980002Y650001D02*
D03*
X990002Y630001D02*
D03*
X980002Y610001D02*
D03*
X990002Y590001D02*
D03*
X980002Y570001D02*
D03*
X990002Y550001D02*
D03*
X980002Y530001D02*
D03*
X990002Y510001D02*
D03*
X980002Y490001D02*
D03*
X990002Y470001D02*
D03*
X980002Y450001D02*
D03*
X990002Y430001D02*
D03*
X980002Y410001D02*
D03*
X990002Y390001D02*
D03*
X980002Y370001D02*
D03*
X990002Y350001D02*
D03*
X980002Y330001D02*
D03*
X990002Y310001D02*
D03*
X980002Y290001D02*
D03*
X990002Y270001D02*
D03*
X980002Y250001D02*
D03*
X990002Y230001D02*
D03*
X980002Y210001D02*
D03*
X990002Y190001D02*
D03*
X980002Y170001D02*
D03*
X990002Y150001D02*
D03*
X980002Y130001D02*
D03*
X990002Y110001D02*
D03*
X980002Y90001D02*
D03*
X990002Y70001D02*
D03*
X980002Y50001D02*
D03*
X990002Y30001D02*
D03*
X980002Y10001D02*
D03*
X970002Y1350001D02*
D03*
X960002Y1250001D02*
D03*
Y1210001D02*
D03*
X970002Y1190001D02*
D03*
X960002Y1170001D02*
D03*
Y1050001D02*
D03*
X970002Y1030001D02*
D03*
X960002Y1010001D02*
D03*
X970002Y990001D02*
D03*
X960002Y970001D02*
D03*
X970002Y950001D02*
D03*
X960002Y930001D02*
D03*
X970002Y910001D02*
D03*
X960002Y890001D02*
D03*
X970002Y870001D02*
D03*
X960002Y850001D02*
D03*
X970002Y830001D02*
D03*
X960002Y810001D02*
D03*
X970002Y790001D02*
D03*
X960002Y770001D02*
D03*
X970002Y750001D02*
D03*
X960002Y730001D02*
D03*
X970002Y710001D02*
D03*
X960002Y690001D02*
D03*
X970002Y670001D02*
D03*
X960002Y650001D02*
D03*
X970002Y630001D02*
D03*
X960002Y610001D02*
D03*
X970002Y590001D02*
D03*
X960002Y570001D02*
D03*
X970002Y550001D02*
D03*
X960002Y530001D02*
D03*
X970002Y510001D02*
D03*
X960002Y490001D02*
D03*
X970002Y470001D02*
D03*
X960002Y450001D02*
D03*
X970002Y430001D02*
D03*
X960002Y410001D02*
D03*
X970002Y390001D02*
D03*
X960002Y370001D02*
D03*
X970002Y350001D02*
D03*
X960002Y330001D02*
D03*
X970002Y310001D02*
D03*
X960002Y290001D02*
D03*
X970002Y270001D02*
D03*
X960002Y250001D02*
D03*
X970002Y230001D02*
D03*
X960002Y210001D02*
D03*
X970002Y190001D02*
D03*
X960002Y170001D02*
D03*
X970002Y150001D02*
D03*
X960002Y130001D02*
D03*
X970002Y110001D02*
D03*
X960002Y90001D02*
D03*
X970002Y70001D02*
D03*
X960002Y50001D02*
D03*
X970002Y30001D02*
D03*
X960002Y10001D02*
D03*
X940002Y1370001D02*
D03*
X950002Y1350001D02*
D03*
Y1150001D02*
D03*
X940002Y1130001D02*
D03*
X950002Y1030001D02*
D03*
X940002Y1010001D02*
D03*
X950002Y990001D02*
D03*
X940002Y970001D02*
D03*
X950002Y950001D02*
D03*
X940002Y930001D02*
D03*
X950002Y910001D02*
D03*
X940002Y890001D02*
D03*
X950002Y870001D02*
D03*
X940002Y850001D02*
D03*
X950002Y830001D02*
D03*
X940002Y810001D02*
D03*
X950002Y790001D02*
D03*
X940002Y770001D02*
D03*
X950002Y750001D02*
D03*
X940002Y730001D02*
D03*
X950002Y710001D02*
D03*
X940002Y690001D02*
D03*
X950002Y670001D02*
D03*
X940002Y650001D02*
D03*
X950002Y630001D02*
D03*
X940002Y610001D02*
D03*
X950002Y590001D02*
D03*
X940002Y570001D02*
D03*
X950002Y550001D02*
D03*
X940002Y530001D02*
D03*
X950002Y510001D02*
D03*
X940002Y490001D02*
D03*
X950002Y470001D02*
D03*
X940002Y450001D02*
D03*
X950002Y430001D02*
D03*
X940002Y410001D02*
D03*
X950002Y390001D02*
D03*
X940002Y370001D02*
D03*
X950002Y350001D02*
D03*
X940002Y330001D02*
D03*
X950002Y310001D02*
D03*
X940002Y290001D02*
D03*
X950002Y270001D02*
D03*
X940002Y250001D02*
D03*
X950002Y230001D02*
D03*
X940002Y210001D02*
D03*
X950002Y190001D02*
D03*
X940002Y170001D02*
D03*
X950002Y150001D02*
D03*
X940002Y130001D02*
D03*
X950002Y110001D02*
D03*
X940002Y90001D02*
D03*
X950002Y70001D02*
D03*
X940002Y50001D02*
D03*
X950002Y30001D02*
D03*
X940002Y10001D02*
D03*
X920002Y1370001D02*
D03*
Y1290001D02*
D03*
X930002Y1110001D02*
D03*
Y1030001D02*
D03*
X920002Y1010001D02*
D03*
X930002Y990001D02*
D03*
X920002Y970001D02*
D03*
X930002Y950001D02*
D03*
X920002Y930001D02*
D03*
X930002Y910001D02*
D03*
X920002Y890001D02*
D03*
X930002Y870001D02*
D03*
X920002Y850001D02*
D03*
X930002Y830001D02*
D03*
X920002Y810001D02*
D03*
X930002Y790001D02*
D03*
X920002Y770001D02*
D03*
X930002Y750001D02*
D03*
X920002Y730001D02*
D03*
X930002Y710001D02*
D03*
X920002Y690001D02*
D03*
X930002Y670001D02*
D03*
X920002Y650001D02*
D03*
X930002Y630001D02*
D03*
X920002Y610001D02*
D03*
X930002Y590001D02*
D03*
X920002Y570001D02*
D03*
X930002Y550001D02*
D03*
X920002Y530001D02*
D03*
X930002Y510001D02*
D03*
X920002Y490001D02*
D03*
X930002Y470001D02*
D03*
X920002Y450001D02*
D03*
X930002Y430001D02*
D03*
X920002Y410001D02*
D03*
X930002Y390001D02*
D03*
X920002Y370001D02*
D03*
X930002Y350001D02*
D03*
X920002Y330001D02*
D03*
X930002Y310001D02*
D03*
X920002Y290001D02*
D03*
X930002Y270001D02*
D03*
X920002Y250001D02*
D03*
X930002Y230001D02*
D03*
X920002Y210001D02*
D03*
X930002Y190001D02*
D03*
X920002Y170001D02*
D03*
X930002Y150001D02*
D03*
X920002Y130001D02*
D03*
X930002Y110001D02*
D03*
X920002Y90001D02*
D03*
X930002Y70001D02*
D03*
X920002Y50001D02*
D03*
X930002Y30001D02*
D03*
X920002Y10001D02*
D03*
X910002Y1110001D02*
D03*
X900002Y1090001D02*
D03*
X910002Y1030001D02*
D03*
X900002Y1010001D02*
D03*
X910002Y990001D02*
D03*
X900002Y970001D02*
D03*
X910002Y950001D02*
D03*
X900002Y930001D02*
D03*
X910002Y910001D02*
D03*
X900002Y890001D02*
D03*
X910002Y870001D02*
D03*
X900002Y850001D02*
D03*
X910002Y830001D02*
D03*
X900002Y810001D02*
D03*
X910002Y790001D02*
D03*
X900002Y770001D02*
D03*
X910002Y750001D02*
D03*
X900002Y730001D02*
D03*
X910002Y710001D02*
D03*
X900002Y690001D02*
D03*
X910002Y670001D02*
D03*
X900002Y650001D02*
D03*
X910002Y630001D02*
D03*
X900002Y610001D02*
D03*
X910002Y590001D02*
D03*
X900002Y570001D02*
D03*
X910002Y550001D02*
D03*
X900002Y530001D02*
D03*
X910002Y510001D02*
D03*
X900002Y490001D02*
D03*
X910002Y470001D02*
D03*
X900002Y450001D02*
D03*
X910002Y430001D02*
D03*
X900002Y410001D02*
D03*
X910002Y390001D02*
D03*
X900002Y370001D02*
D03*
X910002Y350001D02*
D03*
X900002Y330001D02*
D03*
X910002Y310001D02*
D03*
X900002Y290001D02*
D03*
X910002Y270001D02*
D03*
X900002Y250001D02*
D03*
X910002Y230001D02*
D03*
X900002Y210001D02*
D03*
X910002Y190001D02*
D03*
X900002Y170001D02*
D03*
X910002Y150001D02*
D03*
X900002Y130001D02*
D03*
X910002Y110001D02*
D03*
X900002Y90001D02*
D03*
X890002Y1310001D02*
D03*
X880002Y1090001D02*
D03*
Y1010001D02*
D03*
X890002Y990001D02*
D03*
X880002Y970001D02*
D03*
X890002Y950001D02*
D03*
X880002Y930001D02*
D03*
X890002Y910001D02*
D03*
X880002Y890001D02*
D03*
X890002Y870001D02*
D03*
X880002Y850001D02*
D03*
X890002Y830001D02*
D03*
X880002Y810001D02*
D03*
X890002Y790001D02*
D03*
X880002Y770001D02*
D03*
X890002Y750001D02*
D03*
X880002Y730001D02*
D03*
X890002Y710001D02*
D03*
X880002Y690001D02*
D03*
X890002Y670001D02*
D03*
X880002Y650001D02*
D03*
X890002Y630001D02*
D03*
X880002Y610001D02*
D03*
X890002Y590001D02*
D03*
X880002Y570001D02*
D03*
X890002Y550001D02*
D03*
X880002Y530001D02*
D03*
X890002Y510001D02*
D03*
X880002Y490001D02*
D03*
X890002Y470001D02*
D03*
X880002Y450001D02*
D03*
X890002Y430001D02*
D03*
X880002Y410001D02*
D03*
X890002Y390001D02*
D03*
X880002Y370001D02*
D03*
X890002Y350001D02*
D03*
X880002Y330001D02*
D03*
X890002Y310001D02*
D03*
X880002Y290001D02*
D03*
X890002Y270001D02*
D03*
X880002Y250001D02*
D03*
X890002Y230001D02*
D03*
X880002Y210001D02*
D03*
X890002Y190001D02*
D03*
X880002Y170001D02*
D03*
X890002Y150001D02*
D03*
X880002Y130001D02*
D03*
X890002Y110001D02*
D03*
X880002Y90001D02*
D03*
X860002Y1090001D02*
D03*
X840002D02*
D03*
X820002D02*
D03*
Y1010001D02*
D03*
Y970001D02*
D03*
Y930001D02*
D03*
Y890001D02*
D03*
Y850001D02*
D03*
Y810001D02*
D03*
Y770001D02*
D03*
Y730001D02*
D03*
Y690001D02*
D03*
Y650001D02*
D03*
Y610001D02*
D03*
Y570001D02*
D03*
Y530001D02*
D03*
Y490001D02*
D03*
Y450001D02*
D03*
Y410001D02*
D03*
Y370001D02*
D03*
Y330001D02*
D03*
Y290001D02*
D03*
Y250001D02*
D03*
Y210001D02*
D03*
Y170001D02*
D03*
Y130001D02*
D03*
Y90001D02*
D03*
X810002Y1310001D02*
D03*
X800002Y1090001D02*
D03*
Y1010001D02*
D03*
X810002Y990001D02*
D03*
X800002Y970001D02*
D03*
X810002Y950001D02*
D03*
X800002Y930001D02*
D03*
X810002Y910001D02*
D03*
X800002Y890001D02*
D03*
X810002Y870001D02*
D03*
X800002Y850001D02*
D03*
X810002Y830001D02*
D03*
X800002Y810001D02*
D03*
X810002Y790001D02*
D03*
X800002Y770001D02*
D03*
X810002Y750001D02*
D03*
X800002Y730001D02*
D03*
X810002Y710001D02*
D03*
X800002Y690001D02*
D03*
X810002Y670001D02*
D03*
X800002Y650001D02*
D03*
X810002Y630001D02*
D03*
X800002Y610001D02*
D03*
X810002Y590001D02*
D03*
X800002Y570001D02*
D03*
X810002Y550001D02*
D03*
X800002Y530001D02*
D03*
X810002Y510001D02*
D03*
X800002Y490001D02*
D03*
X810002Y470001D02*
D03*
X800002Y450001D02*
D03*
X810002Y430001D02*
D03*
X800002Y410001D02*
D03*
X810002Y390001D02*
D03*
X800002Y370001D02*
D03*
X810002Y350001D02*
D03*
X800002Y330001D02*
D03*
X810002Y310001D02*
D03*
X800002Y290001D02*
D03*
X810002Y270001D02*
D03*
X800002Y250001D02*
D03*
X810002Y230001D02*
D03*
X800002Y210001D02*
D03*
X810002Y190001D02*
D03*
X800002Y170001D02*
D03*
X810002Y150001D02*
D03*
X800002Y130001D02*
D03*
X810002Y110001D02*
D03*
X800002Y90001D02*
D03*
X780002Y1370001D02*
D03*
Y1290001D02*
D03*
X790002Y1110001D02*
D03*
X780002Y1010001D02*
D03*
X790002Y990001D02*
D03*
X780002Y970001D02*
D03*
X790002Y950001D02*
D03*
X780002Y930001D02*
D03*
X790002Y910001D02*
D03*
X780002Y890001D02*
D03*
X790002Y870001D02*
D03*
X780002Y850001D02*
D03*
X790002Y830001D02*
D03*
X780002Y810001D02*
D03*
X790002Y790001D02*
D03*
X780002Y770001D02*
D03*
X790002Y750001D02*
D03*
X780002Y730001D02*
D03*
X790002Y710001D02*
D03*
X780002Y690001D02*
D03*
X790002Y670001D02*
D03*
X780002Y650001D02*
D03*
X790002Y630001D02*
D03*
X780002Y610001D02*
D03*
X790002Y590001D02*
D03*
X780002Y570001D02*
D03*
X790002Y550001D02*
D03*
X780002Y530001D02*
D03*
X790002Y510001D02*
D03*
X780002Y490001D02*
D03*
X790002Y470001D02*
D03*
X780002Y450001D02*
D03*
X790002Y430001D02*
D03*
X780002Y410001D02*
D03*
X790002Y390001D02*
D03*
X780002Y370001D02*
D03*
X790002Y350001D02*
D03*
X780002Y330001D02*
D03*
X790002Y310001D02*
D03*
X780002Y290001D02*
D03*
X790002Y270001D02*
D03*
X780002Y250001D02*
D03*
X790002Y230001D02*
D03*
X780002Y210001D02*
D03*
X790002Y190001D02*
D03*
X780002Y170001D02*
D03*
X790002Y150001D02*
D03*
X780002Y130001D02*
D03*
X790002Y110001D02*
D03*
X780002Y90001D02*
D03*
Y50001D02*
D03*
Y10001D02*
D03*
X760002Y1370001D02*
D03*
Y1130001D02*
D03*
X770002Y1110001D02*
D03*
Y1030001D02*
D03*
X760002Y1010001D02*
D03*
X770002Y990001D02*
D03*
X760002Y970001D02*
D03*
X770002Y950001D02*
D03*
X760002Y930001D02*
D03*
X770002Y910001D02*
D03*
X760002Y890001D02*
D03*
X770002Y870001D02*
D03*
X760002Y850001D02*
D03*
X770002Y830001D02*
D03*
X760002Y810001D02*
D03*
X770002Y790001D02*
D03*
X760002Y770001D02*
D03*
X770002Y750001D02*
D03*
X760002Y730001D02*
D03*
X770002Y710001D02*
D03*
X760002Y690001D02*
D03*
X770002Y670001D02*
D03*
X760002Y650001D02*
D03*
X770002Y630001D02*
D03*
X760002Y610001D02*
D03*
X770002Y590001D02*
D03*
X760002Y570001D02*
D03*
X770002Y550001D02*
D03*
X760002Y530001D02*
D03*
X770002Y510001D02*
D03*
X760002Y490001D02*
D03*
X770002Y470001D02*
D03*
X760002Y450001D02*
D03*
X770002Y430001D02*
D03*
X760002Y410001D02*
D03*
X770002Y390001D02*
D03*
X760002Y370001D02*
D03*
X770002Y350001D02*
D03*
X760002Y330001D02*
D03*
X770002Y310001D02*
D03*
X760002Y290001D02*
D03*
X770002Y270001D02*
D03*
X760002Y250001D02*
D03*
X770002Y230001D02*
D03*
X760002Y210001D02*
D03*
X770002Y190001D02*
D03*
X760002Y170001D02*
D03*
X770002Y150001D02*
D03*
X760002Y130001D02*
D03*
X770002Y110001D02*
D03*
X760002Y90001D02*
D03*
X770002Y70001D02*
D03*
X760002Y50001D02*
D03*
X770002Y30001D02*
D03*
X760002Y10001D02*
D03*
X750002Y1350001D02*
D03*
X740002Y1250001D02*
D03*
Y1210001D02*
D03*
Y1170001D02*
D03*
X750002Y1150001D02*
D03*
X740002Y1050001D02*
D03*
X750002Y1030001D02*
D03*
X740002Y1010001D02*
D03*
X750002Y990001D02*
D03*
X740002Y970001D02*
D03*
X750002Y950001D02*
D03*
X740002Y930001D02*
D03*
X750002Y910001D02*
D03*
X740002Y890001D02*
D03*
X750002Y870001D02*
D03*
X740002Y850001D02*
D03*
X750002Y830001D02*
D03*
X740002Y810001D02*
D03*
X750002Y790001D02*
D03*
X740002Y770001D02*
D03*
X750002Y750001D02*
D03*
X740002Y730001D02*
D03*
X750002Y710001D02*
D03*
X740002Y690001D02*
D03*
X750002Y670001D02*
D03*
X740002Y650001D02*
D03*
X750002Y630001D02*
D03*
X740002Y610001D02*
D03*
X750002Y590001D02*
D03*
X740002Y570001D02*
D03*
X750002Y550001D02*
D03*
X740002Y530001D02*
D03*
X750002Y510001D02*
D03*
X740002Y490001D02*
D03*
X750002Y470001D02*
D03*
X740002Y450001D02*
D03*
X750002Y430001D02*
D03*
X740002Y410001D02*
D03*
X750002Y390001D02*
D03*
X740002Y370001D02*
D03*
X750002Y350001D02*
D03*
X740002Y330001D02*
D03*
X750002Y310001D02*
D03*
X740002Y290001D02*
D03*
X750002Y270001D02*
D03*
X740002Y250001D02*
D03*
X750002Y230001D02*
D03*
X740002Y210001D02*
D03*
X750002Y190001D02*
D03*
X740002Y170001D02*
D03*
X750002Y150001D02*
D03*
X740002Y130001D02*
D03*
X750002Y110001D02*
D03*
X740002Y90001D02*
D03*
X750002Y70001D02*
D03*
X740002Y50001D02*
D03*
X750002Y30001D02*
D03*
X740002Y10001D02*
D03*
X730002Y1350001D02*
D03*
X720002Y1330001D02*
D03*
X730002Y1190001D02*
D03*
X720002Y1050001D02*
D03*
X730002Y1030001D02*
D03*
X720002Y1010001D02*
D03*
X730002Y990001D02*
D03*
X720002Y970001D02*
D03*
X730002Y950001D02*
D03*
X720002Y930001D02*
D03*
X730002Y910001D02*
D03*
X720002Y890001D02*
D03*
X730002Y870001D02*
D03*
X720002Y850001D02*
D03*
X730002Y830001D02*
D03*
X720002Y810001D02*
D03*
X730002Y790001D02*
D03*
X720002Y770001D02*
D03*
X730002Y750001D02*
D03*
X720002Y730001D02*
D03*
X730002Y710001D02*
D03*
X720002Y690001D02*
D03*
X730002Y670001D02*
D03*
X720002Y650001D02*
D03*
X730002Y630001D02*
D03*
X720002Y610001D02*
D03*
X730002Y590001D02*
D03*
X720002Y570001D02*
D03*
X730002Y550001D02*
D03*
X720002Y530001D02*
D03*
X730002Y510001D02*
D03*
X720002Y490001D02*
D03*
X730002Y470001D02*
D03*
X720002Y450001D02*
D03*
X730002Y430001D02*
D03*
X720002Y410001D02*
D03*
X730002Y390001D02*
D03*
X720002Y370001D02*
D03*
X730002Y350001D02*
D03*
X720002Y330001D02*
D03*
X730002Y310001D02*
D03*
X720002Y290001D02*
D03*
X730002Y270001D02*
D03*
X720002Y250001D02*
D03*
X730002Y230001D02*
D03*
X720002Y210001D02*
D03*
X730002Y190001D02*
D03*
X720002Y170001D02*
D03*
X730002Y150001D02*
D03*
X720002Y130001D02*
D03*
X730002Y110001D02*
D03*
X720002Y90001D02*
D03*
X730002Y70001D02*
D03*
X720002Y50001D02*
D03*
X730002Y30001D02*
D03*
X720002Y10001D02*
D03*
X700002Y1090001D02*
D03*
X710002Y1070001D02*
D03*
X700002Y1050001D02*
D03*
X710002Y1030001D02*
D03*
X700002Y1010001D02*
D03*
X710002Y990001D02*
D03*
X700002Y970001D02*
D03*
X710002Y950001D02*
D03*
X700002Y930001D02*
D03*
X710002Y910001D02*
D03*
X700002Y890001D02*
D03*
X710002Y870001D02*
D03*
X700002Y850001D02*
D03*
X710002Y830001D02*
D03*
X700002Y810001D02*
D03*
X710002Y790001D02*
D03*
X700002Y770001D02*
D03*
X710002Y750001D02*
D03*
X700002Y730001D02*
D03*
X710002Y710001D02*
D03*
X700002Y690001D02*
D03*
X710002Y670001D02*
D03*
X700002Y650001D02*
D03*
X710002Y630001D02*
D03*
X700002Y610001D02*
D03*
X710002Y590001D02*
D03*
X700002Y570001D02*
D03*
X710002Y550001D02*
D03*
X700002Y530001D02*
D03*
X710002Y510001D02*
D03*
X700002Y490001D02*
D03*
X710002Y470001D02*
D03*
X700002Y450001D02*
D03*
X710002Y430001D02*
D03*
X700002Y410001D02*
D03*
X710002Y390001D02*
D03*
X700002Y370001D02*
D03*
X710002Y350001D02*
D03*
X700002Y330001D02*
D03*
X710002Y310001D02*
D03*
X700002Y290001D02*
D03*
X710002Y270001D02*
D03*
X700002Y250001D02*
D03*
X710002Y230001D02*
D03*
X700002Y210001D02*
D03*
X710002Y190001D02*
D03*
X700002Y170001D02*
D03*
X710002Y150001D02*
D03*
X700002Y130001D02*
D03*
X710002Y110001D02*
D03*
X700002Y90001D02*
D03*
X710002Y70001D02*
D03*
X700002Y50001D02*
D03*
X710002Y30001D02*
D03*
X700002Y10001D02*
D03*
X680002Y1290001D02*
D03*
Y1130001D02*
D03*
X690002Y1110001D02*
D03*
X680002Y1090001D02*
D03*
X690002Y1070001D02*
D03*
X680002Y1050001D02*
D03*
X690002Y1030001D02*
D03*
X680002Y1010001D02*
D03*
X690002Y990001D02*
D03*
X680002Y970001D02*
D03*
X690002Y950001D02*
D03*
X680002Y930001D02*
D03*
X690002Y910001D02*
D03*
X680002Y890001D02*
D03*
X690002Y870001D02*
D03*
X680002Y850001D02*
D03*
X690002Y830001D02*
D03*
X680002Y810001D02*
D03*
X690002Y790001D02*
D03*
X680002Y770001D02*
D03*
X690002Y750001D02*
D03*
X680002Y730001D02*
D03*
X690002Y710001D02*
D03*
X680002Y690001D02*
D03*
X690002Y670001D02*
D03*
X680002Y650001D02*
D03*
X690002Y630001D02*
D03*
X680002Y610001D02*
D03*
X690002Y590001D02*
D03*
X680002Y570001D02*
D03*
X690002Y550001D02*
D03*
X680002Y530001D02*
D03*
X690002Y510001D02*
D03*
X680002Y490001D02*
D03*
X690002Y470001D02*
D03*
X680002Y450001D02*
D03*
X690002Y430001D02*
D03*
X680002Y410001D02*
D03*
X690002Y390001D02*
D03*
X680002Y370001D02*
D03*
X690002Y350001D02*
D03*
X680002Y330001D02*
D03*
X690002Y310001D02*
D03*
X680002Y290001D02*
D03*
X690002Y270001D02*
D03*
X680002Y250001D02*
D03*
X690002Y230001D02*
D03*
X680002Y210001D02*
D03*
X690002Y190001D02*
D03*
X680002Y170001D02*
D03*
X690002Y150001D02*
D03*
X680002Y130001D02*
D03*
X690002Y110001D02*
D03*
X680002Y90001D02*
D03*
X690002Y70001D02*
D03*
X680002Y50001D02*
D03*
X690002Y30001D02*
D03*
X680002Y10001D02*
D03*
X670002Y1230001D02*
D03*
X660002Y1210001D02*
D03*
X670002Y1190001D02*
D03*
Y1150001D02*
D03*
Y1110001D02*
D03*
X660002Y1090001D02*
D03*
X670002Y1070001D02*
D03*
X660002Y1050001D02*
D03*
X670002Y1030001D02*
D03*
X660002Y1010001D02*
D03*
X670002Y990001D02*
D03*
X660002Y970001D02*
D03*
X670002Y950001D02*
D03*
X660002Y930001D02*
D03*
X670002Y910001D02*
D03*
X660002Y890001D02*
D03*
X670002Y870001D02*
D03*
X660002Y850001D02*
D03*
X670002Y830001D02*
D03*
X660002Y810001D02*
D03*
X670002Y790001D02*
D03*
X660002Y770001D02*
D03*
X670002Y750001D02*
D03*
X660002Y730001D02*
D03*
X670002Y710001D02*
D03*
X660002Y690001D02*
D03*
X670002Y670001D02*
D03*
Y630001D02*
D03*
X660002Y610001D02*
D03*
X670002Y590001D02*
D03*
X660002Y570001D02*
D03*
X670002Y550001D02*
D03*
X660002Y530001D02*
D03*
X670002Y510001D02*
D03*
X660002Y490001D02*
D03*
X670002Y470001D02*
D03*
X660002Y450001D02*
D03*
X670002Y430001D02*
D03*
X660002Y410001D02*
D03*
X670002Y390001D02*
D03*
X660002Y370001D02*
D03*
X670002Y350001D02*
D03*
X660002Y330001D02*
D03*
X670002Y310001D02*
D03*
X660002Y290001D02*
D03*
X670002Y270001D02*
D03*
X660002Y250001D02*
D03*
X670002Y230001D02*
D03*
X660002Y210001D02*
D03*
X670002Y190001D02*
D03*
X660002Y170001D02*
D03*
X670002Y150001D02*
D03*
Y110001D02*
D03*
X660002Y90001D02*
D03*
X670002Y70001D02*
D03*
X660002Y50001D02*
D03*
X670002Y30001D02*
D03*
X660002Y10001D02*
D03*
X600002Y1170001D02*
D03*
X610002Y1150001D02*
D03*
X600002Y1130001D02*
D03*
X610002Y1110001D02*
D03*
X600002Y1090001D02*
D03*
X610002Y1070001D02*
D03*
X600002Y1050001D02*
D03*
X610002Y1030001D02*
D03*
X600002Y1010001D02*
D03*
X610002Y990001D02*
D03*
X600002Y970001D02*
D03*
X610002Y950001D02*
D03*
X600002Y930001D02*
D03*
X610002Y910001D02*
D03*
X600002Y890001D02*
D03*
X610002Y870001D02*
D03*
X600002Y850001D02*
D03*
X610002Y830001D02*
D03*
X600002Y810001D02*
D03*
X610002Y790001D02*
D03*
X600002Y770001D02*
D03*
X610002Y750001D02*
D03*
X600002Y730001D02*
D03*
X610002Y710001D02*
D03*
X600002Y690001D02*
D03*
X610002Y670001D02*
D03*
X600002Y650001D02*
D03*
X610002Y630001D02*
D03*
X600002Y610001D02*
D03*
X610002Y590001D02*
D03*
X600002Y570001D02*
D03*
X610002Y550001D02*
D03*
X600002Y530001D02*
D03*
X610002Y510001D02*
D03*
X600002Y490001D02*
D03*
X610002Y470001D02*
D03*
X600002Y450001D02*
D03*
X610002Y430001D02*
D03*
X600002Y410001D02*
D03*
X610002Y390001D02*
D03*
X600002Y370001D02*
D03*
X610002Y350001D02*
D03*
X600002Y330001D02*
D03*
X610002Y310001D02*
D03*
X600002Y290001D02*
D03*
X610002Y270001D02*
D03*
X600002Y250001D02*
D03*
X610002Y230001D02*
D03*
X600002Y210001D02*
D03*
X610002Y190001D02*
D03*
X600002Y170001D02*
D03*
X610002Y150001D02*
D03*
X600002Y130001D02*
D03*
X610002Y110001D02*
D03*
X600002Y90001D02*
D03*
X610002Y70001D02*
D03*
X600002Y50001D02*
D03*
X610002Y30001D02*
D03*
X600002Y10001D02*
D03*
X590002Y1150001D02*
D03*
X580002Y1130001D02*
D03*
X590002Y1110001D02*
D03*
X580002Y1090001D02*
D03*
X590002Y1070001D02*
D03*
X580002Y1050001D02*
D03*
X590002Y1030001D02*
D03*
X580002Y1010001D02*
D03*
X590002Y990001D02*
D03*
X580002Y970001D02*
D03*
X590002Y950001D02*
D03*
X580002Y930001D02*
D03*
X590002Y910001D02*
D03*
X580002Y890001D02*
D03*
X590002Y870001D02*
D03*
X580002Y850001D02*
D03*
X590002Y830001D02*
D03*
X580002Y810001D02*
D03*
X590002Y790001D02*
D03*
X580002Y770001D02*
D03*
X590002Y750001D02*
D03*
X580002Y730001D02*
D03*
X590002Y710001D02*
D03*
X580002Y690001D02*
D03*
X590002Y670001D02*
D03*
X580002Y650001D02*
D03*
X590002Y630001D02*
D03*
X580002Y610001D02*
D03*
X590002Y590001D02*
D03*
X580002Y570001D02*
D03*
X590002Y550001D02*
D03*
X580002Y530001D02*
D03*
X590002Y510001D02*
D03*
X580002Y490001D02*
D03*
X590002Y470001D02*
D03*
X580002Y450001D02*
D03*
X590002Y430001D02*
D03*
X580002Y410001D02*
D03*
X590002Y390001D02*
D03*
X580002Y370001D02*
D03*
X590002Y350001D02*
D03*
X580002Y330001D02*
D03*
X590002Y310001D02*
D03*
X580002Y290001D02*
D03*
X590002Y270001D02*
D03*
X580002Y250001D02*
D03*
X590002Y230001D02*
D03*
X580002Y210001D02*
D03*
X590002Y190001D02*
D03*
X580002Y170001D02*
D03*
X590002Y150001D02*
D03*
X580002Y130001D02*
D03*
X590002Y110001D02*
D03*
X580002Y90001D02*
D03*
X590002Y70001D02*
D03*
X570002Y1150001D02*
D03*
X560002Y1130001D02*
D03*
X570002Y1110001D02*
D03*
X560002Y1090001D02*
D03*
X570002Y1070001D02*
D03*
X560002Y1050001D02*
D03*
X570002Y1030001D02*
D03*
X560002Y1010001D02*
D03*
X570002Y990001D02*
D03*
X560002Y970001D02*
D03*
X570002Y910001D02*
D03*
X560002Y890001D02*
D03*
X570002Y870001D02*
D03*
X560002Y850001D02*
D03*
X570002Y830001D02*
D03*
X560002Y810001D02*
D03*
X570002Y790001D02*
D03*
X560002Y770001D02*
D03*
X570002Y750001D02*
D03*
X560002Y730001D02*
D03*
X570002Y710001D02*
D03*
X560002Y690001D02*
D03*
X570002Y670001D02*
D03*
X560002Y650001D02*
D03*
X570002Y630001D02*
D03*
X560002Y610001D02*
D03*
X570002Y590001D02*
D03*
X560002Y570001D02*
D03*
X570002Y550001D02*
D03*
X560002Y530001D02*
D03*
X570002Y510001D02*
D03*
X560002Y490001D02*
D03*
X570002Y470001D02*
D03*
X560002Y450001D02*
D03*
X570002Y430001D02*
D03*
X560002Y410001D02*
D03*
X570002Y390001D02*
D03*
X560002Y370001D02*
D03*
X570002Y350001D02*
D03*
X560002Y330001D02*
D03*
X570002Y310001D02*
D03*
X560002Y290001D02*
D03*
X570002Y270001D02*
D03*
X560002Y250001D02*
D03*
X570002Y230001D02*
D03*
X560002Y210001D02*
D03*
X570002Y190001D02*
D03*
X560002Y170001D02*
D03*
X570002Y150001D02*
D03*
X560002Y130001D02*
D03*
X570002Y110001D02*
D03*
X560002Y90001D02*
D03*
X500002Y890001D02*
D03*
X490002Y1150001D02*
D03*
X480002Y1130001D02*
D03*
X490002Y1110001D02*
D03*
X480002Y1090001D02*
D03*
X490002Y1070001D02*
D03*
X480002Y1050001D02*
D03*
X490002Y1030001D02*
D03*
X480002Y1010001D02*
D03*
X490002Y990001D02*
D03*
X480002Y970001D02*
D03*
X490002Y950001D02*
D03*
X480002Y930001D02*
D03*
X490002Y870001D02*
D03*
Y830001D02*
D03*
Y790001D02*
D03*
Y750001D02*
D03*
Y710001D02*
D03*
Y670001D02*
D03*
Y630001D02*
D03*
Y590001D02*
D03*
Y550001D02*
D03*
Y510001D02*
D03*
Y470001D02*
D03*
Y430001D02*
D03*
Y390001D02*
D03*
Y350001D02*
D03*
Y310001D02*
D03*
Y270001D02*
D03*
Y230001D02*
D03*
X480002Y170001D02*
D03*
X490002Y150001D02*
D03*
X480002Y130001D02*
D03*
X490002Y110001D02*
D03*
X480002Y90001D02*
D03*
X470001Y1150001D02*
D03*
X460001Y1130001D02*
D03*
X470001Y1110001D02*
D03*
X460001Y1090001D02*
D03*
X470001Y1070001D02*
D03*
X460001Y1050001D02*
D03*
X470001Y1030001D02*
D03*
X460001Y1010001D02*
D03*
X470001Y990001D02*
D03*
X460001Y970001D02*
D03*
X470001Y950001D02*
D03*
X460001Y930001D02*
D03*
Y890001D02*
D03*
Y810001D02*
D03*
Y770001D02*
D03*
Y730001D02*
D03*
Y690001D02*
D03*
Y650001D02*
D03*
Y610001D02*
D03*
Y570001D02*
D03*
Y530001D02*
D03*
Y490001D02*
D03*
Y450001D02*
D03*
Y410001D02*
D03*
Y370001D02*
D03*
Y330001D02*
D03*
Y290001D02*
D03*
Y250001D02*
D03*
X470001Y150001D02*
D03*
X460001Y130001D02*
D03*
X470001Y110001D02*
D03*
X460001Y90001D02*
D03*
X440001Y1170001D02*
D03*
X450001Y1150001D02*
D03*
X440001Y1130001D02*
D03*
X450001Y1110001D02*
D03*
X440001Y1090001D02*
D03*
X450001Y1070001D02*
D03*
X440001Y1050001D02*
D03*
X450001Y1030001D02*
D03*
X440001Y1010001D02*
D03*
X450001Y990001D02*
D03*
X440001Y970001D02*
D03*
X450001Y950001D02*
D03*
X440001Y930001D02*
D03*
X450001Y910001D02*
D03*
X440001Y890001D02*
D03*
X450001Y870001D02*
D03*
X440001Y850001D02*
D03*
Y810001D02*
D03*
X450001Y790001D02*
D03*
X440001Y770001D02*
D03*
X450001Y750001D02*
D03*
X440001Y730001D02*
D03*
X450001Y710001D02*
D03*
X440001Y690001D02*
D03*
X450001Y670001D02*
D03*
X440001Y650001D02*
D03*
X450001Y630001D02*
D03*
X440001Y610001D02*
D03*
X450001Y590001D02*
D03*
X440001Y570001D02*
D03*
X450001Y550001D02*
D03*
X440001Y530001D02*
D03*
X450001Y510001D02*
D03*
X440001Y490001D02*
D03*
X450001Y470001D02*
D03*
X440001Y450001D02*
D03*
X450001Y430001D02*
D03*
X440001Y410001D02*
D03*
X450001Y390001D02*
D03*
X440001Y370001D02*
D03*
X450001Y350001D02*
D03*
X440001Y330001D02*
D03*
X450001Y310001D02*
D03*
X440001Y290001D02*
D03*
X450001Y270001D02*
D03*
X440001Y250001D02*
D03*
X450001Y230001D02*
D03*
Y190001D02*
D03*
Y150001D02*
D03*
X440001Y130001D02*
D03*
X450001Y110001D02*
D03*
X440001Y90001D02*
D03*
X450001Y70001D02*
D03*
X440001Y50001D02*
D03*
X450001Y30001D02*
D03*
X440001Y10001D02*
D03*
X380001Y1250001D02*
D03*
X390001Y1230001D02*
D03*
X380001Y1210001D02*
D03*
X390001Y1190001D02*
D03*
X380001Y1170001D02*
D03*
Y1130001D02*
D03*
X390001Y1110001D02*
D03*
X380001Y1090001D02*
D03*
X390001Y1070001D02*
D03*
X380001Y1050001D02*
D03*
X390001Y1030001D02*
D03*
X380001Y1010001D02*
D03*
X390001Y990001D02*
D03*
X380001Y970001D02*
D03*
X390001Y950001D02*
D03*
X380001Y930001D02*
D03*
X390001Y910001D02*
D03*
X380001Y890001D02*
D03*
X390001Y870001D02*
D03*
X380001Y850001D02*
D03*
X390001Y830001D02*
D03*
X380001Y810001D02*
D03*
X390001Y790001D02*
D03*
X380001Y770001D02*
D03*
X390001Y750001D02*
D03*
X380001Y730001D02*
D03*
X390001Y710001D02*
D03*
X380001Y690001D02*
D03*
Y650001D02*
D03*
Y610001D02*
D03*
X390001Y590001D02*
D03*
X380001Y570001D02*
D03*
X390001Y550001D02*
D03*
X380001Y530001D02*
D03*
X390001Y510001D02*
D03*
X380001Y490001D02*
D03*
X390001Y470001D02*
D03*
X380001Y450001D02*
D03*
X390001Y430001D02*
D03*
X380001Y410001D02*
D03*
X390001Y390001D02*
D03*
X380001Y370001D02*
D03*
X390001Y350001D02*
D03*
X380001Y330001D02*
D03*
X390001Y310001D02*
D03*
X380001Y290001D02*
D03*
X390001Y270001D02*
D03*
X380001Y250001D02*
D03*
X390001Y230001D02*
D03*
X380001Y210001D02*
D03*
X390001Y190001D02*
D03*
X380001Y170001D02*
D03*
Y130001D02*
D03*
Y90001D02*
D03*
X390001Y70001D02*
D03*
X380001Y50001D02*
D03*
X390001Y30001D02*
D03*
X380001Y10001D02*
D03*
X360001Y1290001D02*
D03*
X370001Y1270001D02*
D03*
Y1110001D02*
D03*
X360001Y1090001D02*
D03*
X370001Y1070001D02*
D03*
X360001Y1050001D02*
D03*
X370001Y1030001D02*
D03*
X360001Y1010001D02*
D03*
X370001Y990001D02*
D03*
X360001Y970001D02*
D03*
X370001Y950001D02*
D03*
X360001Y930001D02*
D03*
X370001Y910001D02*
D03*
X360001Y890001D02*
D03*
X370001Y870001D02*
D03*
X360001Y850001D02*
D03*
X370001Y830001D02*
D03*
X360001Y810001D02*
D03*
X370001Y790001D02*
D03*
X360001Y770001D02*
D03*
X370001Y750001D02*
D03*
X360001Y730001D02*
D03*
X370001Y710001D02*
D03*
X360001Y690001D02*
D03*
X370001Y670001D02*
D03*
X360001Y650001D02*
D03*
X370001Y630001D02*
D03*
X360001Y610001D02*
D03*
X370001Y590001D02*
D03*
X360001Y570001D02*
D03*
X370001Y550001D02*
D03*
X360001Y530001D02*
D03*
X370001Y510001D02*
D03*
X360001Y490001D02*
D03*
X370001Y470001D02*
D03*
X360001Y450001D02*
D03*
X370001Y430001D02*
D03*
X360001Y410001D02*
D03*
X370001Y390001D02*
D03*
X360001Y370001D02*
D03*
X370001Y350001D02*
D03*
X360001Y330001D02*
D03*
X370001Y310001D02*
D03*
X360001Y290001D02*
D03*
X370001Y270001D02*
D03*
X360001Y250001D02*
D03*
X370001Y230001D02*
D03*
X360001Y210001D02*
D03*
X370001Y190001D02*
D03*
X360001Y170001D02*
D03*
X370001Y150001D02*
D03*
X360001Y130001D02*
D03*
X370001Y110001D02*
D03*
X360001Y90001D02*
D03*
X370001Y70001D02*
D03*
X360001Y50001D02*
D03*
X370001Y30001D02*
D03*
X360001Y10001D02*
D03*
X340001Y1330001D02*
D03*
X350001Y1310001D02*
D03*
Y1070001D02*
D03*
X340001Y1050001D02*
D03*
X350001Y1030001D02*
D03*
X340001Y1010001D02*
D03*
X350001Y990001D02*
D03*
X340001Y970001D02*
D03*
X350001Y950001D02*
D03*
X340001Y930001D02*
D03*
X350001Y910001D02*
D03*
X340001Y890001D02*
D03*
X350001Y870001D02*
D03*
X340001Y850001D02*
D03*
X350001Y830001D02*
D03*
X340001Y810001D02*
D03*
X350001Y790001D02*
D03*
X340001Y770001D02*
D03*
X350001Y750001D02*
D03*
X340001Y730001D02*
D03*
X350001Y710001D02*
D03*
X340001Y690001D02*
D03*
X350001Y670001D02*
D03*
X340001Y650001D02*
D03*
X350001Y630001D02*
D03*
X340001Y610001D02*
D03*
X350001Y590001D02*
D03*
X340001Y570001D02*
D03*
X350001Y550001D02*
D03*
X340001Y530001D02*
D03*
X350001Y510001D02*
D03*
X340001Y490001D02*
D03*
X350001Y470001D02*
D03*
X340001Y450001D02*
D03*
X350001Y430001D02*
D03*
X340001Y410001D02*
D03*
X350001Y390001D02*
D03*
X340001Y370001D02*
D03*
X350001Y350001D02*
D03*
X340001Y330001D02*
D03*
X350001Y310001D02*
D03*
X340001Y290001D02*
D03*
X350001Y270001D02*
D03*
X340001Y250001D02*
D03*
X350001Y230001D02*
D03*
X340001Y210001D02*
D03*
X350001Y190001D02*
D03*
X340001Y170001D02*
D03*
X350001Y150001D02*
D03*
X340001Y130001D02*
D03*
X350001Y110001D02*
D03*
X340001Y90001D02*
D03*
X350001Y70001D02*
D03*
X340001Y50001D02*
D03*
X350001Y30001D02*
D03*
X340001Y10001D02*
D03*
X320001Y1210001D02*
D03*
X330001Y1070001D02*
D03*
X320001Y1050001D02*
D03*
X330001Y1030001D02*
D03*
X320001Y1010001D02*
D03*
X330001Y990001D02*
D03*
X320001Y970001D02*
D03*
X330001Y950001D02*
D03*
X320001Y930001D02*
D03*
X330001Y910001D02*
D03*
X320001Y890001D02*
D03*
X330001Y870001D02*
D03*
X320001Y850001D02*
D03*
X330001Y830001D02*
D03*
X320001Y810001D02*
D03*
X330001Y790001D02*
D03*
X320001Y770001D02*
D03*
X330001Y750001D02*
D03*
X320001Y730001D02*
D03*
X330001Y710001D02*
D03*
X320001Y690001D02*
D03*
X330001Y670001D02*
D03*
X320001Y650001D02*
D03*
X330001Y630001D02*
D03*
X320001Y610001D02*
D03*
X330001Y590001D02*
D03*
X320001Y570001D02*
D03*
X330001Y550001D02*
D03*
X320001Y530001D02*
D03*
X330001Y510001D02*
D03*
X320001Y490001D02*
D03*
X330001Y470001D02*
D03*
X320001Y450001D02*
D03*
X330001Y430001D02*
D03*
X320001Y410001D02*
D03*
X330001Y390001D02*
D03*
X320001Y370001D02*
D03*
X330001Y350001D02*
D03*
X320001Y330001D02*
D03*
X330001Y310001D02*
D03*
X320001Y290001D02*
D03*
X330001Y270001D02*
D03*
X320001Y250001D02*
D03*
X330001Y230001D02*
D03*
X320001Y210001D02*
D03*
X330001Y190001D02*
D03*
X320001Y170001D02*
D03*
X330001Y150001D02*
D03*
X320001Y130001D02*
D03*
X330001Y110001D02*
D03*
X320001Y90001D02*
D03*
X330001Y70001D02*
D03*
X320001Y50001D02*
D03*
X330001Y30001D02*
D03*
X320001Y10001D02*
D03*
X310002Y1350001D02*
D03*
X300002Y1250001D02*
D03*
X310002Y1230001D02*
D03*
Y1190001D02*
D03*
Y1150001D02*
D03*
X300002Y1050001D02*
D03*
X310002Y1030001D02*
D03*
X300002Y1010001D02*
D03*
X310002Y990001D02*
D03*
X300002Y970001D02*
D03*
X310002Y950001D02*
D03*
X300002Y930001D02*
D03*
X310002Y910001D02*
D03*
X300002Y890001D02*
D03*
X310002Y870001D02*
D03*
X300002Y850001D02*
D03*
X310002Y830001D02*
D03*
X300002Y810001D02*
D03*
X310002Y790001D02*
D03*
X300002Y770001D02*
D03*
X310002Y750001D02*
D03*
X300002Y730001D02*
D03*
X310002Y710001D02*
D03*
X300002Y690001D02*
D03*
X310002Y670001D02*
D03*
X300002Y650001D02*
D03*
X310002Y630001D02*
D03*
X300002Y610001D02*
D03*
X310002Y590001D02*
D03*
X300002Y570001D02*
D03*
X310002Y550001D02*
D03*
X300002Y530001D02*
D03*
X310002Y510001D02*
D03*
X300002Y490001D02*
D03*
X310002Y470001D02*
D03*
X300002Y450001D02*
D03*
X310002Y430001D02*
D03*
X300002Y410001D02*
D03*
X310002Y390001D02*
D03*
X300002Y370001D02*
D03*
X310002Y350001D02*
D03*
X300002Y330001D02*
D03*
X310002Y310001D02*
D03*
X300002Y290001D02*
D03*
X310002Y270001D02*
D03*
X300002Y250001D02*
D03*
X310002Y230001D02*
D03*
X300002Y210001D02*
D03*
X310002Y190001D02*
D03*
X300002Y170001D02*
D03*
X310002Y150001D02*
D03*
X300002Y130001D02*
D03*
X310002Y110001D02*
D03*
X300002Y90001D02*
D03*
X310002Y70001D02*
D03*
X300002Y50001D02*
D03*
X310002Y30001D02*
D03*
X300002Y10001D02*
D03*
X280001Y1370001D02*
D03*
Y1290001D02*
D03*
X290002Y1270001D02*
D03*
Y1030001D02*
D03*
X280001Y1010001D02*
D03*
X290002Y990001D02*
D03*
X280001Y970001D02*
D03*
X290002Y950001D02*
D03*
X280001Y930001D02*
D03*
X290002Y910001D02*
D03*
X280001Y890001D02*
D03*
X290002Y870001D02*
D03*
X280001Y850001D02*
D03*
X290002Y830001D02*
D03*
X280001Y810001D02*
D03*
X290002Y790001D02*
D03*
X280001Y770001D02*
D03*
X290002Y750001D02*
D03*
X280001Y730001D02*
D03*
X290002Y710001D02*
D03*
X280001Y690001D02*
D03*
X290002Y670001D02*
D03*
X280001Y650001D02*
D03*
X290002Y630001D02*
D03*
X280001Y610001D02*
D03*
X290002Y590001D02*
D03*
X280001Y570001D02*
D03*
X290002Y550001D02*
D03*
X280001Y530001D02*
D03*
X290002Y510001D02*
D03*
X280001Y490001D02*
D03*
X290002Y470001D02*
D03*
X280001Y450001D02*
D03*
X290002Y430001D02*
D03*
X280001Y410001D02*
D03*
X290002Y390001D02*
D03*
X280001Y370001D02*
D03*
X290002Y350001D02*
D03*
X280001Y330001D02*
D03*
X290002Y310001D02*
D03*
X280001Y290001D02*
D03*
X290002Y270001D02*
D03*
X280001Y250001D02*
D03*
X290002Y230001D02*
D03*
X280001Y210001D02*
D03*
X290002Y190001D02*
D03*
X280001Y170001D02*
D03*
X290002Y150001D02*
D03*
X280001Y130001D02*
D03*
X290002Y110001D02*
D03*
X280001Y90001D02*
D03*
X290002Y70001D02*
D03*
X280001Y50001D02*
D03*
X290002Y30001D02*
D03*
X280001Y10001D02*
D03*
X260001Y1370001D02*
D03*
Y1290001D02*
D03*
X270001Y1110001D02*
D03*
Y1030001D02*
D03*
X260001Y1010001D02*
D03*
X270001Y990001D02*
D03*
X260001Y970001D02*
D03*
X270001Y950001D02*
D03*
X260001Y930001D02*
D03*
X270001Y910001D02*
D03*
X260001Y890001D02*
D03*
X270001Y870001D02*
D03*
X260001Y850001D02*
D03*
X270001Y830001D02*
D03*
X260001Y810001D02*
D03*
X270001Y790001D02*
D03*
X260001Y770001D02*
D03*
X270001Y750001D02*
D03*
X260001Y730001D02*
D03*
X270001Y710001D02*
D03*
X260001Y690001D02*
D03*
X270001Y670001D02*
D03*
X260001Y650001D02*
D03*
X270001Y630001D02*
D03*
X260001Y610001D02*
D03*
X270001Y590001D02*
D03*
X260001Y570001D02*
D03*
X270001Y550001D02*
D03*
X260001Y530001D02*
D03*
X270001Y510001D02*
D03*
X260001Y490001D02*
D03*
X270001Y470001D02*
D03*
X260001Y450001D02*
D03*
X270001Y430001D02*
D03*
X260001Y410001D02*
D03*
X270001Y390001D02*
D03*
X260001Y370001D02*
D03*
X270001Y350001D02*
D03*
X260001Y330001D02*
D03*
X270001Y310001D02*
D03*
X260001Y290001D02*
D03*
X270001Y270001D02*
D03*
X260001Y250001D02*
D03*
X270001Y230001D02*
D03*
X260001Y210001D02*
D03*
X270001Y190001D02*
D03*
X260001Y170001D02*
D03*
X270001Y150001D02*
D03*
X260001Y130001D02*
D03*
X270001Y110001D02*
D03*
X260001Y90001D02*
D03*
X270001Y70001D02*
D03*
Y30001D02*
D03*
X250001Y1310001D02*
D03*
X240001Y1090001D02*
D03*
Y1010001D02*
D03*
X250001Y990001D02*
D03*
X240001Y970001D02*
D03*
X250001Y950001D02*
D03*
X240001Y930001D02*
D03*
X250001Y910001D02*
D03*
X240001Y890001D02*
D03*
X250001Y870001D02*
D03*
Y830001D02*
D03*
X240001Y810001D02*
D03*
X250001Y790001D02*
D03*
X240001Y770001D02*
D03*
X250001Y750001D02*
D03*
X240001Y730001D02*
D03*
X250001Y710001D02*
D03*
X240001Y690001D02*
D03*
X250001Y670001D02*
D03*
X240001Y650001D02*
D03*
X250001Y630001D02*
D03*
X240001Y610001D02*
D03*
X250001Y590001D02*
D03*
X240001Y570001D02*
D03*
X250001Y550001D02*
D03*
X240001Y530001D02*
D03*
X250001Y510001D02*
D03*
X240001Y490001D02*
D03*
X250001Y470001D02*
D03*
X240001Y450001D02*
D03*
X250001Y430001D02*
D03*
X240001Y410001D02*
D03*
X250001Y390001D02*
D03*
X240001Y370001D02*
D03*
X250001Y350001D02*
D03*
X240001Y330001D02*
D03*
X250001Y310001D02*
D03*
X240001Y290001D02*
D03*
X250001Y270001D02*
D03*
X240001Y250001D02*
D03*
X250001Y230001D02*
D03*
X240001Y210001D02*
D03*
X250001Y190001D02*
D03*
X240001Y170001D02*
D03*
X250001Y150001D02*
D03*
X240001Y130001D02*
D03*
X250001Y110001D02*
D03*
X240001Y90001D02*
D03*
X220001Y1090001D02*
D03*
X230001Y990001D02*
D03*
Y950001D02*
D03*
Y910001D02*
D03*
Y830001D02*
D03*
X220001Y810001D02*
D03*
X230001Y790001D02*
D03*
Y750001D02*
D03*
Y710001D02*
D03*
Y670001D02*
D03*
Y630001D02*
D03*
Y590001D02*
D03*
Y550001D02*
D03*
Y510001D02*
D03*
Y470001D02*
D03*
Y430001D02*
D03*
Y390001D02*
D03*
Y350001D02*
D03*
Y310001D02*
D03*
Y270001D02*
D03*
Y230001D02*
D03*
Y190001D02*
D03*
Y150001D02*
D03*
Y110001D02*
D03*
X220001Y50001D02*
D03*
Y10001D02*
D03*
X200001Y1090001D02*
D03*
X180001D02*
D03*
Y850001D02*
D03*
Y810001D02*
D03*
Y50001D02*
D03*
Y10001D02*
D03*
X160001Y1010001D02*
D03*
X170001Y990001D02*
D03*
X160001Y970001D02*
D03*
X170001Y950001D02*
D03*
X160001Y930001D02*
D03*
X170001Y910001D02*
D03*
X160001Y890001D02*
D03*
X170001Y870001D02*
D03*
X160001Y850001D02*
D03*
Y810001D02*
D03*
X170001Y790001D02*
D03*
X160001Y770001D02*
D03*
X170001Y750001D02*
D03*
X160001Y730001D02*
D03*
X170001Y710001D02*
D03*
X160001Y690001D02*
D03*
X170001Y670001D02*
D03*
X160001Y650001D02*
D03*
X170001Y630001D02*
D03*
X160001Y610001D02*
D03*
X170001Y590001D02*
D03*
X160001Y570001D02*
D03*
X170001Y550001D02*
D03*
X160001Y530001D02*
D03*
X170001Y510001D02*
D03*
X160001Y490001D02*
D03*
X170001Y470001D02*
D03*
X160001Y450001D02*
D03*
X170001Y430001D02*
D03*
X160001Y410001D02*
D03*
X170001Y390001D02*
D03*
X160001Y370001D02*
D03*
X170001Y350001D02*
D03*
X160001Y330001D02*
D03*
X170001Y310001D02*
D03*
X160001Y290001D02*
D03*
X170001Y270001D02*
D03*
X160001Y250001D02*
D03*
X170001Y230001D02*
D03*
X160001Y210001D02*
D03*
X170001Y190001D02*
D03*
X160001Y170001D02*
D03*
X170001Y150001D02*
D03*
X160001Y130001D02*
D03*
X170001Y110001D02*
D03*
X160001Y90001D02*
D03*
X140001Y1370001D02*
D03*
X150001Y1310001D02*
D03*
X140001Y1290001D02*
D03*
Y1010001D02*
D03*
X150001Y990001D02*
D03*
X140001Y970001D02*
D03*
X150001Y950001D02*
D03*
X140001Y930001D02*
D03*
X150001Y910001D02*
D03*
X140001Y890001D02*
D03*
X150001Y870001D02*
D03*
X140001Y850001D02*
D03*
Y810001D02*
D03*
X150001Y790001D02*
D03*
X140001Y770001D02*
D03*
X150001Y750001D02*
D03*
X140001Y730001D02*
D03*
X150001Y710001D02*
D03*
X140001Y690001D02*
D03*
X150001Y670001D02*
D03*
X140001Y650001D02*
D03*
X150001Y630001D02*
D03*
X140001Y610001D02*
D03*
X150001Y590001D02*
D03*
X140001Y570001D02*
D03*
X150001Y550001D02*
D03*
X140001Y530001D02*
D03*
X150001Y510001D02*
D03*
X140001Y490001D02*
D03*
X150001Y470001D02*
D03*
X140001Y450001D02*
D03*
X150001Y430001D02*
D03*
X140001Y410001D02*
D03*
X150001Y390001D02*
D03*
X140001Y370001D02*
D03*
X150001Y350001D02*
D03*
X140001Y330001D02*
D03*
X150001Y310001D02*
D03*
X140001Y290001D02*
D03*
X150001Y270001D02*
D03*
X140001Y250001D02*
D03*
X150001Y230001D02*
D03*
X140001Y210001D02*
D03*
X150001Y190001D02*
D03*
X140001Y170001D02*
D03*
X150001Y150001D02*
D03*
X140001Y130001D02*
D03*
X150001Y110001D02*
D03*
X140001Y90001D02*
D03*
X120001Y1370001D02*
D03*
Y1290001D02*
D03*
X130001Y1110001D02*
D03*
Y1030001D02*
D03*
X120001Y1010001D02*
D03*
X130001Y990001D02*
D03*
X120001Y970001D02*
D03*
X130001Y950001D02*
D03*
X120001Y930001D02*
D03*
X130001Y910001D02*
D03*
X120001Y890001D02*
D03*
X130001Y870001D02*
D03*
X120001Y850001D02*
D03*
X130001Y750001D02*
D03*
X120001Y730001D02*
D03*
X130001Y710001D02*
D03*
X120001Y690001D02*
D03*
X130001Y670001D02*
D03*
X120001Y650001D02*
D03*
X130001Y630001D02*
D03*
X120001Y610001D02*
D03*
X130001Y590001D02*
D03*
X120001Y570001D02*
D03*
X130001Y550001D02*
D03*
X120001Y530001D02*
D03*
X130001Y510001D02*
D03*
X120001Y490001D02*
D03*
X130001Y470001D02*
D03*
X120001Y450001D02*
D03*
X130001Y430001D02*
D03*
X120001Y410001D02*
D03*
X130001Y390001D02*
D03*
X120001Y370001D02*
D03*
X130001Y350001D02*
D03*
X120001Y330001D02*
D03*
X130001Y310001D02*
D03*
X120001Y290001D02*
D03*
X130001Y270001D02*
D03*
X120001Y250001D02*
D03*
X130001Y230001D02*
D03*
X120001Y210001D02*
D03*
X130001Y190001D02*
D03*
X120001Y170001D02*
D03*
X130001Y150001D02*
D03*
X120001Y130001D02*
D03*
X130001Y110001D02*
D03*
X120001Y90001D02*
D03*
X130001Y70001D02*
D03*
X120001Y50001D02*
D03*
X130001Y30001D02*
D03*
X120001Y10001D02*
D03*
X110001Y1270001D02*
D03*
X100001Y1250001D02*
D03*
Y1050001D02*
D03*
X110001Y1030001D02*
D03*
X100001Y1010001D02*
D03*
X110001Y990001D02*
D03*
X100001Y970001D02*
D03*
X110001Y950001D02*
D03*
X100001Y930001D02*
D03*
X110001Y910001D02*
D03*
X100001Y890001D02*
D03*
X110001Y870001D02*
D03*
X100001Y850001D02*
D03*
X110001Y830001D02*
D03*
X100001Y810001D02*
D03*
Y770001D02*
D03*
X110001Y710001D02*
D03*
X100001Y690001D02*
D03*
X110001Y670001D02*
D03*
X100001Y650001D02*
D03*
X110001Y630001D02*
D03*
X100001Y610001D02*
D03*
X110001Y590001D02*
D03*
X100001Y570001D02*
D03*
X110001Y550001D02*
D03*
X100001Y530001D02*
D03*
X110001Y510001D02*
D03*
X100001Y490001D02*
D03*
X110001Y470001D02*
D03*
X100001Y450001D02*
D03*
X110001Y430001D02*
D03*
X100001Y410001D02*
D03*
X110001Y390001D02*
D03*
X100001Y370001D02*
D03*
X110001Y350001D02*
D03*
X100001Y330001D02*
D03*
X110001Y310001D02*
D03*
X100001Y290001D02*
D03*
X110001Y270001D02*
D03*
X100001Y250001D02*
D03*
X110001Y230001D02*
D03*
X100001Y210001D02*
D03*
X110001Y190001D02*
D03*
X100001Y170001D02*
D03*
X110001Y150001D02*
D03*
X100001Y130001D02*
D03*
X110001Y110001D02*
D03*
X100001Y90001D02*
D03*
X110001Y70001D02*
D03*
X100001Y50001D02*
D03*
X110001Y30001D02*
D03*
X100001Y10001D02*
D03*
X90001Y1350001D02*
D03*
Y1230001D02*
D03*
X80001Y1210001D02*
D03*
X90001Y1190001D02*
D03*
Y1150001D02*
D03*
X80001Y1050001D02*
D03*
X90001Y1030001D02*
D03*
X80001Y1010001D02*
D03*
X90001Y990001D02*
D03*
X80001Y970001D02*
D03*
X90001Y950001D02*
D03*
X80001Y930001D02*
D03*
X90001Y910001D02*
D03*
X80001Y890001D02*
D03*
X90001Y870001D02*
D03*
X80001Y850001D02*
D03*
X90001Y830001D02*
D03*
X80001Y810001D02*
D03*
X90001Y790001D02*
D03*
X80001Y770001D02*
D03*
X90001Y750001D02*
D03*
Y710001D02*
D03*
Y670001D02*
D03*
Y630001D02*
D03*
Y590001D02*
D03*
Y550001D02*
D03*
Y510001D02*
D03*
Y470001D02*
D03*
Y430001D02*
D03*
Y390001D02*
D03*
Y350001D02*
D03*
Y310001D02*
D03*
Y270001D02*
D03*
Y230001D02*
D03*
Y190001D02*
D03*
Y150001D02*
D03*
X80001Y130001D02*
D03*
X90001Y110001D02*
D03*
X80001Y90001D02*
D03*
X90001Y70001D02*
D03*
X80001Y50001D02*
D03*
X90001Y30001D02*
D03*
X80001Y10001D02*
D03*
X60001Y1330001D02*
D03*
Y1090001D02*
D03*
X70001Y1070001D02*
D03*
X60001Y1050001D02*
D03*
X70001Y1030001D02*
D03*
X60001Y1010001D02*
D03*
X70001Y990001D02*
D03*
X60001Y970001D02*
D03*
X70001Y950001D02*
D03*
X60001Y930001D02*
D03*
X70001Y910001D02*
D03*
X60001Y890001D02*
D03*
X70001Y870001D02*
D03*
X60001Y850001D02*
D03*
X70001Y830001D02*
D03*
X60001Y810001D02*
D03*
X70001Y790001D02*
D03*
X60001Y770001D02*
D03*
X70001Y750001D02*
D03*
X60001Y730001D02*
D03*
Y690001D02*
D03*
Y650001D02*
D03*
Y610001D02*
D03*
Y570001D02*
D03*
Y530001D02*
D03*
Y490001D02*
D03*
Y450001D02*
D03*
Y410001D02*
D03*
Y370001D02*
D03*
Y330001D02*
D03*
Y290001D02*
D03*
Y250001D02*
D03*
Y210001D02*
D03*
Y130001D02*
D03*
X70001Y110001D02*
D03*
X60001Y90001D02*
D03*
X70001Y70001D02*
D03*
X60001Y50001D02*
D03*
X70001Y30001D02*
D03*
X60001Y10001D02*
D03*
X50001Y1310001D02*
D03*
X40001Y1290001D02*
D03*
Y1090001D02*
D03*
X50001Y1070001D02*
D03*
X40001Y1050001D02*
D03*
X50001Y1030001D02*
D03*
X40001Y1010001D02*
D03*
X50001Y990001D02*
D03*
X40001Y970001D02*
D03*
X50001Y950001D02*
D03*
X40001Y930001D02*
D03*
X50001Y910001D02*
D03*
X40001Y890001D02*
D03*
X50001Y870001D02*
D03*
X40001Y850001D02*
D03*
X50001Y830001D02*
D03*
X40001Y810001D02*
D03*
X50001Y790001D02*
D03*
X40001Y770001D02*
D03*
X50001Y750001D02*
D03*
X40001Y730001D02*
D03*
X50001Y710001D02*
D03*
X40001Y690001D02*
D03*
X50001Y670001D02*
D03*
X40001Y650001D02*
D03*
X50001Y630001D02*
D03*
X40001Y610001D02*
D03*
X50001Y590001D02*
D03*
X40001Y570001D02*
D03*
X50001Y550001D02*
D03*
X40001Y530001D02*
D03*
X50001Y510001D02*
D03*
X40001Y490001D02*
D03*
X50001Y470001D02*
D03*
X40001Y450001D02*
D03*
X50001Y430001D02*
D03*
X40001Y410001D02*
D03*
X50001Y390001D02*
D03*
X40001Y370001D02*
D03*
X50001Y350001D02*
D03*
X40001Y330001D02*
D03*
X50001Y310001D02*
D03*
X40001Y290001D02*
D03*
X50001Y270001D02*
D03*
X40001Y250001D02*
D03*
X50001Y230001D02*
D03*
X40001Y210001D02*
D03*
X50001Y190001D02*
D03*
Y110001D02*
D03*
X40001Y90001D02*
D03*
X50001Y70001D02*
D03*
X40001Y50001D02*
D03*
X50001Y30001D02*
D03*
X40001Y10001D02*
D03*
X30001Y1270001D02*
D03*
X20001Y1250001D02*
D03*
Y1210001D02*
D03*
Y1170001D02*
D03*
Y1130001D02*
D03*
X30001Y1110001D02*
D03*
X20001Y1090001D02*
D03*
X30001Y1070001D02*
D03*
X20001Y1050001D02*
D03*
X30001Y1030001D02*
D03*
X20001Y1010001D02*
D03*
X30001Y990001D02*
D03*
X20001Y970001D02*
D03*
X30001Y950001D02*
D03*
X20001Y930001D02*
D03*
X30001Y910001D02*
D03*
X20001Y890001D02*
D03*
X30001Y870001D02*
D03*
X20001Y850001D02*
D03*
X30001Y830001D02*
D03*
X20001Y810001D02*
D03*
X30001Y790001D02*
D03*
X20001Y770001D02*
D03*
X30001Y750001D02*
D03*
X20001Y730001D02*
D03*
X30001Y710001D02*
D03*
X20001Y690001D02*
D03*
X30001Y670001D02*
D03*
X20001Y650001D02*
D03*
X30001Y630001D02*
D03*
X20001Y610001D02*
D03*
X30001Y590001D02*
D03*
X20001Y570001D02*
D03*
X30001Y550001D02*
D03*
X20001Y530001D02*
D03*
X30001Y510001D02*
D03*
X20001Y490001D02*
D03*
X30001Y470001D02*
D03*
X20001Y450001D02*
D03*
X30001Y430001D02*
D03*
X20001Y410001D02*
D03*
X30001Y390001D02*
D03*
X20001Y370001D02*
D03*
X30001Y350001D02*
D03*
X20001Y330001D02*
D03*
X30001Y310001D02*
D03*
X20001Y290001D02*
D03*
X30001Y270001D02*
D03*
X20001Y250001D02*
D03*
X30001Y230001D02*
D03*
X20001Y210001D02*
D03*
Y170001D02*
D03*
X30001Y150001D02*
D03*
Y110001D02*
D03*
X20001Y90001D02*
D03*
X30001Y70001D02*
D03*
X20001Y50001D02*
D03*
X30001Y30001D02*
D03*
X20001Y10001D02*
D03*
D41*
X187280Y976498D02*
D03*
X184366Y966369D02*
D03*
Y955829D02*
D03*
Y945289D02*
D03*
Y934749D02*
D03*
Y924209D02*
D03*
Y913669D02*
D03*
Y903129D02*
D03*
Y892589D02*
D03*
X184685Y882054D02*
D03*
X187037Y871780D02*
D03*
X215634Y887345D02*
D03*
Y897885D02*
D03*
Y908425D02*
D03*
Y918965D02*
D03*
Y929505D02*
D03*
Y940045D02*
D03*
Y950585D02*
D03*
Y961125D02*
D03*
X215003Y971646D02*
D03*
X210198Y981027D02*
D03*
X1130971Y1321862D02*
D03*
X1122147Y1316098D02*
D03*
X1114067Y1309329D02*
D03*
X1106845Y1301652D02*
D03*
X1100583Y1293175D02*
D03*
X1095367Y1284016D02*
D03*
X1091326Y1274281D02*
D03*
X1088416Y1264151D02*
D03*
X1086782Y1253738D02*
D03*
X1086392Y1243205D02*
D03*
X1087251Y1232700D02*
D03*
X1089348Y1222371D02*
D03*
X1092653Y1212362D02*
D03*
X1097119Y1202815D02*
D03*
X1102684Y1193864D02*
D03*
X1109269Y1185635D02*
D03*
X1116783Y1178243D02*
D03*
X1125119Y1171793D02*
D03*
X1140931Y1198910D02*
D03*
X1133066Y1205926D02*
D03*
X1126571Y1214227D02*
D03*
X1121823Y1223637D02*
D03*
X1118789Y1233731D02*
D03*
X1117650Y1244209D02*
D03*
X1118525Y1254713D02*
D03*
X1121219Y1264903D02*
D03*
X1125778Y1274406D02*
D03*
X1132018Y1282900D02*
D03*
X1139643Y1290177D02*
D03*
X1148530Y1295844D02*
D03*
X1199458Y1296895D02*
D03*
X1208506Y1291489D02*
D03*
X1216473Y1284588D02*
D03*
X1223029Y1276336D02*
D03*
X1227914Y1266996D02*
D03*
X1231095Y1256947D02*
D03*
X1232311Y1246478D02*
D03*
X1231590Y1235963D02*
D03*
X1229045Y1225734D02*
D03*
X1224556Y1216198D02*
D03*
X1218441Y1207613D02*
D03*
X1210910Y1200239D02*
D03*
X1202076Y1194491D02*
D03*
X1192374Y1190371D02*
D03*
X1182070Y1188153D02*
D03*
X1172304Y1184188D02*
D03*
X1164669Y1176922D02*
D03*
X1159366Y1156847D02*
D03*
Y1146307D02*
D03*
Y1135767D02*
D03*
Y1125227D02*
D03*
Y1114687D02*
D03*
Y1104147D02*
D03*
Y1093607D02*
D03*
Y1083067D02*
D03*
Y1072527D02*
D03*
Y1061987D02*
D03*
Y1051447D02*
D03*
Y1040907D02*
D03*
Y1030367D02*
D03*
Y1019827D02*
D03*
Y1009287D02*
D03*
Y998747D02*
D03*
Y988207D02*
D03*
Y977667D02*
D03*
Y967127D02*
D03*
Y956587D02*
D03*
Y946047D02*
D03*
Y935507D02*
D03*
Y924967D02*
D03*
Y914427D02*
D03*
Y903887D02*
D03*
Y893347D02*
D03*
Y882807D02*
D03*
Y872267D02*
D03*
Y861727D02*
D03*
Y851187D02*
D03*
Y840647D02*
D03*
Y830107D02*
D03*
Y819567D02*
D03*
Y809027D02*
D03*
Y798487D02*
D03*
Y787947D02*
D03*
Y777407D02*
D03*
Y766867D02*
D03*
Y756327D02*
D03*
Y745787D02*
D03*
Y735247D02*
D03*
Y724707D02*
D03*
Y714166D02*
D03*
Y703626D02*
D03*
Y693086D02*
D03*
Y682546D02*
D03*
Y672007D02*
D03*
Y661467D02*
D03*
Y650927D02*
D03*
Y640387D02*
D03*
Y629846D02*
D03*
Y619306D02*
D03*
Y608766D02*
D03*
Y598226D02*
D03*
Y587686D02*
D03*
Y577146D02*
D03*
Y566606D02*
D03*
Y556066D02*
D03*
Y545526D02*
D03*
Y534986D02*
D03*
Y524446D02*
D03*
Y513906D02*
D03*
Y503366D02*
D03*
Y492826D02*
D03*
Y482286D02*
D03*
Y471746D02*
D03*
Y461206D02*
D03*
Y450666D02*
D03*
Y440126D02*
D03*
Y429586D02*
D03*
Y419046D02*
D03*
Y408506D02*
D03*
Y397966D02*
D03*
Y387426D02*
D03*
Y376886D02*
D03*
Y366346D02*
D03*
Y355806D02*
D03*
Y345266D02*
D03*
Y334726D02*
D03*
Y324186D02*
D03*
Y313646D02*
D03*
Y303106D02*
D03*
Y292566D02*
D03*
Y282026D02*
D03*
Y271486D02*
D03*
Y260946D02*
D03*
Y250406D02*
D03*
Y239866D02*
D03*
Y229326D02*
D03*
Y218786D02*
D03*
Y208246D02*
D03*
Y197706D02*
D03*
Y187166D02*
D03*
Y176626D02*
D03*
Y166086D02*
D03*
Y155546D02*
D03*
Y145006D02*
D03*
Y134466D02*
D03*
Y123926D02*
D03*
Y113386D02*
D03*
Y102846D02*
D03*
Y92306D02*
D03*
Y81766D02*
D03*
Y71226D02*
D03*
X1190634Y72189D02*
D03*
Y82729D02*
D03*
Y93268D02*
D03*
Y103808D02*
D03*
Y114348D02*
D03*
Y124888D02*
D03*
Y135429D02*
D03*
Y145969D02*
D03*
Y156509D02*
D03*
Y167049D02*
D03*
Y177589D02*
D03*
Y188129D02*
D03*
Y198669D02*
D03*
Y209209D02*
D03*
Y219749D02*
D03*
Y230289D02*
D03*
Y240829D02*
D03*
Y251369D02*
D03*
Y261909D02*
D03*
Y272449D02*
D03*
Y282989D02*
D03*
Y293529D02*
D03*
Y304069D02*
D03*
Y314609D02*
D03*
Y325149D02*
D03*
Y335689D02*
D03*
Y346229D02*
D03*
Y356769D02*
D03*
Y367309D02*
D03*
Y377849D02*
D03*
Y388389D02*
D03*
Y398929D02*
D03*
Y409469D02*
D03*
Y420009D02*
D03*
Y430549D02*
D03*
Y441089D02*
D03*
Y451629D02*
D03*
Y462169D02*
D03*
Y472709D02*
D03*
Y483249D02*
D03*
Y493789D02*
D03*
Y504329D02*
D03*
Y514869D02*
D03*
Y525409D02*
D03*
Y535949D02*
D03*
Y546489D02*
D03*
Y557029D02*
D03*
Y567569D02*
D03*
Y578109D02*
D03*
Y588649D02*
D03*
Y599189D02*
D03*
Y609729D02*
D03*
Y620269D02*
D03*
Y630809D02*
D03*
Y641349D02*
D03*
Y651889D02*
D03*
Y662429D02*
D03*
Y672969D02*
D03*
Y683509D02*
D03*
Y694049D02*
D03*
Y704589D02*
D03*
Y715129D02*
D03*
Y725669D02*
D03*
Y736209D02*
D03*
Y746749D02*
D03*
Y757289D02*
D03*
Y767829D02*
D03*
Y778369D02*
D03*
Y788909D02*
D03*
Y799449D02*
D03*
Y809989D02*
D03*
Y820529D02*
D03*
Y831069D02*
D03*
Y841609D02*
D03*
Y852149D02*
D03*
Y862689D02*
D03*
Y873229D02*
D03*
Y883769D02*
D03*
Y894309D02*
D03*
Y904849D02*
D03*
Y915389D02*
D03*
Y925929D02*
D03*
Y936469D02*
D03*
Y947009D02*
D03*
Y957549D02*
D03*
Y968089D02*
D03*
Y978629D02*
D03*
Y989169D02*
D03*
Y999709D02*
D03*
Y1010249D02*
D03*
Y1020789D02*
D03*
Y1031329D02*
D03*
Y1041869D02*
D03*
Y1052409D02*
D03*
Y1062949D02*
D03*
Y1073489D02*
D03*
Y1084029D02*
D03*
Y1094569D02*
D03*
Y1105109D02*
D03*
Y1115649D02*
D03*
Y1126189D02*
D03*
Y1136730D02*
D03*
Y1147270D02*
D03*
X1190714Y1157809D02*
D03*
X1200954Y1160306D02*
D03*
X1210834Y1163977D02*
D03*
X1220210Y1168791D02*
D03*
X1228951Y1174681D02*
D03*
X1236933Y1181564D02*
D03*
X1244045Y1189344D02*
D03*
X1250140Y1197942D02*
D03*
X1255203Y1207186D02*
D03*
X1259099Y1216980D02*
D03*
X1261808Y1227166D02*
D03*
X1263293Y1237601D02*
D03*
X1263532Y1248138D02*
D03*
X1262523Y1258630D02*
D03*
X1260278Y1268928D02*
D03*
X1256830Y1278888D02*
D03*
X1252226Y1288370D02*
D03*
X1246533Y1297240D02*
D03*
X1239829Y1305373D02*
D03*
X1232210Y1312656D02*
D03*
X1223783Y1318986D02*
D03*
X1214665Y1324274D02*
D03*
X812582Y1361370D02*
D03*
X802410Y1358606D02*
D03*
X792424Y1355236D02*
D03*
X782658Y1351271D02*
D03*
X773148Y1346726D02*
D03*
X763952Y1341576D02*
D03*
X755162Y1335759D02*
D03*
X746738Y1329425D02*
D03*
X738710Y1322596D02*
D03*
X731107Y1315296D02*
D03*
X723980Y1307531D02*
D03*
X717430Y1299273D02*
D03*
X711419Y1290615D02*
D03*
X705940Y1281611D02*
D03*
X701012Y1272294D02*
D03*
X696654Y1262698D02*
D03*
X693005Y1252809D02*
D03*
X690015Y1242702D02*
D03*
X687639Y1232433D02*
D03*
X685884Y1222040D02*
D03*
X684758Y1211561D02*
D03*
X684344Y1201029D02*
D03*
X684677Y1190494D02*
D03*
X685643Y1179999D02*
D03*
X687238Y1169580D02*
D03*
X689457Y1159276D02*
D03*
X692318Y1149132D02*
D03*
X695941Y1139234D02*
D03*
X700152Y1129572D02*
D03*
X704936Y1120180D02*
D03*
X710277Y1111094D02*
D03*
X716155Y1102345D02*
D03*
X722680Y1094067D02*
D03*
X729710Y1086215D02*
D03*
X737200Y1078799D02*
D03*
X745123Y1071848D02*
D03*
X753449Y1065385D02*
D03*
X762213Y1059529D02*
D03*
X771353Y1054280D02*
D03*
X780792Y1049589D02*
D03*
X790496Y1045475D02*
D03*
X797177Y1076463D02*
D03*
X787655Y1080984D02*
D03*
X778517Y1086237D02*
D03*
X769820Y1092190D02*
D03*
X761615Y1098807D02*
D03*
X753955Y1106046D02*
D03*
X746885Y1113864D02*
D03*
X740451Y1122212D02*
D03*
X734690Y1131038D02*
D03*
X729639Y1140289D02*
D03*
X725328Y1149907D02*
D03*
X721785Y1159834D02*
D03*
X719031Y1170007D02*
D03*
X717082Y1180366D02*
D03*
X715952Y1190845D02*
D03*
X715647Y1201381D02*
D03*
X716168Y1211908D02*
D03*
X717513Y1222362D02*
D03*
X719673Y1232678D02*
D03*
X722635Y1242793D02*
D03*
X726381Y1252645D02*
D03*
X730888Y1262173D02*
D03*
X736127Y1271318D02*
D03*
X742068Y1280025D02*
D03*
X748672Y1288239D02*
D03*
X755900Y1295910D02*
D03*
X763707Y1302991D02*
D03*
X772046Y1309438D02*
D03*
X780863Y1315212D02*
D03*
X790107Y1320277D02*
D03*
X799718Y1324602D02*
D03*
X809640Y1328160D02*
D03*
X819809Y1330930D02*
D03*
X882481Y1330383D02*
D03*
X892600Y1327436D02*
D03*
X902458Y1323705D02*
D03*
X911993Y1319213D02*
D03*
X921146Y1313987D02*
D03*
X929862Y1308061D02*
D03*
X938086Y1301469D02*
D03*
X945769Y1294253D02*
D03*
X952862Y1286456D02*
D03*
X959322Y1278129D02*
D03*
X965110Y1269320D02*
D03*
X970189Y1260084D02*
D03*
X974529Y1250479D02*
D03*
X978103Y1240564D02*
D03*
X980889Y1230398D02*
D03*
X982869Y1220046D02*
D03*
X984032Y1209570D02*
D03*
X984370Y1199036D02*
D03*
X983881Y1188507D02*
D03*
X982569Y1178049D02*
D03*
X980441Y1167726D02*
D03*
X977511Y1157602D02*
D03*
X973795Y1147738D02*
D03*
X969319Y1138196D02*
D03*
X964108Y1129034D02*
D03*
X958195Y1120309D02*
D03*
X951617Y1112074D02*
D03*
X944413Y1104380D02*
D03*
X936629Y1097274D02*
D03*
X928311Y1090800D02*
D03*
X919512Y1084998D02*
D03*
X910285Y1079903D02*
D03*
X900687Y1075547D02*
D03*
X890778Y1071957D02*
D03*
X880617Y1069155D02*
D03*
X870144Y1067963D02*
D03*
X859997Y1065114D02*
D03*
X850821Y1059928D02*
D03*
X843323Y1052521D02*
D03*
X837917Y1043473D02*
D03*
X834904Y1033372D02*
D03*
X834366Y1022846D02*
D03*
Y1012306D02*
D03*
Y1001766D02*
D03*
Y991226D02*
D03*
Y980686D02*
D03*
Y970146D02*
D03*
Y959606D02*
D03*
Y949066D02*
D03*
Y938526D02*
D03*
Y927986D02*
D03*
Y917446D02*
D03*
Y906906D02*
D03*
Y896366D02*
D03*
Y885826D02*
D03*
Y875286D02*
D03*
Y864746D02*
D03*
Y854206D02*
D03*
Y843666D02*
D03*
Y833126D02*
D03*
Y822586D02*
D03*
Y812046D02*
D03*
Y801506D02*
D03*
Y790966D02*
D03*
Y780426D02*
D03*
Y769886D02*
D03*
Y759346D02*
D03*
Y748806D02*
D03*
Y738266D02*
D03*
Y727726D02*
D03*
Y717186D02*
D03*
Y706646D02*
D03*
Y696106D02*
D03*
Y685566D02*
D03*
Y675026D02*
D03*
Y664486D02*
D03*
Y653946D02*
D03*
Y643406D02*
D03*
Y632866D02*
D03*
Y622326D02*
D03*
Y611786D02*
D03*
Y601246D02*
D03*
Y590705D02*
D03*
Y580165D02*
D03*
Y569626D02*
D03*
Y559086D02*
D03*
Y548545D02*
D03*
Y538005D02*
D03*
Y527466D02*
D03*
Y516926D02*
D03*
Y506385D02*
D03*
Y495845D02*
D03*
Y485305D02*
D03*
Y474765D02*
D03*
Y464225D02*
D03*
Y453685D02*
D03*
Y443145D02*
D03*
Y432605D02*
D03*
Y422065D02*
D03*
Y411525D02*
D03*
Y400985D02*
D03*
Y390445D02*
D03*
Y379905D02*
D03*
Y369365D02*
D03*
Y358825D02*
D03*
Y348285D02*
D03*
Y337745D02*
D03*
Y327205D02*
D03*
Y316665D02*
D03*
Y306125D02*
D03*
Y295585D02*
D03*
Y285045D02*
D03*
Y274505D02*
D03*
Y263965D02*
D03*
Y253425D02*
D03*
Y242885D02*
D03*
Y232345D02*
D03*
Y221805D02*
D03*
Y211265D02*
D03*
Y200725D02*
D03*
Y190185D02*
D03*
Y179645D02*
D03*
Y169105D02*
D03*
Y158565D02*
D03*
Y148025D02*
D03*
Y137485D02*
D03*
Y126945D02*
D03*
Y116405D02*
D03*
Y105865D02*
D03*
Y95325D02*
D03*
Y84785D02*
D03*
Y74245D02*
D03*
X865634Y69200D02*
D03*
Y79740D02*
D03*
Y90280D02*
D03*
Y100820D02*
D03*
Y111360D02*
D03*
Y121900D02*
D03*
Y132440D02*
D03*
Y142980D02*
D03*
Y153520D02*
D03*
Y164060D02*
D03*
Y174600D02*
D03*
Y185140D02*
D03*
Y195680D02*
D03*
Y206220D02*
D03*
Y216760D02*
D03*
Y227300D02*
D03*
Y237840D02*
D03*
Y248380D02*
D03*
Y258920D02*
D03*
Y269460D02*
D03*
Y280000D02*
D03*
Y290540D02*
D03*
Y301080D02*
D03*
Y311620D02*
D03*
Y322160D02*
D03*
Y332700D02*
D03*
Y343240D02*
D03*
Y353780D02*
D03*
Y364320D02*
D03*
Y374860D02*
D03*
Y385400D02*
D03*
Y395940D02*
D03*
Y406480D02*
D03*
Y417020D02*
D03*
Y427560D02*
D03*
Y438100D02*
D03*
Y448640D02*
D03*
Y459180D02*
D03*
Y469720D02*
D03*
Y480260D02*
D03*
Y490800D02*
D03*
Y501340D02*
D03*
Y511880D02*
D03*
Y522420D02*
D03*
Y532960D02*
D03*
Y543500D02*
D03*
Y554040D02*
D03*
Y564580D02*
D03*
Y575120D02*
D03*
Y585660D02*
D03*
Y596200D02*
D03*
Y606740D02*
D03*
Y617280D02*
D03*
Y627820D02*
D03*
Y638360D02*
D03*
Y648900D02*
D03*
Y659440D02*
D03*
Y669980D02*
D03*
Y680520D02*
D03*
Y691060D02*
D03*
Y701600D02*
D03*
Y712140D02*
D03*
Y722680D02*
D03*
Y733220D02*
D03*
Y743760D02*
D03*
Y754300D02*
D03*
Y764840D02*
D03*
Y775380D02*
D03*
Y785920D02*
D03*
Y796460D02*
D03*
Y807000D02*
D03*
Y817540D02*
D03*
Y828080D02*
D03*
Y838620D02*
D03*
Y849160D02*
D03*
Y859700D02*
D03*
Y870240D02*
D03*
Y880780D02*
D03*
Y891320D02*
D03*
Y901860D02*
D03*
Y912400D02*
D03*
Y922940D02*
D03*
Y933480D02*
D03*
Y944020D02*
D03*
Y954560D02*
D03*
Y965100D02*
D03*
Y975640D02*
D03*
Y986180D02*
D03*
Y996721D02*
D03*
Y1007261D02*
D03*
Y1017801D02*
D03*
X865798Y1028339D02*
D03*
X872523Y1036455D02*
D03*
X882983Y1037748D02*
D03*
X893242Y1040168D02*
D03*
X903336Y1043200D02*
D03*
X913219Y1046863D02*
D03*
X922804Y1051247D02*
D03*
X932100Y1056214D02*
D03*
X941081Y1061730D02*
D03*
X949714Y1067777D02*
D03*
X957968Y1074333D02*
D03*
X965707Y1081487D02*
D03*
X972976Y1089120D02*
D03*
X979771Y1097177D02*
D03*
X986070Y1105628D02*
D03*
X991850Y1114442D02*
D03*
X997000Y1123638D02*
D03*
X1001505Y1133166D02*
D03*
X1005430Y1142949D02*
D03*
X1008758Y1152949D02*
D03*
X1011479Y1163132D02*
D03*
X1013535Y1173469D02*
D03*
X1014823Y1183931D02*
D03*
X1015479Y1194450D02*
D03*
X1015501Y1204990D02*
D03*
X1014889Y1215512D02*
D03*
X1013612Y1225975D02*
D03*
X1011589Y1236319D02*
D03*
X1008910Y1246513D02*
D03*
X1005623Y1256527D02*
D03*
X1001739Y1266326D02*
D03*
X997274Y1275873D02*
D03*
X992124Y1285069D02*
D03*
X986381Y1293907D02*
D03*
X980118Y1302384D02*
D03*
X973355Y1310469D02*
D03*
X966119Y1318132D02*
D03*
X958379Y1325287D02*
D03*
X950153Y1331876D02*
D03*
X941545Y1337959D02*
D03*
X932588Y1343513D02*
D03*
X923312Y1348519D02*
D03*
X913740Y1352931D02*
D03*
X903861Y1356606D02*
D03*
X893780Y1359681D02*
D03*
X883531Y1362143D02*
D03*
X80129Y1085762D02*
D03*
X355623Y1256527D02*
D03*
X35812Y1221429D02*
D03*
X303289Y1285915D02*
D03*
X612523Y1258630D02*
D03*
X39848Y1242109D02*
D03*
X161977Y1361249D02*
D03*
X341850Y1114442D02*
D03*
X104649Y1335417D02*
D03*
X540634Y1115649D02*
D03*
X351739Y1266326D02*
D03*
X347274Y1275873D02*
D03*
X286061Y1096826D02*
D03*
X509366Y1093080D02*
D03*
Y1103620D02*
D03*
X549954Y1296682D02*
D03*
X499000Y1296104D02*
D03*
X361589Y1236319D02*
D03*
X467406Y1177687D02*
D03*
X233531Y1362143D02*
D03*
X127995Y1086586D02*
D03*
X103963Y1065042D02*
D03*
X87653Y1078381D02*
D03*
X81207Y1262743D02*
D03*
X560481Y1199912D02*
D03*
X99118Y1288722D02*
D03*
X512039Y1030185D02*
D03*
X272804Y1051247D02*
D03*
X268878Y1084643D02*
D03*
X215634Y1007177D02*
D03*
X540634Y1136730D02*
D03*
X334342Y1198332D02*
D03*
X363535Y1173469D02*
D03*
X146608Y1076725D02*
D03*
X509366Y1072000D02*
D03*
X447523Y1202083D02*
D03*
X570210Y1168791D02*
D03*
X160282Y1328342D02*
D03*
X271715Y1313608D02*
D03*
X358910Y1246513D02*
D03*
X364889Y1215512D02*
D03*
X323355Y1310469D02*
D03*
X596533Y1297240D02*
D03*
X37519Y1231830D02*
D03*
X573783Y1318986D02*
D03*
X453168Y1193182D02*
D03*
X192816Y1051912D02*
D03*
X280400Y1307636D02*
D03*
X170465Y1331060D02*
D03*
X71611Y1160449D02*
D03*
X75107Y1150506D02*
D03*
X150343Y1324833D02*
D03*
X514369Y1176472D02*
D03*
X96254Y1329044D02*
D03*
X499542Y1329837D02*
D03*
X263740Y1352931D02*
D03*
X540634Y1147270D02*
D03*
X296236Y1293747D02*
D03*
X489642Y1326221D02*
D03*
X34701Y1189879D02*
D03*
X509366Y1114160D02*
D03*
X184753Y1032604D02*
D03*
X463448Y1308776D02*
D03*
X540634Y1094569D02*
D03*
X318970Y1137573D02*
D03*
X141847Y1355023D02*
D03*
X450114Y1292497D02*
D03*
X441042Y1273509D02*
D03*
X482373Y1283298D02*
D03*
X229898Y1069012D02*
D03*
X122611Y1346425D02*
D03*
X541856Y1190221D02*
D03*
X471467Y1315615D02*
D03*
X521864Y1183882D02*
D03*
X132100Y1351013D02*
D03*
X122596Y1309806D02*
D03*
X564665Y1324274D02*
D03*
X560834Y1163977D02*
D03*
X509366Y1040380D02*
D03*
X471424Y1265398D02*
D03*
X347000Y1123638D02*
D03*
X69849Y1233303D02*
D03*
X351505Y1133167D02*
D03*
X121890Y1053979D02*
D03*
X184366Y1011531D02*
D03*
X35715Y1179388D02*
D03*
X490081Y1290487D02*
D03*
X330118Y1302384D02*
D03*
X482708Y1206327D02*
D03*
X307751Y1119745D02*
D03*
X320480Y1259453D02*
D03*
X586933Y1181564D02*
D03*
X468615Y1255239D02*
D03*
X330248Y1167043D02*
D03*
X80688Y1314843D02*
D03*
X436439Y1242376D02*
D03*
X288591Y1301003D02*
D03*
X342124Y1285069D02*
D03*
X582341Y1245943D02*
D03*
X66244Y1212550D02*
D03*
X329771Y1097177D02*
D03*
X141074Y1045262D02*
D03*
X363612Y1225975D02*
D03*
X315449Y1268715D02*
D03*
X594045Y1189344D02*
D03*
X582210Y1312656D02*
D03*
X467620Y1244746D02*
D03*
X331025Y1229712D02*
D03*
X531539Y1188065D02*
D03*
X65672Y1202025D02*
D03*
X365479Y1194450D02*
D03*
X581185Y1256419D02*
D03*
X558944Y1291179D02*
D03*
X324770Y1249826D02*
D03*
X151818Y1358439D02*
D03*
X336381Y1293907D02*
D03*
X65927Y1191488D02*
D03*
X222536Y1036347D02*
D03*
X60619Y1110582D02*
D03*
X92474Y1280540D02*
D03*
X67639Y1222997D02*
D03*
X262588Y1318880D02*
D03*
X609099Y1216980D02*
D03*
X436736Y1252912D02*
D03*
X540634Y1105109D02*
D03*
X277709Y1090397D02*
D03*
X361479Y1163132D02*
D03*
X332431Y1177355D02*
D03*
X468699Y1234262D02*
D03*
X111152Y1099235D02*
D03*
X232983Y1037748D02*
D03*
X55639Y1281075D02*
D03*
X307968Y1074333D02*
D03*
X187605Y1042750D02*
D03*
X611808Y1227166D02*
D03*
X119326Y1092580D02*
D03*
X509366Y1050920D02*
D03*
X200240Y1059394D02*
D03*
X540714Y1157809D02*
D03*
X323497Y1147091D02*
D03*
X456294Y1301035D02*
D03*
X291546Y1337959D02*
D03*
X131351Y1049332D02*
D03*
X113435Y1341239D02*
D03*
X605204Y1207186D02*
D03*
X606830Y1278888D02*
D03*
X103526Y1106510D02*
D03*
X578839Y1225238D02*
D03*
X96493Y1114361D02*
D03*
X308379Y1325287D02*
D03*
X509366Y1082540D02*
D03*
X471618Y1224134D02*
D03*
X39625Y1158684D02*
D03*
X42792Y1252230D02*
D03*
X253336Y1043200D02*
D03*
X309706Y1277553D02*
D03*
X95607Y1071466D02*
D03*
X42512Y1148547D02*
D03*
X540634Y1062949D02*
D03*
X84379Y1131593D02*
D03*
X581500Y1235436D02*
D03*
X300153Y1331877D02*
D03*
X76654Y1253237D02*
D03*
X313710Y1128439D02*
D03*
X316119Y1318132D02*
D03*
X243242Y1040168D02*
D03*
X509366Y1061460D02*
D03*
X578119Y1266503D02*
D03*
X259624Y1079598D02*
D03*
X439579Y1221569D02*
D03*
X72860Y1243403D02*
D03*
X184366Y1022071D02*
D03*
X476037Y1274874D02*
D03*
X240073Y1071759D02*
D03*
X333798Y1187806D02*
D03*
X106384Y1296358D02*
D03*
X459827Y1185012D02*
D03*
X315707Y1081487D02*
D03*
X509366Y1124700D02*
D03*
X613293Y1237601D02*
D03*
X90098Y1122739D02*
D03*
X538807Y1031489D02*
D03*
X215634Y996637D02*
D03*
X301129Y1111545D02*
D03*
X184566Y990452D02*
D03*
X215783Y1028255D02*
D03*
X568083Y1207213D02*
D03*
X79372Y1140867D02*
D03*
X358758Y1152949D02*
D03*
X610278Y1268928D02*
D03*
X46154Y1138656D02*
D03*
X67007Y1181004D02*
D03*
X540634Y1052409D02*
D03*
X490492Y1199221D02*
D03*
X438277Y1263338D02*
D03*
X73062Y1093582D02*
D03*
X250002Y1075295D02*
D03*
X540634Y1073489D02*
D03*
X282100Y1056214D02*
D03*
X46440Y1262118D02*
D03*
X88257Y1322178D02*
D03*
X114226Y1303400D02*
D03*
X61077Y1290103D02*
D03*
X578951Y1174681D02*
D03*
X327264Y1156935D02*
D03*
X551604Y1194230D02*
D03*
X573340Y1275898D02*
D03*
X509366Y1145780D02*
D03*
X364823Y1183931D02*
D03*
X50409Y1129013D02*
D03*
X574295Y1215727D02*
D03*
X442972Y1211590D02*
D03*
X112727Y1059186D02*
D03*
X540634Y1084029D02*
D03*
X243238Y1327201D02*
D03*
X253861Y1356606D02*
D03*
X282588Y1343513D02*
D03*
X613532Y1248138D02*
D03*
X540634Y1126189D02*
D03*
X263219Y1046863D02*
D03*
X550954Y1160306D02*
D03*
X355429Y1142949D02*
D03*
X299714Y1067777D02*
D03*
X73573Y1307066D02*
D03*
X540634Y1041869D02*
D03*
X602226Y1288370D02*
D03*
X50754Y1271735D02*
D03*
X476283Y1214682D02*
D03*
X131442Y1315536D02*
D03*
X566831Y1284188D02*
D03*
X140710Y1320556D02*
D03*
X209323Y1064742D02*
D03*
X589829Y1305373D02*
D03*
X68906Y1170636D02*
D03*
X55237Y1119644D02*
D03*
X219440Y1067698D02*
D03*
X137108Y1081290D02*
D03*
X34733Y1210944D02*
D03*
X322976Y1089120D02*
D03*
X273312Y1348519D02*
D03*
X184366Y1000991D02*
D03*
X332951Y1219350D02*
D03*
X328292Y1239892D02*
D03*
X365501Y1204990D02*
D03*
X66537Y1101860D02*
D03*
X86491Y1271863D02*
D03*
X509366Y1156320D02*
D03*
X34319Y1200412D02*
D03*
X291081Y1061730D02*
D03*
X37358Y1168977D02*
D03*
X600140Y1197942D02*
D03*
X334059Y1208868D02*
D03*
X554986Y1328446D02*
D03*
X509366Y1135240D02*
D03*
X445018Y1283271D02*
D03*
X67048Y1298789D02*
D03*
X215634Y1017717D02*
D03*
X253076Y1323420D02*
D03*
X233133Y1330199D02*
D03*
X243780Y1359681D02*
D03*
X336071Y1105628D02*
D03*
X437391Y1231879D02*
D03*
X293884Y1103890D02*
D03*
X480240Y1321458D02*
D03*
X806748Y1076796D02*
D03*
X818725Y1075628D02*
D03*
X829664Y1068957D02*
D03*
X834595Y1058267D02*
D03*
X823825Y1032072D02*
D03*
X811903Y1028374D02*
D03*
X799229Y1031205D02*
D03*
X513749Y888261D02*
D03*
X509447Y878640D02*
D03*
X509366Y868100D02*
D03*
Y857560D02*
D03*
Y847020D02*
D03*
Y836480D02*
D03*
Y825940D02*
D03*
Y815400D02*
D03*
Y804860D02*
D03*
Y794320D02*
D03*
Y783780D02*
D03*
Y773240D02*
D03*
Y762700D02*
D03*
Y752160D02*
D03*
Y741620D02*
D03*
Y731080D02*
D03*
Y720540D02*
D03*
Y710000D02*
D03*
Y699460D02*
D03*
Y688920D02*
D03*
Y678380D02*
D03*
Y667840D02*
D03*
Y657300D02*
D03*
Y646760D02*
D03*
Y636220D02*
D03*
Y625680D02*
D03*
Y615140D02*
D03*
Y604600D02*
D03*
Y594059D02*
D03*
Y583520D02*
D03*
Y572980D02*
D03*
Y562439D02*
D03*
Y551899D02*
D03*
Y541359D02*
D03*
Y530820D02*
D03*
Y520280D02*
D03*
Y509739D02*
D03*
Y499199D02*
D03*
Y488659D02*
D03*
Y478119D02*
D03*
Y467579D02*
D03*
Y457039D02*
D03*
Y446499D02*
D03*
Y435959D02*
D03*
Y425419D02*
D03*
Y414879D02*
D03*
Y404339D02*
D03*
Y393799D02*
D03*
Y383259D02*
D03*
Y372719D02*
D03*
Y362179D02*
D03*
Y351639D02*
D03*
Y341099D02*
D03*
Y330559D02*
D03*
Y320019D02*
D03*
Y309479D02*
D03*
Y298939D02*
D03*
Y288399D02*
D03*
Y277859D02*
D03*
Y267319D02*
D03*
Y256779D02*
D03*
Y246239D02*
D03*
Y235699D02*
D03*
Y225159D02*
D03*
Y214619D02*
D03*
Y204079D02*
D03*
Y193539D02*
D03*
Y182999D02*
D03*
Y172459D02*
D03*
Y161919D02*
D03*
Y151379D02*
D03*
Y140839D02*
D03*
Y130299D02*
D03*
Y119759D02*
D03*
Y109219D02*
D03*
Y98679D02*
D03*
Y88139D02*
D03*
Y77599D02*
D03*
X508299Y67629D02*
D03*
X540634Y76427D02*
D03*
Y86966D02*
D03*
Y97507D02*
D03*
Y108047D02*
D03*
Y118587D02*
D03*
Y129127D02*
D03*
Y139667D02*
D03*
Y150206D02*
D03*
Y160746D02*
D03*
Y171287D02*
D03*
Y181827D02*
D03*
Y192367D02*
D03*
Y202907D02*
D03*
Y213447D02*
D03*
Y223987D02*
D03*
Y234527D02*
D03*
Y245067D02*
D03*
Y255607D02*
D03*
Y266147D02*
D03*
Y276687D02*
D03*
Y287227D02*
D03*
Y297767D02*
D03*
Y308307D02*
D03*
Y318847D02*
D03*
Y329387D02*
D03*
Y339927D02*
D03*
Y350467D02*
D03*
Y361007D02*
D03*
Y371547D02*
D03*
Y382087D02*
D03*
Y392627D02*
D03*
Y403167D02*
D03*
Y413707D02*
D03*
Y424247D02*
D03*
Y434787D02*
D03*
Y445327D02*
D03*
Y455867D02*
D03*
Y466407D02*
D03*
Y476947D02*
D03*
Y487487D02*
D03*
Y498027D02*
D03*
Y508567D02*
D03*
Y519107D02*
D03*
Y529647D02*
D03*
Y540187D02*
D03*
Y550727D02*
D03*
Y561267D02*
D03*
Y571807D02*
D03*
Y582347D02*
D03*
Y592887D02*
D03*
Y603427D02*
D03*
Y613967D02*
D03*
Y624507D02*
D03*
Y635047D02*
D03*
Y645587D02*
D03*
Y656127D02*
D03*
Y666667D02*
D03*
Y677207D02*
D03*
Y687747D02*
D03*
Y698287D02*
D03*
Y708827D02*
D03*
Y719367D02*
D03*
Y729907D02*
D03*
Y740447D02*
D03*
Y750987D02*
D03*
Y761527D02*
D03*
Y772067D02*
D03*
Y782607D02*
D03*
Y793147D02*
D03*
Y803687D02*
D03*
Y814227D02*
D03*
Y824767D02*
D03*
Y835307D02*
D03*
Y845847D02*
D03*
Y856387D02*
D03*
Y866927D02*
D03*
Y877467D02*
D03*
X537045Y887377D02*
D03*
X511021Y933595D02*
D03*
X509366Y922793D02*
D03*
X540634Y903887D02*
D03*
Y914427D02*
D03*
Y924967D02*
D03*
X509366Y1012061D02*
D03*
Y1001521D02*
D03*
Y990981D02*
D03*
Y980441D02*
D03*
Y969901D02*
D03*
X510461Y959418D02*
D03*
X540603Y964767D02*
D03*
X540634Y975307D02*
D03*
Y985847D02*
D03*
Y996387D02*
D03*
Y1006927D02*
D03*
Y1017467D02*
D03*
X149573Y1033651D02*
D03*
X162248Y1030819D02*
D03*
X174169Y1034517D02*
D03*
X184939Y1060712D02*
D03*
X180008Y1071402D02*
D03*
X169069Y1078073D02*
D03*
X157092Y1079241D02*
D03*
X184546Y789397D02*
D03*
X184366Y778859D02*
D03*
Y768319D02*
D03*
Y757779D02*
D03*
Y747239D02*
D03*
Y736699D02*
D03*
Y726159D02*
D03*
Y715619D02*
D03*
Y705079D02*
D03*
Y694539D02*
D03*
Y683999D02*
D03*
Y673459D02*
D03*
Y662919D02*
D03*
Y652379D02*
D03*
Y641839D02*
D03*
Y631299D02*
D03*
Y620759D02*
D03*
Y610219D02*
D03*
Y599679D02*
D03*
Y589139D02*
D03*
Y578599D02*
D03*
Y568059D02*
D03*
Y557519D02*
D03*
Y546979D02*
D03*
Y536439D02*
D03*
Y525899D02*
D03*
Y515359D02*
D03*
Y504819D02*
D03*
Y494279D02*
D03*
Y483739D02*
D03*
Y473199D02*
D03*
Y462659D02*
D03*
Y452119D02*
D03*
Y441579D02*
D03*
Y431039D02*
D03*
Y420499D02*
D03*
Y409959D02*
D03*
Y399419D02*
D03*
Y388879D02*
D03*
Y378339D02*
D03*
Y367799D02*
D03*
Y357259D02*
D03*
Y346719D02*
D03*
Y336179D02*
D03*
Y325639D02*
D03*
Y315099D02*
D03*
Y304559D02*
D03*
Y294018D02*
D03*
Y283479D02*
D03*
Y272938D02*
D03*
Y262398D02*
D03*
Y251859D02*
D03*
Y241318D02*
D03*
Y230779D02*
D03*
Y220238D02*
D03*
Y209699D02*
D03*
Y199158D02*
D03*
Y188618D02*
D03*
Y178078D02*
D03*
Y167538D02*
D03*
Y156998D02*
D03*
Y146458D02*
D03*
Y135918D02*
D03*
Y125378D02*
D03*
Y114838D02*
D03*
Y104298D02*
D03*
Y93758D02*
D03*
Y83218D02*
D03*
Y72678D02*
D03*
X215634Y70746D02*
D03*
Y81287D02*
D03*
Y91827D02*
D03*
Y102367D02*
D03*
Y112907D02*
D03*
Y123447D02*
D03*
Y133987D02*
D03*
Y144527D02*
D03*
Y155067D02*
D03*
Y165607D02*
D03*
Y176147D02*
D03*
Y186687D02*
D03*
Y197227D02*
D03*
Y207767D02*
D03*
Y218307D02*
D03*
Y228847D02*
D03*
Y239387D02*
D03*
Y249927D02*
D03*
Y260467D02*
D03*
Y271007D02*
D03*
Y281547D02*
D03*
Y292087D02*
D03*
Y302627D02*
D03*
Y313167D02*
D03*
Y323707D02*
D03*
Y334247D02*
D03*
Y344787D02*
D03*
Y355327D02*
D03*
Y365867D02*
D03*
Y376407D02*
D03*
Y386947D02*
D03*
Y397487D02*
D03*
Y408027D02*
D03*
Y418567D02*
D03*
Y429107D02*
D03*
Y439647D02*
D03*
Y450187D02*
D03*
Y460727D02*
D03*
Y471267D02*
D03*
Y481807D02*
D03*
Y492347D02*
D03*
Y502887D02*
D03*
Y513427D02*
D03*
Y523967D02*
D03*
Y534507D02*
D03*
Y545047D02*
D03*
Y555587D02*
D03*
Y566127D02*
D03*
Y576667D02*
D03*
Y587207D02*
D03*
Y597747D02*
D03*
Y608287D02*
D03*
Y618827D02*
D03*
Y629367D02*
D03*
Y639907D02*
D03*
Y650447D02*
D03*
Y660987D02*
D03*
Y671527D02*
D03*
Y682067D02*
D03*
Y692607D02*
D03*
Y703147D02*
D03*
Y713687D02*
D03*
Y724227D02*
D03*
Y734767D02*
D03*
Y745307D02*
D03*
Y755847D02*
D03*
Y766387D02*
D03*
Y776927D02*
D03*
Y787467D02*
D03*
X212045Y797377D02*
D03*
D42*
X1145123Y1176675D02*
D03*
X812500Y1052500D02*
D03*
X494255Y1178733D02*
D03*
X161004Y1055158D02*
D03*
M02*
