G75*
%MOIN*%
%OFA0B0*%
%FSLAX25Y25*%
%IPPOS*%
%LPD*%
%AMOC8*
5,1,8,0,0,1.08239X$1,22.5*
%
%ADD10OC8,0.07100*%
%ADD11OC8,0.06400*%
%ADD12C,0.08477*%
%ADD13C,0.05950*%
%ADD14OC8,0.06000*%
%ADD15C,0.05200*%
%ADD16C,0.06540*%
%ADD17C,0.09855*%
D10*
X0029454Y0012998D03*
X0029454Y0033395D03*
X0029454Y0053011D03*
X0068007Y0053011D03*
X0066629Y0012998D03*
X0103075Y0012998D03*
X0133020Y0012998D03*
X0188951Y0038376D03*
X0188951Y0070330D03*
X0188951Y0104286D03*
X0188951Y0120582D03*
D11*
X0170204Y0119529D03*
X0170124Y0101177D03*
X0170045Y0082825D03*
X0140045Y0082825D03*
X0140124Y0101177D03*
X0140204Y0119529D03*
X0099374Y0137070D03*
X0080363Y0117510D03*
X0062405Y0100929D03*
X0045799Y0115254D03*
X0069374Y0137070D03*
X0076964Y0156556D03*
X0076964Y0186556D03*
X0045799Y0145254D03*
X0015628Y0150393D03*
X0015628Y0120393D03*
X0062405Y0070929D03*
X0080363Y0087510D03*
X0127940Y0161556D03*
X0127940Y0191556D03*
D12*
X0012470Y0012121D03*
X0012470Y0029035D03*
X0046297Y0029417D03*
X0067713Y0040139D03*
X0084965Y0039608D03*
X0102483Y0039608D03*
X0117102Y0012121D03*
X0148952Y0012121D03*
X0162488Y0012121D03*
X0175228Y0012121D03*
X0187172Y0012121D03*
X0187172Y0022438D03*
X0187172Y0053853D03*
X0187172Y0086801D03*
X0134037Y0135351D03*
X0116834Y0149066D03*
X0103773Y0149385D03*
X0091348Y0149704D03*
X0111737Y0135989D03*
X0091667Y0117171D03*
X0092941Y0084320D03*
X0081543Y0075650D03*
X0049135Y0087488D03*
X0034935Y0073288D03*
X0034935Y0101688D03*
X0053946Y0109447D03*
X0057460Y0134654D03*
X0048859Y0174204D03*
X0091867Y0187558D03*
X0012470Y0108298D03*
X0084722Y0012121D03*
X0187172Y0149645D03*
X0187172Y0161764D03*
X0187172Y0174750D03*
X0187172Y0187558D03*
X0174815Y0187558D03*
D13*
X0114559Y0111736D03*
X0114559Y0098350D03*
X0100189Y0091657D03*
X0100189Y0105043D03*
X0100189Y0118429D03*
D14*
X0060204Y0146607D03*
X0034915Y0171677D03*
X0029915Y0164177D03*
X0024915Y0171677D03*
X0009915Y0186610D03*
X0030036Y0151444D03*
X0049915Y0186610D03*
X0060204Y0186607D03*
X0030036Y0111444D03*
D15*
X0092445Y0171606D03*
X0102445Y0181606D03*
X0102445Y0161606D03*
X0101902Y0075413D03*
X0111902Y0065413D03*
X0101902Y0055413D03*
D16*
X0143482Y0148151D02*
X0149222Y0148151D01*
X0149222Y0157994D02*
X0143482Y0157994D01*
X0143482Y0165868D02*
X0149222Y0165868D01*
X0149222Y0175710D02*
X0143482Y0175710D01*
D17*
X0157021Y0187797D03*
X0157021Y0136065D03*
M02*
