%
M48
M72
T01C0.02400
T02C0.03150
T03C0.03200
T04C0.03600
T05C0.03740
T06C0.05118
T07C0.09055
%
T01
X92445Y171606
X102445Y181606
X102445Y161606
X111902Y65413
X101902Y55413
X101902Y75413
T02
X100189Y105043
X100189Y91657
X100189Y118429
X114559Y111736
X114559Y98350
T03
X24915Y171677
X30036Y151444
X29915Y164177
X34915Y171677
X49915Y186610
X30036Y111444
X60204Y146607
X9915Y186610
X60204Y186607
T04
X15628Y150393
X45799Y145254
X15628Y120393
X29454Y12998
X29454Y33395
X29454Y53011
X66629Y12998
X68007Y53011
X45799Y115254
X62405Y100929
X69374Y137070
X76964Y156556
X76964Y186556
X99374Y137070
X133020Y12998
X103075Y12998
X62405Y70929
X80363Y87510
X140124Y101177
X140045Y82825
X80363Y117510
X140204Y119529
X170124Y101177
X127940Y191556
X127940Y161556
X170204Y119529
X188951Y104286
X188951Y120582
X170045Y82825
X188951Y38376
X188951Y70330
T05
X146352Y157994
X146352Y165868
X146352Y148151
X146352Y175710
T06
X84722Y12121
X12470Y12121
X12470Y108298
X48859Y174204
X57460Y134654
X46297Y29417
X34935Y73288
X49135Y87488
X34935Y101688
X53946Y109447
X91348Y149704
X91867Y187558
X103773Y149385
X111737Y135989
X117102Y12121
X84965Y39608
X67713Y40139
X81543Y75650
X102483Y39608
X92941Y84320
X91667Y117171
X162488Y12121
X175228Y12121
X187172Y12121
X187172Y22438
X134037Y135351
X116834Y149066
X174815Y187558
X187172Y174750
X187172Y187558
X187172Y161764
X187172Y149645
X187172Y53853
X187172Y86801
X148952Y12121
X12470Y29035
T07
X157021Y187797
X157021Y136065
M30
